<?xml version="1.0" standalone="no"?><!-- Generator: Adobe Fireworks CS6, Export SVG Extension by Aaron Beall (http://fireworks.abeall.com) . Version: 0.6.1  --><!DOCTYPE svg PUBLIC "-//W3C//DTD SVG 1.1//EN" "http://www.w3.org/Graphics/SVG/1.1/DTD/svg11.dtd"><svg id="fb.fw-Page%201" viewBox="0 0 24 24" style="background-color:#ffffff00" version="1.1"	xmlns="http://www.w3.org/2000/svg" xmlns:xlink="http://www.w3.org/1999/xlink" xml:space="preserve"	x="0px" y="0px" width="24px" height="24px">	<g id="socials">		<g id="facebook">			<path d="M 0 0 L 24 0 L 24 24 L 0 24 L 0 0 Z" fill="#3b5998"/>			<path d="M 18.7927 5.0005 L 16.5563 5.0005 C 16.5563 5.0005 13.0994 4.8757 13.0994 8.4548 C 13.0994 9.2204 13.0994 9.6866 13.0994 9.6866 L 11.8029 9.6966 L 11.7927 12.4754 L 13.1122 12.4654 L 13.0994 20 L 16.3622 20 L 16.375 12.4654 L 18.3028 12.4822 L 18.7554 9.7034 L 16.375 9.7034 L 16.375 8.5575 C 16.375 8.5575 16.1708 7.5895 17.3501 7.5895 L 18.7698 7.5895 L 18.7927 5.0005 Z" fill="#ffffff"/>		</g>	</g></svg>