<?xml version="1.0" standalone="no"?>
<!DOCTYPE svg PUBLIC "-//W3C//DTD SVG 1.1//EN" "http://www.w3.org/Graphics/SVG/1.1/DTD/svg11.dtd" >
<svg>
<metadata>
Created by FontForge 20110222 at Sat Nov 17 04:16:54 2012
 By Stefan Warting
 The digitally encoded machine readable software for producing the
 Typefaces licensed to you is copyrighted (c) 1991, 1992, 2002 Adobe Systems.
 All Rights Reserved. This software is the property of Adobe Systems
 Incorporated and its licensors, and may not be reproduced, used, 
 displayed, modified, disclosed or transferred without the express 
 written approval of Adobe.
 
 The digitally encoded machine readable outline data for producing the Typefaces 
 provided as part of your laser printer is copyrighted (c) 1981, 2002 Heidelberger Druckmaschinen AG. 
 All rights reserved. This data is the property of Heidelberger Druckmaschinen AG, 
 and may not be reproduced, used, displayed, modified, disclosed or transferred 
 without the express written approval of Heidelberger Druckmaschinen AG. 
</metadata>
<defs>
<font id="CaeciliaLTStd-Heavy" horiz-adv-x="332" >
  <font-face 
    font-family="Caecilia LT Std"
    font-weight="850"
    font-stretch="normal"
    units-per-em="1000"
    panose-1="0 0 9 0 0 0 0 0 0 0"
    ascent="769"
    descent="-231"
    x-height="523"
    cap-height="700"
    bbox="-170 -277 1146 970"
    underline-thickness="50"
    underline-position="-50"
    stemh="102"
    stemv="140"
    unicode-range="U+0020-FB02"
  />
<missing-glyph horiz-adv-x="500" 
d="M0 0v700h500v-700h-500zM250 395l170 255h-340zM280 350l170 -255v510zM80 50h340l-170 255zM50 605v-510l170 255z" />
    <glyph glyph-name="f_i" unicode="fi" horiz-adv-x="648" 
d="M408 102v319h-172v-319h63v-102h-257v102h54v319h-66v102h66c0 155 33 261 244 261c30 0 82 -6 120 -15v-99c-39 8 -74 12 -102 12c-102 0 -122 -51 -122 -120v-39h312v-421h60v-102h-257v102h57z" />
    <glyph glyph-name="f_l" unicode="fl" horiz-adv-x="667" 
d="M426 102v571c-21 6 -44 9 -68 9c-102 0 -122 -51 -122 -120v-39h110v-102h-110v-319h63v-102h-257v102h54v319h-66v102h66c0 155 33 261 227 261c32 0 78 -6 106 -15h137v-667h54v-102h-251v102h57z" />
    <glyph glyph-name=".notdef" horiz-adv-x="500" 
d="M0 0v700h500v-700h-500zM250 395l170 255h-340zM280 350l170 -255v510zM80 50h340l-170 255zM50 605v-510l170 255z" />
    <glyph glyph-name="space" unicode=" " horiz-adv-x="296" 
 />
    <glyph glyph-name="exclam" unicode="!" horiz-adv-x="296" 
d="M81 224l-12 545h158l-12 -545h-134zM54 73c0 59 41 90 94 90s94 -31 94 -90c0 -50 -34 -90 -94 -90s-94 40 -94 90z" />
    <glyph glyph-name="quotedbl" unicode="&#x22;" horiz-adv-x="333" 
d="M138 722c0 -44 -14 -226 -18 -272c-3 -41 -20 -52 -45 -52s-42 11 -45 52c-4 46 -18 228 -18 272c0 33 24 62 63 62s63 -29 63 -62zM321 722c0 -44 -14 -226 -18 -272c-3 -41 -20 -52 -45 -52s-42 11 -45 52c-4 46 -18 228 -18 272c0 33 24 62 63 62s63 -29 63 -62z" />
    <glyph glyph-name="numbersign" unicode="#" horiz-adv-x="592" 
d="M338 289l17 122h-102l-17 -122h102zM367 497l27 203h90l-27 -203h86v-86h-98l-16 -122h85v-86h-97l-27 -203h-90l27 203h-102l-28 -203h-90l28 203h-86v86h98l16 122h-85v86h97l27 203h90l-27 -203h102z" />
    <glyph glyph-name="dollar" unicode="$" horiz-adv-x="592" 
d="M245 102v196c-143 19 -228 71 -228 200c0 125 87 206 228 219v134h96v-134c67 0 132 -12 194 -31v-171h-120v79c-21 8 -50 15 -74 15v-183c136 -20 234 -64 234 -210c0 -161 -141 -226 -234 -228v-134h-96v134c-89 1 -177 15 -225 32v188h140v-91c26 -7 52 -13 85 -15z
M245 441v168c-58 -10 -88 -46 -88 -91c0 -51 44 -69 88 -77zM341 282v-180c54 4 102 43 102 98c0 40 -26 74 -102 82z" />
    <glyph glyph-name="percent" unicode="%" horiz-adv-x="815" 
d="M263 558c0 43 -18 79 -65 79c-50 0 -68 -40 -68 -85c0 -41 17 -78 65 -78c53 0 68 46 68 84zM365 559c0 -107 -79 -165 -171 -165c-111 0 -166 61 -166 161c0 104 79 162 171 162c121 0 166 -84 166 -158zM685 147c0 43 -18 79 -65 79c-50 0 -68 -40 -68 -85
c0 -41 17 -78 65 -78c53 0 68 46 68 84zM787 148c0 -107 -79 -165 -171 -165c-111 0 -166 61 -166 161c0 104 79 162 171 162c121 0 166 -84 166 -158zM157 -14l421 772l80 -44l-421 -772z" />
    <glyph glyph-name="ampersand" unicode="&#x26;" horiz-adv-x="741" 
d="M485 343v96h224v-96h-54c-4 -79 -28 -143 -73 -199c22 -27 50 -42 89 -42c11 0 25 2 35 3v-103c-17 0 -36 -2 -53 -2c-78 0 -105 9 -146 57c-64 -55 -121 -74 -211 -74c-146 0 -249 82 -249 207c0 95 57 152 139 200c-64 69 -84 107 -84 158c0 92 81 164 202 164
c122 0 179 -69 179 -153c0 -60 -34 -119 -131 -177l157 -164c21 29 38 80 38 125h-62zM369 553c0 45 -35 63 -72 63c-36 0 -75 -19 -75 -68c0 -28 22 -61 61 -93c37 15 86 50 86 98zM433 133l-176 183c-49 -27 -78 -68 -78 -113c0 -50 43 -112 145 -112c34 0 70 9 109 42z
" />
    <glyph glyph-name="quoteright" unicode="&#x2019;" horiz-adv-x="296" 
d="M103 398l-65 62c66 52 80 89 80 124c0 51 -55 68 -55 118c0 51 37 82 85 82c73 0 110 -70 110 -138c0 -102 -54 -182 -155 -248z" />
    <glyph glyph-name="parenleft" unicode="(" horiz-adv-x="296" 
d="M230 795l95 -59c-99 -153 -146 -323 -146 -497c0 -144 29 -282 135 -458l-102 -58c-136 196 -179 358 -179 522c0 196 57 364 197 550z" />
    <glyph glyph-name="parenright" unicode=")" horiz-adv-x="296" 
d="M66 -277l-95 59c99 153 146 323 146 497c0 144 -29 282 -135 458l102 58c136 -196 179 -358 179 -522c0 -196 -57 -364 -197 -550z" />
    <glyph glyph-name="asterisk" unicode="*" horiz-adv-x="370" 
d="M162 655l-23 114h92l-23 -114l2 -2l86 80l45 -80l-110 -36v-2l109 -37l-46 -79l-84 79l-2 -2l22 -115h-90l22 115l-2 2l-84 -79l-46 79l109 37v2l-110 36l45 80l86 -80z" />
    <glyph glyph-name="plus" unicode="+" horiz-adv-x="600" 
d="M246 307v199h108v-199h199v-108h-199v-199h-108v199h-199v108h199z" />
    <glyph glyph-name="comma" unicode="," horiz-adv-x="296" 
d="M87 -223l-65 62c66 52 80 89 80 124c0 51 -55 68 -55 118c0 51 37 82 85 82c73 0 110 -70 110 -138c0 -102 -54 -182 -155 -248z" />
    <glyph glyph-name="hyphen" unicode="-" horiz-adv-x="426" 
d="M67 238v120h292v-120h-292z" />
    <glyph glyph-name="period" unicode="." horiz-adv-x="296" 
d="M54 73c0 59 41 90 94 90s94 -31 94 -90c0 -50 -34 -90 -94 -90s-94 40 -94 90z" />
    <glyph glyph-name="slash" unicode="/" horiz-adv-x="352" 
d="M-22 -48l295 832l101 -36l-295 -832z" />
    <glyph glyph-name="zero" unicode="0" horiz-adv-x="592" 
d="M29 331c0 292 136 386 280 386c152 0 254 -122 254 -367c0 -249 -130 -367 -276 -367c-136 0 -258 78 -258 348zM181 343c0 -184 38 -246 116 -246c56 0 114 50 114 253c0 213 -58 253 -112 253c-61 0 -118 -56 -118 -260z" />
    <glyph glyph-name="one" unicode="1" horiz-adv-x="592" 
d="M119 0v102h135v466c-12 -10 -22 -19 -35 -28l-121 -81l-57 92l252 149h107v-598h137v-102h-418z" />
    <glyph glyph-name="two" unicode="2" horiz-adv-x="592" 
d="M24 0v96c76 53 362 272 362 411c0 72 -57 96 -98 96c-72 0 -113 -52 -120 -118h-140c0 80 55 232 266 232c107 0 238 -53 238 -203c0 -141 -140 -270 -309 -404v-2c23 3 50 6 72 6h258v-114h-529z" />
    <glyph glyph-name="three" unicode="3" horiz-adv-x="592" 
d="M185 311v96c130 0 178 63 178 122c0 48 -37 80 -90 80c-59 0 -111 -42 -111 -102h-140c0 93 82 210 260 210c133 0 227 -69 227 -177c0 -83 -59 -156 -144 -168v-2c91 -2 172 -57 172 -169c0 -74 -41 -218 -297 -218c-96 0 -160 15 -216 42v135c70 -39 144 -57 205 -57
c105 0 162 38 162 105c0 89 -109 103 -206 103z" />
    <glyph glyph-name="four" unicode="4" horiz-adv-x="592" 
d="M335 296v276h-2l-185 -279c13 2 26 3 39 3h148zM335 102v86h-320v108l279 404h181v-404h122v-108h-122v-86h69v-102h-277v102h68z" />
    <glyph glyph-name="five" unicode="5" horiz-adv-x="592" 
d="M75 348v352h431v-102h-291v-142c128 0 321 -35 321 -220c0 -154 -107 -253 -296 -253c-68 0 -134 14 -183 31v114c33 -16 118 -31 179 -31c112 0 154 58 154 120c0 97 -86 130 -315 131z" />
    <glyph glyph-name="six" unicode="6" horiz-adv-x="592" 
d="M430 224c0 77 -55 121 -119 121c-45 0 -90 -22 -121 -55c0 -144 59 -193 128 -193c95 0 112 89 112 127zM543 697l-9 -109c-44 16 -90 27 -127 27c-156 0 -207 -123 -220 -228l2 -2c41 45 95 68 163 68c106 0 210 -73 210 -218c0 -115 -68 -252 -245 -252
c-155 0 -273 105 -273 332c0 234 115 402 355 402c52 0 93 -3 144 -20z" />
    <glyph glyph-name="seven" unicode="7" horiz-adv-x="592" 
d="M50 586v114h493v-88l-246 -493c-20 -41 -44 -81 -71 -119h-158c29 42 55 83 78 126l213 402c11 21 22 38 40 58h-349z" />
    <glyph glyph-name="eight" unicode="8" horiz-adv-x="592" 
d="M51 530c0 105 92 187 257 187c181 0 240 -98 240 -177c0 -94 -52 -139 -141 -175v-2c95 -25 161 -89 161 -181c0 -152 -134 -199 -280 -199c-123 0 -264 42 -264 184c0 89 61 155 167 187v2c-99 29 -140 97 -140 174zM408 529c0 54 -44 80 -109 80
c-64 0 -108 -34 -108 -85c0 -47 38 -76 110 -107c79 40 107 66 107 112zM428 185c0 47 -30 79 -137 116c-79 -29 -121 -67 -121 -117c0 -47 42 -93 126 -93s132 44 132 94z" />
    <glyph glyph-name="nine" unicode="9" horiz-adv-x="592" 
d="M162 476c0 -77 55 -121 119 -121c45 0 90 22 121 55c0 144 -59 193 -128 193c-95 0 -112 -89 -112 -127zM49 3l9 109c44 -16 90 -27 127 -27c156 0 207 123 220 228l-2 2c-41 -45 -95 -68 -163 -68c-106 0 -210 73 -210 218c0 115 68 252 245 252
c155 0 273 -105 273 -332c0 -234 -115 -402 -355 -402c-52 0 -93 3 -144 20z" />
    <glyph glyph-name="colon" unicode=":" horiz-adv-x="296" 
d="M54 445c0 59 41 90 94 90s94 -31 94 -90c0 -50 -34 -90 -94 -90s-94 40 -94 90zM54 73c0 59 41 90 94 90s94 -31 94 -90c0 -50 -34 -90 -94 -90s-94 40 -94 90z" />
    <glyph glyph-name="semicolon" unicode=";" horiz-adv-x="296" 
d="M87 -223l-65 62c66 52 80 89 80 124c0 51 -55 68 -55 118c0 51 37 82 85 82c73 0 110 -70 110 -138c0 -102 -54 -182 -155 -248zM54 445c0 59 41 90 94 90s94 -31 94 -90c0 -50 -34 -90 -94 -90s-94 40 -94 90z" />
    <glyph glyph-name="less" unicode="&#x3c;" horiz-adv-x="600" 
d="M47 207v92l506 215v-108l-386 -153l386 -153v-108z" />
    <glyph glyph-name="equal" unicode="=" horiz-adv-x="600" 
d="M47 295v108h506v-108h-506zM47 103v108h506v-108h-506z" />
    <glyph glyph-name="greater" unicode="&#x3e;" horiz-adv-x="600" 
d="M433 253l-386 153v108l506 -215v-92l-506 -215v108z" />
    <glyph glyph-name="question" unicode="?" horiz-adv-x="481" 
d="M64 651l-5 111c56 13 112 22 160 22c201 0 247 -118 247 -186c0 -207 -250 -208 -250 -302c0 -15 12 -37 22 -52l-126 -37c-21 29 -36 65 -36 99c0 145 238 133 238 273c0 64 -58 91 -125 91c-38 0 -84 -7 -125 -19zM68 73c0 59 41 90 94 90s94 -31 94 -90
c0 -50 -34 -90 -94 -90s-94 40 -94 90z" />
    <glyph glyph-name="at" unicode="@" horiz-adv-x="800" 
d="M488 389c0 66 -30 93 -79 93c-81 0 -137 -98 -137 -176c0 -59 28 -97 74 -97c84 0 142 109 142 180zM518 480l18 57h71l-68 -244c-11 -39 -16 -58 -16 -67c0 -14 7 -22 33 -22c52 0 116 89 116 198c0 137 -120 230 -256 230c-170 0 -288 -134 -288 -285
c0 -170 131 -279 280 -279c104 0 187 32 240 84h82c-51 -95 -163 -164 -322 -164c-207 0 -370 135 -370 363c0 203 152 361 378 361c197 0 346 -121 346 -298c0 -195 -153 -279 -247 -279c-49 0 -69 25 -70 58h-2c-26 -30 -68 -58 -120 -58c-75 0 -135 62 -135 158
c0 139 104 263 217 263c48 0 87 -25 113 -76z" />
    <glyph glyph-name="A" unicode="A" horiz-adv-x="778" 
d="M461 344l-50 146c-11 31 -21 65 -26 102h-2c-8 -37 -19 -70 -31 -102l-54 -146h163zM543 102l-45 134h-241l-50 -134h67v-102h-260v102h56l246 598h161l231 -598h56v-102h-278v102h57z" />
    <glyph glyph-name="B" unicode="B" horiz-adv-x="648" 
d="M103 102v496h-75v102h269c99 0 151 -4 196 -33c37 -24 73 -68 73 -141c0 -113 -92 -158 -143 -158v-2c97 0 185 -59 185 -173c0 -92 -70 -193 -263 -193h-311v102h69zM249 598v-184h68c60 0 109 33 109 96c0 59 -38 88 -107 88h-70zM249 300v-198h79c85 0 122 46 122 102
c0 54 -42 96 -116 96h-85z" />
    <glyph glyph-name="C" unicode="C" horiz-adv-x="685" 
d="M510 112l6 127h126l-6 -216c-76 -26 -144 -35 -228 -35c-234 0 -374 139 -374 357c0 190 122 367 380 367c89 0 163 -17 231 -41v-195h-126v112c-35 12 -63 16 -99 16c-168 0 -228 -122 -228 -250c0 -106 46 -252 236 -252c20 0 57 2 82 10z" />
    <glyph glyph-name="D" unicode="D" horiz-adv-x="759" 
d="M103 102v496h-75v102h327c234 0 375 -115 375 -335c0 -217 -139 -365 -367 -365h-335v102h75zM249 102h85c118 0 238 67 238 259c0 179 -110 237 -240 237h-83v-496z" />
    <glyph glyph-name="E" unicode="E" horiz-adv-x="593" 
d="M423 102l8 118h120l-8 -220h-503v102h63v496h-75v102h512l6 -206h-120l-6 104h-171v-184h176v-108h-176v-204h174z" />
    <glyph glyph-name="F" unicode="F" horiz-adv-x="574" 
d="M426 494l-6 104h-165v-194h193v-108h-193v-194h79v-102h-288v102h63v496h-75v102h506l6 -206h-120z" />
    <glyph glyph-name="G" unicode="G" horiz-adv-x="722" 
d="M432 238v108h276v-108h-64v-217c-82 -22 -152 -33 -236 -33c-234 0 -374 139 -374 357c0 194 122 367 385 367c114 0 180 -23 235 -42v-195h-126v115c-34 11 -72 14 -99 14c-177 0 -237 -122 -237 -250c0 -106 46 -252 236 -252c30 0 50 2 76 6v130h-72z" />
    <glyph glyph-name="H" unicode="H" horiz-adv-x="778" 
d="M533 404v194h-63v102h272v-102h-63v-496h63v-102h-272v102h63v194h-288v-194h63v-102h-272v102h63v496h-63v102h272v-102h-63v-194h288z" />
    <glyph glyph-name="I" unicode="I" horiz-adv-x="352" 
d="M103 102v496h-63v102h272v-102h-63v-496h63v-102h-272v102h63z" />
    <glyph glyph-name="J" unicode="J" horiz-adv-x="333" 
d="M40 598v102h272v-102h-63v-392c0 -218 -74 -318 -248 -403l-52 101c108 48 154 128 154 320v374h-63z" />
    <glyph glyph-name="K" unicode="K" horiz-adv-x="722" 
d="M40 0v102h63v496h-63v102h272v-102h-63v-223l188 177c27 25 44 38 61 44v2h-74v102h284v-102h-55l-258 -231l270 -265h56v-102h-308v102h82v2c-15 10 -35 24 -48 36l-198 193v-231h63v-102h-272z" />
    <glyph glyph-name="L" unicode="L" horiz-adv-x="574" 
d="M427 102l8 125h121l-10 -227h-500v102h63v496h-63v102h272v-102h-63v-496h172z" />
    <glyph glyph-name="M" unicode="M" horiz-adv-x="963" 
d="M728 102v403h-2c-1 -20 -13 -56 -27 -92l-158 -413h-140l-162 420c-14 36 -27 72 -28 92h-2v-410h73v-102h-248v102h61v496h-73v102h257l180 -465c11 -27 24 -55 28 -95h2c3 40 14 68 35 125l163 435h254v-102h-73v-496h70v-102h-269v102h59z" />
    <glyph glyph-name="N" unicode="N" horiz-adv-x="796" 
d="M38 0v102h65v496h-89v102h203l295 -371c31 -39 50 -67 59 -94h2v363h-64v102h253v-102h-69v-598h-108l-333 418c-17 21 -31 44 -33 54h-2v-370h68v-102h-247z" />
    <glyph glyph-name="O" unicode="O" horiz-adv-x="760" 
d="M34 350c0 191 125 362 346 362c238 0 346 -156 346 -362c0 -197 -101 -362 -346 -362s-346 165 -346 362zM192 350c0 -135 50 -248 188 -248s188 113 188 248s-56 248 -188 248s-188 -113 -188 -248z" />
    <glyph glyph-name="P" unicode="P" horiz-adv-x="611" 
d="M109 102v496h-69v102h289c169 0 256 -70 256 -207c0 -131 -93 -223 -232 -223h-98v-168h69v-102h-284v102h69zM255 372h79c73 0 111 44 111 115c0 72 -43 111 -113 111h-77v-226z" />
    <glyph glyph-name="Q" unicode="Q" horiz-adv-x="760" 
d="M823 -65v-96c-22 -7 -58 -10 -71 -10c-151 0 -346 159 -407 159c-167 0 -311 132 -311 362c0 191 125 362 346 362c238 0 346 -156 346 -362c0 -145 -55 -273 -182 -329v-2c82 -19 157 -88 244 -88c11 0 25 2 35 4zM192 350c0 -135 50 -248 188 -248s188 113 188 248
s-56 248 -188 248s-188 -113 -188 -248z" />
    <glyph glyph-name="R" unicode="R" horiz-adv-x="648" 
d="M103 102v496h-69v102h309c82 0 107 -6 147 -26c63 -31 94 -95 94 -166c0 -104 -87 -178 -165 -181v-2c35 -3 55 -16 90 -74l63 -105c21 -36 38 -44 57 -44h26v-102h-112c-37 0 -63 13 -117 105l-85 146c-14 23 -32 35 -58 35h-34v-184h63v-102h-272v102h63zM249 598v-204
h75c78 0 114 34 114 102s-34 102 -123 102h-66z" />
    <glyph glyph-name="S" unicode="S" horiz-adv-x="630" 
d="M423 508v85c-26 9 -60 17 -94 17c-97 0 -128 -50 -128 -89c0 -51 37 -66 83 -77l84 -21c103 -26 217 -60 217 -205c0 -133 -90 -230 -289 -230c-77 0 -157 8 -251 39v185h146v-92c37 -15 77 -18 118 -18c86 0 124 41 124 94c0 36 -20 62 -114 86l-77 20
c-144 37 -193 93 -193 201c0 111 78 209 276 209c85 0 170 -14 230 -37v-167h-132z" />
    <glyph glyph-name="T" unicode="T" horiz-adv-x="684" 
d="M547 502l-6 96h-126v-496h63v-102h-272v102h63v496h-126l-6 -96h-120l6 198h638l6 -198h-120z" />
    <glyph glyph-name="U" unicode="U" horiz-adv-x="759" 
d="M459 598v102h272v-102h-63v-320c0 -218 -92 -290 -297 -290c-230 0 -280 102 -280 256v354h-63v102h272v-102h-63v-329c0 -102 30 -167 142 -167c93 0 157 33 157 167v329h-77z" />
    <glyph glyph-name="V" unicode="V" horiz-adv-x="759" 
d="M479 598v102h272v-102h-54l-235 -598h-163l-235 598h-56v102h284v-102h-59l137 -400c9 -26 17 -55 21 -84h2c4 29 12 58 21 84l137 400h-72z" />
    <glyph glyph-name="W" unicode="W" horiz-adv-x="1130" 
d="M856 598v102h272v-102h-56l-234 -598h-155l-111 328h-2l-120 -328h-158l-234 598h-56v102h284v-102h-59l137 -400c9 -26 17 -55 21 -84h2c4 29 12 58 21 84l105 302l-36 98h-66v102h278v-102h-63l123 -400c8 -26 16 -55 20 -84h2c4 29 12 58 21 84l137 400h-73z" />
    <glyph glyph-name="X" unicode="X" horiz-adv-x="722" 
d="M445 598v102h242v-102h-51l-193 -230l206 -266h60v-102h-296v102h58v2c-15 10 -24 21 -35 35l-88 116l-99 -117c-11 -13 -25 -27 -38 -34v-2h62v-102h-260v102h58l209 241l-195 255h-58v102h296v-102h-67v-2c14 -7 27 -20 37 -33l84 -109l102 116c9 11 18 19 32 26v2h-66
z" />
    <glyph glyph-name="Y" unicode="Y" horiz-adv-x="741" 
d="M477 598v102h254v-102h-55l-232 -319v-177h63v-102h-271v102h62v176l-233 320h-55v102h278v-102h-56c14 -15 26 -29 37 -45l116 -170l125 171c11 15 23 29 37 44h-70z" />
    <glyph glyph-name="Z" unicode="Z" horiz-adv-x="648" 
d="M37 0v97l351 451c17 22 33 38 48 48v2h-240l-6 -93h-126l6 195h535v-102l-344 -446c-17 -22 -32 -38 -48 -48v-2h265l6 93h127l-8 -195h-566z" />
    <glyph glyph-name="bracketleft" unicode="[" horiz-adv-x="296" 
d="M72 -251v1020h219v-102h-79v-816h84v-102h-224z" />
    <glyph glyph-name="backslash" unicode="\" horiz-adv-x="352" 
d="M273 -84l-295 832l101 36l295 -832z" />
    <glyph glyph-name="bracketright" unicode="]" horiz-adv-x="296" 
d="M84 -149v816h-84v102h224v-1020h-219v102h79z" />
    <glyph glyph-name="asciicircum" unicode="^" horiz-adv-x="600" 
d="M430 335l-130 257l-130 -257h-108l178 365h120l178 -365h-108z" />
    <glyph glyph-name="underscore" unicode="_" horiz-adv-x="500" 
d="M0 -125v50h500v-50h-500z" />
    <glyph glyph-name="quoteleft" unicode="&#x2018;" horiz-adv-x="296" 
d="M193 784l65 -62c-66 -52 -80 -89 -80 -124c0 -51 55 -68 55 -118c0 -51 -37 -82 -85 -82c-73 0 -110 70 -110 138c0 102 54 182 155 248z" />
    <glyph glyph-name="a" unicode="a" horiz-adv-x="593" 
d="M373 308v25c0 79 -33 100 -99 100c-20 0 -63 -6 -87 -15v-70h-120v133c34 19 116 54 209 54c140 0 229 -49 229 -201c0 -86 -3 -158 -5 -232h59v-102h-176v32c0 34 2 52 7 72h-2c-35 -79 -83 -116 -171 -116c-118 0 -175 70 -175 152c0 75 50 124 105 144
c53 19 124 24 226 24zM371 222h-39c-114 0 -150 -24 -150 -69c0 -31 22 -63 77 -63c56 0 112 36 112 132z" />
    <glyph glyph-name="b" unicode="b" horiz-adv-x="611" 
d="M59 32v635h-80v102h220v-205c0 -42 -5 -89 -10 -140h2c31 71 89 111 177 111c115 0 202 -83 202 -239c0 -143 -69 -308 -292 -308c-91 0 -184 23 -219 44zM196 289v-168c19 -10 58 -19 89 -19c101 0 145 85 145 178c0 72 -26 141 -113 141c-93 0 -121 -67 -121 -132z" />
    <glyph glyph-name="c" unicode="c" horiz-adv-x="500" 
d="M351 357v70c-19 4 -31 6 -48 6c-93 0 -132 -85 -132 -157c0 -89 46 -174 166 -174c47 0 90 10 131 29l-8 -118c-51 -19 -87 -25 -157 -25c-178 0 -272 122 -272 273c0 169 108 274 275 274c63 0 117 -10 165 -25v-153h-120z" />
    <glyph glyph-name="d" unicode="d" horiz-adv-x="648" 
d="M409 523v144h-80v102h220v-667h60v-102h-197c0 38 4 68 12 101h-2c-32 -73 -90 -113 -178 -113c-115 0 -213 83 -213 239c0 143 69 308 292 308c24 0 58 -4 86 -12zM405 254v148c-19 10 -58 19 -89 19c-101 0 -139 -80 -139 -161c0 -82 39 -152 107 -152
c74 0 121 66 121 146z" />
    <glyph glyph-name="e" unicode="e" horiz-adv-x="574" 
d="M547 230h-364c4 -83 68 -134 166 -134c67 0 110 11 169 36l-7 -111c-65 -24 -122 -33 -193 -33c-202 0 -287 126 -287 271c0 163 99 276 263 276c180 0 253 -136 253 -305zM182 326h213c0 72 -41 113 -106 113c-64 0 -101 -42 -107 -113z" />
    <glyph glyph-name="f" unicode="f" horiz-adv-x="352" 
d="M88 102v319h-72v102h72v56c0 137 73 205 231 205c27 0 56 -2 100 -11v-102c-22 8 -45 11 -66 11c-90 0 -125 -36 -125 -105v-54h110v-102h-110v-319h75v-102h-275v102h60z" />
    <glyph glyph-name="g" unicode="g" horiz-adv-x="593" 
d="M573 523v-96h-90c16 -20 34 -56 34 -101c0 -123 -104 -180 -220 -180h-50c-17 0 -34 -12 -34 -28c0 -18 11 -25 37 -28l173 -19c90 -10 140 -48 140 -138c0 -76 -61 -196 -276 -196c-212 0 -264 76 -264 140c0 45 22 96 115 118v2c-45 10 -71 30 -71 78
c0 52 50 78 101 87v2c-99 32 -131 97 -131 173c0 121 92 198 235 198c43 0 74 -6 110 -12h191zM169 337c0 -55 41 -89 111 -89c87 0 117 48 117 94c0 55 -49 91 -112 91c-61 0 -116 -27 -116 -96zM362 -47l-149 16c-26 -9 -58 -31 -58 -61c0 -49 56 -69 141 -69
c62 0 135 24 135 72c0 32 -22 37 -69 42z" />
    <glyph glyph-name="h" unicode="h" horiz-adv-x="685" 
d="M96 102v565h-80v102h217v-246c0 -36 0 -70 -8 -108h2c26 69 90 120 181 120c124 0 181 -79 181 -204v-229h60v-102h-257v102h57v215c0 72 -38 98 -91 98c-85 0 -122 -60 -122 -139v-174h60v-102h-257v102h57z" />
    <glyph glyph-name="i" unicode="i" 
d="M96 102v319h-68v102h208v-421h60v-102h-257v102h57zM67 697c0 52 36 87 94 87s94 -35 94 -87s-36 -87 -94 -87s-94 35 -94 87z" />
    <glyph glyph-name="j" unicode="j" horiz-adv-x="333" 
d="M28 421v102h208v-409c0 -254 -102 -360 -296 -377l-16 111c130 26 172 116 172 278v295h-68zM67 697c0 52 36 87 94 87s94 -35 94 -87s-36 -87 -94 -87s-94 35 -94 87z" />
    <glyph glyph-name="k" unicode="k" horiz-adv-x="630" 
d="M48 0v102h57v565h-80v102h220v-469l140 107c7 5 13 9 21 12v2h-72v102h266v-102h-46l-163 -130l175 -189h58v-102h-278v102h55v2c-15 9 -29 21 -44 37l-112 125v-164h48v-102h-245z" />
    <glyph glyph-name="l" unicode="l" horiz-adv-x="314" 
d="M87 102v565h-80v102h220v-667h60v-102h-257v102h57z" />
    <glyph glyph-name="m" unicode="m" horiz-adv-x="1018" 
d="M730 0v102h51v215c0 72 -38 98 -91 98c-68 0 -111 -55 -111 -139v-174h60v-102h-251v102h51v215c0 72 -38 98 -91 98c-74 0 -111 -60 -111 -139v-174h60v-102h-257v102h57v319h-68v102h205c0 -36 0 -70 -8 -106h2c29 76 94 118 181 118c86 0 140 -40 154 -118h2
c25 73 83 118 175 118c124 0 181 -79 181 -204v-229h60v-102h-251z" />
    <glyph glyph-name="n" unicode="n" horiz-adv-x="685" 
d="M96 102v319h-68v102h205c0 -36 0 -70 -8 -108h2c26 69 90 120 181 120c124 0 181 -79 181 -204v-229h60v-102h-257v102h57v215c0 72 -38 98 -91 98c-85 0 -122 -60 -122 -139v-174h60v-102h-251v102h51z" />
    <glyph glyph-name="o" unicode="o" horiz-adv-x="612" 
d="M31 256c0 150 104 279 275 279c176 0 275 -97 275 -279c0 -156 -108 -268 -275 -268s-275 90 -275 268zM183 253c0 -94 37 -151 123 -151s123 57 123 151c0 112 -37 168 -123 168s-123 -73 -123 -168z" />
    <glyph glyph-name="p" unicode="p" horiz-adv-x="648" 
d="M88 -149v570h-80v102h218c1 -33 -4 -66 -9 -99h2c32 71 90 111 178 111c115 0 202 -83 202 -239c0 -143 -69 -308 -292 -308c-23 0 -57 4 -79 9v-146h60v-102h-257v102h57zM225 289v-173c19 -7 58 -14 89 -14c101 0 145 85 145 178c0 72 -26 141 -113 141
c-93 0 -121 -67 -121 -132z" />
    <glyph glyph-name="q" unicode="q" horiz-adv-x="648" 
d="M414 -149v95c0 53 3 112 11 153h-2c-30 -74 -77 -111 -168 -111c-120 0 -212 88 -212 239c0 143 81 308 305 308c78 0 159 -23 206 -44v-640h62v-102h-258v102h56zM417 254v148c-19 10 -58 19 -89 19c-101 0 -139 -80 -139 -161c0 -82 39 -152 107 -152
c74 0 121 66 121 146z" />
    <glyph glyph-name="r" unicode="r" horiz-adv-x="426" 
d="M105 102v319h-68v102h203c0 -36 -2 -71 -9 -120h2c21 88 70 132 150 132c17 0 31 -3 46 -6l-9 -125c-15 3 -31 5 -45 5c-76 0 -130 -52 -130 -138v-169h66v-102h-263v102h57z" />
    <glyph glyph-name="s" unicode="s" horiz-adv-x="537" 
d="M346 371v53c-28 10 -55 15 -81 15c-64 0 -94 -26 -94 -55c0 -25 7 -35 47 -41l110 -16c120 -17 170 -63 170 -158c0 -93 -65 -181 -247 -181c-63 0 -150 13 -206 33v147h126v-61c23 -8 63 -17 93 -17c29 0 102 9 102 64c0 29 -18 44 -79 53l-118 18
c-91 14 -130 64 -130 139c0 129 122 171 230 171c56 0 126 -9 203 -35v-129h-126z" />
    <glyph glyph-name="t" unicode="t" horiz-adv-x="370" 
d="M96 523v108l140 8v-116h140v-102h-140v-233c0 -74 19 -92 77 -92c19 0 42 6 68 16l-5 -99c-52 -18 -88 -25 -122 -25c-103 0 -158 48 -158 140v293h-71v102h71z" />
    <glyph glyph-name="u" unicode="u" horiz-adv-x="667" 
d="M368 421v102h206v-421h61v-102h-196c0 35 0 83 13 108h-2c-33 -83 -91 -120 -181 -120c-119 0 -176 72 -176 183v250h-70v102h210v-293c0 -74 8 -128 92 -128c60 0 109 48 109 131v188h-66z" />
    <glyph glyph-name="v" unicode="v" horiz-adv-x="593" 
d="M351 421v102h250v-102h-48l-179 -421h-152l-182 421h-48v102h258v-102h-49l95 -258c5 -13 8 -25 10 -43h2c2 18 5 30 10 43l92 258h-59z" />
    <glyph glyph-name="w" unicode="w" horiz-adv-x="926" 
d="M674 421v102h250v-102h-48l-181 -421h-146l-70 181c-5 13 -10 26 -12 45h-2c-3 -19 -7 -32 -13 -45l-79 -181h-146l-176 421h-49v102h250v-102h-49c9 -15 17 -35 25 -58l64 -177c7 -20 12 -38 16 -60h2c5 21 14 40 23 61l78 174l-24 60h-56v102h254v-102h-54
c9 -15 17 -35 25 -58l65 -177c9 -24 12 -38 16 -60h2c4 22 7 36 16 60l63 177c8 23 16 43 25 58h-69z" />
    <glyph glyph-name="x" unicode="x" horiz-adv-x="648" 
d="M372 421v102h232v-102h-53l-151 -143l165 -176h55v-102h-275v102h57v2c-8 3 -15 8 -22 15l-70 74l-80 -74c-7 -7 -14 -12 -22 -15v-2h61v-102h-241v102h53l167 156l-154 163h-57v102h276v-102h-55v-2c11 -6 22 -16 31 -25l50 -53l57 53c9 9 20 19 31 25v2h-55z" />
    <glyph glyph-name="y" unicode="y" horiz-adv-x="611" 
d="M367 421v102h234v-102h-48l-161 -432c-74 -200 -135 -252 -265 -252c-21 0 -50 6 -76 12v108c26 -7 55 -12 76 -12c59 0 82 23 131 120l-200 456h-48v102h260v-102h-54c8 -10 14 -23 19 -36l66 -178c10 -28 20 -68 24 -99h2c4 31 14 71 24 99l62 178c5 13 11 26 19 36
h-65z" />
    <glyph glyph-name="z" unicode="z" horiz-adv-x="556" 
d="M40 0v102l274 296c9 10 18 17 26 21v2h-163l-4 -69h-120l4 171h454v-101l-271 -296c-10 -11 -21 -19 -29 -22v-2h180l2 73h123l-8 -175h-468z" />
    <glyph glyph-name="braceleft" unicode="{" horiz-adv-x="296" 
d="M0 221v76c49 2 78 54 78 116v207c0 97 62 149 141 149h81v-74h-27c-44 0 -55 -31 -55 -78v-204c0 -84 -45 -136 -104 -153v-2c59 -17 104 -69 104 -153v-204c0 -47 11 -78 55 -78h27v-74h-81c-79 0 -141 52 -141 149v207c0 62 -29 114 -78 116z" />
    <glyph glyph-name="bar" unicode="|" horiz-adv-x="222" 
d="M57 -250v1000h108v-1000h-108z" />
    <glyph glyph-name="braceright" unicode="}" horiz-adv-x="296" 
d="M296 297v-76c-49 -2 -78 -54 -78 -116v-207c0 -97 -62 -149 -141 -149h-81v74h27c44 0 55 31 55 78v204c0 84 45 136 104 153v2c-59 17 -104 69 -104 153v204c0 47 -11 78 -55 78h-27v74h81c79 0 141 -52 141 -149v-207c0 -62 29 -114 78 -116z" />
    <glyph glyph-name="asciitilde" unicode="~" horiz-adv-x="600" 
d="M105 160l-36 96c29 60 69 85 125 85c38 0 79 -17 116 -34c38 -17 73 -34 97 -34c29 0 55 23 88 73l36 -96c-29 -60 -69 -85 -125 -85c-75 0 -164 68 -213 68c-29 0 -55 -23 -88 -73z" />
    <glyph glyph-name="exclamdown" unicode="&#xa1;" horiz-adv-x="296" 
d="M69 -236l12 545h134l12 -545h-158zM54 460c0 50 34 90 94 90s94 -40 94 -90c0 -59 -41 -90 -94 -90s-94 31 -94 90z" />
    <glyph glyph-name="cent" unicode="&#xa2;" horiz-adv-x="592" 
d="M285 -135v128c-152 19 -234 114 -234 268c0 121 59 249 234 274v95h96v-95c62 -3 110 -12 160 -33v-147h-108v61c-15 8 -34 11 -52 11v-325c56 0 103 9 147 31l-7 -120c-39 -15 -87 -22 -140 -25v-123h-96zM285 113v310c-61 -15 -94 -78 -94 -153c0 -80 34 -138 94 -157z
" />
    <glyph glyph-name="sterling" unicode="&#xa3;" horiz-adv-x="592" 
d="M452 102v123h120v-225h-541v102h78c11 29 21 68 21 127c0 26 -1 51 -5 79h-92v102h86c-2 19 -3 40 -3 71c0 149 80 236 280 236c55 0 117 -10 176 -25v-211h-121v118c-21 7 -45 10 -68 10c-78 0 -127 -46 -127 -128c0 -28 2 -49 3 -71h127v-102h-121c2 -22 5 -47 5 -66
c0 -55 -4 -91 -31 -140h213z" />
    <glyph glyph-name="fraction" unicode="&#x2044;" horiz-adv-x="167" 
d="M-170 -14l421 772l86 -44l-421 -772z" />
    <glyph glyph-name="yen" unicode="&#xa5;" horiz-adv-x="592" 
d="M189 0v102h49v67h-160v86h160v24l-17 29h-143v86h93l-119 204h-44v102h222v-102h-45c12 -15 21 -29 30 -45l94 -170l98 171c9 15 19 29 31 44h-56v102h202v-102h-44l-119 -204h94v-86h-143l-17 -29v-24h160v-86h-160v-67h50v-102h-216z" />
    <glyph glyph-name="florin" unicode="&#x192;" horiz-adv-x="592" 
d="M109 296v102h93c10 193 48 319 257 319c28 0 78 -6 100 -11l-9 -100c-28 6 -52 9 -68 9c-105 0 -134 -55 -143 -217h115v-102h-123l-18 -241c-15 -188 -106 -250 -231 -250c-28 0 -65 6 -84 14l7 101c21 -3 41 -7 62 -7c79 0 105 66 115 203l13 180h-86z" />
    <glyph glyph-name="section" unicode="&#xa7;" horiz-adv-x="592" 
d="M381 529v68c-24 10 -54 13 -71 13c-52 0 -104 -22 -104 -66c0 -32 13 -42 75 -67l87 -35c81 -33 167 -73 167 -166c0 -74 -34 -118 -95 -150c51 -26 88 -74 88 -138c0 -104 -83 -195 -254 -195c-104 0 -167 20 -217 40v155h132v-69c26 -11 59 -18 94 -18
c50 0 105 19 105 70c0 30 -9 41 -113 83l-87 35c-97 39 -131 73 -131 148c0 74 40 125 98 155c-56 30 -89 57 -89 138c0 131 116 182 249 182c80 0 166 -25 192 -39v-144h-126zM291 188l70 -25c30 17 48 45 48 75c0 27 -15 49 -75 73l-93 38c-43 -24 -53 -51 -53 -78
c0 -43 30 -57 103 -83z" />
    <glyph glyph-name="currency" unicode="&#xa4;" horiz-adv-x="592" 
d="M440 552l59 59l62 -62l-60 -60c28 -40 43 -87 43 -139s-15 -99 -43 -139l60 -60l-62 -62l-59 59c-41 -29 -91 -46 -144 -46s-103 17 -144 46l-59 -59l-62 62l60 60c-28 40 -43 87 -43 139s15 99 43 139l-60 60l62 62l59 -59c41 29 91 46 144 46s103 -17 144 -46zM436 350
c0 89 -63 146 -140 146s-140 -57 -140 -146s63 -146 140 -146s140 57 140 146z" />
    <glyph glyph-name="quotesingle" unicode="'" horiz-adv-x="222" 
d="M174 722c0 -44 -14 -226 -18 -272c-3 -41 -20 -52 -45 -52s-42 11 -45 52c-4 46 -18 228 -18 272c0 33 24 62 63 62s63 -29 63 -62z" />
    <glyph glyph-name="quotedblleft" unicode="&#x201c;" horiz-adv-x="537" 
d="M188 784l65 -62c-66 -52 -80 -89 -80 -124c0 -51 55 -68 55 -118c0 -51 -37 -82 -85 -82c-73 0 -110 70 -110 138c0 102 54 182 155 248zM439 784l65 -62c-66 -52 -80 -89 -80 -124c0 -51 55 -68 55 -118c0 -51 -37 -82 -85 -82c-73 0 -110 70 -110 138
c0 102 54 182 155 248z" />
    <glyph glyph-name="guillemotleft" unicode="&#xab;" horiz-adv-x="556" 
d="M31 259v78l135 158l99 -83l-103 -114l103 -114l-99 -83zM291 259v78l135 158l99 -83l-103 -114l103 -114l-99 -83z" />
    <glyph glyph-name="guilsinglleft" unicode="&#x2039;" horiz-adv-x="296" 
d="M31 259v78l135 158l99 -83l-103 -114l103 -114l-99 -83z" />
    <glyph glyph-name="guilsinglright" unicode="&#x203a;" horiz-adv-x="296" 
d="M134 298l-103 114l99 83l135 -158v-78l-135 -158l-99 83z" />
    <glyph glyph-name="endash" unicode="&#x2013;" horiz-adv-x="500" 
d="M0 244v108h500v-108h-500z" />
    <glyph glyph-name="dagger" unicode="&#x2020;" horiz-adv-x="592" 
d="M226 492v208h140v-208h210v-102h-210v-585h-140v585h-210v102h210z" />
    <glyph glyph-name="daggerdbl" unicode="&#x2021;" horiz-adv-x="592" 
d="M226 150v219h-200v102h200v229h140v-229h200v-102h-200v-219h200v-102h-200v-243h-140v243h-200v102h200z" />
    <glyph glyph-name="periodcentered" unicode="&#xb7;" horiz-adv-x="296" 
d="M64 266c0 46 38 84 84 84s84 -38 84 -84s-38 -84 -84 -84s-84 38 -84 84z" />
    <glyph glyph-name="paragraph" unicode="&#xb6;" horiz-adv-x="600" 
d="M393 -195v827h-88v-827h-102v522c-103 0 -188 77 -188 183c0 136 94 190 233 190h247v-895h-102z" />
    <glyph glyph-name="bullet" unicode="&#x2022;" horiz-adv-x="500" 
d="M75 350c0 97 78 175 175 175s175 -78 175 -175s-78 -175 -175 -175s-175 78 -175 175z" />
    <glyph glyph-name="quotesinglbase" unicode="&#x201a;" horiz-adv-x="296" 
d="M103 -223l-65 62c66 52 80 89 80 124c0 51 -55 68 -55 118c0 51 37 82 85 82c73 0 110 -70 110 -138c0 -102 -54 -182 -155 -248z" />
    <glyph glyph-name="quotedblbase" unicode="&#x201e;" horiz-adv-x="537" 
d="M98 -223l-65 62c66 52 80 89 80 124c0 51 -55 68 -55 118c0 51 37 82 85 82c73 0 110 -70 110 -138c0 -102 -54 -182 -155 -248zM349 -223l-65 62c66 52 80 89 80 124c0 51 -55 68 -55 118c0 51 37 82 85 82c73 0 110 -70 110 -138c0 -102 -54 -182 -155 -248z" />
    <glyph glyph-name="quotedblright" unicode="&#x201d;" horiz-adv-x="537" 
d="M349 398l-65 62c66 52 80 89 80 124c0 51 -55 68 -55 118c0 51 37 82 85 82c73 0 110 -70 110 -138c0 -102 -54 -182 -155 -248zM98 398l-65 62c66 52 80 89 80 124c0 51 -55 68 -55 118c0 51 37 82 85 82c73 0 110 -70 110 -138c0 -102 -54 -182 -155 -248z" />
    <glyph glyph-name="guillemotright" unicode="&#xbb;" horiz-adv-x="556" 
d="M134 298l-103 114l99 83l135 -158v-78l-135 -158l-99 83zM394 298l-103 114l99 83l135 -158v-78l-135 -158l-99 83z" />
    <glyph glyph-name="ellipsis" unicode="&#x2026;" horiz-adv-x="1000" 
d="M73 73c0 59 41 90 94 90s94 -31 94 -90c0 -50 -34 -90 -94 -90s-94 40 -94 90zM406 73c0 59 41 90 94 90s94 -31 94 -90c0 -50 -34 -90 -94 -90s-94 40 -94 90zM739 73c0 59 41 90 94 90s94 -31 94 -90c0 -50 -34 -90 -94 -90s-94 40 -94 90z" />
    <glyph glyph-name="perthousand" unicode="&#x2030;" horiz-adv-x="1167" 
d="M256 558c0 43 -18 79 -65 79c-50 0 -68 -40 -68 -85c0 -41 17 -78 65 -78c53 0 68 46 68 84zM358 559c0 -107 -79 -165 -171 -165c-111 0 -166 61 -166 161c0 104 79 162 171 162c121 0 166 -84 166 -158zM664 147c0 43 -18 79 -65 79c-50 0 -68 -47 -68 -85
c0 -41 15 -78 65 -78c53 0 68 46 68 84zM766 148c0 -107 -79 -165 -171 -165c-111 0 -166 61 -166 161c0 104 79 162 171 162c121 0 166 -84 166 -158zM1146 148c0 -107 -79 -165 -171 -165c-111 0 -166 61 -166 161c0 104 79 162 171 162c121 0 166 -84 166 -158zM1044 147
c0 43 -18 79 -65 79c-50 0 -68 -47 -68 -85c0 -41 15 -78 65 -78c53 0 68 46 68 84zM143 -14l421 772l80 -44l-421 -772z" />
    <glyph glyph-name="questiondown" unicode="&#xbf;" horiz-adv-x="481" 
d="M213 289l126 37c21 -29 36 -65 36 -99c0 -145 -238 -133 -238 -273c0 -64 58 -91 125 -91c38 0 84 7 125 19l5 -111c-56 -13 -112 -22 -160 -22c-201 0 -247 118 -247 186c0 207 250 208 250 302c0 15 -12 37 -22 52zM195 460c0 50 34 90 94 90s94 -40 94 -90
c0 -59 -41 -90 -94 -90s-94 31 -94 90z" />
    <glyph glyph-name="grave" unicode="`" 
d="M-31 753l71 70l217 -175l-75 -60z" />
    <glyph glyph-name="acute" unicode="&#xb4;" 
d="M292 823l71 -70l-213 -165l-75 60z" />
    <glyph glyph-name="circumflex" unicode="&#x2c6;" 
d="M309 604l-143 112l-143 -112l-81 66l181 139h86l181 -139z" />
    <glyph glyph-name="tilde" unicode="&#x2dc;" 
d="M46 631l-85 41c25 62 74 108 138 108s98 -52 140 -52c24 0 35 8 60 44l72 -51c-26 -49 -70 -95 -129 -95c-54 0 -103 55 -141 55c-19 0 -36 -13 -55 -50z" />
    <glyph glyph-name="macron" unicode="&#xaf;" 
d="M7 654v102h318v-102h-318z" />
    <glyph glyph-name="breve" unicode="&#x2d8;" 
d="M-36 795l97 20c17 -64 44 -95 105 -95s88 31 105 95l97 -20c-19 -95 -77 -171 -202 -171s-183 76 -202 171z" />
    <glyph glyph-name="dotaccent" unicode="&#x2d9;" 
d="M78 700c0 49 34 84 88 84s88 -35 88 -84s-34 -84 -88 -84s-88 35 -88 84z" />
    <glyph glyph-name="dieresis" unicode="&#xa8;" 
d="M-38 700c0 49 34 84 88 84s88 -35 88 -84s-34 -84 -88 -84s-88 35 -88 84zM194 700c0 49 34 84 88 84s88 -35 88 -84s-34 -84 -88 -84s-88 35 -88 84z" />
    <glyph glyph-name="ring" unicode="&#x2da;" 
d="M47 713c0 62 47 108 119 108s119 -46 119 -108s-47 -108 -119 -108s-119 46 -119 108zM207 713c0 32 -16 52 -41 52s-41 -20 -41 -52s16 -52 41 -52s41 20 41 52z" />
    <glyph glyph-name="cedilla" unicode="&#xb8;" 
d="M116 -104v108h90v-64c90 0 107 -49 107 -85c0 -64 -62 -106 -153 -106c-44 0 -82 8 -111 15l4 73c23 -8 48 -14 73 -14c42 0 67 15 67 38s-14 35 -77 35z" />
    <glyph glyph-name="hungarumlaut" unicode="&#x2dd;" 
d="M-41 648l217 175l71 -70l-213 -165zM191 648l217 175l71 -70l-213 -165z" />
    <glyph glyph-name="ogonek" unicode="&#x2db;" 
d="M192 0h64c-52 -41 -87 -92 -87 -135c0 -22 12 -42 40 -42c22 0 38 5 52 11l12 -57c-25 -9 -60 -16 -89 -16c-63 0 -111 29 -111 88c0 71 71 121 119 151z" />
    <glyph glyph-name="caron" unicode="&#x2c7;" 
d="M166 710l143 112l81 -66l-181 -139h-86l-181 139l81 66z" />
    <glyph glyph-name="emdash" unicode="&#x2014;" horiz-adv-x="1000" 
d="M0 244v108h1000v-108h-1000z" />
    <glyph glyph-name="AE" unicode="&#xc6;" horiz-adv-x="1019" 
d="M849 102l8 118h120l-8 -220h-509v102h68v190h-219l-98 -190h68v-102h-265v102h51l339 598h544l6 -206h-120l-6 104h-154v-204h158v-102h-158v-190h175zM528 394v204h-62l-105 -204h167z" />
    <glyph glyph-name="ordfeminine" unicode="&#xaa;" horiz-adv-x="385" 
d="M243 585v4c0 47 -21 60 -61 60c-12 0 -31 -3 -54 -9v-35h-84v80c41 18 85 32 137 32c96 0 152 -29 152 -121c0 -47 -3 -88 -4 -130h37v-68h-114c1 19 2 43 3 61h-2c-17 -42 -52 -69 -107 -69c-80 0 -118 43 -118 93c0 46 33 74 70 87c35 12 81 15 145 15zM124 488
c0 -15 13 -30 48 -30s71 19 71 71c-91 0 -119 -8 -119 -41z" />
    <glyph glyph-name="Lslash" unicode="&#x141;" horiz-adv-x="574" 
d="M46 0v102h63v138l-63 -49v108l63 49v250h-63v102h272v-102h-63v-137l139 108v-108l-139 -108v-251h172l8 125h121l-10 -227h-500z" />
    <glyph glyph-name="Oslash" unicode="&#xd8;" horiz-adv-x="760" 
d="M228 187l238 391c-23 13 -52 20 -86 20c-132 0 -188 -113 -188 -248c0 -62 11 -119 36 -163zM531 511l-237 -390c24 -12 52 -19 86 -19c138 0 188 113 188 248c0 62 -12 119 -37 161zM77 -62l75 123c-82 65 -118 171 -118 289c0 191 125 362 346 362c58 0 108 -9 151 -28
l75 124l77 -46l-74 -122c79 -64 117 -168 117 -290c0 -197 -101 -362 -346 -362c-59 0 -109 9 -151 27l-75 -123z" />
    <glyph glyph-name="OE" unicode="&#x152;" horiz-adv-x="1019" 
d="M849 102l8 118h120l-8 -220h-432c-26 0 -50 -1 -70 -3s-39 -3 -64 -3c-252 0 -369 136 -369 351s141 361 369 361c25 0 44 0 64 -2s44 -4 70 -4h429l6 -206h-120l-6 104h-171v-184h176v-108h-176v-204h174zM529 105v491c-40 8 -59 8 -83 8c-162 0 -254 -95 -254 -258
s90 -244 252 -244c34 0 65 2 85 3z" />
    <glyph glyph-name="ordmasculine" unicode="&#xba;" horiz-adv-x="385" 
d="M14 553c0 99 68 164 179 164c110 0 178 -65 178 -164c0 -109 -70 -163 -178 -163c-109 0 -179 54 -179 163zM122 553c0 -52 24 -89 71 -89c46 0 70 37 70 89s-24 90 -70 90c-47 0 -71 -38 -71 -90z" />
    <glyph glyph-name="ae" unicode="&#xe6;" horiz-adv-x="889" 
d="M64 354v143c54 24 137 38 191 38c96 0 169 -27 194 -97c46 78 106 97 170 97c186 0 228 -158 228 -305h-347c0 -91 57 -134 171 -134c61 0 111 14 159 37l-7 -107c-63 -32 -131 -38 -184 -38c-134 0 -192 50 -217 119h-2c-27 -85 -83 -119 -195 -119
c-120 0 -183 70 -183 157c0 133 116 166 326 171c0 49 0 123 -105 123c-21 0 -52 -6 -73 -12v-73h-126zM366 204v26h-30c-109 0 -154 -23 -154 -79c0 -25 14 -61 77 -61c49 0 107 31 107 114zM500 316h207c0 95 -61 123 -106 123c-74 0 -101 -58 -101 -123z" />
    <glyph glyph-name="dotlessi" unicode="&#x131;" 
d="M96 102v319h-68v102h208v-421h60v-102h-257v102h57z" />
    <glyph glyph-name="lslash" unicode="&#x142;" horiz-adv-x="315" 
d="M30 0v102h57v197l-57 -47v114l57 47v254h-80v102h220v-241l60 49v-114l-60 -49v-312h60v-102h-257z" />
    <glyph glyph-name="oslash" unicode="&#xf8;" horiz-adv-x="612" 
d="M197 171l154 243c-14 5 -28 7 -45 7c-86 0 -123 -73 -123 -168c0 -32 4 -59 14 -82zM414 351l-153 -242c13 -5 28 -7 45 -7c86 0 123 57 123 151c0 40 -5 73 -15 98zM57 -51l61 97c-55 44 -87 114 -87 210c0 150 104 279 275 279c41 0 78 -5 111 -16l65 102l73 -47
l-61 -96c57 -48 87 -122 87 -222c0 -156 -108 -268 -275 -268c-41 0 -78 5 -111 16l-65 -102z" />
    <glyph glyph-name="oe" unicode="&#x153;" horiz-adv-x="926" 
d="M407 217v95c0 71 -27 115 -105 115c-95 0 -126 -83 -126 -164c0 -79 29 -167 128 -167c71 0 103 42 103 121zM541 326h209c-2 56 -31 107 -107 107c-68 0 -102 -48 -102 -107zM890 230h-351c0 -98 74 -134 172 -134c60 0 108 13 159 39l-5 -108
c-37 -25 -120 -39 -183 -39c-99 0 -169 27 -210 96c-39 -78 -117 -96 -186 -96c-165 0 -250 109 -250 266c0 163 89 281 262 281c88 0 151 -22 189 -98c35 62 95 98 168 98c138 0 235 -83 235 -305z" />
    <glyph glyph-name="germandbls" unicode="&#xdf;" horiz-adv-x="759" 
d="M345 8v142h114v-51c17 -4 41 -9 60 -9c41 0 77 13 77 56c0 26 -7 42 -54 58l-75 26c-89 31 -125 60 -125 134c0 128 171 158 171 239c0 54 -62 73 -118 73c-113 0 -150 -65 -150 -160v-414h66v-102h-263v102h57v319h-68v102h68c0 141 58 261 298 261
c153 0 242 -65 242 -160c0 -148 -171 -164 -171 -231c0 -80 248 -41 248 -229c0 -89 -59 -176 -211 -176c-64 0 -134 9 -166 20z" />
    <glyph glyph-name="logicalnot" unicode="&#xac;" horiz-adv-x="600" 
d="M445 103v192h-398v108h506v-300h-108z" />
    <glyph glyph-name="mu" unicode="&#xb5;" horiz-adv-x="667" 
d="M368 421v102h206v-421h61v-102h-196c0 35 0 83 13 108h-2c-33 -83 -91 -120 -151 -120c-32 0 -48 10 -64 23h-2v-262h-140v672h-70v102h210v-293c0 -74 8 -128 92 -128c60 0 109 48 109 131v188h-66z" />
    <glyph glyph-name="trademark" unicode="&#x2122;" horiz-adv-x="990" 
d="M123 284v348h-121v68h332v-68h-121v-348h-90zM798 284v320h-2l-115 -320h-68l-115 320h-2v-320h-90v416h135l105 -296h2l105 296h135v-416h-90z" />
    <glyph glyph-name="Eth" unicode="&#xd0;" horiz-adv-x="759" 
d="M103 102v210h-75v102h75v184h-75v102h327c234 0 375 -115 375 -335c0 -217 -139 -365 -367 -365h-335v102h75zM249 102h85c118 0 238 67 238 259c0 179 -110 237 -240 237h-83v-184h149v-102h-149v-210z" />
    <glyph glyph-name="onehalf" unicode="&#xbd;" horiz-adv-x="889" 
d="M173 -14l421 772l86 -44l-421 -772zM138 352v261c-9 -6 -16 -12 -26 -18l-72 -42l-37 62l163 89h74v-352h85v-68h-272v68h85zM506 0v70c49 31 229 156 229 230c0 37 -31 53 -60 53c-42 0 -65 -32 -65 -72h-102c0 27 9 65 35 96c26 32 70 56 138 56c77 0 162 -32 162 -123
c0 -78 -73 -157 -187 -233l2 -2c16 3 31 5 46 5h149v-80h-347z" />
    <glyph glyph-name="plusminus" unicode="&#xb1;" horiz-adv-x="600" 
d="M246 375v131h108v-131h199v-108h-199v-131h-108v131h-199v108h199zM47 0v108h506v-108h-506z" />
    <glyph glyph-name="Thorn" unicode="&#xde;" horiz-adv-x="611" 
d="M109 102v496h-69v102h284v-102h-69v-40h74c169 0 256 -58 256 -189c0 -125 -93 -205 -232 -205h-98v-62h69v-102h-284v102h69zM255 266h79c73 0 111 32 111 95s-38 95 -111 95h-79v-190z" />
    <glyph glyph-name="onequarter" unicode="&#xbc;" horiz-adv-x="889" 
d="M694 184v144h-2l-107 -147c9 2 18 3 27 3h82zM694 68v42h-206v68l181 242h127v-236h70v-74h-70v-42h44v-68h-190v68h44zM190 -14l421 772l86 -44l-421 -772zM138 352v261c-9 -6 -16 -12 -26 -18l-72 -42l-37 62l163 89h74v-352h85v-68h-272v68h85z" />
    <glyph glyph-name="divide" unicode="&#xf7;" horiz-adv-x="600" 
d="M47 199v108h506v-108h-506zM216 46c0 46 38 84 84 84s84 -38 84 -84s-38 -84 -84 -84s-84 38 -84 84zM216 460c0 46 38 84 84 84s84 -38 84 -84s-38 -84 -84 -84s-84 38 -84 84z" />
    <glyph glyph-name="brokenbar" unicode="&#xa6;" horiz-adv-x="222" 
d="M57 -175v350h108v-350h-108zM57 325v350h108v-350h-108z" />
    <glyph glyph-name="degree" unicode="&#xb0;" horiz-adv-x="400" 
d="M57 574c0 79 64 143 143 143s143 -64 143 -143s-64 -143 -143 -143s-143 64 -143 143zM259 574c0 38 -23 63 -59 63s-59 -25 -59 -63s23 -63 59 -63s59 25 59 63z" />
    <glyph glyph-name="thorn" unicode="&#xfe;" horiz-adv-x="648" 
d="M88 -149v816h-80v102h220v-205c0 -42 -6 -89 -11 -140h2c32 71 90 111 178 111c115 0 202 -83 202 -239c0 -143 -69 -308 -292 -308c-28 0 -56 2 -79 5v-142h60v-102h-257v102h57zM225 289v-168c19 -10 58 -19 89 -19c101 0 145 85 145 178c0 72 -26 141 -113 141
c-93 0 -121 -67 -121 -132z" />
    <glyph glyph-name="threequarters" unicode="&#xbe;" horiz-adv-x="889" 
d="M694 184v144h-2l-107 -147c9 2 18 3 27 3h82zM694 68v42h-206v68l181 242h127v-236h70v-74h-70v-42h44v-68h-190v68h44zM121 468v68c86 0 111 31 111 62c0 23 -18 39 -51 39c-34 0 -60 -25 -60 -56h-102c0 66 55 136 171 136c87 0 150 -41 150 -106
c0 -51 -38 -95 -93 -102v-2c58 -1 111 -34 111 -101c0 -46 -27 -132 -195 -132c-64 0 -106 9 -144 25v95c47 -23 95 -34 133 -34c64 0 98 20 98 53c0 48 -65 55 -129 55zM190 -14l421 772l86 -44l-421 -772z" />
    <glyph glyph-name="registered" unicode="&#xae;" horiz-adv-x="800" 
d="M483 143l-105 174h-61v-174h-72v414h160c102 0 155 -35 155 -119c0 -75 -48 -107 -106 -118l113 -177h-84zM317 379h75c75 0 96 19 96 62c0 39 -36 54 -94 54h-77v-116zM38 350c0 200 162 362 362 362s362 -162 362 -362s-162 -362 -362 -362s-362 162 -362 362zM672 350
c0 166 -121 282 -272 282s-272 -116 -272 -282s121 -282 272 -282s272 116 272 282z" />
    <glyph glyph-name="minus" unicode="&#x2212;" horiz-adv-x="600" 
d="M47 199v108h506v-108h-506z" />
    <glyph glyph-name="eth" unicode="&#xf0;" horiz-adv-x="612" 
d="M183 253c0 -94 37 -151 123 -151s123 57 123 151c0 112 -37 168 -123 168s-123 -73 -123 -168zM155 647l90 48c-29 21 -54 38 -81 49l102 60c36 -20 58 -35 84 -53l80 43l63 -58l-71 -38c81 -72 159 -192 159 -388c0 -200 -81 -322 -275 -322c-167 0 -275 90 -275 268
c0 150 104 279 275 279c43 0 77 -17 98 -32l2 2c-20 50 -64 110 -94 134l-94 -50z" />
    <glyph glyph-name="multiply" unicode="&#xd7;" horiz-adv-x="600" 
d="M300 329l162 162l76 -76l-162 -162l162 -162l-76 -76l-162 162l-162 -162l-76 76l162 162l-162 162l76 76z" />
    <glyph glyph-name="copyright" unicode="&#xa9;" horiz-adv-x="800" 
d="M507 287h84c-19 -97 -91 -155 -187 -155c-118 0 -197 85 -197 219s80 218 204 218c89 0 161 -53 174 -150h-78c-9 47 -41 76 -98 76c-75 0 -118 -62 -118 -144c0 -84 44 -145 122 -145c48 0 88 29 94 81zM38 350c0 200 162 362 362 362s362 -162 362 -362
s-162 -362 -362 -362s-362 162 -362 362zM128 350c0 -166 121 -282 272 -282s272 116 272 282s-121 282 -272 282s-272 -116 -272 -282z" />
    <glyph glyph-name="Aacute" unicode="&#xc1;" horiz-adv-x="778" 
d="M461 344l-50 146c-11 31 -21 65 -26 102h-2c-8 -37 -19 -70 -31 -102l-54 -146h163zM543 102l-45 134h-241l-50 -134h67v-102h-260v102h56l246 598h161l231 -598h56v-102h-278v102h57zM515 970l71 -70l-213 -165l-75 60z" />
    <glyph glyph-name="Acircumflex" unicode="&#xc2;" horiz-adv-x="778" 
d="M461 344l-50 146c-11 31 -21 65 -26 102h-2c-8 -37 -19 -70 -31 -102l-54 -146h163zM543 102l-45 134h-241l-50 -134h67v-102h-260v102h56l246 598h161l231 -598h56v-102h-278v102h57zM532 751l-143 112l-143 -112l-81 66l181 139h86l181 -139z" />
    <glyph glyph-name="Adieresis" unicode="&#xc4;" horiz-adv-x="778" 
d="M461 344l-50 146c-11 31 -21 65 -26 102h-2c-8 -37 -19 -70 -31 -102l-54 -146h163zM543 102l-45 134h-241l-50 -134h67v-102h-260v102h56l246 598h161l231 -598h56v-102h-278v102h57zM185 847c0 49 34 84 88 84s88 -35 88 -84s-34 -84 -88 -84s-88 35 -88 84zM417 847
c0 49 34 84 88 84s88 -35 88 -84s-34 -84 -88 -84s-88 35 -88 84z" />
    <glyph glyph-name="Agrave" unicode="&#xc0;" horiz-adv-x="778" 
d="M461 344l-50 146c-11 31 -21 65 -26 102h-2c-8 -37 -19 -70 -31 -102l-54 -146h163zM543 102l-45 134h-241l-50 -134h67v-102h-260v102h56l246 598h161l231 -598h56v-102h-278v102h57zM192 900l71 70l217 -175l-75 -60z" />
    <glyph glyph-name="Aring" unicode="&#xc5;" horiz-adv-x="778" 
d="M461 344l-50 146c-11 31 -21 65 -26 102h-2c-8 -37 -19 -70 -31 -102l-54 -146h163zM543 102l-45 134h-241l-50 -134h67v-102h-260v102h56l246 598h161l231 -598h56v-102h-278v102h57zM270 830c0 62 47 108 119 108s119 -46 119 -108s-47 -108 -119 -108
s-119 46 -119 108zM430 830c0 32 -16 52 -41 52s-41 -20 -41 -52s16 -52 41 -52s41 20 41 52z" />
    <glyph glyph-name="Atilde" unicode="&#xc3;" horiz-adv-x="778" 
d="M461 344l-50 146c-11 31 -21 65 -26 102h-2c-8 -37 -19 -70 -31 -102l-54 -146h163zM543 102l-45 134h-241l-50 -134h67v-102h-260v102h56l246 598h161l231 -598h56v-102h-278v102h57zM269 778l-85 41c25 62 74 108 138 108s98 -52 140 -52c24 0 35 8 60 44l72 -51
c-26 -49 -70 -95 -129 -95c-54 0 -103 55 -141 55c-19 0 -36 -13 -55 -50z" />
    <glyph glyph-name="Ccedilla" unicode="&#xc7;" horiz-adv-x="685" 
d="M510 112l6 127h126l-6 -216c-65 -22 -125 -32 -193 -35v-48c90 0 107 -49 107 -85c0 -64 -62 -106 -153 -106c-44 0 -82 8 -111 15l4 73c23 -8 48 -14 73 -14c42 0 67 15 67 38s-14 35 -77 35v94c-201 22 -319 155 -319 355c0 190 122 367 380 367c89 0 163 -17 231 -41
v-195h-126v112c-35 12 -63 16 -99 16c-168 0 -228 -122 -228 -250c0 -106 46 -252 236 -252c20 0 57 2 82 10z" />
    <glyph glyph-name="Eacute" unicode="&#xc9;" horiz-adv-x="593" 
d="M423 102l8 118h120l-8 -220h-503v102h63v496h-75v102h512l6 -206h-120l-6 104h-171v-184h176v-108h-176v-204h174zM423 970l71 -70l-213 -165l-75 60z" />
    <glyph glyph-name="Ecircumflex" unicode="&#xca;" horiz-adv-x="593" 
d="M423 102l8 118h120l-8 -220h-503v102h63v496h-75v102h512l6 -206h-120l-6 104h-171v-184h176v-108h-176v-204h174zM440 751l-143 112l-143 -112l-81 66l181 139h86l181 -139z" />
    <glyph glyph-name="Edieresis" unicode="&#xcb;" horiz-adv-x="593" 
d="M423 102l8 118h120l-8 -220h-503v102h63v496h-75v102h512l6 -206h-120l-6 104h-171v-184h176v-108h-176v-204h174zM93 847c0 49 34 84 88 84s88 -35 88 -84s-34 -84 -88 -84s-88 35 -88 84zM325 847c0 49 34 84 88 84s88 -35 88 -84s-34 -84 -88 -84s-88 35 -88 84z" />
    <glyph glyph-name="Egrave" unicode="&#xc8;" horiz-adv-x="593" 
d="M423 102l8 118h120l-8 -220h-503v102h63v496h-75v102h512l6 -206h-120l-6 104h-171v-184h176v-108h-176v-204h174zM100 900l71 70l217 -175l-75 -60z" />
    <glyph glyph-name="Iacute" unicode="&#xcd;" horiz-adv-x="352" 
d="M103 102v496h-63v102h272v-102h-63v-496h63v-102h-272v102h63zM302 970l71 -70l-213 -165l-75 60z" />
    <glyph glyph-name="Icircumflex" unicode="&#xce;" horiz-adv-x="352" 
d="M103 102v496h-63v102h272v-102h-63v-496h63v-102h-272v102h63zM319 751l-143 112l-143 -112l-81 66l181 139h86l181 -139z" />
    <glyph glyph-name="Idieresis" unicode="&#xcf;" horiz-adv-x="352" 
d="M103 102v496h-63v102h272v-102h-63v-496h63v-102h-272v102h63zM-28 847c0 49 34 84 88 84s88 -35 88 -84s-34 -84 -88 -84s-88 35 -88 84zM204 847c0 49 34 84 88 84s88 -35 88 -84s-34 -84 -88 -84s-88 35 -88 84z" />
    <glyph glyph-name="Igrave" unicode="&#xcc;" horiz-adv-x="352" 
d="M103 102v496h-63v102h272v-102h-63v-496h63v-102h-272v102h63zM-21 900l71 70l217 -175l-75 -60z" />
    <glyph glyph-name="Ntilde" unicode="&#xd1;" horiz-adv-x="796" 
d="M38 0v102h65v496h-89v102h203l295 -371c31 -39 50 -67 59 -94h2v363h-64v102h253v-102h-69v-598h-108l-333 418c-17 21 -31 44 -33 54h-2v-370h68v-102h-247zM278 778l-85 41c25 62 74 108 138 108s98 -52 140 -52c24 0 35 8 60 44l72 -51c-26 -49 -70 -95 -129 -95
c-54 0 -103 55 -141 55c-19 0 -36 -13 -55 -50z" />
    <glyph glyph-name="Oacute" unicode="&#xd3;" horiz-adv-x="760" 
d="M34 350c0 191 125 362 346 362c238 0 346 -156 346 -362c0 -197 -101 -362 -346 -362s-346 165 -346 362zM192 350c0 -135 50 -248 188 -248s188 113 188 248s-56 248 -188 248s-188 -113 -188 -248zM506 970l71 -70l-213 -165l-75 60z" />
    <glyph glyph-name="Ocircumflex" unicode="&#xd4;" horiz-adv-x="760" 
d="M34 350c0 191 125 362 346 362c238 0 346 -156 346 -362c0 -197 -101 -362 -346 -362s-346 165 -346 362zM192 350c0 -135 50 -248 188 -248s188 113 188 248s-56 248 -188 248s-188 -113 -188 -248zM523 751l-143 112l-143 -112l-81 66l181 139h86l181 -139z" />
    <glyph glyph-name="Odieresis" unicode="&#xd6;" horiz-adv-x="760" 
d="M34 350c0 191 125 362 346 362c238 0 346 -156 346 -362c0 -197 -101 -362 -346 -362s-346 165 -346 362zM192 350c0 -135 50 -248 188 -248s188 113 188 248s-56 248 -188 248s-188 -113 -188 -248zM176 847c0 49 34 84 88 84s88 -35 88 -84s-34 -84 -88 -84
s-88 35 -88 84zM408 847c0 49 34 84 88 84s88 -35 88 -84s-34 -84 -88 -84s-88 35 -88 84z" />
    <glyph glyph-name="Ograve" unicode="&#xd2;" horiz-adv-x="760" 
d="M34 350c0 191 125 362 346 362c238 0 346 -156 346 -362c0 -197 -101 -362 -346 -362s-346 165 -346 362zM192 350c0 -135 50 -248 188 -248s188 113 188 248s-56 248 -188 248s-188 -113 -188 -248zM183 900l71 70l217 -175l-75 -60z" />
    <glyph glyph-name="Otilde" unicode="&#xd5;" horiz-adv-x="760" 
d="M34 350c0 191 125 362 346 362c238 0 346 -156 346 -362c0 -197 -101 -362 -346 -362s-346 165 -346 362zM192 350c0 -135 50 -248 188 -248s188 113 188 248s-56 248 -188 248s-188 -113 -188 -248zM260 778l-85 41c25 62 74 108 138 108s98 -52 140 -52
c24 0 35 8 60 44l72 -51c-26 -49 -70 -95 -129 -95c-54 0 -103 55 -141 55c-19 0 -36 -13 -55 -50z" />
    <glyph glyph-name="Scaron" unicode="&#x160;" horiz-adv-x="630" 
d="M423 508v85c-26 9 -60 17 -94 17c-97 0 -128 -50 -128 -89c0 -51 37 -66 83 -77l84 -21c103 -26 217 -60 217 -205c0 -133 -90 -230 -289 -230c-77 0 -157 8 -251 39v185h146v-92c37 -15 77 -18 118 -18c86 0 124 41 124 94c0 36 -20 62 -114 86l-77 20
c-144 37 -193 93 -193 201c0 111 78 209 276 209c85 0 170 -14 230 -37v-167h-132zM315 857l143 112l81 -66l-181 -139h-86l-181 139l81 66z" />
    <glyph glyph-name="Uacute" unicode="&#xda;" horiz-adv-x="759" 
d="M459 598v102h272v-102h-63v-320c0 -218 -92 -290 -297 -290c-230 0 -280 102 -280 256v354h-63v102h272v-102h-63v-329c0 -102 30 -167 142 -167c93 0 157 33 157 167v329h-77zM506 970l71 -70l-213 -165l-75 60z" />
    <glyph glyph-name="Ucircumflex" unicode="&#xdb;" horiz-adv-x="759" 
d="M459 598v102h272v-102h-63v-320c0 -218 -92 -290 -297 -290c-230 0 -280 102 -280 256v354h-63v102h272v-102h-63v-329c0 -102 30 -167 142 -167c93 0 157 33 157 167v329h-77zM523 751l-143 112l-143 -112l-81 66l181 139h86l181 -139z" />
    <glyph glyph-name="Udieresis" unicode="&#xdc;" horiz-adv-x="759" 
d="M459 598v102h272v-102h-63v-320c0 -218 -92 -290 -297 -290c-230 0 -280 102 -280 256v354h-63v102h272v-102h-63v-329c0 -102 30 -167 142 -167c93 0 157 33 157 167v329h-77zM176 847c0 49 34 84 88 84s88 -35 88 -84s-34 -84 -88 -84s-88 35 -88 84zM408 847
c0 49 34 84 88 84s88 -35 88 -84s-34 -84 -88 -84s-88 35 -88 84z" />
    <glyph glyph-name="Ugrave" unicode="&#xd9;" horiz-adv-x="759" 
d="M459 598v102h272v-102h-63v-320c0 -218 -92 -290 -297 -290c-230 0 -280 102 -280 256v354h-63v102h272v-102h-63v-329c0 -102 30 -167 142 -167c93 0 157 33 157 167v329h-77zM183 900l71 70l217 -175l-75 -60z" />
    <glyph glyph-name="Yacute" unicode="&#xdd;" horiz-adv-x="741" 
d="M477 598v102h254v-102h-55l-232 -319v-177h63v-102h-271v102h62v176l-233 320h-55v102h278v-102h-56c14 -15 26 -29 37 -45l116 -170l125 171c11 15 23 29 37 44h-70zM497 970l71 -70l-213 -165l-75 60z" />
    <glyph glyph-name="Ydieresis" unicode="&#x178;" horiz-adv-x="741" 
d="M477 598v102h254v-102h-55l-232 -319v-177h63v-102h-271v102h62v176l-233 320h-55v102h278v-102h-56c14 -15 26 -29 37 -45l116 -170l125 171c11 15 23 29 37 44h-70zM167 847c0 49 34 84 88 84s88 -35 88 -84s-34 -84 -88 -84s-88 35 -88 84zM399 847c0 49 34 84 88 84
s88 -35 88 -84s-34 -84 -88 -84s-88 35 -88 84z" />
    <glyph glyph-name="Zcaron" unicode="&#x17d;" horiz-adv-x="648" 
d="M37 0v97l351 451c17 22 33 38 48 48v2h-240l-6 -93h-126l6 195h535v-102l-344 -446c-17 -22 -32 -38 -48 -48v-2h265l6 93h127l-8 -195h-566zM324 857l143 112l81 -66l-181 -139h-86l-181 139l81 66z" />
    <glyph glyph-name="aacute" unicode="&#xe1;" horiz-adv-x="593" 
d="M373 308v25c0 79 -33 100 -99 100c-20 0 -63 -6 -87 -15v-70h-120v133c34 19 116 54 209 54c140 0 229 -49 229 -201c0 -86 -3 -158 -5 -232h59v-102h-176v32c0 34 2 52 7 72h-2c-35 -79 -83 -116 -171 -116c-118 0 -175 70 -175 152c0 75 50 124 105 144
c53 19 124 24 226 24zM371 222h-39c-114 0 -150 -24 -150 -69c0 -31 22 -63 77 -63c56 0 112 36 112 132zM423 823l71 -70l-213 -165l-75 60z" />
    <glyph glyph-name="acircumflex" unicode="&#xe2;" horiz-adv-x="593" 
d="M373 308v25c0 79 -33 100 -99 100c-20 0 -63 -6 -87 -15v-70h-120v133c34 19 116 54 209 54c140 0 229 -49 229 -201c0 -86 -3 -158 -5 -232h59v-102h-176v32c0 34 2 52 7 72h-2c-35 -79 -83 -116 -171 -116c-118 0 -175 70 -175 152c0 75 50 124 105 144
c53 19 124 24 226 24zM371 222h-39c-114 0 -150 -24 -150 -69c0 -31 22 -63 77 -63c56 0 112 36 112 132zM440 604l-143 112l-143 -112l-81 66l181 139h86l181 -139z" />
    <glyph glyph-name="adieresis" unicode="&#xe4;" horiz-adv-x="593" 
d="M373 308v25c0 79 -33 100 -99 100c-20 0 -63 -6 -87 -15v-70h-120v133c34 19 116 54 209 54c140 0 229 -49 229 -201c0 -86 -3 -158 -5 -232h59v-102h-176v32c0 34 2 52 7 72h-2c-35 -79 -83 -116 -171 -116c-118 0 -175 70 -175 152c0 75 50 124 105 144
c53 19 124 24 226 24zM371 222h-39c-114 0 -150 -24 -150 -69c0 -31 22 -63 77 -63c56 0 112 36 112 132zM93 700c0 49 34 84 88 84s88 -35 88 -84s-34 -84 -88 -84s-88 35 -88 84zM325 700c0 49 34 84 88 84s88 -35 88 -84s-34 -84 -88 -84s-88 35 -88 84z" />
    <glyph glyph-name="agrave" unicode="&#xe0;" horiz-adv-x="593" 
d="M373 308v25c0 79 -33 100 -99 100c-20 0 -63 -6 -87 -15v-70h-120v133c34 19 116 54 209 54c140 0 229 -49 229 -201c0 -86 -3 -158 -5 -232h59v-102h-176v32c0 34 2 52 7 72h-2c-35 -79 -83 -116 -171 -116c-118 0 -175 70 -175 152c0 75 50 124 105 144
c53 19 124 24 226 24zM371 222h-39c-114 0 -150 -24 -150 -69c0 -31 22 -63 77 -63c56 0 112 36 112 132zM100 753l71 70l217 -175l-75 -60z" />
    <glyph glyph-name="aring" unicode="&#xe5;" horiz-adv-x="593" 
d="M373 308v25c0 79 -33 100 -99 100c-20 0 -63 -6 -87 -15v-70h-120v133c34 19 116 54 209 54c140 0 229 -49 229 -201c0 -86 -3 -158 -5 -232h59v-102h-176v32c0 34 2 52 7 72h-2c-35 -79 -83 -116 -171 -116c-118 0 -175 70 -175 152c0 75 50 124 105 144
c53 19 124 24 226 24zM371 222h-39c-114 0 -150 -24 -150 -69c0 -31 22 -63 77 -63c56 0 112 36 112 132zM178 713c0 62 47 108 119 108s119 -46 119 -108s-47 -108 -119 -108s-119 46 -119 108zM338 713c0 32 -16 52 -41 52s-41 -20 -41 -52s16 -52 41 -52s41 20 41 52z
" />
    <glyph glyph-name="atilde" unicode="&#xe3;" horiz-adv-x="593" 
d="M373 308v25c0 79 -33 100 -99 100c-20 0 -63 -6 -87 -15v-70h-120v133c34 19 116 54 209 54c140 0 229 -49 229 -201c0 -86 -3 -158 -5 -232h59v-102h-176v32c0 34 2 52 7 72h-2c-35 -79 -83 -116 -171 -116c-118 0 -175 70 -175 152c0 75 50 124 105 144
c53 19 124 24 226 24zM371 222h-39c-114 0 -150 -24 -150 -69c0 -31 22 -63 77 -63c56 0 112 36 112 132zM177 631l-85 41c25 62 74 108 138 108s98 -52 140 -52c24 0 35 8 60 44l72 -51c-26 -49 -70 -95 -129 -95c-54 0 -103 55 -141 55c-19 0 -36 -13 -55 -50z" />
    <glyph glyph-name="ccedilla" unicode="&#xe7;" horiz-adv-x="500" 
d="M351 357v70c-19 4 -31 6 -48 6c-93 0 -132 -85 -132 -157c0 -89 46 -174 166 -174c47 0 90 10 131 29l-8 -118c-42 -15 -73 -22 -123 -25v-48c90 0 107 -49 107 -85c0 -64 -62 -106 -153 -106c-44 0 -82 8 -111 15l4 73c23 -8 48 -14 73 -14c42 0 67 15 67 38
s-14 35 -77 35v96c-142 24 -216 135 -216 269c0 169 108 274 275 274c63 0 117 -10 165 -25v-153h-120z" />
    <glyph glyph-name="eacute" unicode="&#xe9;" horiz-adv-x="574" 
d="M547 230h-364c4 -83 68 -134 166 -134c67 0 110 11 169 36l-7 -111c-65 -24 -122 -33 -193 -33c-202 0 -287 126 -287 271c0 163 99 276 263 276c180 0 253 -136 253 -305zM182 326h213c0 72 -41 113 -106 113c-64 0 -101 -42 -107 -113zM413 823l71 -70l-213 -165
l-75 60z" />
    <glyph glyph-name="ecircumflex" unicode="&#xea;" horiz-adv-x="574" 
d="M547 230h-364c4 -83 68 -134 166 -134c67 0 110 11 169 36l-7 -111c-65 -24 -122 -33 -193 -33c-202 0 -287 126 -287 271c0 163 99 276 263 276c180 0 253 -136 253 -305zM182 326h213c0 72 -41 113 -106 113c-64 0 -101 -42 -107 -113zM430 604l-143 112l-143 -112
l-81 66l181 139h86l181 -139z" />
    <glyph glyph-name="edieresis" unicode="&#xeb;" horiz-adv-x="574" 
d="M547 230h-364c4 -83 68 -134 166 -134c67 0 110 11 169 36l-7 -111c-65 -24 -122 -33 -193 -33c-202 0 -287 126 -287 271c0 163 99 276 263 276c180 0 253 -136 253 -305zM182 326h213c0 72 -41 113 -106 113c-64 0 -101 -42 -107 -113zM83 700c0 49 34 84 88 84
s88 -35 88 -84s-34 -84 -88 -84s-88 35 -88 84zM315 700c0 49 34 84 88 84s88 -35 88 -84s-34 -84 -88 -84s-88 35 -88 84z" />
    <glyph glyph-name="egrave" unicode="&#xe8;" horiz-adv-x="574" 
d="M547 230h-364c4 -83 68 -134 166 -134c67 0 110 11 169 36l-7 -111c-65 -24 -122 -33 -193 -33c-202 0 -287 126 -287 271c0 163 99 276 263 276c180 0 253 -136 253 -305zM182 326h213c0 72 -41 113 -106 113c-64 0 -101 -42 -107 -113zM90 753l71 70l217 -175l-75 -60z
" />
    <glyph glyph-name="iacute" unicode="&#xed;" 
d="M96 102v319h-68v102h208v-421h60v-102h-257v102h57zM292 823l71 -70l-213 -165l-75 60z" />
    <glyph glyph-name="icircumflex" unicode="&#xee;" 
d="M96 102v319h-68v102h208v-421h60v-102h-257v102h57zM309 604l-143 112l-143 -112l-81 66l181 139h86l181 -139z" />
    <glyph glyph-name="idieresis" unicode="&#xef;" 
d="M96 102v319h-68v102h208v-421h60v-102h-257v102h57zM-38 700c0 49 34 84 88 84s88 -35 88 -84s-34 -84 -88 -84s-88 35 -88 84zM194 700c0 49 34 84 88 84s88 -35 88 -84s-34 -84 -88 -84s-88 35 -88 84z" />
    <glyph glyph-name="igrave" unicode="&#xec;" 
d="M96 102v319h-68v102h208v-421h60v-102h-257v102h57zM-31 753l71 70l217 -175l-75 -60z" />
    <glyph glyph-name="ntilde" unicode="&#xf1;" horiz-adv-x="685" 
d="M96 102v319h-68v102h205c0 -36 0 -70 -8 -108h2c26 69 90 120 181 120c124 0 181 -79 181 -204v-229h60v-102h-257v102h57v215c0 72 -38 98 -91 98c-85 0 -122 -60 -122 -139v-174h60v-102h-251v102h51zM223 631l-85 41c25 62 74 108 138 108s98 -52 140 -52
c24 0 35 8 60 44l72 -51c-26 -49 -70 -95 -129 -95c-54 0 -103 55 -141 55c-19 0 -36 -13 -55 -50z" />
    <glyph glyph-name="oacute" unicode="&#xf3;" horiz-adv-x="612" 
d="M31 256c0 150 104 279 275 279c176 0 275 -97 275 -279c0 -156 -108 -268 -275 -268s-275 90 -275 268zM183 253c0 -94 37 -151 123 -151s123 57 123 151c0 112 -37 168 -123 168s-123 -73 -123 -168zM432 823l71 -70l-213 -165l-75 60z" />
    <glyph glyph-name="ocircumflex" unicode="&#xf4;" horiz-adv-x="612" 
d="M31 256c0 150 104 279 275 279c176 0 275 -97 275 -279c0 -156 -108 -268 -275 -268s-275 90 -275 268zM183 253c0 -94 37 -151 123 -151s123 57 123 151c0 112 -37 168 -123 168s-123 -73 -123 -168zM449 604l-143 112l-143 -112l-81 66l181 139h86l181 -139z" />
    <glyph glyph-name="odieresis" unicode="&#xf6;" horiz-adv-x="612" 
d="M31 256c0 150 104 279 275 279c176 0 275 -97 275 -279c0 -156 -108 -268 -275 -268s-275 90 -275 268zM183 253c0 -94 37 -151 123 -151s123 57 123 151c0 112 -37 168 -123 168s-123 -73 -123 -168zM102 700c0 49 34 84 88 84s88 -35 88 -84s-34 -84 -88 -84
s-88 35 -88 84zM334 700c0 49 34 84 88 84s88 -35 88 -84s-34 -84 -88 -84s-88 35 -88 84z" />
    <glyph glyph-name="ograve" unicode="&#xf2;" horiz-adv-x="612" 
d="M31 256c0 150 104 279 275 279c176 0 275 -97 275 -279c0 -156 -108 -268 -275 -268s-275 90 -275 268zM183 253c0 -94 37 -151 123 -151s123 57 123 151c0 112 -37 168 -123 168s-123 -73 -123 -168zM109 753l71 70l217 -175l-75 -60z" />
    <glyph glyph-name="otilde" unicode="&#xf5;" horiz-adv-x="612" 
d="M31 256c0 150 104 279 275 279c176 0 275 -97 275 -279c0 -156 -108 -268 -275 -268s-275 90 -275 268zM183 253c0 -94 37 -151 123 -151s123 57 123 151c0 112 -37 168 -123 168s-123 -73 -123 -168zM186 631l-85 41c25 62 74 108 138 108s98 -52 140 -52
c24 0 35 8 60 44l72 -51c-26 -49 -70 -95 -129 -95c-54 0 -103 55 -141 55c-19 0 -36 -13 -55 -50z" />
    <glyph glyph-name="scaron" unicode="&#x161;" horiz-adv-x="537" 
d="M346 371v53c-28 10 -55 15 -81 15c-64 0 -94 -26 -94 -55c0 -25 7 -35 47 -41l110 -16c120 -17 170 -63 170 -158c0 -93 -65 -181 -247 -181c-63 0 -150 13 -206 33v147h126v-61c23 -8 63 -17 93 -17c29 0 102 9 102 64c0 29 -18 44 -79 53l-118 18
c-91 14 -130 64 -130 139c0 129 122 171 230 171c56 0 126 -9 203 -35v-129h-126zM269 710l143 112l81 -66l-181 -139h-86l-181 139l81 66z" />
    <glyph glyph-name="uacute" unicode="&#xfa;" horiz-adv-x="667" 
d="M368 421v102h206v-421h61v-102h-196c0 35 0 83 13 108h-2c-33 -83 -91 -120 -181 -120c-119 0 -176 72 -176 183v250h-70v102h210v-293c0 -74 8 -128 92 -128c60 0 109 48 109 131v188h-66zM460 823l71 -70l-213 -165l-75 60z" />
    <glyph glyph-name="ucircumflex" unicode="&#xfb;" horiz-adv-x="667" 
d="M368 421v102h206v-421h61v-102h-196c0 35 0 83 13 108h-2c-33 -83 -91 -120 -181 -120c-119 0 -176 72 -176 183v250h-70v102h210v-293c0 -74 8 -128 92 -128c60 0 109 48 109 131v188h-66zM467 604l-143 112l-143 -112l-81 66l181 139h86l181 -139z" />
    <glyph glyph-name="udieresis" unicode="&#xfc;" horiz-adv-x="667" 
d="M368 421v102h206v-421h61v-102h-196c0 35 0 83 13 108h-2c-33 -83 -91 -120 -181 -120c-119 0 -176 72 -176 183v250h-70v102h210v-293c0 -74 8 -128 92 -128c60 0 109 48 109 131v188h-66zM120 700c0 49 34 84 88 84s88 -35 88 -84s-34 -84 -88 -84s-88 35 -88 84z
M352 700c0 49 34 84 88 84s88 -35 88 -84s-34 -84 -88 -84s-88 35 -88 84z" />
    <glyph glyph-name="ugrave" unicode="&#xf9;" horiz-adv-x="667" 
d="M368 421v102h206v-421h61v-102h-196c0 35 0 83 13 108h-2c-33 -83 -91 -120 -181 -120c-119 0 -176 72 -176 183v250h-70v102h210v-293c0 -74 8 -128 92 -128c60 0 109 48 109 131v188h-66zM137 753l71 70l217 -175l-75 -60z" />
    <glyph glyph-name="yacute" unicode="&#xfd;" horiz-adv-x="611" 
d="M367 421v102h234v-102h-48l-161 -432c-74 -200 -135 -252 -265 -252c-21 0 -50 6 -76 12v108c26 -7 55 -12 76 -12c59 0 82 23 131 120l-200 456h-48v102h260v-102h-54c8 -10 14 -23 19 -36l66 -178c10 -28 20 -68 24 -99h2c4 31 14 71 24 99l62 178c5 13 11 26 19 36
h-65zM432 823l71 -70l-213 -165l-75 60z" />
    <glyph glyph-name="ydieresis" unicode="&#xff;" horiz-adv-x="611" 
d="M367 421v102h234v-102h-48l-161 -432c-74 -200 -135 -252 -265 -252c-21 0 -50 6 -76 12v108c26 -7 55 -12 76 -12c59 0 82 23 131 120l-200 456h-48v102h260v-102h-54c8 -10 14 -23 19 -36l66 -178c10 -28 20 -68 24 -99h2c4 31 14 71 24 99l62 178c5 13 11 26 19 36
h-65zM102 700c0 49 34 84 88 84s88 -35 88 -84s-34 -84 -88 -84s-88 35 -88 84zM334 700c0 49 34 84 88 84s88 -35 88 -84s-34 -84 -88 -84s-88 35 -88 84z" />
    <glyph glyph-name="zcaron" unicode="&#x17e;" horiz-adv-x="556" 
d="M40 0v102l274 296c9 10 18 17 26 21v2h-163l-4 -69h-120l4 171h454v-101l-271 -296c-10 -11 -21 -19 -29 -22v-2h180l2 73h123l-8 -175h-468zM278 710l143 112l81 -66l-181 -139h-86l-181 139l81 66z" />
    <glyph glyph-name="exclam.sc" unicode="&#xf721;" horiz-adv-x="296" 
d="M81 224l-12 545h158l-12 -545h-134zM54 73c0 59 41 90 94 90s94 -31 94 -90c0 -50 -34 -90 -94 -90s-94 40 -94 90z" />
    <glyph glyph-name="hungarumlaut.sc" unicode="&#xf6f8;" 
d="M-41 648l217 175l71 -70l-213 -165zM191 648l217 175l71 -70l-213 -165z" />
    <glyph glyph-name="ampersand.sc" unicode="&#xf726;" horiz-adv-x="611" 
d="M334 116l-123 120c-32 -20 -44 -47 -44 -71c0 -42 36 -76 93 -76c26 0 52 9 74 27zM238 361c48 32 60 56 60 70c0 34 -20 44 -51 44c-36 0 -52 -19 -52 -44c0 -21 15 -43 43 -70zM400 260v86h190v-86h-50c-5 -49 -19 -97 -60 -142c21 -19 45 -22 61 -22c11 0 22 4 33 7
v-96c-17 -4 -37 -7 -55 -7c-33 0 -75 4 -112 41c-46 -37 -96 -54 -171 -54c-128 0 -197 67 -197 155c0 58 11 102 108 160c-54 48 -66 80 -66 116c0 94 75 143 169 143c86 0 150 -40 150 -121c0 -47 -20 -95 -99 -144l110 -108c19 23 25 46 27 72h-38z" />
    <glyph glyph-name="acute.sc" unicode="&#xf7b4;" 
d="M292 823l71 -70l-213 -165l-75 60z" />
    <glyph glyph-name="question.sc" unicode="&#xf73f;" horiz-adv-x="481" 
d="M64 651l-5 111c56 13 112 22 160 22c201 0 247 -118 247 -186c0 -207 -250 -208 -250 -302c0 -15 12 -37 22 -52l-126 -37c-21 29 -36 65 -36 99c0 145 238 133 238 273c0 64 -58 91 -125 91c-38 0 -84 -7 -125 -19zM68 73c0 59 41 90 94 90s94 -31 94 -90
c0 -50 -34 -90 -94 -90s-94 40 -94 90z" />
    <glyph glyph-name="circumflex.sc" unicode="&#xf6f6;" 
d="M309 604l-143 112l-143 -112l-81 66l181 139h86l181 -139z" />
    <glyph glyph-name="grave.sc" unicode="&#xf760;" 
d="M-31 753l71 70l217 -175l-75 -60z" />
    <glyph glyph-name="a.sc" unicode="&#xf761;" horiz-adv-x="648" 
d="M56 96l196 452h152l186 -452h49v-96h-254v96h47l-29 82h-180l-27 -82h47v-96h-234v96h47zM255 274h118l-56 166h-2z" />
    <glyph glyph-name="b.sc" unicode="&#xf762;" horiz-adv-x="519" 
d="M233 452v-128h35c43 0 74 16 74 66c0 43 -23 62 -74 62h-35zM99 96v356h-60v96h271c97 0 166 -41 166 -134c0 -65 -37 -109 -120 -122v-2c87 -4 142 -50 142 -131c0 -108 -73 -159 -187 -159h-266v96h54zM233 228v-132h40c63 0 91 19 91 66c0 50 -30 66 -91 66h-40z" />
    <glyph glyph-name="c.sc" unicode="&#xf763;" horiz-adv-x="556" 
d="M415 102l6 75h102v-158c-54 -16 -129 -32 -190 -32c-184 0 -300 86 -300 269c0 220 142 305 316 305c62 0 121 -12 174 -32v-152h-108v65c-23 5 -48 11 -74 11c-105 0 -162 -58 -162 -176c0 -148 77 -182 172 -182c25 0 45 3 64 7z" />
    <glyph glyph-name="d.sc" unicode="&#xf764;" horiz-adv-x="630" 
d="M233 452v-356h64c95 0 154 70 154 178c0 127 -59 178 -154 178h-64zM99 96v356h-60v96h277c166 0 281 -78 281 -274c0 -147 -99 -274 -276 -274h-282v96h60z" />
    <glyph glyph-name="e.sc" unicode="&#xf765;" horiz-adv-x="519" 
d="M99 96v356h-60v96h431l10 -166h-102l-10 70h-135v-128h144v-96h-144v-132h135l10 82h108l-15 -178h-426v96h54z" />
    <glyph glyph-name="f.sc" unicode="&#xf766;" horiz-adv-x="481" 
d="M45 0v96h54v356h-60v96h430l10 -166h-108l-10 70h-128v-128h144v-96h-144v-132h66v-96h-254z" />
    <glyph glyph-name="g.sc" unicode="&#xf767;" horiz-adv-x="611" 
d="M408 104v84h-58v96h228v-96h-52v-169c-69 -20 -138 -32 -204 -32c-176 0 -289 99 -289 272c0 210 143 302 317 302c64 0 121 -10 182 -32v-152h-108v64c-28 8 -51 12 -74 12c-110 0 -171 -67 -171 -178c0 -120 67 -180 153 -180c32 0 54 5 76 9z" />
    <glyph glyph-name="h.sc" unicode="&#xf768;" horiz-adv-x="666" 
d="M99 96v356h-60v96h254v-96h-60v-128h200v128h-60v96h254v-96h-60v-356h60v-96h-254v96h60v132h-200v-132h60v-96h-254v96h60z" />
    <glyph glyph-name="i.sc" unicode="&#xf769;" 
d="M99 96v356h-60v96h254v-96h-60v-356h60v-96h-254v96h60z" />
    <glyph glyph-name="j.sc" unicode="&#xf76a;" horiz-adv-x="315" 
d="M85 138v314h-57v96h248v-96h-57v-352c0 -93 -50 -186 -173 -247l-57 91c70 46 96 93 96 194z" />
    <glyph glyph-name="k.sc" unicode="&#xf76b;" horiz-adv-x="630" 
d="M99 96v356h-60v96h248v-96h-54v-161l176 161h-52v96h240v-96h-41l-188 -168l197 -188h44v-96h-254v96h44l-166 159v-159h54v-96h-248v96h60z" />
    <glyph glyph-name="l.sc" unicode="&#xf76c;" horiz-adv-x="500" 
d="M99 96v356h-60v96h254v-96h-60v-356h126l12 82h108l-13 -178h-427v96h60z" />
    <glyph glyph-name="m.sc" unicode="&#xf76d;" horiz-adv-x="852" 
d="M28 452v96h263l136 -390h2l143 390h241v-96h-51v-356h62v-96h-240v96h50v316h-2l-153 -412h-128l-146 405h-2v-309h47v-96h-222v96h61v356h-61z" />
    <glyph glyph-name="n.sc" unicode="&#xf76e;" horiz-adv-x="666" 
d="M88 96v356h-60v96h190l244 -328h2v232h-60v96h234v-96h-54v-452h-116l-258 348h-2v-252h60v-96h-234v96h54z" />
    <glyph glyph-name="o.sc" unicode="&#xf76f;" horiz-adv-x="630" 
d="M33 274c0 184 116 287 282 287s282 -103 282 -287s-116 -287 -282 -287s-282 103 -282 287zM179 274c0 -132 67 -179 136 -179c70 0 136 47 136 179s-66 179 -136 179c-69 0 -136 -47 -136 -179z" />
    <glyph glyph-name="p.sc" unicode="&#xf770;" horiz-adv-x="500" 
d="M233 452v-139h45c51 0 79 10 79 74c0 49 -37 65 -78 65h-46zM99 96v356h-60v96h281c110 0 171 -65 171 -157c0 -124 -81 -177 -182 -177h-76v-118h72v-96h-260v96h54z" />
    <glyph glyph-name="q.sc" unicode="&#xf771;" horiz-adv-x="630" 
d="M466 -103l-105 64c-24 15 -51 27 -81 29c-147 10 -247 113 -247 284c0 184 116 287 282 287s282 -103 282 -287c0 -129 -57 -219 -151 -259l2 -2c5 2 12 3 21 3c26 0 62 -17 112 -40c25 -11 36 -15 51 -15c11 0 22 3 33 5v-102c-15 -7 -36 -11 -57 -11
c-45 0 -74 3 -142 44zM179 274c0 -132 67 -179 136 -179c70 0 136 47 136 179s-66 179 -136 179c-69 0 -136 -47 -136 -179z" />
    <glyph glyph-name="r.sc" unicode="&#xf772;" horiz-adv-x="556" 
d="M267 452h-34v-134h34c54 0 81 25 81 71c0 50 -25 63 -81 63zM99 96v356h-60v96h277c111 0 166 -58 166 -146c0 -62 -33 -127 -141 -144v-2c55 -5 77 -22 100 -56l59 -90c4 -6 20 -14 32 -14c6 0 12 3 18 6v-102h-95c-45 0 -63 14 -85 54l-75 138c-15 28 -28 30 -62 30
v-126h40v-96h-234v96h60z" />
    <glyph glyph-name="s.sc" unicode="&#xf773;" horiz-adv-x="500" 
d="M437 398h-108v52c-21 12 -55 15 -79 15c-60 0 -77 -30 -77 -61c0 -96 294 -20 294 -233c0 -133 -118 -184 -243 -184c-59 0 -126 9 -185 28l-6 152h114l6 -66c24 -13 58 -18 87 -18c54 0 87 36 87 68c0 104 -294 21 -294 228c0 100 74 182 235 182c57 0 107 -10 169 -29
v-134z" />
    <glyph glyph-name="t.sc" unicode="&#xf774;" horiz-adv-x="536" 
d="M201 96v356h-83l-7 -70h-102l7 166h504l7 -166h-102l-7 70h-83v-356h63v-96h-260v96h63z" />
    <glyph glyph-name="u.sc" unicode="&#xf775;" horiz-adv-x="648" 
d="M88 151v301h-60v96h254v-96h-60v-264c0 -54 33 -93 112 -93c83 0 102 54 102 104v253h-56v96h240v-96h-56v-223c0 -135 -46 -242 -237 -242c-139 0 -239 58 -239 164z" />
    <glyph glyph-name="v.sc" unicode="&#xf776;" horiz-adv-x="648" 
d="M252 0l-195 452h-48v96h254v-96h-48l114 -326h2l120 326h-52v96h240v-96h-48l-199 -452h-140z" />
    <glyph glyph-name="w.sc" unicode="&#xf777;" horiz-adv-x="980" 
d="M244 0l-192 452h-46v96h248v-96h-50l118 -344l113 282l-21 62h-54v96h248v-96h-54l117 -344h2l115 344h-54v96h240v-96h-46l-192 -452h-146l-100 249l-100 -249h-146z" />
    <glyph glyph-name="x.sc" unicode="&#xf778;" horiz-adv-x="611" 
d="M322 0v96h52l-87 103l-91 -103h65v-96h-240v96h41l159 178l-155 178h-45v96h268v-96h-49l79 -93l87 93h-63v96h234v-96h-43l-152 -168l166 -188h42v-96h-268z" />
    <glyph glyph-name="y.sc" unicode="&#xf779;" horiz-adv-x="611" 
d="M12 452v96h260v-96h-49l96 -139l93 139h-53v96h240v-96h-41l-183 -238v-118h63v-96h-260v96h63v118l-188 238h-41z" />
    <glyph glyph-name="z.sc" unicode="&#xf77a;" horiz-adv-x="556" 
d="M33 0v96l303 356h-168l-10 -68h-108l10 164h458v-90l-308 -362h189l10 82h114l-10 -178h-480z" />
    <glyph glyph-name="tilde.sc" unicode="&#xf6fe;" 
d="M46 631l-85 41c25 62 74 108 138 108s98 -52 140 -52c24 0 35 8 60 44l72 -51c-26 -49 -70 -95 -129 -95c-54 0 -103 55 -141 55c-19 0 -36 -13 -55 -50z" />
    <glyph glyph-name="exclamdown.sc" unicode="&#xf7a1;" horiz-adv-x="296" 
d="M69 -236l12 545h134l12 -545h-158zM54 460c0 50 34 90 94 90s94 -40 94 -90c0 -59 -41 -90 -94 -90s-94 31 -94 90z" />
    <glyph glyph-name="lslash.sc" unicode="&#xf6f9;" horiz-adv-x="500" 
d="M99 96v80l-60 -33v80l60 33v196h-60v96h254v-96h-60v-115l109 61v-80l-109 -61v-161h126l12 82h108l-13 -178h-427v96h60z" />
    <glyph glyph-name="scaron.sc" unicode="&#xf6fd;" horiz-adv-x="500" 
d="M437 398h-108v52c-21 12 -55 15 -79 15c-60 0 -77 -30 -77 -61c0 -96 294 -20 294 -233c0 -133 -118 -184 -243 -184c-59 0 -126 9 -185 28l-6 152h114l6 -66c24 -13 58 -18 87 -18c54 0 87 36 87 68c0 104 -294 21 -294 228c0 100 74 182 235 182c57 0 107 -10 169 -29
v-134zM250 710l143 112l81 -66l-181 -139h-86l-181 139l81 66z" />
    <glyph glyph-name="zcaron.sc" unicode="&#xf6ff;" horiz-adv-x="556" 
d="M33 0v96l303 356h-168l-10 -68h-108l10 164h458v-90l-308 -362h189l10 82h114l-10 -178h-480zM278 710l143 112l81 -66l-181 -139h-86l-181 139l81 66z" />
    <glyph glyph-name="dieresis.sc" unicode="&#xf7a8;" 
d="M-38 700c0 49 34 84 88 84s88 -35 88 -84s-34 -84 -88 -84s-88 35 -88 84zM194 700c0 49 34 84 88 84s88 -35 88 -84s-34 -84 -88 -84s-88 35 -88 84z" />
    <glyph glyph-name="breve.sc" unicode="&#xf6f4;" 
d="M-36 795l97 20c17 -64 44 -95 105 -95s88 31 105 95l97 -20c-19 -95 -77 -171 -202 -171s-183 76 -202 171z" />
    <glyph glyph-name="caron.sc" unicode="&#xf6f5;" 
d="M166 710l143 112l81 -66l-181 -139h-86l-181 139l81 66z" />
    <glyph glyph-name="dotaccent.sc" unicode="&#xf6f7;" 
d="M78 700c0 49 34 84 88 84s88 -35 88 -84s-34 -84 -88 -84s-88 35 -88 84z" />
    <glyph glyph-name="macron.sc" unicode="&#xf7af;" 
d="M7 654v102h318v-102h-318z" />
    <glyph glyph-name="ogonek.sc" unicode="&#xf6fb;" 
d="M192 0h64c-52 -41 -87 -92 -87 -135c0 -22 12 -42 40 -42c22 0 38 5 52 11l12 -57c-25 -9 -60 -16 -89 -16c-63 0 -111 29 -111 88c0 71 71 121 119 151z" />
    <glyph glyph-name="ring.sc" unicode="&#xf6fc;" 
d="M47 713c0 62 47 108 119 108s119 -46 119 -108s-47 -108 -119 -108s-119 46 -119 108zM207 713c0 32 -16 52 -41 52s-41 -20 -41 -52s16 -52 41 -52s41 20 41 52z" />
    <glyph glyph-name="cedilla.sc" unicode="&#xf7b8;" 
d="M116 -104v108h90v-64c90 0 107 -49 107 -85c0 -64 -62 -106 -153 -106c-44 0 -82 8 -111 15l4 73c23 -8 48 -14 73 -14c42 0 67 15 67 38s-14 35 -77 35z" />
    <glyph glyph-name="questiondown.sc" unicode="&#xf7bf;" horiz-adv-x="481" 
d="M213 289l126 37c21 -29 36 -65 36 -99c0 -145 -238 -133 -238 -273c0 -64 58 -91 125 -91c38 0 84 7 125 19l5 -111c-56 -13 -112 -22 -160 -22c-201 0 -247 118 -247 186c0 207 250 208 250 302c0 15 -12 37 -22 52zM195 460c0 50 34 90 94 90s94 -40 94 -90
c0 -59 -41 -90 -94 -90s-94 31 -94 90z" />
    <glyph glyph-name="one.superior" unicode="&#xb9;" horiz-adv-x="385" 
d="M162 352v261c-9 -6 -16 -12 -26 -18l-72 -42l-37 62l163 89h74v-352h85v-68h-272v68h85z" />
    <glyph glyph-name="two.superior" unicode="&#xb2;" horiz-adv-x="385" 
d="M12 284v70c49 31 229 156 229 230c0 37 -31 53 -60 53c-42 0 -65 -32 -65 -72h-102c0 54 36 152 173 152c77 0 162 -32 162 -123c0 -78 -73 -157 -187 -233l2 -2c16 3 31 5 46 5h149v-80h-347z" />
    <glyph glyph-name="three.superior" unicode="&#xb3;" horiz-adv-x="385" 
d="M113 468v68c86 0 111 31 111 62c0 23 -18 39 -51 39c-34 0 -60 -25 -60 -56h-102c0 66 55 136 171 136c87 0 150 -41 150 -106c0 -51 -38 -95 -93 -102v-2c58 -1 111 -34 111 -101c0 -46 -27 -132 -195 -132c-64 0 -106 9 -144 25v95c47 -23 95 -34 133 -34
c64 0 98 20 98 53c0 48 -65 55 -129 55z" />
    <glyph glyph-name="agrave.sc" unicode="&#xf7e0;" horiz-adv-x="648" 
d="M56 96l196 452h152l186 -452h49v-96h-254v96h47l-29 82h-180l-27 -82h47v-96h-234v96h47zM255 274h118l-56 166h-2zM127 753l71 70l217 -175l-75 -60z" />
    <glyph glyph-name="aacute.sc" unicode="&#xf7e1;" horiz-adv-x="648" 
d="M56 96l196 452h152l186 -452h49v-96h-254v96h47l-29 82h-180l-27 -82h47v-96h-234v96h47zM255 274h118l-56 166h-2zM450 823l71 -70l-213 -165l-75 60z" />
    <glyph glyph-name="acircumflex.sc" unicode="&#xf7e2;" horiz-adv-x="648" 
d="M56 96l196 452h152l186 -452h49v-96h-254v96h47l-29 82h-180l-27 -82h47v-96h-234v96h47zM255 274h118l-56 166h-2zM467 604l-143 112l-143 -112l-81 66l181 139h86l181 -139z" />
    <glyph glyph-name="atilde.sc" unicode="&#xf7e3;" horiz-adv-x="648" 
d="M56 96l196 452h152l186 -452h49v-96h-254v96h47l-29 82h-180l-27 -82h47v-96h-234v96h47zM255 274h118l-56 166h-2zM204 631l-85 41c25 62 74 108 138 108s98 -52 140 -52c24 0 35 8 60 44l72 -51c-26 -49 -70 -95 -129 -95c-54 0 -103 55 -141 55c-19 0 -36 -13 -55 -50
z" />
    <glyph glyph-name="adieresis.sc" unicode="&#xf7e4;" horiz-adv-x="648" 
d="M56 96l196 452h152l186 -452h49v-96h-254v96h47l-29 82h-180l-27 -82h47v-96h-234v96h47zM255 274h118l-56 166h-2zM120 700c0 49 34 84 88 84s88 -35 88 -84s-34 -84 -88 -84s-88 35 -88 84zM352 700c0 49 34 84 88 84s88 -35 88 -84s-34 -84 -88 -84s-88 35 -88 84z
" />
    <glyph glyph-name="aring.sc" unicode="&#xf7e5;" horiz-adv-x="648" 
d="M56 96l196 452h152l186 -452h49v-96h-254v96h47l-29 82h-180l-27 -82h47v-96h-234v96h47zM255 274h118l-56 166h-2zM205 713c0 62 47 108 119 108s119 -46 119 -108s-47 -108 -119 -108s-119 46 -119 108zM365 713c0 32 -16 52 -41 52s-41 -20 -41 -52s16 -52 41 -52
s41 20 41 52z" />
    <glyph glyph-name="ae.sc" unicode="&#xf7e6;" horiz-adv-x="852" 
d="M429 324v128h-49l-70 -128h119zM9 96h46l269 452h455l4 -166h-102l-4 70h-114v-128h121v-96h-121v-132h130l12 82h108l-14 -178h-424v96h54v132h-167l-67 -132h54v-96h-240v96z" />
    <glyph glyph-name="ccedilla.sc" unicode="&#xf7e7;" horiz-adv-x="556" 
d="M268 -104v95c-145 18 -235 104 -235 265c0 220 142 305 316 305c62 0 121 -12 174 -32v-152h-108v65c-23 5 -48 11 -74 11c-105 0 -162 -58 -162 -176c0 -148 77 -182 172 -182c25 0 45 3 64 7l6 75h102v-158c-47 -14 -109 -28 -165 -32v-47c90 0 107 -49 107 -85
c0 -64 -62 -106 -153 -106c-44 0 -82 8 -111 15l4 73c23 -8 48 -14 73 -14c42 0 67 15 67 38s-14 35 -77 35z" />
    <glyph glyph-name="egrave.sc" unicode="&#xf7e8;" horiz-adv-x="519" 
d="M99 96v356h-60v96h431l10 -166h-102l-10 70h-135v-128h144v-96h-144v-132h135l10 82h108l-15 -178h-426v96h54zM63 753l71 70l217 -175l-75 -60z" />
    <glyph glyph-name="eacute.sc" unicode="&#xf7e9;" horiz-adv-x="519" 
d="M99 96v356h-60v96h431l10 -166h-102l-10 70h-135v-128h144v-96h-144v-132h135l10 82h108l-15 -178h-426v96h54zM386 823l71 -70l-213 -165l-75 60z" />
    <glyph glyph-name="ecircumflex.sc" unicode="&#xf7ea;" horiz-adv-x="519" 
d="M99 96v356h-60v96h431l10 -166h-102l-10 70h-135v-128h144v-96h-144v-132h135l10 82h108l-15 -178h-426v96h54zM403 604l-143 112l-143 -112l-81 66l181 139h86l181 -139z" />
    <glyph glyph-name="edieresis.sc" unicode="&#xf7eb;" horiz-adv-x="519" 
d="M99 96v356h-60v96h431l10 -166h-102l-10 70h-135v-128h144v-96h-144v-132h135l10 82h108l-15 -178h-426v96h54zM56 700c0 49 34 84 88 84s88 -35 88 -84s-34 -84 -88 -84s-88 35 -88 84zM288 700c0 49 34 84 88 84s88 -35 88 -84s-34 -84 -88 -84s-88 35 -88 84z" />
    <glyph glyph-name="igrave.sc" unicode="&#xf7ec;" 
d="M99 96v356h-60v96h254v-96h-60v-356h60v-96h-254v96h60zM-31 753l71 70l217 -175l-75 -60z" />
    <glyph glyph-name="iacute.sc" unicode="&#xf7ed;" 
d="M99 96v356h-60v96h254v-96h-60v-356h60v-96h-254v96h60zM292 823l71 -70l-213 -165l-75 60z" />
    <glyph glyph-name="icircumflex.sc" unicode="&#xf7ee;" 
d="M99 96v356h-60v96h254v-96h-60v-356h60v-96h-254v96h60zM309 604l-143 112l-143 -112l-81 66l181 139h86l181 -139z" />
    <glyph glyph-name="idieresis.sc" unicode="&#xf7ef;" 
d="M99 96v356h-60v96h254v-96h-60v-356h60v-96h-254v96h60zM-38 700c0 49 34 84 88 84s88 -35 88 -84s-34 -84 -88 -84s-88 35 -88 84zM194 700c0 49 34 84 88 84s88 -35 88 -84s-34 -84 -88 -84s-88 35 -88 84z" />
    <glyph glyph-name="eth.sc" unicode="&#xf7f0;" horiz-adv-x="630" 
d="M99 96v132h-60v96h60v128h-60v96h277c166 0 281 -78 281 -274c0 -147 -99 -274 -276 -274h-282v96h60zM233 324h85v-96h-85v-132h64c95 0 154 70 154 178c0 127 -59 178 -154 178h-64v-128z" />
    <glyph glyph-name="ntilde.sc" unicode="&#xf7f1;" horiz-adv-x="666" 
d="M88 96v356h-60v96h190l244 -328h2v232h-60v96h234v-96h-54v-452h-116l-258 348h-2v-252h60v-96h-234v96h54zM213 631l-85 41c25 62 74 108 138 108s98 -52 140 -52c24 0 35 8 60 44l72 -51c-26 -49 -70 -95 -129 -95c-54 0 -103 55 -141 55c-19 0 -36 -13 -55 -50z" />
    <glyph glyph-name="ograve.sc" unicode="&#xf7f2;" horiz-adv-x="630" 
d="M33 274c0 184 116 287 282 287s282 -103 282 -287s-116 -287 -282 -287s-282 103 -282 287zM179 274c0 -132 67 -179 136 -179c70 0 136 47 136 179s-66 179 -136 179c-69 0 -136 -47 -136 -179zM118 753l71 70l217 -175l-75 -60z" />
    <glyph glyph-name="oacute.sc" unicode="&#xf7f3;" horiz-adv-x="630" 
d="M33 274c0 184 116 287 282 287s282 -103 282 -287s-116 -287 -282 -287s-282 103 -282 287zM179 274c0 -132 67 -179 136 -179c70 0 136 47 136 179s-66 179 -136 179c-69 0 -136 -47 -136 -179zM441 823l71 -70l-213 -165l-75 60z" />
    <glyph glyph-name="ocircumflex.sc" unicode="&#xf7f4;" horiz-adv-x="630" 
d="M33 274c0 184 116 287 282 287s282 -103 282 -287s-116 -287 -282 -287s-282 103 -282 287zM179 274c0 -132 67 -179 136 -179c70 0 136 47 136 179s-66 179 -136 179c-69 0 -136 -47 -136 -179zM458 604l-143 112l-143 -112l-81 66l181 139h86l181 -139z" />
    <glyph glyph-name="otilde.sc" unicode="&#xf7f5;" horiz-adv-x="630" 
d="M33 274c0 184 116 287 282 287s282 -103 282 -287s-116 -287 -282 -287s-282 103 -282 287zM179 274c0 -132 67 -179 136 -179c70 0 136 47 136 179s-66 179 -136 179c-69 0 -136 -47 -136 -179zM195 631l-85 41c25 62 74 108 138 108s98 -52 140 -52c24 0 35 8 60 44
l72 -51c-26 -49 -70 -95 -129 -95c-54 0 -103 55 -141 55c-19 0 -36 -13 -55 -50z" />
    <glyph glyph-name="odieresis.sc" unicode="&#xf7f6;" horiz-adv-x="630" 
d="M33 274c0 184 116 287 282 287s282 -103 282 -287s-116 -287 -282 -287s-282 103 -282 287zM179 274c0 -132 67 -179 136 -179c70 0 136 47 136 179s-66 179 -136 179c-69 0 -136 -47 -136 -179zM111 700c0 49 34 84 88 84s88 -35 88 -84s-34 -84 -88 -84s-88 35 -88 84z
M343 700c0 49 34 84 88 84s88 -35 88 -84s-34 -84 -88 -84s-88 35 -88 84z" />
    <glyph glyph-name="oe.sc" unicode="&#xf6fa;" horiz-adv-x="815" 
d="M535 324h144v-96h-144v-132h129l10 82h108l-15 -178h-486c-171 0 -248 124 -248 260c0 175 101 288 287 288h446l10 -166h-102l-10 70h-129v-128zM401 96v356h-71c-83 0 -151 -45 -151 -188c0 -116 58 -168 158 -168h64z" />
    <glyph glyph-name="oslash.sc" unicode="&#xf7f8;" horiz-adv-x="630" 
d="M121 -86l-55 35l63 97c-60 48 -96 126 -96 228c0 184 116 287 282 287c48 0 93 -9 130 -26l64 99l55 -35l-63 -98c60 -48 96 -125 96 -227c0 -184 -116 -287 -282 -287c-49 0 -93 9 -130 26zM203 161l178 275c-20 12 -43 17 -66 17c-69 0 -136 -47 -136 -179
c0 -49 9 -86 24 -113zM427 387l-177 -274c20 -13 42 -18 65 -18c70 0 136 47 136 179c0 50 -9 87 -24 113z" />
    <glyph glyph-name="ugrave.sc" unicode="&#xf7f9;" horiz-adv-x="648" 
d="M88 151v301h-60v96h254v-96h-60v-264c0 -54 33 -93 112 -93c83 0 102 54 102 104v253h-56v96h240v-96h-56v-223c0 -135 -46 -242 -237 -242c-139 0 -239 58 -239 164zM127 753l71 70l217 -175l-75 -60z" />
    <glyph glyph-name="uacute.sc" unicode="&#xf7fa;" horiz-adv-x="648" 
d="M88 151v301h-60v96h254v-96h-60v-264c0 -54 33 -93 112 -93c83 0 102 54 102 104v253h-56v96h240v-96h-56v-223c0 -135 -46 -242 -237 -242c-139 0 -239 58 -239 164zM450 823l71 -70l-213 -165l-75 60z" />
    <glyph glyph-name="ucircumflex.sc" unicode="&#xf7fb;" horiz-adv-x="648" 
d="M88 151v301h-60v96h254v-96h-60v-264c0 -54 33 -93 112 -93c83 0 102 54 102 104v253h-56v96h240v-96h-56v-223c0 -135 -46 -242 -237 -242c-139 0 -239 58 -239 164zM457 604l-143 112l-143 -112l-81 66l181 139h86l181 -139z" />
    <glyph glyph-name="udieresis.sc" unicode="&#xf7fc;" horiz-adv-x="648" 
d="M88 151v301h-60v96h254v-96h-60v-264c0 -54 33 -93 112 -93c83 0 102 54 102 104v253h-56v96h240v-96h-56v-223c0 -135 -46 -242 -237 -242c-139 0 -239 58 -239 164zM110 700c0 49 34 84 88 84s88 -35 88 -84s-34 -84 -88 -84s-88 35 -88 84zM342 700c0 49 34 84 88 84
s88 -35 88 -84s-34 -84 -88 -84s-88 35 -88 84z" />
    <glyph glyph-name="yacute.sc" unicode="&#xf7fd;" horiz-adv-x="611" 
d="M12 452v96h260v-96h-49l96 -139l93 139h-53v96h240v-96h-41l-183 -238v-118h63v-96h-260v96h63v118l-188 238h-41zM432 823l71 -70l-213 -165l-75 60z" />
    <glyph glyph-name="thorn.sc" unicode="&#xf7fe;" horiz-adv-x="500" 
d="M233 323v-98h45c51 0 79 10 79 55c0 27 -37 43 -78 43h-46zM99 96v356h-60v96h266v-96h-72v-33h87c110 0 171 -65 171 -135c0 -102 -81 -155 -182 -155h-76v-33h72v-96h-260v96h54z" />
    <glyph glyph-name="ydieresis.sc" unicode="&#xf7ff;" horiz-adv-x="611" 
d="M12 452v96h260v-96h-49l96 -139l93 139h-53v96h240v-96h-41l-183 -238v-118h63v-96h-260v96h63v118l-188 238h-41zM102 700c0 49 34 84 88 84s88 -35 88 -84s-34 -84 -88 -84s-88 35 -88 84zM334 700c0 49 34 84 88 84s88 -35 88 -84s-34 -84 -88 -84s-88 35 -88 84z" />
    <glyph glyph-name="Delta" unicode="&#x2206;" horiz-adv-x="693" 
d="M27 0v74l245 649h154l238 -647v-76h-637zM162 103h361l-118 306c-17 53 -48 137 -60 181h-4c-8 -35 -38 -111 -54 -165z" />
    <glyph glyph-name="Omega" unicode="&#x2126;" horiz-adv-x="754" 
d="M186 103v3c-65 57 -131 154 -131 285c0 180 132 327 324 327c204 0 317 -167 317 -321c0 -133 -65 -234 -133 -291v-3h148v-103h-280v77c69 42 134 134 134 293c0 126 -66 243 -186 243c-116 0 -192 -105 -192 -248c0 -145 64 -248 134 -288v-77h-280v103h145z" />
    <glyph glyph-name="uni03BC" unicode="&#x3bc;" horiz-adv-x="667" 
d="M368 421v102h206v-421h61v-102h-196c0 35 0 83 13 108h-2c-33 -83 -91 -120 -151 -120c-32 0 -48 10 -64 23h-2v-262h-140v672h-70v102h210v-293c0 -74 8 -128 92 -128c60 0 109 48 109 131v188h-66z" />
    <glyph glyph-name="pi" unicode="&#x3c0;" horiz-adv-x="632" 
d="M607 423h-75v-269c0 -76 6 -122 14 -154h-127c-12 21 -18 73 -18 147v276h-148c-5 -113 -31 -322 -68 -423h-127c36 115 64 310 66 423c-51 0 -81 -3 -105 -11l-15 85c27 20 81 34 172 34h441z" />
    <glyph glyph-name="Euro" unicode="&#x20ac;" horiz-adv-x="592" 
d="M594 674v-153h-109v71c-27 10 -54 15 -81 15c-81 0 -135 -45 -163 -134h310l-42 -88h-284v-57h262l-42 -88h-204c28 -93 86 -140 173 -140c45 0 104 14 173 41v-118c-59 -23 -121 -35 -187 -35c-167 0 -270 84 -308 252h-83l42 88h30l2 57h-74l42 88h46
c43 153 150 243 307 243c64 0 127 -14 190 -42z" />
    <glyph glyph-name="afii61289" unicode="&#x2113;" horiz-adv-x="542" 
d="M467 184l54 -54c-55 -105 -136 -143 -219 -143c-123 0 -177 75 -189 166v11c-17 -13 -36 -28 -54 -42l-34 69c31 24 60 45 86 69v253c0 184 85 261 187 261s148 -82 148 -180c0 -122 -81 -235 -210 -354l1 -39c1 -74 43 -112 95 -112c57 0 106 48 135 95zM236 521v-165
c73 80 126 167 126 241c0 53 -16 86 -59 86c-31 0 -67 -36 -67 -162z" />
    <glyph glyph-name="estimated" unicode="&#x212e;" horiz-adv-x="885" 
d="M850 340h-660c-4 0 -6 -1 -6 -5v-199c0 -9 3 -17 9 -23c64 -66 152 -109 250 -109c105 0 198 48 262 122h59c-73 -86 -191 -142 -323 -142c-224 0 -407 164 -407 366c0 203 183 367 407 367c226 0 409 -164 409 -367v-10zM700 366v201c0 8 -3 17 -10 24
c-64 63 -151 104 -247 104c-97 0 -185 -43 -249 -108c-7 -6 -10 -15 -10 -25v-196c0 -2 2 -7 6 -7h505c4 0 5 5 5 7z" />
    <glyph glyph-name="partialdiff" unicode="&#x2202;" horiz-adv-x="603" 
d="M107 640l-37 94c32 24 94 59 193 59c155 0 290 -133 290 -387c0 -247 -109 -419 -296 -419c-149 0 -218 133 -218 241c0 160 101 264 227 264c88 0 143 -59 158 -86h2v35c0 133 -72 247 -179 247c-66 0 -112 -27 -140 -48zM270 93h1c80 0 131 110 142 208
c-10 33 -54 89 -121 89c-73 0 -125 -77 -125 -166c0 -73 41 -131 103 -131z" />
    <glyph glyph-name="product" unicode="&#x220f;" horiz-adv-x="757" 
d="M731 592h-109v-690h-127v690h-234v-690h-128v690h-108v115h706v-115z" />
    <glyph glyph-name="summation" unicode="&#x2211;" horiz-adv-x="589" 
d="M568 -98h-545v81l256 321l-245 315v88h517v-109h-342v-3l216 -271l-239 -301v-4h382v-117z" />
    <glyph glyph-name="uni2219" unicode="&#x2219;" horiz-adv-x="296" 
d="M64 266c0 46 38 84 84 84s84 -38 84 -84s-38 -84 -84 -84s-84 38 -84 84z" />
    <glyph glyph-name="radical" unicode="&#x221a;" horiz-adv-x="621" 
d="M631 847l-237 -991h-104l-158 445l-78 -30l-21 70l175 71l113 -330c7 -31 15 -62 21 -84l1 -1c4 21 10 56 17 90l180 760h91z" />
    <glyph glyph-name="infinity" unicode="&#x221e;" horiz-adv-x="805" 
d="M755 293v-1c0 -112 -81 -178 -166 -178c-60 0 -116 28 -186 118c-53 -66 -108 -118 -191 -118c-86 0 -163 71 -163 173c0 103 74 176 172 176c77 0 133 -48 186 -116c45 50 97 116 188 116c91 -1 160 -68 160 -170zM221 184h1c59 0 103 54 143 100
c-43 56 -80 110 -148 110c-59 0 -95 -46 -95 -108c0 -56 42 -102 99 -102zM588 394h-1c-63 0 -111 -66 -144 -104c63 -77 97 -106 149 -106c58 0 91 56 91 102c0 64 -39 108 -95 108z" />
    <glyph glyph-name="integral" unicode="&#x222b;" horiz-adv-x="406" 
d="M386 861l-14 -86c-10 5 -23 9 -38 9c-20 0 -40 -8 -52 -26c-23 -28 -29 -85 -29 -170c0 -165 15 -307 15 -487c0 -98 -16 -163 -38 -203c-28 -52 -81 -72 -132 -72c-32 0 -65 8 -80 17l16 89c10 -4 27 -11 46 -11c17 0 35 6 47 21c19 24 29 66 29 158
c0 183 -15 328 -15 500c0 117 17 182 62 228c29 32 76 46 119 46c26 0 52 -7 64 -13z" />
    <glyph glyph-name="approxequal" unicode="&#x2248;" horiz-adv-x="579" 
d="M490 459l46 -42c-34 -62 -83 -105 -142 -105c-42 0 -70 13 -118 41c-30 19 -56 34 -91 34c-46 0 -73 -36 -99 -74l-46 43c31 60 88 104 152 104c50 0 83 -22 111 -38c38 -22 59 -37 92 -37c40 0 66 29 95 74zM490 268l46 -43c-33 -61 -82 -105 -142 -105
c-43 0 -72 15 -118 42c-31 19 -57 34 -90 34c-48 0 -74 -36 -100 -74l-46 43c31 59 88 104 152 104c50 0 83 -23 110 -38c33 -18 57 -37 92 -37c42 0 66 28 96 74z" />
    <glyph glyph-name="notequal" unicode="&#x2260;" horiz-adv-x="579" 
d="M424 523l-42 -92h145v-74h-173l-63 -140h236v-74h-265l-53 -119l-58 25l42 94h-143v74h172l62 140h-234v74h263l52 117z" />
    <glyph glyph-name="lessequal" unicode="&#x2264;" horiz-adv-x="579" 
d="M525 101l-469 229v80l468 229v-86l-393 -181v-2l394 -183v-86zM528 -13h-477v76h477v-76z" />
    <glyph glyph-name="greaterequal" unicode="&#x2265;" horiz-adv-x="579" 
d="M57 639l469 -229v-80l-469 -229v86l394 182v3l-394 181v86zM526 -13h-474v76h474v-76z" />
    <glyph glyph-name="lozenge" unicode="&#x25ca;" horiz-adv-x="620" 
d="M568 353l-209 -403h-103l-204 403l209 404h102zM455 350l-124 247c-7 18 -15 41 -19 58h-3c-5 -18 -12 -39 -20 -58l-124 -242l125 -250c7 -19 15 -42 18 -55h4c4 14 12 42 18 54z" />
    <glyph glyph-name="uni00A0" unicode="&#xa0;" horiz-adv-x="296" 
 />
    <glyph glyph-name="uni00AD" unicode="&#xad;" horiz-adv-x="426" 
d="M67 238v120h292v-120h-292z" />
    <glyph glyph-name="uni02C9" unicode="&#x2c9;" 
d="M7 654v102h318v-102h-318z" />
    <glyph glyph-name="zero.taboldstyle" unicode="&#xf643;" horiz-adv-x="592" 
d="M176 260c0 -95 50 -163 120 -163s120 68 120 163c0 94 -50 163 -120 163s-120 -69 -120 -163zM30 260c0 198 117 277 266 277s266 -79 266 -277c0 -199 -117 -277 -266 -277s-266 78 -266 277z" />
    <glyph glyph-name="one.taboldstyle" unicode="&#xf644;" horiz-adv-x="592" 
d="M229 96v331h-103v96h340v-96h-103v-331h103v-96h-340v96h103z" />
    <glyph glyph-name="two.taboldstyle" unicode="&#xf645;" horiz-adv-x="592" 
d="M68 0v90c225 146 297 213 297 269c0 49 -33 70 -76 70c-55 0 -87 -34 -94 -82h-134c10 102 85 190 243 190c134 0 207 -71 207 -167c0 -87 -78 -177 -261 -266l2 -2c15 4 41 6 69 6h210v-108h-463z" />
    <glyph glyph-name="three.taboldstyle" unicode="&#xf646;" horiz-adv-x="592" 
d="M167 111v102c147 0 207 69 207 130c0 51 -41 80 -84 80c-48 0 -85 -28 -97 -77h-140c17 122 115 191 249 191c120 0 218 -66 218 -174c0 -81 -49 -150 -153 -180v-2c110 -10 175 -82 175 -170c0 -119 -103 -211 -276 -211c-65 0 -156 17 -216 39v126
c61 -33 118 -45 181 -45c103 0 165 32 165 96c0 47 -36 95 -180 95h-49z" />
    <glyph glyph-name="four.taboldstyle" unicode="&#xf647;" horiz-adv-x="592" 
d="M141 123h193v280h-2zM334 21h-315v102l283 400h166v-400h128v-102h-128v-201h-134v201z" />
    <glyph glyph-name="five.taboldstyle" unicode="&#xf648;" horiz-adv-x="592" 
d="M94 159v364h415v-108h-281v-148c165 -5 314 -57 314 -212c0 -142 -113 -247 -313 -247c-64 0 -135 15 -165 27v114c38 -14 94 -27 153 -27c89 0 167 41 167 120c0 83 -76 117 -290 117z" />
    <glyph glyph-name="six.taboldstyle" unicode="&#xf649;" horiz-adv-x="592" 
d="M413 213c0 78 -50 123 -124 123c-41 0 -76 -14 -102 -40c-1 -9 -2 -20 -2 -29c0 -94 41 -170 120 -170c67 0 108 40 108 116zM532 702l-8 -102c-21 2 -50 4 -67 4c-152 0 -246 -65 -266 -209l2 -2c28 42 95 63 143 63c143 0 223 -95 223 -233c0 -149 -119 -240 -249 -240
c-184 0 -277 137 -277 327c0 268 170 402 391 402c36 0 76 -2 108 -10z" />
    <glyph glyph-name="seven.taboldstyle" unicode="&#xf64a;" horiz-adv-x="592" 
d="M48 415v108h470v-96l-128 -238c-67 -124 -167 -308 -291 -395l-80 80c52 41 107 99 213 292l137 249h-321z" />
    <glyph glyph-name="eight.taboldstyle" unicode="&#xf64b;" horiz-adv-x="592" 
d="M24 169c0 72 46 142 159 186c-97 41 -138 102 -138 169c0 101 79 188 258 188c161 0 244 -74 244 -173c0 -74 -46 -131 -135 -174c101 -36 156 -97 156 -181c0 -101 -72 -201 -278 -201c-192 0 -266 91 -266 186zM191 524c0 -32 25 -65 116 -107c79 37 106 77 106 111
c0 38 -32 76 -111 76c-76 0 -111 -36 -111 -80zM176 191c0 -65 56 -94 122 -94c74 0 124 37 124 90c0 40 -21 72 -133 116c-107 -50 -113 -81 -113 -112z" />
    <glyph glyph-name="nine.taboldstyle" unicode="&#xf64c;" horiz-adv-x="592" 
d="M60 -182l8 102c21 -2 50 -4 67 -4c152 0 246 65 266 209l-2 2c-28 -42 -95 -63 -143 -63c-143 0 -223 95 -223 233c0 149 119 240 249 240c184 0 277 -137 277 -327c0 -268 -170 -402 -391 -402c-36 0 -76 2 -108 10zM179 307c0 -78 50 -123 124 -123c41 0 76 14 102 40
c1 9 2 20 2 29c0 94 -41 170 -120 170c-67 0 -108 -40 -108 -116z" />
    <glyph glyph-name="dollar.taboldstyle" unicode="&#xf653;" horiz-adv-x="592" 
d="M245 102v196c-143 19 -228 71 -228 200c0 125 87 206 228 219v134h96v-134c67 0 132 -12 194 -31v-171h-120v79c-21 8 -50 15 -74 15v-183c136 -20 234 -64 234 -210c0 -161 -141 -226 -234 -228v-134h-96v134c-89 1 -177 15 -225 32v188h140v-91c26 -7 52 -13 85 -15z
M245 441v168c-58 -10 -88 -46 -88 -91c0 -51 44 -69 88 -77zM341 282v-180c54 4 102 43 102 98c0 40 -26 74 -102 82z" />
    <glyph glyph-name="cent.taboldstyle" unicode="&#xf654;" horiz-adv-x="592" 
d="M285 -135v128c-152 19 -234 114 -234 268c0 121 59 249 234 274v95h96v-95c62 -3 110 -12 160 -33v-147h-108v61c-15 8 -34 11 -52 11v-325c56 0 103 9 147 31l-7 -120c-39 -15 -87 -22 -140 -25v-123h-96zM285 113v310c-61 -15 -94 -78 -94 -153c0 -80 34 -138 94 -157z
" />
    <glyph glyph-name="f_i.sc" unicode="&#xe03d;" horiz-adv-x="813" 
d="M45 0v96h54v356h-60v96h430l10 -166h-108l-10 70h-128v-128h144v-96h-144v-132h66v-96h-254zM580 96v356h-60v96h254v-96h-60v-356h60v-96h-254v96h60z" />
    <glyph glyph-name="f_l.sc" unicode="&#xe03e;" horiz-adv-x="981" 
d="M45 0v96h54v356h-60v96h430l10 -166h-108l-10 70h-128v-128h144v-96h-144v-132h66v-96h-254zM580 96v356h-60v96h254v-96h-60v-356h126l12 82h108l-13 -178h-427v96h60z" />
    <glyph glyph-name="germandbls.sc" unicode="&#xe03f;" horiz-adv-x="1000" 
d="M437 398h-108v52c-21 12 -55 15 -79 15c-60 0 -77 -30 -77 -61c0 -96 294 -20 294 -233c0 -133 -118 -184 -243 -184c-59 0 -126 9 -185 28l-6 152h114l6 -66c24 -13 58 -18 87 -18c54 0 87 36 87 68c0 104 -294 21 -294 228c0 100 74 182 235 182c57 0 107 -10 169 -29
v-134zM937 398h-108v52c-21 12 -55 15 -79 15c-60 0 -77 -30 -77 -61c0 -96 294 -20 294 -233c0 -133 -118 -184 -243 -184c-59 0 -126 9 -185 28l-6 152h114l6 -66c24 -13 58 -18 87 -18c54 0 87 36 87 68c0 104 -294 21 -294 228c0 100 74 182 235 182
c57 0 107 -10 169 -29v-134z" />
    <glyph glyph-name="uni2215" unicode="&#x2215;" horiz-adv-x="167" 
d="M-170 -14l421 772l86 -44l-421 -772z" />
    <glyph glyph-name="A.sc" unicode="&#xe000;" horiz-adv-x="648" 
d="M56 96l196 452h152l186 -452h49v-96h-254v96h47l-29 82h-180l-27 -82h47v-96h-234v96h47zM255 274h118l-56 166h-2z" />
    <glyph glyph-name="B.sc" unicode="&#xe008;" horiz-adv-x="519" 
d="M233 452v-128h35c43 0 74 16 74 66c0 43 -23 62 -74 62h-35zM99 96v356h-60v96h271c97 0 166 -41 166 -134c0 -65 -37 -109 -120 -122v-2c87 -4 142 -50 142 -131c0 -108 -73 -159 -187 -159h-266v96h54zM233 228v-132h40c63 0 91 19 91 66c0 50 -30 66 -91 66h-40z" />
    <glyph glyph-name="C.sc" unicode="&#xe009;" horiz-adv-x="556" 
d="M415 102l6 75h102v-158c-54 -16 -129 -32 -190 -32c-184 0 -300 86 -300 269c0 220 142 305 316 305c62 0 121 -12 174 -32v-152h-108v65c-23 5 -48 11 -74 11c-105 0 -162 -58 -162 -176c0 -148 77 -182 172 -182c25 0 45 3 64 7z" />
    <glyph glyph-name="D.sc" unicode="&#xe00b;" horiz-adv-x="630" 
d="M233 452v-356h64c95 0 154 70 154 178c0 127 -59 178 -154 178h-64zM99 96v356h-60v96h277c166 0 281 -78 281 -274c0 -147 -99 -274 -276 -274h-282v96h60z" />
    <glyph glyph-name="E.sc" unicode="&#xe00c;" horiz-adv-x="519" 
d="M99 96v356h-60v96h431l10 -166h-102l-10 70h-135v-128h144v-96h-144v-132h135l10 82h108l-15 -178h-426v96h54z" />
    <glyph glyph-name="F.sc" unicode="&#xe012;" horiz-adv-x="481" 
d="M45 0v96h54v356h-60v96h430l10 -166h-108l-10 70h-128v-128h144v-96h-144v-132h66v-96h-254z" />
    <glyph glyph-name="G.sc" unicode="&#xe013;" horiz-adv-x="611" 
d="M408 104v84h-58v96h228v-96h-52v-169c-69 -20 -138 -32 -204 -32c-176 0 -289 99 -289 272c0 210 143 302 317 302c64 0 121 -10 182 -32v-152h-108v64c-28 8 -51 12 -74 12c-110 0 -171 -67 -171 -178c0 -120 67 -180 153 -180c32 0 54 5 76 9z" />
    <glyph glyph-name="H.sc" unicode="&#xe014;" horiz-adv-x="666" 
d="M99 96v356h-60v96h254v-96h-60v-128h200v128h-60v96h254v-96h-60v-356h60v-96h-254v96h60v132h-200v-132h60v-96h-254v96h60z" />
    <glyph glyph-name="I.sc" unicode="&#xe015;" 
d="M99 96v356h-60v96h254v-96h-60v-356h60v-96h-254v96h60z" />
    <glyph glyph-name="J.sc" unicode="&#xe01a;" horiz-adv-x="315" 
d="M85 138v314h-57v96h248v-96h-57v-352c0 -93 -50 -186 -173 -247l-57 91c70 46 96 93 96 194z" />
    <glyph glyph-name="K.sc" unicode="&#xe01b;" horiz-adv-x="630" 
d="M99 96v356h-60v96h248v-96h-54v-161l176 161h-52v96h240v-96h-41l-188 -168l197 -188h44v-96h-254v96h44l-166 159v-159h54v-96h-248v96h60z" />
    <glyph glyph-name="L.sc" unicode="&#xe01c;" horiz-adv-x="500" 
d="M99 96v356h-60v96h254v-96h-60v-356h126l12 82h108l-13 -178h-427v96h60z" />
    <glyph glyph-name="M.sc" unicode="&#xe01e;" horiz-adv-x="852" 
d="M28 452v96h263l136 -390h2l143 390h241v-96h-51v-356h62v-96h-240v96h50v316h-2l-153 -412h-128l-146 405h-2v-309h47v-96h-222v96h61v356h-61z" />
    <glyph glyph-name="N.sc" unicode="&#xe01f;" horiz-adv-x="666" 
d="M88 96v356h-60v96h190l244 -328h2v232h-60v96h234v-96h-54v-452h-116l-258 348h-2v-252h60v-96h-234v96h54z" />
    <glyph glyph-name="O.sc" unicode="&#xe021;" horiz-adv-x="630" 
d="M33 274c0 184 116 287 282 287s282 -103 282 -287s-116 -287 -282 -287s-282 103 -282 287zM179 274c0 -132 67 -179 136 -179c70 0 136 47 136 179s-66 179 -136 179c-69 0 -136 -47 -136 -179z" />
    <glyph glyph-name="P.sc" unicode="&#xe029;" horiz-adv-x="500" 
d="M233 452v-139h45c51 0 79 10 79 74c0 49 -37 65 -78 65h-46zM99 96v356h-60v96h281c110 0 171 -65 171 -157c0 -124 -81 -177 -182 -177h-76v-118h72v-96h-260v96h54z" />
    <glyph glyph-name="Q.sc" unicode="&#xe02a;" horiz-adv-x="630" 
d="M466 -103l-105 64c-24 15 -51 27 -81 29c-147 10 -247 113 -247 284c0 184 116 287 282 287s282 -103 282 -287c0 -129 -57 -219 -151 -259l2 -2c5 2 12 3 21 3c26 0 62 -17 112 -40c25 -11 36 -15 51 -15c11 0 22 3 33 5v-102c-15 -7 -36 -11 -57 -11
c-45 0 -74 3 -142 44zM179 274c0 -132 67 -179 136 -179c70 0 136 47 136 179s-66 179 -136 179c-69 0 -136 -47 -136 -179z" />
    <glyph glyph-name="R.sc" unicode="&#xe02b;" horiz-adv-x="556" 
d="M267 452h-34v-134h34c54 0 81 25 81 71c0 50 -25 63 -81 63zM99 96v356h-60v96h277c111 0 166 -58 166 -146c0 -62 -33 -127 -141 -144v-2c55 -5 77 -22 100 -56l59 -90c4 -6 20 -14 32 -14c6 0 12 3 18 6v-102h-95c-45 0 -63 14 -85 54l-75 138c-15 28 -28 30 -62 30
v-126h40v-96h-234v96h60z" />
    <glyph glyph-name="S.sc" unicode="&#xe02c;" horiz-adv-x="500" 
d="M437 398h-108v52c-21 12 -55 15 -79 15c-60 0 -77 -30 -77 -61c0 -96 294 -20 294 -233c0 -133 -118 -184 -243 -184c-59 0 -126 9 -185 28l-6 152h114l6 -66c24 -13 58 -18 87 -18c54 0 87 36 87 68c0 104 -294 21 -294 228c0 100 74 182 235 182c57 0 107 -10 169 -29
v-134z" />
    <glyph glyph-name="T.sc" unicode="&#xe02e;" horiz-adv-x="536" 
d="M201 96v356h-83l-7 -70h-102l7 166h504l7 -166h-102l-7 70h-83v-356h63v-96h-260v96h63z" />
    <glyph glyph-name="U.sc" unicode="&#xe030;" horiz-adv-x="648" 
d="M88 151v301h-60v96h254v-96h-60v-264c0 -54 33 -93 112 -93c83 0 102 54 102 104v253h-56v96h240v-96h-56v-223c0 -135 -46 -242 -237 -242c-139 0 -239 58 -239 164z" />
    <glyph glyph-name="V.sc" unicode="&#xe035;" horiz-adv-x="648" 
d="M252 0l-195 452h-48v96h254v-96h-48l114 -326h2l120 326h-52v96h240v-96h-48l-199 -452h-140z" />
    <glyph glyph-name="W.sc" unicode="&#xe036;" horiz-adv-x="980" 
d="M244 0l-192 452h-46v96h248v-96h-50l118 -344l113 282l-21 62h-54v96h248v-96h-54l117 -344h2l115 344h-54v96h240v-96h-46l-192 -452h-146l-100 249l-100 -249h-146z" />
    <glyph glyph-name="X.sc" unicode="&#xe037;" horiz-adv-x="611" 
d="M322 0v96h52l-87 103l-91 -103h65v-96h-240v96h41l159 178l-155 178h-45v96h268v-96h-49l79 -93l87 93h-63v96h234v-96h-43l-152 -168l166 -188h42v-96h-268z" />
    <glyph glyph-name="Y.sc" unicode="&#xe038;" horiz-adv-x="611" 
d="M12 452v96h260v-96h-49l96 -139l93 139h-53v96h240v-96h-41l-183 -238v-118h63v-96h-260v96h63v118l-188 238h-41z" />
    <glyph glyph-name="Z.sc" unicode="&#xe03b;" horiz-adv-x="556" 
d="M33 0v96l303 356h-168l-10 -68h-108l10 164h458v-90l-308 -362h189l10 82h114l-10 -178h-480z" />
    <glyph glyph-name="Lslash.sc" unicode="&#xe01d;" horiz-adv-x="500" 
d="M99 96v80l-60 -33v80l60 33v196h-60v96h254v-96h-60v-115l109 61v-80l-109 -61v-161h126l12 82h108l-13 -178h-427v96h60z" />
    <glyph glyph-name="Scaron.sc" unicode="&#xe02d;" horiz-adv-x="500" 
d="M437 398h-108v52c-21 12 -55 15 -79 15c-60 0 -77 -30 -77 -61c0 -96 294 -20 294 -233c0 -133 -118 -184 -243 -184c-59 0 -126 9 -185 28l-6 152h114l6 -66c24 -13 58 -18 87 -18c54 0 87 36 87 68c0 104 -294 21 -294 228c0 100 74 182 235 182c57 0 107 -10 169 -29
v-134zM250 710l143 112l81 -66l-181 -139h-86l-181 139l81 66z" />
    <glyph glyph-name="Zcaron.sc" unicode="&#xe03c;" horiz-adv-x="556" 
d="M33 0v96l303 356h-168l-10 -68h-108l10 164h458v-90l-308 -362h189l10 82h114l-10 -178h-480zM278 710l143 112l81 -66l-181 -139h-86l-181 139l81 66z" />
    <glyph glyph-name="Agrave.sc" unicode="&#xe005;" horiz-adv-x="648" 
d="M56 96l196 452h152l186 -452h49v-96h-254v96h47l-29 82h-180l-27 -82h47v-96h-234v96h47zM255 274h118l-56 166h-2zM127 753l71 70l217 -175l-75 -60z" />
    <glyph glyph-name="Aacute.sc" unicode="&#xe002;" horiz-adv-x="648" 
d="M56 96l196 452h152l186 -452h49v-96h-254v96h47l-29 82h-180l-27 -82h47v-96h-234v96h47zM255 274h118l-56 166h-2zM450 823l71 -70l-213 -165l-75 60z" />
    <glyph glyph-name="Acircumflex.sc" unicode="&#xe003;" horiz-adv-x="648" 
d="M56 96l196 452h152l186 -452h49v-96h-254v96h47l-29 82h-180l-27 -82h47v-96h-234v96h47zM255 274h118l-56 166h-2zM467 604l-143 112l-143 -112l-81 66l181 139h86l181 -139z" />
    <glyph glyph-name="Atilde.sc" unicode="&#xe007;" horiz-adv-x="648" 
d="M56 96l196 452h152l186 -452h49v-96h-254v96h47l-29 82h-180l-27 -82h47v-96h-234v96h47zM255 274h118l-56 166h-2zM204 631l-85 41c25 62 74 108 138 108s98 -52 140 -52c24 0 35 8 60 44l72 -51c-26 -49 -70 -95 -129 -95c-54 0 -103 55 -141 55c-19 0 -36 -13 -55 -50
z" />
    <glyph glyph-name="Adieresis.sc" unicode="&#xe004;" horiz-adv-x="648" 
d="M56 96l196 452h152l186 -452h49v-96h-254v96h47l-29 82h-180l-27 -82h47v-96h-234v96h47zM255 274h118l-56 166h-2zM120 700c0 49 34 84 88 84s88 -35 88 -84s-34 -84 -88 -84s-88 35 -88 84zM352 700c0 49 34 84 88 84s88 -35 88 -84s-34 -84 -88 -84s-88 35 -88 84z
" />
    <glyph glyph-name="Aring.sc" unicode="&#xe006;" horiz-adv-x="648" 
d="M56 96l196 452h152l186 -452h49v-96h-254v96h47l-29 82h-180l-27 -82h47v-96h-234v96h47zM255 274h118l-56 166h-2zM205 713c0 62 47 108 119 108s119 -46 119 -108s-47 -108 -119 -108s-119 46 -119 108zM365 713c0 32 -16 52 -41 52s-41 -20 -41 -52s16 -52 41 -52
s41 20 41 52z" />
    <glyph glyph-name="AE.sc" unicode="&#xe001;" horiz-adv-x="852" 
d="M429 324v128h-49l-70 -128h119zM9 96h46l269 452h455l4 -166h-102l-4 70h-114v-128h121v-96h-121v-132h130l12 82h108l-14 -178h-424v96h54v132h-167l-67 -132h54v-96h-240v96z" />
    <glyph glyph-name="Ccedilla.sc" unicode="&#xe00a;" horiz-adv-x="556" 
d="M268 -104v95c-145 18 -235 104 -235 265c0 220 142 305 316 305c62 0 121 -12 174 -32v-152h-108v65c-23 5 -48 11 -74 11c-105 0 -162 -58 -162 -176c0 -148 77 -182 172 -182c25 0 45 3 64 7l6 75h102v-158c-47 -14 -109 -28 -165 -32v-47c90 0 107 -49 107 -85
c0 -64 -62 -106 -153 -106c-44 0 -82 8 -111 15l4 73c23 -8 48 -14 73 -14c42 0 67 15 67 38s-14 35 -77 35z" />
    <glyph glyph-name="Egrave.sc" unicode="&#xe010;" horiz-adv-x="519" 
d="M99 96v356h-60v96h431l10 -166h-102l-10 70h-135v-128h144v-96h-144v-132h135l10 82h108l-15 -178h-426v96h54zM63 753l71 70l217 -175l-75 -60z" />
    <glyph glyph-name="Eacute.sc" unicode="&#xe00d;" horiz-adv-x="519" 
d="M99 96v356h-60v96h431l10 -166h-102l-10 70h-135v-128h144v-96h-144v-132h135l10 82h108l-15 -178h-426v96h54zM386 823l71 -70l-213 -165l-75 60z" />
    <glyph glyph-name="Ecircumflex.sc" unicode="&#xe00e;" horiz-adv-x="519" 
d="M99 96v356h-60v96h431l10 -166h-102l-10 70h-135v-128h144v-96h-144v-132h135l10 82h108l-15 -178h-426v96h54zM403 604l-143 112l-143 -112l-81 66l181 139h86l181 -139z" />
    <glyph glyph-name="Edieresis.sc" unicode="&#xe00f;" horiz-adv-x="519" 
d="M99 96v356h-60v96h431l10 -166h-102l-10 70h-135v-128h144v-96h-144v-132h135l10 82h108l-15 -178h-426v96h54zM56 700c0 49 34 84 88 84s88 -35 88 -84s-34 -84 -88 -84s-88 35 -88 84zM288 700c0 49 34 84 88 84s88 -35 88 -84s-34 -84 -88 -84s-88 35 -88 84z" />
    <glyph glyph-name="Igrave.sc" unicode="&#xe019;" 
d="M99 96v356h-60v96h254v-96h-60v-356h60v-96h-254v96h60zM-31 753l71 70l217 -175l-75 -60z" />
    <glyph glyph-name="Iacute.sc" unicode="&#xe016;" 
d="M99 96v356h-60v96h254v-96h-60v-356h60v-96h-254v96h60zM292 823l71 -70l-213 -165l-75 60z" />
    <glyph glyph-name="Icircumflex.sc" unicode="&#xe017;" 
d="M99 96v356h-60v96h254v-96h-60v-356h60v-96h-254v96h60zM309 604l-143 112l-143 -112l-81 66l181 139h86l181 -139z" />
    <glyph glyph-name="Idieresis.sc" unicode="&#xe018;" 
d="M99 96v356h-60v96h254v-96h-60v-356h60v-96h-254v96h60zM-38 700c0 49 34 84 88 84s88 -35 88 -84s-34 -84 -88 -84s-88 35 -88 84zM194 700c0 49 34 84 88 84s88 -35 88 -84s-34 -84 -88 -84s-88 35 -88 84z" />
    <glyph glyph-name="Eth.sc" unicode="&#xe011;" horiz-adv-x="630" 
d="M99 96v132h-60v96h60v128h-60v96h277c166 0 281 -78 281 -274c0 -147 -99 -274 -276 -274h-282v96h60zM233 324h85v-96h-85v-132h64c95 0 154 70 154 178c0 127 -59 178 -154 178h-64v-128z" />
    <glyph glyph-name="Ntilde.sc" unicode="&#xe020;" horiz-adv-x="666" 
d="M88 96v356h-60v96h190l244 -328h2v232h-60v96h234v-96h-54v-452h-116l-258 348h-2v-252h60v-96h-234v96h54zM213 631l-85 41c25 62 74 108 138 108s98 -52 140 -52c24 0 35 8 60 44l72 -51c-26 -49 -70 -95 -129 -95c-54 0 -103 55 -141 55c-19 0 -36 -13 -55 -50z" />
    <glyph glyph-name="Ograve.sc" unicode="&#xe026;" horiz-adv-x="630" 
d="M33 274c0 184 116 287 282 287s282 -103 282 -287s-116 -287 -282 -287s-282 103 -282 287zM179 274c0 -132 67 -179 136 -179c70 0 136 47 136 179s-66 179 -136 179c-69 0 -136 -47 -136 -179zM118 753l71 70l217 -175l-75 -60z" />
    <glyph glyph-name="Oacute.sc" unicode="&#xe023;" horiz-adv-x="630" 
d="M33 274c0 184 116 287 282 287s282 -103 282 -287s-116 -287 -282 -287s-282 103 -282 287zM179 274c0 -132 67 -179 136 -179c70 0 136 47 136 179s-66 179 -136 179c-69 0 -136 -47 -136 -179zM441 823l71 -70l-213 -165l-75 60z" />
    <glyph glyph-name="Ocircumflex.sc" unicode="&#xe024;" horiz-adv-x="630" 
d="M33 274c0 184 116 287 282 287s282 -103 282 -287s-116 -287 -282 -287s-282 103 -282 287zM179 274c0 -132 67 -179 136 -179c70 0 136 47 136 179s-66 179 -136 179c-69 0 -136 -47 -136 -179zM458 604l-143 112l-143 -112l-81 66l181 139h86l181 -139z" />
    <glyph glyph-name="Otilde.sc" unicode="&#xe028;" horiz-adv-x="630" 
d="M33 274c0 184 116 287 282 287s282 -103 282 -287s-116 -287 -282 -287s-282 103 -282 287zM179 274c0 -132 67 -179 136 -179c70 0 136 47 136 179s-66 179 -136 179c-69 0 -136 -47 -136 -179zM195 631l-85 41c25 62 74 108 138 108s98 -52 140 -52c24 0 35 8 60 44
l72 -51c-26 -49 -70 -95 -129 -95c-54 0 -103 55 -141 55c-19 0 -36 -13 -55 -50z" />
    <glyph glyph-name="Odieresis.sc" unicode="&#xe025;" horiz-adv-x="630" 
d="M33 274c0 184 116 287 282 287s282 -103 282 -287s-116 -287 -282 -287s-282 103 -282 287zM179 274c0 -132 67 -179 136 -179c70 0 136 47 136 179s-66 179 -136 179c-69 0 -136 -47 -136 -179zM111 700c0 49 34 84 88 84s88 -35 88 -84s-34 -84 -88 -84s-88 35 -88 84z
M343 700c0 49 34 84 88 84s88 -35 88 -84s-34 -84 -88 -84s-88 35 -88 84z" />
    <glyph glyph-name="OE.sc" unicode="&#xe022;" horiz-adv-x="815" 
d="M535 324h144v-96h-144v-132h129l10 82h108l-15 -178h-486c-171 0 -248 124 -248 260c0 175 101 288 287 288h446l10 -166h-102l-10 70h-129v-128zM401 96v356h-71c-83 0 -151 -45 -151 -188c0 -116 58 -168 158 -168h64z" />
    <glyph glyph-name="Oslash.sc" unicode="&#xe027;" horiz-adv-x="630" 
d="M121 -86l-55 35l63 97c-60 48 -96 126 -96 228c0 184 116 287 282 287c48 0 93 -9 130 -26l64 99l55 -35l-63 -98c60 -48 96 -125 96 -227c0 -184 -116 -287 -282 -287c-49 0 -93 9 -130 26zM203 161l178 275c-20 12 -43 17 -66 17c-69 0 -136 -47 -136 -179
c0 -49 9 -86 24 -113zM427 387l-177 -274c20 -13 42 -18 65 -18c70 0 136 47 136 179c0 50 -9 87 -24 113z" />
    <glyph glyph-name="Ugrave.sc" unicode="&#xe034;" horiz-adv-x="648" 
d="M88 151v301h-60v96h254v-96h-60v-264c0 -54 33 -93 112 -93c83 0 102 54 102 104v253h-56v96h240v-96h-56v-223c0 -135 -46 -242 -237 -242c-139 0 -239 58 -239 164zM127 753l71 70l217 -175l-75 -60z" />
    <glyph glyph-name="Uacute.sc" unicode="&#xe031;" horiz-adv-x="648" 
d="M88 151v301h-60v96h254v-96h-60v-264c0 -54 33 -93 112 -93c83 0 102 54 102 104v253h-56v96h240v-96h-56v-223c0 -135 -46 -242 -237 -242c-139 0 -239 58 -239 164zM450 823l71 -70l-213 -165l-75 60z" />
    <glyph glyph-name="Ucircumflex.sc" unicode="&#xe032;" horiz-adv-x="648" 
d="M88 151v301h-60v96h254v-96h-60v-264c0 -54 33 -93 112 -93c83 0 102 54 102 104v253h-56v96h240v-96h-56v-223c0 -135 -46 -242 -237 -242c-139 0 -239 58 -239 164zM457 604l-143 112l-143 -112l-81 66l181 139h86l181 -139z" />
    <glyph glyph-name="Udieresis.sc" unicode="&#xe033;" horiz-adv-x="648" 
d="M88 151v301h-60v96h254v-96h-60v-264c0 -54 33 -93 112 -93c83 0 102 54 102 104v253h-56v96h240v-96h-56v-223c0 -135 -46 -242 -237 -242c-139 0 -239 58 -239 164zM110 700c0 49 34 84 88 84s88 -35 88 -84s-34 -84 -88 -84s-88 35 -88 84zM342 700c0 49 34 84 88 84
s88 -35 88 -84s-34 -84 -88 -84s-88 35 -88 84z" />
    <glyph glyph-name="Yacute.sc" unicode="&#xe039;" horiz-adv-x="611" 
d="M12 452v96h260v-96h-49l96 -139l93 139h-53v96h240v-96h-41l-183 -238v-118h63v-96h-260v96h63v118l-188 238h-41zM432 823l71 -70l-213 -165l-75 60z" />
    <glyph glyph-name="Thorn.sc" unicode="&#xe02f;" horiz-adv-x="500" 
d="M233 323v-98h45c51 0 79 10 79 55c0 27 -37 43 -78 43h-46zM99 96v356h-60v96h266v-96h-72v-33h87c110 0 171 -65 171 -135c0 -102 -81 -155 -182 -155h-76v-33h72v-96h-260v96h54z" />
    <glyph glyph-name="Ydieresis.sc" unicode="&#xe03a;" horiz-adv-x="611" 
d="M12 452v96h260v-96h-49l96 -139l93 139h-53v96h240v-96h-41l-183 -238v-118h63v-96h-260v96h63v118l-188 238h-41zM102 700c0 49 34 84 88 84s88 -35 88 -84s-34 -84 -88 -84s-88 35 -88 84zM334 700c0 49 34 84 88 84s88 -35 88 -84s-34 -84 -88 -84s-88 35 -88 84z" />
    <glyph glyph-name="uni03A9" unicode="&#x3a9;" horiz-adv-x="754" 
d="M186 103v3c-65 57 -131 154 -131 285c0 180 132 327 324 327c204 0 317 -167 317 -321c0 -133 -65 -234 -133 -291v-3h148v-103h-280v77c69 42 134 134 134 293c0 126 -66 243 -186 243c-116 0 -192 -105 -192 -248c0 -145 64 -248 134 -288v-77h-280v103h145z" />
    </font>
</defs>
</svg>
