<?xml version="1.0" standalone="no"?>
<!DOCTYPE svg PUBLIC "-//W3C//DTD SVG 1.1//EN" "http://www.w3.org/Graphics/SVG/1.1/DTD/svg11.dtd" >
<svg>
<metadata>
Created by FontForge 20110222 at Sat Nov 17 04:16:52 2012
 By Stefan Warting
 The digitally encoded machine readable software for producing the
 Typefaces licensed to you is copyrighted (c) 1991, 1992, 1995, 2002 Adobe Systems.
 All Rights Reserved. This software is the property of Adobe Systems
 Incorporated and its licensors, and may not be reproduced, used, 
 displayed, modified, disclosed or transferred without the express 
 written approval of Adobe.
 
 The digitally encoded machine readable outline data for producing the Typefaces 
 provided as part of your laser printer is copyrighted (c) 1981, 2002 Heidelberger Druckmaschinen AG. 
 All rights reserved. This data is the property of Heidelberger Druckmaschinen AG, 
 and may not be reproduced, used, displayed, modified, disclosed or transferred 
 without the express written approval of Heidelberger Druckmaschinen AG. 
</metadata>
<defs>
<font id="CaeciliaLTStd-BoldItalic" horiz-adv-x="574" >
  <font-face 
    font-family="Caecilia LT Std"
    font-weight="700"
    font-style="italic"
    font-stretch="normal"
    units-per-em="1000"
    panose-1="0 0 8 0 0 0 0 0 0 0"
    ascent="769"
    descent="-231"
    x-height="520"
    cap-height="700"
    bbox="-169 -273 1082 932"
    underline-thickness="50"
    underline-position="-50"
    slope="-5"
    stemh="82"
    stemv="106"
    unicode-range="U+0020-FB02"
  />
<missing-glyph horiz-adv-x="531" 
d="M31 0v700h500v-700h-500zM281 395l170 255h-340zM311 350l170 -255v510zM111 50h340l-170 255zM81 605v-510l170 255z" />
    <glyph glyph-name="f_i" unicode="fi" horiz-adv-x="593" 
d="M46 438l7 82h72l1 17c11 145 67 236 223 236c50 0 95 -7 134 -17l-11 -79c-27 7 -57 14 -99 14c-88 0 -126 -37 -136 -124l-6 -47h291l-38 -438h69l-7 -82h-174l39 438h-186l-32 -393c-10 -129 -27 -303 -220 -303c-33 0 -59 7 -90 14l8 86c23 -5 48 -12 68 -12
c91 0 119 74 131 230l29 378h-73z" />
    <glyph glyph-name="f_l" unicode="fl" horiz-adv-x="593" 
d="M46 438l7 82h72l1 17c11 145 67 236 223 236c14 0 27 -1 40 -2s27 -2 40 -2h114l-60 -688h70l-7 -82h-174l60 683c-15 5 -45 9 -59 9c-88 0 -126 -37 -136 -124l-6 -47h135l-7 -82h-134l-32 -393c-10 -129 -27 -303 -220 -303c-33 0 -59 7 -90 14l8 86
c23 -5 48 -12 68 -12c91 0 119 74 131 230l29 378h-73z" />
    <glyph glyph-name=".notdef" horiz-adv-x="531" 
d="M31 0v700h500v-700h-500zM281 395l170 255h-340zM311 350l170 -255v510zM111 50h340l-170 255zM81 605v-510l170 255z" />
    <glyph glyph-name="space" unicode=" " horiz-adv-x="296" 
 />
    <glyph glyph-name="exclam" unicode="!" horiz-adv-x="296" 
d="M90 225l35 544h121l-56 -544h-100zM50 52c0 45 29 72 74 72c50 0 74 -29 74 -65c0 -43 -28 -71 -78 -71c-30 0 -70 12 -70 64z" />
    <glyph glyph-name="quotedbl" unicode="&#x22;" horiz-adv-x="481" 
d="M299 482l-10 123c-6 68 -10 96 -10 121c0 30 25 55 56 55s56 -25 56 -55c0 -25 -4 -53 -10 -121l-10 -123c-2 -27 -21 -35 -36 -35s-34 8 -36 35zM110 482l-10 123c-6 68 -10 96 -10 121c0 30 25 55 56 55s56 -25 56 -55c0 -25 -4 -53 -10 -121l-10 -123
c-2 -27 -21 -35 -36 -35s-34 8 -36 35z" />
    <glyph glyph-name="numbersign" unicode="#" horiz-adv-x="592" 
d="M350 280l19 140h-127l-19 -140h127zM110 0l30 210h-90l10 70h90l19 140h-90l10 70h90l30 210h73l-30 -210h127l30 210h73l-30 -210h90l-10 -70h-90l-19 -140h90l-10 -70h-90l-30 -210h-73l30 210h-127l-30 -210h-73z" />
    <glyph glyph-name="dollar" unicode="$" horiz-adv-x="592" 
d="M38 20l6 168h85v-94c13 -6 56 -21 109 -21l22 248c-88 26 -198 59 -198 190c0 108 91 204 232 204l11 120h82l-11 -120c58 -1 122 -17 163 -31l-6 -158h-86l2 90c-20 9 -54 17 -80 17l-19 -223c165 -55 204 -114 204 -216c0 -133 -117 -204 -241 -209l-12 -132h-82
l12 132c-78 0 -160 19 -193 35zM270 431l17 202c-62 -9 -113 -33 -113 -105c1 -57 45 -80 96 -97zM340 299l-19 -224c46 4 121 28 121 121c0 59 -46 89 -102 103z" />
    <glyph glyph-name="percent" unicode="%" horiz-adv-x="815" 
d="M438 133c0 99 60 177 169 177c94 0 142 -67 142 -147c0 -99 -61 -178 -166 -178c-71 0 -145 41 -145 148zM520 135c0 -43 14 -80 67 -80s80 48 80 103c0 42 -15 82 -65 82c-58 0 -82 -58 -82 -105zM151 540c0 -43 14 -80 67 -80s80 48 80 103c0 42 -15 82 -65 82
c-58 0 -82 -58 -82 -105zM69 538c0 99 60 177 169 177c94 0 142 -67 142 -147c0 -99 -61 -178 -166 -178c-71 0 -145 41 -145 148zM39 -23l681 792l56 -46l-681 -792z" />
    <glyph glyph-name="ampersand" unicode="&#x26;" horiz-adv-x="759" 
d="M330 396l183 -200c31 33 45 114 45 150h-65l7 82h218l-7 -82h-65c-6 -88 -40 -174 -76 -208l9 -11c20 -24 42 -45 79 -45h49l-7 -82h-78c-32 0 -63 10 -103 59l-12 14c-45 -43 -111 -90 -229 -90c-167 0 -239 99 -239 200c0 117 77 165 167 215c-46 46 -81 95 -81 158
c0 89 79 161 191 161c117 0 163 -66 163 -134c0 -98 -91 -152 -149 -187zM219 559c0 -52 43 -89 64 -112c59 39 108 73 108 125c0 33 -20 69 -81 69c-52 0 -91 -27 -91 -82zM454 130l-200 215c-32 -19 -109 -63 -109 -148c0 -78 65 -132 157 -132c55 0 110 26 152 65z" />
    <glyph glyph-name="quoteright" unicode="&#x2019;" horiz-adv-x="296" 
d="M95 447l-35 62c52 21 97 49 97 101c0 43 -37 65 -37 106c0 23 16 65 71 65s84 -49 84 -113c0 -122 -105 -196 -180 -221z" />
    <glyph glyph-name="parenleft" unicode="(" horiz-adv-x="333" 
d="M315 791l70 -54c-126 -151 -197 -342 -197 -547c0 -148 29 -289 109 -417l-76 -46c-89 123 -151 304 -151 458c0 249 92 429 245 606z" />
    <glyph glyph-name="parenright" unicode=")" horiz-adv-x="333" 
d="M18 -273l-70 54c126 151 197 342 197 547c0 148 -29 289 -109 417l76 46c89 -123 151 -304 151 -458c0 -249 -92 -429 -245 -606z" />
    <glyph glyph-name="asterisk" unicode="*" horiz-adv-x="352" 
d="M73 510l-34 65l125 44l-115 50l43 63l89 -84l-7 121h73l-31 -119l2 -2l96 80l38 -64l-124 -45l114 -49l-42 -65l-90 87l9 -127h-73l33 125l-2 2z" />
    <glyph glyph-name="plus" unicode="+" horiz-adv-x="600" 
d="M251 0v212h-212v82h212v212h82v-212h212v-82h-212v-212h-82z" />
    <glyph glyph-name="comma" unicode="," horiz-adv-x="296" 
d="M35 -200l-35 62c52 21 97 49 97 101c0 43 -37 65 -37 106c0 23 16 65 71 65s84 -49 84 -113c0 -122 -105 -196 -180 -221z" />
    <glyph glyph-name="hyphen" unicode="-" horiz-adv-x="389" 
d="M57 237l7 94h256l-7 -94h-256z" />
    <glyph glyph-name="period" unicode="." horiz-adv-x="296" 
d="M56 52c0 45 29 72 74 72c50 0 74 -29 74 -65c0 -43 -28 -71 -78 -71c-30 0 -70 12 -70 64z" />
    <glyph glyph-name="slash" unicode="/" horiz-adv-x="370" 
d="M-78 -49l451 830l75 -32l-451 -830z" />
    <glyph glyph-name="zero" unicode="0" horiz-adv-x="592" 
d="M38 296c0 175 72 419 286 419c182 0 230 -154 230 -317c0 -143 -39 -413 -288 -413c-194 0 -228 199 -228 311zM144 308c0 -136 34 -235 131 -235c149 0 173 217 173 320c0 137 -38 234 -128 234c-143 0 -176 -213 -176 -319z" />
    <glyph glyph-name="one" unicode="1" horiz-adv-x="592" 
d="M118 0l8 82h128l46 533c-11 -11 -31 -28 -57 -44l-119 -74l-42 66l233 137h98l-53 -618h140l-6 -82h-376z" />
    <glyph glyph-name="two" unicode="2" horiz-adv-x="592" 
d="M32 0l7 82c67 44 385 286 385 448c0 56 -38 97 -109 97c-86 0 -122 -58 -131 -115h-106c0 26 39 203 248 203c112 0 204 -63 204 -186c0 -176 -252 -365 -357 -442l2 -2c24 2 38 3 60 3h281l-7 -88h-477z" />
    <glyph glyph-name="three" unicode="3" horiz-adv-x="592" 
d="M35 29l8 92c54 -28 129 -48 193 -48c88 0 177 34 177 131c0 115 -149 115 -225 115l6 82h24c115 0 198 64 198 139c0 46 -27 87 -100 87c-78 0 -118 -43 -131 -100h-100c25 137 125 188 244 188c97 0 193 -50 193 -159c0 -100 -71 -172 -183 -185v-2
c98 0 180 -62 180 -164c0 -104 -76 -220 -278 -220c-78 0 -167 18 -206 44z" />
    <glyph glyph-name="four" unicode="4" horiz-adv-x="592" 
d="M349 284l31 330h-2l-261 -334c14 2 28 4 50 4h182zM259 0l7 82h65l10 120h-321l8 90l325 408h132l-36 -416h121l-7 -82h-122l-10 -120h78l-7 -82h-243z" />
    <glyph glyph-name="five" unicode="5" horiz-adv-x="592" 
d="M98 363l31 337h382l-7 -88h-282l-16 -161c135 -3 306 -33 306 -216c0 -79 -39 -250 -288 -250c-63 0 -111 10 -170 28l8 93c11 -9 88 -33 159 -33c143 0 179 88 179 151c0 117 -109 132 -302 139z" />
    <glyph glyph-name="six" unicode="6" horiz-adv-x="592" 
d="M566 697l-16 -85c-27 10 -57 15 -117 15c-152 0 -236 -92 -269 -271l2 -2c20 32 74 82 164 82c142 0 209 -104 209 -208c0 -136 -86 -243 -242 -243c-172 0 -243 123 -243 290c0 234 128 440 375 440c59 0 108 -10 137 -18zM433 217c0 85 -56 131 -129 131
c-58 0 -113 -31 -144 -73v-18c0 -91 35 -184 140 -184c68 0 133 45 133 144z" />
    <glyph glyph-name="seven" unicode="7" horiz-adv-x="592" 
d="M97 612l7 88h460l-7 -69l-289 -497c-27 -46 -58 -95 -88 -134h-118c30 37 64 85 96 139l229 392c29 50 46 73 52 81h-342z" />
    <glyph glyph-name="eight" unicode="8" horiz-adv-x="592" 
d="M189 351l33 15c-73 35 -130 84 -130 168c0 132 119 181 236 181c99 0 208 -43 208 -158c0 -102 -75 -148 -158 -188c126 -62 160 -115 160 -196c0 -97 -84 -188 -259 -188c-98 0 -243 36 -243 178c0 89 60 147 153 188zM198 531c0 -48 39 -74 110 -118
c56 27 128 68 128 131c0 67 -64 89 -117 89c-83 0 -121 -51 -121 -102zM355 288l-62 35c-76 -39 -151 -71 -151 -151c0 -77 80 -99 143 -99c93 0 147 45 147 109c0 51 -32 81 -77 106z" />
    <glyph glyph-name="nine" unicode="9" horiz-adv-x="592" 
d="M32 4l17 84c37 -11 74 -15 113 -15c177 0 244 122 270 283l-2 2c-30 -39 -75 -83 -156 -83c-112 0 -210 68 -210 203c0 121 74 237 233 237c175 0 241 -130 241 -292c0 -238 -121 -438 -372 -438c-53 0 -109 12 -134 19zM170 485c0 -75 53 -122 126 -122
c71 0 112 39 136 65v14c0 76 -25 185 -137 185c-79 0 -125 -57 -125 -142z" />
    <glyph glyph-name="colon" unicode=":" horiz-adv-x="296" 
d="M56 52c0 45 29 72 74 72c50 0 74 -29 74 -65c0 -43 -28 -71 -78 -71c-30 0 -70 12 -70 64zM92 454c0 45 29 72 74 72c50 0 74 -29 74 -65c0 -43 -28 -71 -78 -71c-30 0 -70 12 -70 64z" />
    <glyph glyph-name="semicolon" unicode=";" horiz-adv-x="296" 
d="M35 -200l-35 62c52 21 97 49 97 101c0 43 -37 65 -37 106c0 23 16 65 71 65s84 -49 84 -113c0 -122 -105 -196 -180 -221zM92 454c0 45 29 72 74 72c50 0 74 -29 74 -65c0 -43 -28 -71 -78 -71c-30 0 -70 12 -70 64z" />
    <glyph glyph-name="less" unicode="&#x3c;" horiz-adv-x="600" 
d="M39 215v76l506 226v-82l-406 -182l406 -182v-82z" />
    <glyph glyph-name="equal" unicode="=" horiz-adv-x="600" 
d="M39 308v82h506v-82h-506zM39 116v82h506v-82h-506z" />
    <glyph glyph-name="greater" unicode="&#x3e;" horiz-adv-x="600" 
d="M545 291v-76l-506 -226v82l406 182l-406 182v82z" />
    <glyph glyph-name="question" unicode="?" horiz-adv-x="481" 
d="M84 671l4 88c23 7 86 22 145 22c170 0 223 -98 223 -180c0 -94 -58 -149 -135 -195l-78 -46c-44 -26 -60 -47 -60 -70c0 -20 15 -39 24 -51l-94 -33c-22 24 -36 55 -36 91c0 55 31 89 95 125l39 22c93 53 127 87 127 146c0 79 -71 103 -134 103c-30 0 -80 -7 -120 -22z
M60 52c0 45 29 72 74 72c50 0 74 -29 74 -65c0 -43 -28 -71 -78 -71c-30 0 -70 12 -70 64z" />
    <glyph glyph-name="at" unicode="@" horiz-adv-x="800" 
d="M502 390c0 51 -37 96 -83 96c-83 0 -147 -101 -147 -185c0 -56 30 -98 87 -98c83 0 143 111 143 187zM33 351c0 205 172 366 383 366c188 0 351 -122 351 -301c0 -185 -161 -283 -242 -283c-39 0 -62 19 -68 57h-2c-27 -33 -70 -57 -122 -57c-86 0 -137 72 -137 159
c0 129 90 264 219 264c50 0 91 -22 117 -74l19 58h73l-78 -267c-4 -16 -10 -35 -10 -48s8 -22 24 -22c58 0 131 95 131 200c0 148 -129 244 -275 244c-182 0 -307 -139 -307 -300c0 -163 137 -294 316 -294c91 0 182 44 226 96h82c-66 -104 -183 -166 -312 -166
c-218 0 -388 161 -388 368z" />
    <glyph glyph-name="A" unicode="A" horiz-adv-x="741" 
d="M-8 0l7 82h57l288 624h124l179 -624h63l-7 -82h-235l7 82h54l-44 174h-247l-76 -174h73l-7 -82h-236zM465 338l-55 212c-6 25 -10 46 -14 74h-2c-7 -23 -19 -54 -28 -74l-91 -212h190z" />
    <glyph glyph-name="B" unicode="B" horiz-adv-x="593" 
d="M24 0l7 82h59l46 536h-72l7 82h247c127 0 223 -39 223 -165c0 -121 -90 -165 -165 -171v-2c83 0 178 -36 178 -156c0 -140 -110 -206 -274 -206h-256zM242 618l-18 -216h62c77 0 149 32 149 122c0 67 -39 94 -106 94h-87zM218 326l-22 -244h94c60 0 152 17 152 130
c0 99 -87 114 -164 114h-60z" />
    <glyph glyph-name="C" unicode="C" horiz-adv-x="630" 
d="M583 180l-15 -164c-48 -15 -116 -33 -194 -33c-205 0 -335 110 -335 322c0 129 53 412 377 412c83 0 147 -17 193 -30l-8 -164h-85l2 94c-25 7 -60 12 -94 12c-203 0 -267 -156 -267 -306c0 -161 77 -252 223 -252c27 0 76 8 102 15l13 94h88z" />
    <glyph glyph-name="D" unicode="D" horiz-adv-x="741" 
d="M242 618l-46 -536h116c168 0 273 132 273 308c0 192 -115 228 -236 228h-107zM24 0l7 82h59l46 536h-72l7 82h271c216 0 355 -82 355 -296c0 -273 -166 -404 -393 -404h-280z" />
    <glyph glyph-name="E" unicode="E" 
d="M24 0l7 82h59l46 536h-72l7 82h481l-14 -177h-88l2 95h-210l-18 -216h214l-7 -82h-214l-21 -238h227l13 97h88l-14 -179h-486z" />
    <glyph glyph-name="F" unicode="F" horiz-adv-x="537" 
d="M24 0l7 82h59l46 536h-72l7 82h471l-12 -177h-88v95h-200l-20 -228h212l-7 -82h-212l-19 -226h72l-7 -82h-237z" />
    <glyph glyph-name="G" unicode="G" horiz-adv-x="685" 
d="M633 687l-14 -164h-88l2 92c-40 10 -85 14 -107 14c-184 0 -269 -125 -269 -305c0 -143 68 -253 229 -253c42 0 80 9 108 17l13 149h-73l7 82h230l-7 -82h-60l-19 -216c-28 -13 -117 -38 -215 -38c-211 0 -331 115 -331 342c0 239 141 392 381 392c87 0 155 -17 213 -30z
" />
    <glyph glyph-name="H" unicode="H" horiz-adv-x="759" 
d="M24 0l7 82h59l46 536h-72l7 82h237l-7 -82h-59l-19 -223h321l19 223h-72l7 82h237l-7 -82h-59l-45 -536h72l-7 -82h-237l7 82h59l18 225h-321l-19 -225h72l-7 -82h-237z" />
    <glyph glyph-name="I" unicode="I" horiz-adv-x="332" 
d="M24 0l7 82h59l46 536h-72l7 82h237l-7 -82h-59l-46 -536h72l-7 -82h-237z" />
    <glyph glyph-name="J" unicode="J" horiz-adv-x="332" 
d="M100 216l36 402h-72l7 82h237l-7 -82h-59l-28 -331c-21 -250 -51 -352 -280 -467l-42 78c117 63 191 125 208 318z" />
    <glyph glyph-name="K" unicode="K" horiz-adv-x="685" 
d="M24 0l7 82h59l46 536h-72l7 82h237l-7 -82h-59l-20 -239l2 -2l269 241h-73l7 82h250l-7 -82h-51l-282 -252l257 -284h61l-7 -82h-261l7 82h61l-235 266h-2l-22 -266h72l-7 -82h-237z" />
    <glyph glyph-name="L" unicode="L" horiz-adv-x="537" 
d="M24 0l7 82h59l46 536h-72l7 82h237l-7 -82h-59l-46 -536h197l13 97h94l-18 -179h-458z" />
    <glyph glyph-name="M" unicode="M" horiz-adv-x="926" 
d="M15 0l7 82h58l53 536h-77l7 82h220l147 -517c7 -24 11 -48 15 -71h2c5 24 15 48 25 71l236 517h203l-7 -82h-65l-34 -536h71l-7 -82h-235l7 82h58l42 494h-2c-7 -25 -14 -47 -30 -82l-225 -494h-112l-140 494c-6 23 -12 50 -17 75h-2l-39 -487h70l-7 -82h-222z" />
    <glyph glyph-name="N" unicode="N" horiz-adv-x="778" 
d="M21 0l7 82h60l48 536h-76l7 82h162l289 -451c15 -24 35 -52 44 -73h2l35 442h-73l7 82h224l-7 -82h-60l-54 -618h-91l-285 446c-23 37 -34 57 -44 81h-2l-35 -445h73l-7 -82h-224z" />
    <glyph glyph-name="O" unicode="O" horiz-adv-x="722" 
d="M39 309c0 274 170 408 355 408c198 0 289 -137 289 -330c0 -192 -91 -404 -358 -404c-157 0 -286 95 -286 326zM157 311c0 -93 24 -240 185 -240c189 0 223 219 223 314c0 136 -49 244 -184 244c-171 0 -224 -176 -224 -318z" />
    <glyph glyph-name="P" unicode="P" horiz-adv-x="556" 
d="M242 618l-22 -255c16 -2 33 -3 58 -3c96 0 163 46 163 145c0 103 -84 113 -143 113h-56zM24 0l7 82h59l46 536h-72l7 82h241c116 0 235 -36 235 -182c0 -172 -115 -240 -263 -240c-27 0 -48 2 -71 3l-17 -199h77l-7 -82h-242z" />
    <glyph glyph-name="Q" unicode="Q" horiz-adv-x="722" 
d="M39 309c0 274 170 408 355 408c198 0 289 -137 289 -330c0 -152 -57 -316 -213 -377v-2c30 -4 65 -19 97 -36l70 -38c51 -28 74 -35 97 -35c22 0 38 6 55 13l-8 -83c-23 -10 -48 -18 -72 -18c-29 0 -67 11 -102 30l-137 76c-46 25 -96 55 -148 66
c-155 0 -283 96 -283 326zM157 311c0 -93 24 -240 185 -240c189 0 223 219 223 314c0 136 -49 244 -184 244c-171 0 -224 -176 -224 -318z" />
    <glyph glyph-name="R" unicode="R" horiz-adv-x="630" 
d="M24 0l7 82h59l46 536h-72l7 82h255c148 0 220 -60 220 -178c0 -124 -91 -193 -198 -193v-2c56 -8 74 -21 121 -113l52 -101c11 -22 19 -31 41 -31h42l-8 -82h-75c-62 0 -75 10 -100 61l-74 154c-27 55 -40 83 -95 83c-14 0 -32 -1 -38 -2l-18 -214h72l-7 -82h-237z
M242 618l-21 -240c14 -3 39 -4 60 -4c108 0 159 59 159 141c0 103 -101 103 -137 103h-61z" />
    <glyph glyph-name="S" unicode="S" 
d="M516 686l-10 -163h-89v92c-30 9 -60 14 -99 14c-90 0 -144 -33 -144 -102c0 -47 23 -72 106 -101l107 -38c63 -22 137 -66 137 -176c0 -136 -116 -229 -274 -229c-82 0 -152 10 -215 36l9 170h85l-3 -94c42 -13 86 -18 129 -18c83 0 157 29 157 118c0 55 -39 81 -90 99
l-111 38c-99 34 -149 89 -149 176c0 106 70 209 256 209c76 0 138 -13 198 -31z" />
    <glyph glyph-name="T" unicode="T" horiz-adv-x="611" 
d="M157 0l7 82h59l46 536h-155l-12 -95h-88l17 177h596l-15 -177h-88l3 95h-152l-46 -536h72l-7 -82h-237z" />
    <glyph glyph-name="U" unicode="U" horiz-adv-x="741" 
d="M57 618l7 82h237l-7 -82h-59l-29 -336c-4 -41 -5 -61 -5 -77c0 -73 32 -134 150 -134c155 0 177 98 188 228l27 319h-75l7 82h226l-7 -82h-57l-32 -354c-17 -186 -76 -281 -282 -281c-222 0 -251 105 -251 214c0 27 2 60 6 104l28 317h-72z" />
    <glyph glyph-name="V" unicode="V" horiz-adv-x="704" 
d="M260 0l-176 618h-64l7 82h240l-7 -82h-58l105 -406c12 -45 22 -90 26 -118h2c7 27 18 53 31 84l187 440h-75l7 82h239l-7 -82h-55l-284 -618h-118z" />
    <glyph glyph-name="W" unicode="W" horiz-adv-x="1056" 
d="M251 0l-165 618h-64l7 82h236l-7 -82h-57l110 -457c7 -26 11 -53 15 -79h2c5 23 14 44 23 65l151 353l-31 118h-67l7 82h235l-7 -82h-56l104 -434c7 -29 13 -56 18 -90h2c9 29 18 59 29 87l169 437h-76l7 82h238l-7 -82h-56l-255 -618h-124l-95 371h-2l-160 -371h-124z
" />
    <glyph glyph-name="X" unicode="X" horiz-adv-x="704" 
d="M2 0l7 82h57l231 278l-165 258h-63l7 82h247l-7 -82h-60c8 -10 16 -20 26 -36l89 -143l120 144c14 16 24 26 34 35h-82l7 82h245l-7 -82h-55l-212 -250l180 -286h62l-7 -82h-250l7 82h62c-9 12 -19 24 -32 45l-99 160l-127 -164c-16 -20 -27 -30 -37 -41h84l-7 -82h-255z
" />
    <glyph glyph-name="Y" unicode="Y" horiz-adv-x="685" 
d="M200 0l7 82h61l17 196l-204 340h-63l7 82h247l-7 -82h-54l141 -251l185 251h-76l7 82h239l-7 -82h-57l-250 -333l-19 -203h75l-7 -82h-242z" />
    <glyph glyph-name="Z" unicode="Z" horiz-adv-x="630" 
d="M15 0l10 74l398 493c15 18 31 37 49 49v2h-294l-14 -98h-88l16 180h518l-10 -74l-407 -506c-11 -14 -26 -28 -37 -38h316l15 101h91l-17 -183h-546z" />
    <glyph glyph-name="bracketleft" unicode="[" horiz-adv-x="315" 
d="M45 -251l87 1020h200l-7 -82h-95l-74 -856h89l-7 -82h-193z" />
    <glyph glyph-name="backslash" unicode="\" horiz-adv-x="370" 
d="M47 781l352 -830l-76 -32l-352 830z" />
    <glyph glyph-name="bracketright" unicode="]" horiz-adv-x="315" 
d="M270 769l-87 -1020h-200l7 82h95l74 856h-89l7 82h193z" />
    <glyph glyph-name="asciicircum" unicode="^" horiz-adv-x="600" 
d="M432 335l-132 265l-132 -265h-82l182 365h64l182 -365h-82z" />
    <glyph glyph-name="underscore" unicode="_" horiz-adv-x="500" 
d="M0 -125v50h500v-50h-500z" />
    <glyph glyph-name="quoteleft" unicode="&#x2018;" horiz-adv-x="296" 
d="M240 781l35 -62c-52 -21 -97 -49 -97 -101c0 -43 37 -65 37 -106c0 -23 -16 -65 -71 -65s-84 49 -84 113c0 122 105 196 180 221z" />
    <glyph glyph-name="a" unicode="a" 
d="M145 185c0 -57 16 -97 53 -97c96 0 184 270 184 349c-15 5 -38 11 -65 11c-137 0 -172 -177 -172 -263zM525 82l-7 -82h-164c4 56 13 124 33 230h-3c-31 -109 -85 -236 -208 -236c-108 0 -137 91 -137 194s45 342 286 342c49 0 90 -11 130 -23h42
c-5 -19 -14 -85 -17 -125l-26 -300h71z" />
    <glyph glyph-name="b" unicode="b" horiz-adv-x="556" 
d="M25 687l7 82h189l-27 -320c-6 -42 -14 -96 -25 -139h2c29 104 102 220 217 220c66 0 129 -56 129 -183c0 -181 -96 -357 -285 -357c-75 0 -159 23 -182 39c5 36 11 74 14 111l47 547h-86zM240 72c122 0 171 155 171 262c0 76 -14 102 -50 102c-93 1 -183 -197 -200 -349
c25 -8 57 -15 79 -15z" />
    <glyph glyph-name="c" unicode="c" horiz-adv-x="426" 
d="M393 115l-9 -93c-36 -18 -87 -32 -134 -32c-147 0 -222 84 -222 231c0 232 135 309 270 309c58 0 96 -11 126 -20l-15 -140h-88l3 72c-10 4 -21 6 -37 6c-102 0 -147 -98 -147 -208c0 -95 34 -162 130 -162c43 0 89 19 123 37z" />
    <glyph glyph-name="d" unicode="d" 
d="M321 687l7 82h187l-60 -687h72l-7 -82h-165c5 61 20 153 34 230h-2c-30 -102 -97 -240 -205 -240c-99 0 -143 80 -143 196c0 170 93 344 281 344c24 0 45 -3 70 -9l15 166h-84zM145 186c0 -52 16 -96 53 -96c65 0 169 154 185 346c-14 6 -30 12 -54 12
c-139 0 -184 -144 -184 -262z" />
    <glyph glyph-name="e" unicode="e" horiz-adv-x="463" 
d="M414 122l-14 -96c-26 -15 -93 -36 -168 -36c-133 0 -204 82 -204 215c0 145 74 325 272 325c75 0 149 -37 149 -121c0 -165 -229 -201 -309 -208c0 -72 30 -123 128 -123c41 0 100 18 146 44zM343 396c0 27 -18 52 -61 52c-99 0 -133 -103 -142 -177
c98 17 203 45 203 125z" />
    <glyph glyph-name="f" unicode="f" horiz-adv-x="352" 
d="M46 438l7 82h72l1 17c11 145 67 236 223 236c27 0 77 -4 100 -14l-7 -78c-19 5 -42 10 -69 10c-88 0 -126 -37 -136 -124l-6 -47h121l-7 -82h-120l-32 -393c-10 -129 -27 -303 -220 -303c-33 0 -59 7 -90 14l8 86c23 -5 48 -12 68 -12c91 0 119 74 131 230l29 378h-73z
" />
    <glyph glyph-name="g" unicode="g" horiz-adv-x="556" 
d="M145 184c0 -72 25 -96 53 -96c70 0 168 154 189 346c-13 6 -34 14 -67 14c-123 0 -175 -142 -175 -264zM24 -219l8 96c34 -24 98 -47 149 -47c138 0 173 114 182 197l10 95c4 34 10 67 19 104h-2c-32 -81 -96 -226 -217 -226c-103 0 -134 96 -134 186
c0 129 57 344 309 344c47 0 81 -9 119 -24l37 2c-17 -148 -29 -315 -44 -472c-16 -172 -62 -294 -267 -294c-54 0 -130 18 -169 39z" />
    <glyph glyph-name="h" unicode="h" horiz-adv-x="611" 
d="M98 206l40 481h-85l7 82h188l-30 -336c-3 -34 -16 -89 -24 -133h2c54 168 142 230 232 230c82 0 107 -60 107 -128c0 -36 -4 -75 -8 -106l-27 -214h69l-7 -82h-179c22 123 46 332 46 377c0 31 -4 59 -36 59c-92 0 -183 -204 -205 -363l-10 -73h-103c11 67 17 137 23 206z
" />
    <glyph glyph-name="i" unicode="i" horiz-adv-x="296" 
d="M40 438l7 82h178l-38 -438h69l-7 -82h-174l39 438h-74zM111 707c0 50 34 74 83 74c38 0 65 -26 65 -61c0 -33 -18 -75 -81 -75c-49 0 -67 34 -67 62z" />
    <glyph glyph-name="j" unicode="j" horiz-adv-x="296" 
d="M40 438l7 82h178l-39 -427c-16 -177 -60 -295 -244 -356l-32 74c143 55 163 154 176 301l28 326h-74zM111 707c0 50 34 74 83 74c38 0 65 -26 65 -61c0 -33 -18 -75 -81 -75c-49 0 -67 34 -67 62z" />
    <glyph glyph-name="k" unicode="k" horiz-adv-x="556" 
d="M53 687l7 82h188l-22 -255c-4 -48 -17 -113 -25 -159h2c23 69 86 175 212 175c73 0 113 -52 113 -108c0 -112 -110 -169 -203 -202c9 -8 24 -23 31 -31l91 -107h70l-7 -82h-135l-171 209c-13 -70 -24 -157 -29 -209h-100c11 67 17 137 23 206l40 481h-85zM416 393
c0 25 -16 43 -43 43c-58 0 -141 -75 -164 -200c37 9 207 65 207 157z" />
    <glyph glyph-name="l" unicode="l" horiz-adv-x="278" 
d="M32 687l7 82h189l-60 -687h70l-7 -82h-174l60 687h-85z" />
    <glyph glyph-name="m" unicode="m" horiz-adv-x="907" 
d="M42 438l7 82h177c-7 -80 -13 -137 -32 -220h2c54 168 141 230 224 230c101 0 105 -92 105 -136c0 -16 -3 -42 -6 -50h2c14 54 84 186 203 186c82 0 107 -60 107 -132c0 -26 -2 -59 -5 -82l-30 -234h69l-7 -82h-179c22 123 46 344 46 385c0 23 -5 51 -36 51
c-75 0 -174 -185 -196 -368l-8 -68h-103l33 260c8 58 10 93 10 121c0 25 -6 55 -37 55c-83 0 -178 -204 -200 -363l-10 -73h-103c11 67 17 137 23 206l20 232h-76z" />
    <glyph glyph-name="n" unicode="n" horiz-adv-x="611" 
d="M42 438l7 82h177c-7 -80 -13 -137 -32 -220h2c54 168 142 230 232 230c82 0 107 -60 107 -128c0 -36 -4 -75 -8 -106l-27 -214h69l-7 -82h-179c22 123 46 332 46 377c0 31 -4 59 -36 59c-92 0 -183 -204 -205 -363l-10 -73h-103c11 67 17 137 23 206l20 232h-76z" />
    <glyph glyph-name="o" unicode="o" horiz-adv-x="519" 
d="M140 222c0 -63 18 -144 102 -144c115 0 137 137 137 225c0 45 -13 139 -102 139c-115 0 -137 -132 -137 -220zM28 223c0 159 82 307 261 307c90 0 202 -54 202 -231c0 -217 -120 -309 -252 -309c-170 0 -211 130 -211 233z" />
    <glyph glyph-name="p" unicode="p" 
d="M-12 -251l7 82h60l54 607h-76l7 82h177c-9 -70 -16 -131 -29 -211h2c21 68 69 221 216 221c109 0 129 -117 129 -192c0 -188 -110 -344 -280 -344c-37 0 -66 3 -86 8l-14 -171h73l-7 -82h-233zM429 330c0 49 -7 106 -52 106c-75 0 -168 -147 -199 -343
c18 -7 48 -11 85 -11c118 0 166 145 166 248z" />
    <glyph glyph-name="q" unicode="q" 
d="M145 183c0 -49 13 -95 51 -95c60 0 151 119 194 345c-29 12 -45 15 -71 15c-135 0 -174 -157 -174 -265zM271 -251l7 82h59l16 184c7 77 17 137 32 206h-2c-32 -88 -85 -227 -210 -227c-98 0 -134 98 -134 194c0 188 106 342 293 342c53 0 81 -9 125 -23h46
c-10 -39 -13 -84 -19 -151l-47 -525h74l-7 -82h-233z" />
    <glyph glyph-name="r" unicode="r" horiz-adv-x="426" 
d="M42 438l7 82h171c-6 -68 -14 -137 -22 -201h2c27 108 72 211 179 211c19 0 38 -2 48 -4l-15 -101c-8 2 -19 5 -30 5c-135 0 -178 -247 -193 -396l-3 -34h-106c8 56 14 132 18 182l20 256h-76z" />
    <glyph glyph-name="s" unicode="s" horiz-adv-x="481" 
d="M140 155v-66c26 -8 62 -17 93 -17c50 0 98 21 98 75c0 34 -19 48 -58 61l-93 30c-50 16 -115 45 -115 134c0 78 58 158 213 158c80 0 136 -22 154 -30l-4 -130h-88l4 63c-21 10 -45 15 -80 15c-61 0 -93 -28 -93 -64c0 -30 13 -45 76 -66l89 -29c53 -17 101 -50 101 -129
c0 -82 -57 -170 -209 -170c-82 0 -138 16 -184 31l4 134h92z" />
    <glyph glyph-name="t" unicode="t" horiz-adv-x="370" 
d="M40 438l7 82h75l11 120l106 7l-11 -127h144l-7 -82h-144l-15 -168c-3 -33 -10 -92 -10 -131c0 -33 9 -57 48 -57c33 0 72 11 100 27l-8 -89c-31 -14 -71 -26 -116 -26c-109 0 -130 60 -130 131c0 13 5 69 10 134l15 179h-75z" />
    <glyph glyph-name="u" unicode="u" horiz-adv-x="611" 
d="M45 438l7 82h187l-36 -247c-8 -55 -13 -92 -13 -125c0 -35 14 -60 42 -60c63 0 169 156 205 432h103c-10 -56 -18 -116 -23 -174l-22 -264h71l-7 -82h-169c4 65 20 151 34 226h-2c-39 -116 -106 -232 -224 -232c-92 0 -114 71 -114 131c0 44 8 110 13 152l20 161h-72z
" />
    <glyph glyph-name="v" unicode="v" 
d="M37 438l7 82h181c-9 -103 -16 -239 -16 -272c0 -82 6 -164 55 -164c92 0 158 220 167 354h-78l7 82h177c0 -180 -63 -530 -293 -530c-119 0 -141 116 -141 243c0 71 7 173 7 205h-73z" />
    <glyph glyph-name="w" unicode="w" horiz-adv-x="852" 
d="M42 438l7 82h187l-10 -93c-7 -66 -18 -195 -18 -229c0 -58 9 -114 53 -114c71 0 138 127 156 392l3 44h106l-15 -156c-5 -50 -8 -103 -8 -137c0 -108 18 -143 58 -143c76 0 138 170 143 354h-71l8 82h169c-5 -270 -83 -530 -268 -530c-108 0 -121 113 -121 187h-2
c-8 -52 -55 -187 -181 -187c-113 0 -136 92 -136 201c0 82 9 165 15 247h-75z" />
    <glyph glyph-name="x" unicode="x" horiz-adv-x="556" 
d="M16 0l7 82l195 182l-101 174h-72l7 82h143l112 -198l117 116h-77l7 82h186l-7 -82l-191 -174l105 -182h73l-7 -82h-142l-114 200l-121 -118h77l-7 -82h-190z" />
    <glyph glyph-name="y" unicode="y" horiz-adv-x="537" 
d="M-8 -253l8 84c10 -3 33 -6 50 -6c79 0 118 64 148 129l18 39l-134 445h-66l7 82h153l83 -313c8 -31 16 -78 19 -104h2c2 11 5 23 9 34l117 301h-82l7 82h178l-7 -78l-139 -338c-111 -270 -184 -367 -307 -367c-18 0 -41 3 -64 10z" />
    <glyph glyph-name="z" unicode="z" horiz-adv-x="500" 
d="M26 0l8 78l246 298c15 18 36 42 57 64c-23 -1 -49 -2 -72 -2h-111l-8 -69h-91l14 151h405l-5 -76l-245 -292c-24 -28 -41 -50 -64 -73c23 1 49 3 73 3h131l9 74h91l-15 -156h-423z" />
    <glyph glyph-name="braceleft" unicode="{" horiz-adv-x="315" 
d="M26 221l8 76c42 2 88 53 96 132l21 192c13 117 68 148 127 148h80l-7 -70h-43c-40 0 -54 -38 -59 -83l-24 -205c-12 -106 -79 -144 -105 -151v-2c22 -6 74 -39 74 -116c0 -45 -5 -90 -11 -135c-5 -45 -11 -90 -11 -135c0 -22 5 -53 43 -53h43l-7 -70h-80
c-53 0 -99 45 -99 113c0 27 6 72 11 120c6 48 11 100 11 140c0 52 -31 97 -68 99z" />
    <glyph glyph-name="bar" unicode="|" horiz-adv-x="222" 
d="M70 -250v1000h82v-1000h-82z" />
    <glyph glyph-name="braceright" unicode="}" horiz-adv-x="315" 
d="M273 297l-8 -76c-42 -2 -88 -53 -96 -132l-21 -192c-13 -117 -68 -148 -127 -148h-80l7 70h43c40 0 54 38 59 83l24 205c12 106 79 144 105 151v2c-22 6 -74 39 -74 116c0 45 5 90 11 135c5 45 11 90 11 135c0 22 -5 53 -43 53h-43l7 70h80c53 0 99 -45 99 -113
c0 -27 -6 -72 -11 -120c-6 -48 -11 -100 -11 -140c0 -52 31 -97 68 -99z" />
    <glyph glyph-name="asciitilde" unicode="~" horiz-adv-x="600" 
d="M487 334l36 -72c-22 -42 -58 -85 -125 -85c-37 0 -77 18 -114 35c-36 18 -71 35 -99 35c-40 0 -65 -40 -88 -75l-36 72c22 42 58 85 125 85c38 0 77 -17 114 -35c37 -17 71 -35 99 -35c40 0 65 40 88 75z" />
    <glyph glyph-name="exclamdown" unicode="&#xa1;" horiz-adv-x="296" 
d="M201 305l-35 -544h-121l56 544h100zM93 471c0 43 28 71 78 71c30 0 70 -12 70 -64c0 -45 -29 -72 -74 -72c-50 0 -74 29 -74 65z" />
    <glyph glyph-name="cent" unicode="&#xa2;" horiz-adv-x="592" 
d="M244 -133l10 118c-78 12 -181 57 -181 247c0 152 79 281 229 298l9 99h76l-9 -99c29 0 85 -2 141 -20l-15 -142h-82l3 72c-13 6 -39 8 -54 8l-33 -375c52 0 100 12 147 38l-9 -92c-50 -24 -103 -32 -146 -34l-10 -118h-76zM263 83l32 359c-68 -11 -110 -92 -110 -203
c0 -80 21 -128 78 -156z" />
    <glyph glyph-name="sterling" unicode="&#xa3;" horiz-adv-x="592" 
d="M19 0l7 82h57c17 22 48 83 48 185v55h-92l7 82h85v59c0 155 81 252 272 252c55 0 108 -8 170 -26l-10 -159h-86l6 94c-20 4 -45 9 -80 9c-110 0 -166 -59 -166 -172v-57h152l-7 -82h-145v-59c0 -111 -27 -156 -48 -181h240l20 97h88l-16 -179h-502z" />
    <glyph glyph-name="fraction" unicode="&#x2044;" horiz-adv-x="167" 
d="M-169 -29l437 798l68 -40l-437 -798z" />
    <glyph glyph-name="yen" unicode="&#xa5;" horiz-adv-x="592" 
d="M161 0l7 82h53l6 68h-144l6 70h145l6 70h-143l6 70h100l-131 258h-55l7 82h214l-7 -82h-47l100 -212c7 -14 12 -28 19 -46c8 17 16 32 25 46l138 212h-65l7 82h206l-7 -82h-50l-172 -258h104l-6 -70h-143l-6 -70h141l-6 -70h-142l-6 -68h62l-7 -82h-215z" />
    <glyph glyph-name="florin" unicode="&#x192;" horiz-adv-x="592" 
d="M140 322l7 82h91l6 82c10 130 60 229 220 229c39 0 83 -8 103 -15l-11 -82c-20 6 -48 9 -76 9c-81 0 -122 -37 -130 -144l-6 -79h132l-7 -82h-131l-18 -240c-12 -158 -57 -277 -211 -277c-38 0 -66 7 -84 12l7 85c13 -5 38 -9 58 -9c92 0 114 71 124 200l18 229h-92z" />
    <glyph glyph-name="section" unicode="&#xa7;" horiz-adv-x="593" 
d="M59 -176l7 148h86l-3 -82c23 -7 72 -15 100 -15c57 0 126 18 126 92c0 47 -33 64 -86 94l-99 56c-73 42 -106 78 -106 144c0 52 24 131 122 145v2c-36 17 -97 54 -97 133c0 116 90 176 226 176c72 0 129 -12 178 -27l-8 -139h-85l2 73c-24 5 -50 11 -93 11
c-59 0 -114 -24 -114 -82c0 -46 35 -67 81 -92l115 -63c46 -25 94 -61 94 -139c0 -75 -50 -132 -121 -140v-2c47 -27 97 -56 97 -138c0 -119 -106 -186 -238 -186c-92 0 -150 22 -184 31zM356 316l-97 55c-31 -13 -75 -36 -75 -86c0 -38 25 -67 79 -96l67 -38
c28 15 75 39 75 91c0 38 -20 58 -49 74z" />
    <glyph glyph-name="currency" unicode="&#xa4;" horiz-adv-x="592" 
d="M43 144l56 56c-32 41 -51 94 -51 150s18 108 51 150l-56 56l46 46l56 -56c41 33 94 52 151 52s110 -19 151 -52l56 56l46 -46l-56 -56c33 -42 51 -94 51 -150s-19 -109 -51 -150l56 -56l-46 -46l-56 56c-42 -33 -94 -52 -151 -52s-109 19 -151 52l-56 -56zM130 350
c0 -100 72 -178 166 -178s166 78 166 178s-72 178 -166 178s-166 -78 -166 -178z" />
    <glyph glyph-name="quotesingle" unicode="'" horiz-adv-x="296" 
d="M112 482l-10 123c-6 68 -10 96 -10 121c0 30 25 55 56 55s56 -25 56 -55c0 -25 -4 -53 -10 -121l-10 -123c-2 -27 -21 -35 -36 -35s-34 8 -36 35z" />
    <glyph glyph-name="quotedblleft" unicode="&#x201c;" horiz-adv-x="481" 
d="M240 781l35 -62c-52 -21 -97 -49 -97 -101c0 -43 37 -65 37 -106c0 -23 -16 -65 -71 -65s-84 49 -84 113c0 122 105 196 180 221zM459 781l35 -62c-52 -21 -97 -49 -97 -101c0 -43 37 -65 37 -106c0 -23 -16 -65 -71 -65s-84 49 -84 113c0 122 105 196 180 221z" />
    <glyph glyph-name="guillemotleft" unicode="&#xab;" horiz-adv-x="519" 
d="M393 99l-129 155l6 70l155 145l59 -59l-129 -123l107 -130zM167 99l-129 155l6 70l155 145l59 -59l-129 -123l107 -130z" />
    <glyph glyph-name="guilsinglleft" unicode="&#x2039;" horiz-adv-x="296" 
d="M167 99l-129 155l6 70l155 145l59 -59l-129 -123l107 -130z" />
    <glyph glyph-name="guilsinglright" unicode="&#x203a;" horiz-adv-x="296" 
d="M124 469l129 -155l-6 -70l-155 -145l-59 59l129 123l-107 130z" />
    <glyph glyph-name="endash" unicode="&#x2013;" horiz-adv-x="500" 
d="M-7 240l7 88h500l-7 -88h-500z" />
    <glyph glyph-name="dagger" unicode="&#x2020;" horiz-adv-x="593" 
d="M259 496l17 204h100l-17 -204h206l-7 -82h-206l-52 -604h-100l52 604h-206l7 82h206z" />
    <glyph glyph-name="daggerdbl" unicode="&#x2021;" horiz-adv-x="593" 
d="M206 -190l21 242h-203l7 82h203l21 256h-203l7 82h203l20 228h100l-20 -228h203l-7 -82h-203l-21 -256h203l-7 -82h-203l-21 -242h-100z" />
    <glyph glyph-name="periodcentered" unicode="&#xb7;" horiz-adv-x="296" 
d="M77 280c0 39 32 71 71 71s71 -32 71 -71s-32 -71 -71 -71s-71 32 -71 71z" />
    <glyph glyph-name="paragraph" unicode="&#xb6;" horiz-adv-x="600" 
d="M389 -190l87 824h-111l-87 -824h-84l55 520c-129 0 -195 66 -195 182c0 120 114 188 253 188h260l-94 -890h-84z" />
    <glyph glyph-name="bullet" unicode="&#x2022;" horiz-adv-x="500" 
d="M75 350c0 97 78 175 175 175s175 -78 175 -175s-78 -175 -175 -175s-175 78 -175 175z" />
    <glyph glyph-name="quotesinglbase" unicode="&#x201a;" horiz-adv-x="296" 
d="M35 -200l-35 62c52 21 97 49 97 101c0 43 -37 65 -37 106c0 23 16 65 71 65s84 -49 84 -113c0 -122 -105 -196 -180 -221z" />
    <glyph glyph-name="quotedblbase" unicode="&#x201e;" horiz-adv-x="481" 
d="M254 -200l-35 62c52 21 97 49 97 101c0 43 -37 65 -37 106c0 23 16 65 71 65s84 -49 84 -113c0 -122 -105 -196 -180 -221zM35 -200l-35 62c52 21 97 49 97 101c0 43 -37 65 -37 106c0 23 16 65 71 65s84 -49 84 -113c0 -122 -105 -196 -180 -221z" />
    <glyph glyph-name="quotedblright" unicode="&#x201d;" horiz-adv-x="481" 
d="M262 447l-35 62c52 21 97 49 97 101c0 43 -37 65 -37 106c0 23 16 65 71 65s84 -49 84 -113c0 -122 -105 -196 -180 -221zM43 447l-35 62c52 21 97 49 97 101c0 43 -37 65 -37 106c0 23 16 65 71 65s84 -49 84 -113c0 -122 -105 -196 -180 -221z" />
    <glyph glyph-name="guillemotright" unicode="&#xbb;" horiz-adv-x="519" 
d="M347 469l129 -155l-6 -70l-155 -145l-59 59l129 123l-107 130zM121 469l129 -155l-6 -70l-155 -145l-59 59l129 123l-107 130z" />
    <glyph glyph-name="ellipsis" unicode="&#x2026;" horiz-adv-x="1000" 
d="M83 52c0 45 29 72 74 72c50 0 74 -29 74 -65c0 -43 -28 -71 -78 -71c-30 0 -70 12 -70 64zM416 52c0 45 29 72 74 72c50 0 74 -29 74 -65c0 -43 -28 -71 -78 -71c-30 0 -70 12 -70 64zM749 52c0 45 29 72 74 72c50 0 74 -29 74 -65c0 -43 -28 -71 -78 -71
c-30 0 -70 12 -70 64z" />
    <glyph glyph-name="perthousand" unicode="&#x2030;" horiz-adv-x="1148" 
d="M771 133c0 99 60 177 169 177c94 0 142 -67 142 -147c0 -99 -61 -178 -166 -178c-71 0 -145 41 -145 148zM853 135c0 -43 14 -80 67 -80s80 48 80 103c0 42 -15 82 -65 82c-58 0 -82 -58 -82 -105zM420 133c0 99 60 177 169 177c94 0 142 -67 142 -147
c0 -99 -61 -178 -166 -178c-71 0 -145 41 -145 148zM502 135c0 -43 14 -80 67 -80s80 48 80 103c0 42 -15 82 -65 82c-58 0 -82 -58 -82 -105zM149 540c0 -43 14 -80 67 -80s80 48 80 103c0 42 -15 82 -65 82c-58 0 -82 -58 -82 -105zM67 538c0 99 60 177 169 177
c94 0 142 -67 142 -147c0 -99 -61 -178 -166 -178c-71 0 -145 41 -145 148zM30 -23l681 792l56 -46l-681 -792z" />
    <glyph glyph-name="questiondown" unicode="&#xbf;" horiz-adv-x="481" 
d="M386 -141l-4 -88c-23 -7 -86 -22 -145 -22c-170 0 -223 98 -223 180c0 94 58 149 135 195l78 46c44 26 60 47 60 70c0 20 -15 39 -24 51l94 33c22 -24 36 -55 36 -91c0 -55 -31 -89 -95 -125l-39 -22c-93 -53 -127 -87 -127 -146c0 -79 71 -103 134 -103
c30 0 80 7 120 22zM410 478c0 -45 -29 -72 -74 -72c-50 0 -74 29 -74 65c0 43 28 71 78 71c30 0 70 -12 70 -64z" />
    <glyph glyph-name="grave" unicode="`" horiz-adv-x="278" 
d="M108 781l167 -154l-66 -47l-171 150z" />
    <glyph glyph-name="acute" unicode="&#xb4;" horiz-adv-x="278" 
d="M58 634l193 147l66 -51l-204 -150z" />
    <glyph glyph-name="circumflex" unicode="&#x2c6;" horiz-adv-x="278" 
d="M-12 660l161 115h76l141 -115l-71 -51l-114 96l-132 -96z" />
    <glyph glyph-name="tilde" unicode="&#x2dc;" horiz-adv-x="278" 
d="M303 734l63 -44c-25 -42 -63 -85 -115 -85c-42 0 -110 60 -139 60c-25 0 -44 -28 -53 -49l-71 30c18 41 51 101 119 101c63 0 104 -60 142 -60c22 0 36 18 54 47z" />
    <glyph glyph-name="macron" unicode="&#xaf;" horiz-adv-x="278" 
d="M31 641l7 82h277l-7 -82h-277z" />
    <glyph glyph-name="breve" unicode="&#x2d8;" horiz-adv-x="278" 
d="M-2 738l78 31c15 -46 40 -90 107 -90c68 0 94 48 110 90l70 -38c-25 -52 -67 -134 -187 -134c-87 0 -151 52 -178 141z" />
    <glyph glyph-name="dotaccent" unicode="&#x2d9;" horiz-adv-x="278" 
d="M109 678c0 33 20 67 68 67c46 0 68 -28 68 -61c0 -49 -30 -69 -72 -69c-33 0 -64 17 -64 63z" />
    <glyph glyph-name="dieresis" unicode="&#xa8;" horiz-adv-x="278" 
d="M215 678c0 33 20 67 68 67c46 0 68 -28 68 -61c0 -49 -30 -69 -72 -69c-33 0 -64 17 -64 63zM3 678c0 33 20 67 68 67c46 0 68 -28 68 -61c0 -49 -30 -69 -72 -69c-33 0 -64 17 -64 63z" />
    <glyph glyph-name="ring" unicode="&#x2da;" horiz-adv-x="278" 
d="M67 678c0 44 27 109 109 109c64 0 96 -43 96 -94c0 -54 -40 -111 -111 -111c-57 0 -94 37 -94 96zM125 681c0 -31 18 -53 43 -53c29 0 46 34 46 62c0 27 -10 51 -40 51c-31 0 -49 -32 -49 -60z" />
    <glyph glyph-name="cedilla" unicode="&#xb8;" horiz-adv-x="278" 
d="M-9 -222l10 57c26 -8 53 -17 82 -17c27 0 62 7 62 38c0 33 -45 36 -71 36l14 108h64l-8 -60h6c33 0 83 -23 83 -78c0 -76 -75 -102 -145 -102c-41 0 -73 9 -97 18z" />
    <glyph glyph-name="hungarumlaut" unicode="&#x2dd;" horiz-adv-x="278" 
d="M-68 634l193 147l66 -51l-204 -150zM184 634l193 147l66 -51l-204 -150z" />
    <glyph glyph-name="ogonek" unicode="&#x2db;" horiz-adv-x="278" 
d="M261 -166l12 -58c-25 -9 -60 -16 -89 -16c-63 0 -110 30 -110 89c0 71 70 121 118 151h64c-52 -41 -88 -92 -88 -135c0 -22 13 -41 41 -41c22 0 38 4 52 10z" />
    <glyph glyph-name="caron" unicode="&#x2c7;" horiz-adv-x="278" 
d="M362 724l-161 -115h-76l-141 115l71 51l114 -96l132 96z" />
    <glyph glyph-name="emdash" unicode="&#x2014;" horiz-adv-x="1000" 
d="M-7 240l7 88h1000l-7 -88h-1000z" />
    <glyph glyph-name="AE" unicode="&#xc6;" horiz-adv-x="963" 
d="M-19 0l7 82h52l377 618h504l-14 -177h-88l2 95h-189l-20 -234h201l-7 -82h-201l-19 -220h223l13 97h88l-14 -179h-482l7 82h59l19 220h-220l-127 -220h73l-7 -82h-237zM506 384l20 234h-65l-136 -234h181z" />
    <glyph glyph-name="ordfeminine" unicode="&#xaa;" horiz-adv-x="373" 
d="M107 509c0 -31 10 -55 29 -55c67 0 122 159 122 202c-9 3 -24 7 -42 7c-89 0 -109 -102 -109 -154zM354 450l-4 -52h-110c3 34 9 74 22 138h-2c-21 -65 -56 -146 -136 -146c-70 0 -93 59 -93 121s34 204 190 204c32 0 59 -6 85 -13h30c-3 -11 -9 -51 -11 -75l-17 -177h46
z" />
    <glyph glyph-name="Lslash" unicode="&#x141;" horiz-adv-x="537" 
d="M24 0l7 82h59l15 178l-68 -50l6 82l71 51l22 275h-72l7 82h237l-7 -82h-59l-16 -197l166 123l-8 -82l-167 -124l-21 -256h197l13 97h94l-18 -179h-458z" />
    <glyph glyph-name="Oslash" unicode="&#xd8;" horiz-adv-x="722" 
d="M188 160l298 438c-27 20 -62 31 -105 31c-171 0 -224 -176 -224 -318c0 -45 6 -103 31 -151zM534 539l-298 -437c26 -19 61 -31 106 -31c189 0 223 219 223 314c0 60 -9 114 -31 154zM39 -59l82 121c-50 51 -82 132 -82 247c0 274 170 408 355 408c59 0 108 -12 149 -35
l80 117l60 -40l-82 -121c55 -59 82 -147 82 -251c0 -192 -91 -404 -358 -404c-53 0 -103 11 -146 35l-80 -117z" />
    <glyph glyph-name="OE" unicode="&#x152;" horiz-adv-x="963" 
d="M634 618l-17 -216h202l-7 -82h-202l-20 -238h214l13 97h88l-14 -179h-389c-26 0 -48 -1 -68 -3c-21 -1 -40 -3 -62 -3c-218 0 -333 130 -333 314c0 238 147 398 391 398c36 0 56 -2 70 -3c22 -2 46 -3 71 -3h362l-14 -177h-88l2 95h-199zM484 82l44 536
c-25 3 -57 6 -94 6c-165 0 -277 -124 -277 -304c0 -159 77 -244 240 -244c35 0 64 3 87 6z" />
    <glyph glyph-name="ordmasculine" unicode="&#xba;" horiz-adv-x="385" 
d="M123 530c0 -37 11 -82 64 -82c74 0 87 79 87 131c0 26 -7 78 -64 78c-74 0 -87 -77 -87 -127zM47 531c0 95 55 184 171 184c58 0 132 -32 132 -139c0 -130 -79 -186 -165 -186c-110 0 -138 79 -138 141z" />
    <glyph glyph-name="ae" unicode="&#xe6;" horiz-adv-x="778" 
d="M311 448c-124 0 -163 -166 -163 -263c0 -54 17 -97 53 -97c74 0 160 165 180 340c-22 11 -48 20 -70 20zM642 396c0 37 -24 52 -60 52c-82 0 -115 -100 -120 -177c79 11 180 48 180 125zM717 122l-12 -95c-43 -22 -105 -37 -167 -37c-123 0 -167 68 -167 168v21h-2
c-31 -102 -93 -185 -191 -185c-110 0 -136 113 -136 194c0 168 86 342 274 342c71 0 119 -29 154 -53c36 35 83 53 133 53c109 0 145 -62 145 -121c0 -135 -169 -201 -289 -208v-11c0 -102 60 -112 101 -112c64 0 128 28 157 44z" />
    <glyph glyph-name="dotlessi" unicode="&#x131;" horiz-adv-x="296" 
d="M40 438l7 82h178l-38 -438h69l-7 -82h-174l39 438h-74z" />
    <glyph glyph-name="lslash" unicode="&#x142;" horiz-adv-x="278" 
d="M32 687l7 82h189l-23 -255l75 72l-7 -82l-75 -72l-30 -350h70l-7 -82h-174l29 330l-75 -72l7 82l75 72l24 275h-85z" />
    <glyph glyph-name="oslash" unicode="&#xf8;" horiz-adv-x="519" 
d="M149 154l181 273c-13 9 -31 15 -53 15c-115 0 -137 -132 -137 -220c0 -22 2 -47 9 -68zM13 -51l69 104c-41 47 -54 113 -54 170c0 159 82 307 261 307c31 0 64 -6 94 -23l67 102l56 -38l-69 -104c33 -37 54 -91 54 -168c0 -217 -120 -309 -252 -309c-41 0 -75 8 -103 22
l-67 -101zM370 366l-181 -273c13 -9 31 -15 53 -15c115 0 137 137 137 225c0 17 -2 41 -9 63z" />
    <glyph glyph-name="oe" unicode="&#x153;" horiz-adv-x="815" 
d="M750 120l-9 -94c-54 -23 -117 -36 -170 -36c-103 0 -161 47 -167 123h-2c-16 -52 -54 -123 -169 -123c-152 0 -191 124 -191 231c0 160 75 309 253 309c85 0 136 -52 150 -126h2c17 47 67 126 191 126c99 0 147 -66 147 -122c0 -134 -167 -202 -304 -207
c0 -80 35 -123 113 -123c65 0 140 30 156 42zM154 213c0 -69 27 -135 98 -135c83 0 129 83 129 245c0 80 -38 125 -90 125c-61 0 -137 -48 -137 -235zM617 448c-102 0 -133 -101 -136 -177c103 13 198 55 198 121c0 32 -27 56 -62 56z" />
    <glyph glyph-name="germandbls" unicode="&#xdf;" horiz-adv-x="648" 
d="M-117 -243l8 84c17 -7 42 -11 64 -11c89 0 109 54 121 204l41 498c11 129 58 249 257 249c147 0 208 -68 208 -147c0 -139 -178 -169 -178 -244c0 -77 207 -80 207 -228c0 -69 -46 -168 -194 -168c-62 0 -118 11 -164 24l14 136h89l-4 -70c13 -5 45 -8 63 -8
c68 0 96 29 96 74c0 98 -213 81 -213 225c0 130 184 135 184 247c0 64 -58 77 -106 77c-104 0 -146 -53 -157 -187l-39 -488c-12 -144 -35 -282 -207 -282c-36 0 -71 8 -90 15z" />
    <glyph glyph-name="logicalnot" unicode="&#xac;" horiz-adv-x="600" 
d="M39 308v82h506v-282h-82v200h-424z" />
    <glyph glyph-name="mu" unicode="&#xb5;" horiz-adv-x="611" 
d="M45 438l7 82h187l-36 -247c-8 -55 -13 -92 -13 -125c0 -35 14 -60 42 -60c63 0 169 156 205 432h103c-10 -56 -18 -116 -23 -174l-22 -264h71l-7 -82h-169c4 65 20 151 34 226h-2c-39 -116 -114 -232 -208 -232c-21 0 -38 11 -46 31h-2l-39 -276h-100
c21 157 44 314 63 471l27 218h-72z" />
    <glyph glyph-name="trademark" unicode="&#x2122;" horiz-adv-x="990" 
d="M175 291v345h-125v64h332v-64h-125v-345h-82zM846 291v327h-2l-121 -327h-56l-121 327h-2v-327h-76v409h118l111 -286l110 286h115v-409h-76z" />
    <glyph glyph-name="Eth" unicode="&#xd0;" horiz-adv-x="741" 
d="M24 0l7 82h59l20 240h-67l8 76h66l19 220h-72l7 82h305c168 0 321 -80 321 -296c0 -273 -166 -404 -393 -404h-280zM242 618l-19 -220h191l-7 -76h-191l-20 -240h138c159 0 251 158 251 308c0 192 -115 228 -236 228h-107z" />
    <glyph glyph-name="onehalf" unicode="&#xbd;" horiz-adv-x="889" 
d="M192 -29l437 798l68 -40l-437 -798zM73 284l6 64h80l28 285l-2 2c-2 -6 -14 -18 -32 -28l-77 -43l-27 58l152 83h82l-36 -357h89l-5 -64h-258zM508 0l4 60c99 66 240 162 240 241c0 33 -21 60 -61 60c-50 0 -71 -32 -76 -66h-88c0 28 29 136 171 136
c79 0 142 -40 142 -123c0 -108 -151 -199 -214 -239l2 -2c7 2 16 3 36 3h160l-4 -70h-312z" />
    <glyph glyph-name="plusminus" unicode="&#xb1;" horiz-adv-x="600" 
d="M39 277v82h212v147h82v-147h212v-82h-212v-147h-82v147h-212zM39 0v82h506v-82h-506z" />
    <glyph glyph-name="Thorn" unicode="&#xde;" horiz-adv-x="556" 
d="M231 488l-22 -255c16 -2 33 -3 58 -3c96 0 163 46 163 145c0 103 -84 113 -143 113h-56zM24 0l7 82h59l46 536h-72l7 82h237l-7 -82h-59l-4 -48h63c116 0 235 -36 235 -182c0 -172 -115 -240 -263 -240c-27 0 -48 2 -71 3l-6 -69h77l-7 -82h-242z" />
    <glyph glyph-name="onequarter" unicode="&#xbc;" horiz-adv-x="889" 
d="M701 178l15 167l-2 2c-3 -6 -9 -19 -19 -30l-120 -139h126zM644 0l6 64h39l5 50h-203l6 64l211 243h100l-25 -243h71l-8 -64h-70l-5 -50h48l-6 -64h-169zM202 -29l437 798l68 -40l-437 -798zM73 284l6 64h80l28 285l-2 2c-2 -6 -14 -18 -32 -28l-77 -43l-27 58l152 83h82
l-36 -357h89l-5 -64h-258z" />
    <glyph glyph-name="divide" unicode="&#xf7;" horiz-adv-x="600" 
d="M39 212v82h506v-82h-506zM221 59c0 39 32 71 71 71s71 -32 71 -71s-32 -71 -71 -71s-71 32 -71 71zM221 447c0 39 32 71 71 71s71 -32 71 -71s-32 -71 -71 -71s-71 32 -71 71z" />
    <glyph glyph-name="brokenbar" unicode="&#xa6;" horiz-adv-x="222" 
d="M70 -175v350h82v-350h-82zM70 325v350h82v-350h-82z" />
    <glyph glyph-name="degree" unicode="&#xb0;" horiz-adv-x="400" 
d="M72 572c0 79 64 143 143 143s143 -64 143 -143s-64 -143 -143 -143s-143 64 -143 143zM136 572c0 -44 35 -79 79 -79s79 35 79 79s-35 79 -79 79s-79 -35 -79 -79z" />
    <glyph glyph-name="thorn" unicode="&#xfe;" 
d="M-12 -251l7 82h60l73 856h-86l7 82h189l-27 -320c-6 -42 -14 -96 -23 -140h2c21 68 69 221 216 221c109 0 129 -117 129 -192c0 -188 -110 -344 -280 -344c-37 0 -66 3 -86 8l-14 -171h73l-7 -82h-233zM429 330c0 49 -7 106 -52 106c-75 0 -168 -147 -199 -343
c18 -7 48 -11 85 -11c118 0 166 145 166 248z" />
    <glyph glyph-name="threequarters" unicode="&#xbe;" horiz-adv-x="889" 
d="M701 178l15 167l-2 2c-3 -6 -9 -19 -19 -30l-120 -139h126zM644 0l6 64h39l5 50h-203l6 64l211 243h100l-25 -243h71l-8 -64h-70l-5 -50h48l-6 -64h-169zM202 -29l437 798l68 -40l-437 -798zM28 300l5 70c35 -14 84 -26 125 -26c58 0 101 18 101 64c0 61 -82 61 -130 61
l4 64c35 0 67 3 88 13c28 13 41 32 41 58s-19 41 -52 41c-44 0 -61 -20 -70 -51h-82c19 90 82 121 161 121c63 0 131 -30 131 -102c0 -56 -49 -97 -125 -104v-2c67 0 122 -37 122 -98c0 -62 -54 -135 -185 -135c-51 0 -109 11 -134 26z" />
    <glyph glyph-name="registered" unicode="&#xae;" horiz-adv-x="800" 
d="M33 350c0 203 164 367 367 367s367 -164 367 -367s-164 -367 -367 -367s-367 164 -367 367zM691 350c0 166 -128 297 -291 297c-165 0 -291 -131 -291 -297s126 -297 291 -297c163 0 291 131 291 297zM499 141l-110 181h-66v-181h-70v418h164c103 0 157 -35 157 -120
c0 -76 -49 -108 -106 -111l113 -187h-82zM323 380h76c53 0 99 5 99 64c0 49 -51 57 -93 57h-82v-121z" />
    <glyph glyph-name="minus" unicode="&#x2212;" horiz-adv-x="600" 
d="M39 212v82h506v-82h-506z" />
    <glyph glyph-name="eth" unicode="&#xf0;" horiz-adv-x="519" 
d="M140 222c0 -63 18 -144 102 -144c115 0 137 137 137 225c0 45 -13 139 -102 139c-115 0 -137 -132 -137 -220zM193 590l-48 44l111 51c-25 23 -54 42 -83 54l94 42c31 -15 58 -33 82 -54l95 43l48 -44l-99 -45c75 -96 98 -228 98 -349c0 -256 -120 -342 -252 -342
c-170 0 -211 130 -211 233c0 159 88 307 248 307c39 0 66 -9 89 -26l2 2c-10 45 -34 92 -67 133z" />
    <glyph glyph-name="multiply" unicode="&#xd7;" horiz-adv-x="600" 
d="M468 22l-176 176l-176 -176l-55 55l176 176l-176 176l55 55l176 -176l176 176l55 -55l-176 -176l176 -176z" />
    <glyph glyph-name="copyright" unicode="&#xa9;" horiz-adv-x="800" 
d="M691 350c0 166 -128 297 -291 297c-165 0 -291 -131 -291 -297s126 -297 291 -297c163 0 291 131 291 297zM509 284h82c-17 -97 -90 -155 -177 -155c-125 0 -207 97 -207 221c0 126 78 221 204 221c90 0 163 -54 177 -152h-79c-10 51 -49 82 -103 82
c-81 0 -123 -62 -123 -151c0 -86 47 -151 127 -151c53 0 92 29 99 85zM33 350c0 203 164 367 367 367s367 -164 367 -367s-164 -367 -367 -367s-367 164 -367 367z" />
    <glyph glyph-name="Aacute" unicode="&#xc1;" horiz-adv-x="741" 
d="M-8 0l7 82h57l288 624h124l179 -624h63l-7 -82h-235l7 82h54l-44 174h-247l-76 -174h73l-7 -82h-236zM465 338l-55 212c-6 25 -10 46 -14 74h-2c-7 -23 -19 -54 -28 -74l-91 -212h190zM300 779l193 147l66 -51l-204 -150z" />
    <glyph glyph-name="Acircumflex" unicode="&#xc2;" horiz-adv-x="741" 
d="M-8 0l7 82h57l288 624h124l179 -624h63l-7 -82h-235l7 82h54l-44 174h-247l-76 -174h73l-7 -82h-236zM465 338l-55 212c-6 25 -10 46 -14 74h-2c-7 -23 -19 -54 -28 -74l-91 -212h190zM220 805l161 115h76l141 -115l-71 -51l-114 96l-132 -96z" />
    <glyph glyph-name="Adieresis" unicode="&#xc4;" horiz-adv-x="741" 
d="M-8 0l7 82h57l288 624h124l179 -624h63l-7 -82h-235l7 82h54l-44 174h-247l-76 -174h73l-7 -82h-236zM465 338l-55 212c-6 25 -10 46 -14 74h-2c-7 -23 -19 -54 -28 -74l-91 -212h190zM447 823c0 33 20 67 68 67c46 0 68 -28 68 -61c0 -49 -30 -69 -72 -69
c-33 0 -64 17 -64 63zM235 823c0 33 20 67 68 67c46 0 68 -28 68 -61c0 -49 -30 -69 -72 -69c-33 0 -64 17 -64 63z" />
    <glyph glyph-name="Agrave" unicode="&#xc0;" horiz-adv-x="741" 
d="M-8 0l7 82h57l288 624h124l179 -624h63l-7 -82h-235l7 82h54l-44 174h-247l-76 -174h73l-7 -82h-236zM465 338l-55 212c-6 25 -10 46 -14 74h-2c-7 -23 -19 -54 -28 -74l-91 -212h190zM340 926l167 -154l-66 -47l-171 150z" />
    <glyph glyph-name="Aring" unicode="&#xc5;" horiz-adv-x="741" 
d="M-8 0l7 82h57l288 624h124l179 -624h63l-7 -82h-235l7 82h54l-44 174h-247l-76 -174h73l-7 -82h-236zM465 338l-55 212c-6 25 -10 46 -14 74h-2c-7 -23 -19 -54 -28 -74l-91 -212h190zM309 823c0 44 27 109 109 109c64 0 96 -43 96 -94c0 -54 -40 -111 -111 -111
c-57 0 -94 37 -94 96zM367 826c0 -31 18 -53 43 -53c29 0 46 34 46 62c0 27 -10 51 -40 51c-31 0 -49 -32 -49 -60z" />
    <glyph glyph-name="Atilde" unicode="&#xc3;" horiz-adv-x="741" 
d="M-8 0l7 82h57l288 624h124l179 -624h63l-7 -82h-235l7 82h54l-44 174h-247l-76 -174h73l-7 -82h-236zM465 338l-55 212c-6 25 -10 46 -14 74h-2c-7 -23 -19 -54 -28 -74l-91 -212h190zM535 879l63 -44c-25 -42 -63 -85 -115 -85c-42 0 -110 60 -139 60
c-25 0 -44 -28 -53 -49l-71 30c18 41 51 101 119 101c63 0 104 -60 142 -60c22 0 36 18 54 47z" />
    <glyph glyph-name="Ccedilla" unicode="&#xc7;" horiz-adv-x="630" 
d="M583 180l-15 -164c-48 -15 -116 -33 -194 -33h-1l-6 -43h6c33 0 83 -23 83 -78c0 -76 -75 -102 -145 -102c-41 0 -73 9 -97 18l10 57c26 -8 53 -17 82 -17c27 0 62 7 62 38c0 33 -45 36 -71 36l13 96c-169 22 -271 129 -271 317c0 129 53 412 377 412
c83 0 147 -17 193 -30l-8 -164h-85l2 94c-25 7 -60 12 -94 12c-203 0 -267 -156 -267 -306c0 -161 77 -252 223 -252c27 0 76 8 102 15l13 94h88z" />
    <glyph glyph-name="Eacute" unicode="&#xc9;" 
d="M24 0l7 82h59l46 536h-72l7 82h481l-14 -177h-88l2 95h-210l-18 -216h214l-7 -82h-214l-21 -238h227l13 97h88l-14 -179h-486zM206 779l193 147l66 -51l-204 -150z" />
    <glyph glyph-name="Ecircumflex" unicode="&#xca;" 
d="M24 0l7 82h59l46 536h-72l7 82h481l-14 -177h-88l2 95h-210l-18 -216h214l-7 -82h-214l-21 -238h227l13 97h88l-14 -179h-486zM136 805l161 115h76l141 -115l-71 -51l-114 96l-132 -96z" />
    <glyph glyph-name="Edieresis" unicode="&#xcb;" 
d="M24 0l7 82h59l46 536h-72l7 82h481l-14 -177h-88l2 95h-210l-18 -216h214l-7 -82h-214l-21 -238h227l13 97h88l-14 -179h-486zM363 823c0 33 20 67 68 67c46 0 68 -28 68 -61c0 -49 -30 -69 -72 -69c-33 0 -64 17 -64 63zM151 823c0 33 20 67 68 67c46 0 68 -28 68 -61
c0 -49 -30 -69 -72 -69c-33 0 -64 17 -64 63z" />
    <glyph glyph-name="Egrave" unicode="&#xc8;" 
d="M24 0l7 82h59l46 536h-72l7 82h481l-14 -177h-88l2 95h-210l-18 -216h214l-7 -82h-214l-21 -238h227l13 97h88l-14 -179h-486zM256 926l167 -154l-66 -47l-171 150z" />
    <glyph glyph-name="Iacute" unicode="&#xcd;" horiz-adv-x="332" 
d="M24 0l7 82h59l46 536h-72l7 82h237l-7 -82h-59l-46 -536h72l-7 -82h-237zM85 779l193 147l66 -51l-204 -150z" />
    <glyph glyph-name="Icircumflex" unicode="&#xce;" horiz-adv-x="332" 
d="M24 0l7 82h59l46 536h-72l7 82h237l-7 -82h-59l-46 -536h72l-7 -82h-237zM15 805l161 115h76l141 -115l-71 -51l-114 96l-132 -96z" />
    <glyph glyph-name="Idieresis" unicode="&#xcf;" horiz-adv-x="332" 
d="M24 0l7 82h59l46 536h-72l7 82h237l-7 -82h-59l-46 -536h72l-7 -82h-237zM242 823c0 33 20 67 68 67c46 0 68 -28 68 -61c0 -49 -30 -69 -72 -69c-33 0 -64 17 -64 63zM30 823c0 33 20 67 68 67c46 0 68 -28 68 -61c0 -49 -30 -69 -72 -69c-33 0 -64 17 -64 63z" />
    <glyph glyph-name="Igrave" unicode="&#xcc;" horiz-adv-x="332" 
d="M24 0l7 82h59l46 536h-72l7 82h237l-7 -82h-59l-46 -536h72l-7 -82h-237zM135 926l167 -154l-66 -47l-171 150z" />
    <glyph glyph-name="Ntilde" unicode="&#xd1;" horiz-adv-x="778" 
d="M21 0l7 82h60l48 536h-76l7 82h162l289 -451c15 -24 35 -52 44 -73h2l35 442h-73l7 82h224l-7 -82h-60l-54 -618h-91l-285 446c-23 37 -34 57 -44 81h-2l-35 -445h73l-7 -82h-224zM553 879l63 -44c-25 -42 -63 -85 -115 -85c-42 0 -110 60 -139 60c-25 0 -44 -28 -53 -49
l-71 30c18 41 51 101 119 101c63 0 104 -60 142 -60c22 0 36 18 54 47z" />
    <glyph glyph-name="Oacute" unicode="&#xd3;" horiz-adv-x="722" 
d="M39 309c0 274 170 408 355 408c198 0 289 -137 289 -330c0 -192 -91 -404 -358 -404c-157 0 -286 95 -286 326zM157 311c0 -93 24 -240 185 -240c189 0 223 219 223 314c0 136 -49 244 -184 244c-171 0 -224 -176 -224 -318zM280 779l193 147l66 -51l-204 -150z" />
    <glyph glyph-name="Ocircumflex" unicode="&#xd4;" horiz-adv-x="722" 
d="M39 309c0 274 170 408 355 408c198 0 289 -137 289 -330c0 -192 -91 -404 -358 -404c-157 0 -286 95 -286 326zM157 311c0 -93 24 -240 185 -240c189 0 223 219 223 314c0 136 -49 244 -184 244c-171 0 -224 -176 -224 -318zM210 805l161 115h76l141 -115l-71 -51
l-114 96l-132 -96z" />
    <glyph glyph-name="Odieresis" unicode="&#xd6;" horiz-adv-x="722" 
d="M39 309c0 274 170 408 355 408c198 0 289 -137 289 -330c0 -192 -91 -404 -358 -404c-157 0 -286 95 -286 326zM157 311c0 -93 24 -240 185 -240c189 0 223 219 223 314c0 136 -49 244 -184 244c-171 0 -224 -176 -224 -318zM437 823c0 33 20 67 68 67
c46 0 68 -28 68 -61c0 -49 -30 -69 -72 -69c-33 0 -64 17 -64 63zM225 823c0 33 20 67 68 67c46 0 68 -28 68 -61c0 -49 -30 -69 -72 -69c-33 0 -64 17 -64 63z" />
    <glyph glyph-name="Ograve" unicode="&#xd2;" horiz-adv-x="722" 
d="M39 309c0 274 170 408 355 408c198 0 289 -137 289 -330c0 -192 -91 -404 -358 -404c-157 0 -286 95 -286 326zM157 311c0 -93 24 -240 185 -240c189 0 223 219 223 314c0 136 -49 244 -184 244c-171 0 -224 -176 -224 -318zM330 926l167 -154l-66 -47l-171 150z" />
    <glyph glyph-name="Otilde" unicode="&#xd5;" horiz-adv-x="722" 
d="M39 309c0 274 170 408 355 408c198 0 289 -137 289 -330c0 -192 -91 -404 -358 -404c-157 0 -286 95 -286 326zM157 311c0 -93 24 -240 185 -240c189 0 223 219 223 314c0 136 -49 244 -184 244c-171 0 -224 -176 -224 -318zM525 879l63 -44c-25 -42 -63 -85 -115 -85
c-42 0 -110 60 -139 60c-25 0 -44 -28 -53 -49l-71 30c18 41 51 101 119 101c63 0 104 -60 142 -60c22 0 36 18 54 47z" />
    <glyph glyph-name="Scaron" unicode="&#x160;" 
d="M516 686l-10 -163h-89v92c-30 9 -60 14 -99 14c-90 0 -144 -33 -144 -102c0 -47 23 -72 106 -101l107 -38c63 -22 137 -66 137 -176c0 -136 -116 -229 -274 -229c-82 0 -152 10 -215 36l9 170h85l-3 -94c42 -13 86 -18 129 -18c83 0 157 29 157 118c0 55 -39 81 -90 99
l-111 38c-99 34 -149 89 -149 176c0 106 70 209 256 209c76 0 138 -13 198 -31zM510 869l-161 -115h-76l-141 115l71 51l114 -96l132 96z" />
    <glyph glyph-name="Uacute" unicode="&#xda;" horiz-adv-x="741" 
d="M57 618l7 82h237l-7 -82h-59l-29 -336c-4 -41 -5 -61 -5 -77c0 -73 32 -134 150 -134c155 0 177 98 188 228l27 319h-75l7 82h226l-7 -82h-57l-32 -354c-17 -186 -76 -281 -282 -281c-222 0 -251 105 -251 214c0 27 2 60 6 104l28 317h-72zM302 779l193 147l66 -51
l-204 -150z" />
    <glyph glyph-name="Ucircumflex" unicode="&#xdb;" horiz-adv-x="741" 
d="M57 618l7 82h237l-7 -82h-59l-29 -336c-4 -41 -5 -61 -5 -77c0 -73 32 -134 150 -134c155 0 177 98 188 228l27 319h-75l7 82h226l-7 -82h-57l-32 -354c-17 -186 -76 -281 -282 -281c-222 0 -251 105 -251 214c0 27 2 60 6 104l28 317h-72zM220 805l161 115h76l141 -115
l-71 -51l-114 96l-132 -96z" />
    <glyph glyph-name="Udieresis" unicode="&#xdc;" horiz-adv-x="741" 
d="M57 618l7 82h237l-7 -82h-59l-29 -336c-4 -41 -5 -61 -5 -77c0 -73 32 -134 150 -134c155 0 177 98 188 228l27 319h-75l7 82h226l-7 -82h-57l-32 -354c-17 -186 -76 -281 -282 -281c-222 0 -251 105 -251 214c0 27 2 60 6 104l28 317h-72zM447 823c0 33 20 67 68 67
c46 0 68 -28 68 -61c0 -49 -30 -69 -72 -69c-33 0 -64 17 -64 63zM235 823c0 33 20 67 68 67c46 0 68 -28 68 -61c0 -49 -30 -69 -72 -69c-33 0 -64 17 -64 63z" />
    <glyph glyph-name="Ugrave" unicode="&#xd9;" horiz-adv-x="741" 
d="M57 618l7 82h237l-7 -82h-59l-29 -336c-4 -41 -5 -61 -5 -77c0 -73 32 -134 150 -134c155 0 177 98 188 228l27 319h-75l7 82h226l-7 -82h-57l-32 -354c-17 -186 -76 -281 -282 -281c-222 0 -251 105 -251 214c0 27 2 60 6 104l28 317h-72zM328 926l167 -154l-66 -47
l-171 150z" />
    <glyph glyph-name="Yacute" unicode="&#xdd;" horiz-adv-x="685" 
d="M200 0l7 82h61l17 196l-204 340h-63l7 82h247l-7 -82h-54l141 -251l185 251h-76l7 82h239l-7 -82h-57l-250 -333l-19 -203h75l-7 -82h-242zM282 779l193 147l66 -51l-204 -150z" />
    <glyph glyph-name="Ydieresis" unicode="&#x178;" horiz-adv-x="685" 
d="M200 0l7 82h61l17 196l-204 340h-63l7 82h247l-7 -82h-54l141 -251l185 251h-76l7 82h239l-7 -82h-57l-250 -333l-19 -203h75l-7 -82h-242zM419 823c0 33 20 67 68 67c46 0 68 -28 68 -61c0 -49 -30 -69 -72 -69c-33 0 -64 17 -64 63zM207 823c0 33 20 67 68 67
c46 0 68 -28 68 -61c0 -49 -30 -69 -72 -69c-33 0 -64 17 -64 63z" />
    <glyph glyph-name="Zcaron" unicode="&#x17d;" horiz-adv-x="630" 
d="M15 0l10 74l398 493c15 18 31 37 49 49v2h-294l-14 -98h-88l16 180h518l-10 -74l-407 -506c-11 -14 -26 -28 -37 -38h316l15 101h91l-17 -183h-546zM538 869l-161 -115h-76l-141 115l71 51l114 -96l132 96z" />
    <glyph glyph-name="aacute" unicode="&#xe1;" 
d="M145 185c0 -57 16 -97 53 -97c96 0 184 270 184 349c-15 5 -38 11 -65 11c-137 0 -172 -177 -172 -263zM525 82l-7 -82h-164c4 56 13 124 33 230h-3c-31 -109 -85 -236 -208 -236c-108 0 -137 91 -137 194s45 342 286 342c49 0 90 -11 130 -23h42
c-5 -19 -14 -85 -17 -125l-26 -300h71zM218 634l193 147l66 -51l-204 -150z" />
    <glyph glyph-name="acircumflex" unicode="&#xe2;" 
d="M145 185c0 -57 16 -97 53 -97c96 0 184 270 184 349c-15 5 -38 11 -65 11c-137 0 -172 -177 -172 -263zM525 82l-7 -82h-164c4 56 13 124 33 230h-3c-31 -109 -85 -236 -208 -236c-108 0 -137 91 -137 194s45 342 286 342c49 0 90 -11 130 -23h42
c-5 -19 -14 -85 -17 -125l-26 -300h71zM136 660l161 115h76l141 -115l-71 -51l-114 96l-132 -96z" />
    <glyph glyph-name="adieresis" unicode="&#xe4;" 
d="M145 185c0 -57 16 -97 53 -97c96 0 184 270 184 349c-15 5 -38 11 -65 11c-137 0 -172 -177 -172 -263zM525 82l-7 -82h-164c4 56 13 124 33 230h-3c-31 -109 -85 -236 -208 -236c-108 0 -137 91 -137 194s45 342 286 342c49 0 90 -11 130 -23h42
c-5 -19 -14 -85 -17 -125l-26 -300h71zM363 678c0 33 20 67 68 67c46 0 68 -28 68 -61c0 -49 -30 -69 -72 -69c-33 0 -64 17 -64 63zM151 678c0 33 20 67 68 67c46 0 68 -28 68 -61c0 -49 -30 -69 -72 -69c-33 0 -64 17 -64 63z" />
    <glyph glyph-name="agrave" unicode="&#xe0;" 
d="M145 185c0 -57 16 -97 53 -97c96 0 184 270 184 349c-15 5 -38 11 -65 11c-137 0 -172 -177 -172 -263zM525 82l-7 -82h-164c4 56 13 124 33 230h-3c-31 -109 -85 -236 -208 -236c-108 0 -137 91 -137 194s45 342 286 342c49 0 90 -11 130 -23h42
c-5 -19 -14 -85 -17 -125l-26 -300h71zM256 781l167 -154l-66 -47l-171 150z" />
    <glyph glyph-name="aring" unicode="&#xe5;" 
d="M145 185c0 -57 16 -97 53 -97c96 0 184 270 184 349c-15 5 -38 11 -65 11c-137 0 -172 -177 -172 -263zM525 82l-7 -82h-164c4 56 13 124 33 230h-3c-31 -109 -85 -236 -208 -236c-108 0 -137 91 -137 194s45 342 286 342c49 0 90 -11 130 -23h42
c-5 -19 -14 -85 -17 -125l-26 -300h71zM227 678c0 44 27 109 109 109c64 0 96 -43 96 -94c0 -54 -40 -111 -111 -111c-57 0 -94 37 -94 96zM285 681c0 -31 18 -53 43 -53c29 0 46 34 46 62c0 27 -10 51 -40 51c-31 0 -49 -32 -49 -60z" />
    <glyph glyph-name="atilde" unicode="&#xe3;" 
d="M145 185c0 -57 16 -97 53 -97c96 0 184 270 184 349c-15 5 -38 11 -65 11c-137 0 -172 -177 -172 -263zM525 82l-7 -82h-164c4 56 13 124 33 230h-3c-31 -109 -85 -236 -208 -236c-108 0 -137 91 -137 194s45 342 286 342c49 0 90 -11 130 -23h42
c-5 -19 -14 -85 -17 -125l-26 -300h71zM451 734l63 -44c-25 -42 -63 -85 -115 -85c-42 0 -110 60 -139 60c-25 0 -44 -28 -53 -49l-71 30c18 41 51 101 119 101c63 0 104 -60 142 -60c22 0 36 18 54 47z" />
    <glyph glyph-name="ccedilla" unicode="&#xe7;" horiz-adv-x="426" 
d="M393 115l-9 -93c-36 -18 -87 -32 -136 -32l-6 -50h6c33 0 83 -23 83 -78c0 -76 -75 -102 -145 -102c-41 0 -73 9 -97 18l10 57c26 -8 53 -17 82 -17c27 0 62 7 62 38c0 33 -45 36 -71 36l14 106c-106 21 -158 100 -158 223c0 232 135 309 270 309c64 0 96 -10 126 -20
l-15 -140h-88l3 72c-10 4 -21 6 -37 6c-102 0 -147 -98 -147 -208c0 -95 34 -162 130 -162c43 0 89 19 123 37z" />
    <glyph glyph-name="eacute" unicode="&#xe9;" horiz-adv-x="463" 
d="M414 122l-14 -96c-26 -15 -93 -36 -168 -36c-133 0 -204 82 -204 215c0 145 74 325 272 325c75 0 149 -37 149 -121c0 -165 -229 -201 -309 -208c0 -72 30 -123 128 -123c41 0 100 18 146 44zM343 396c0 27 -18 52 -61 52c-99 0 -133 -103 -142 -177
c98 17 203 45 203 125zM163 634l193 147l66 -51l-204 -150z" />
    <glyph glyph-name="ecircumflex" unicode="&#xea;" horiz-adv-x="463" 
d="M414 122l-14 -96c-26 -15 -93 -36 -168 -36c-133 0 -204 82 -204 215c0 145 74 325 272 325c75 0 149 -37 149 -121c0 -165 -229 -201 -309 -208c0 -72 30 -123 128 -123c41 0 100 18 146 44zM343 396c0 27 -18 52 -61 52c-99 0 -133 -103 -142 -177
c98 17 203 45 203 125zM81 660l161 115h76l141 -115l-71 -51l-114 96l-132 -96z" />
    <glyph glyph-name="edieresis" unicode="&#xeb;" horiz-adv-x="463" 
d="M414 122l-14 -96c-26 -15 -93 -36 -168 -36c-133 0 -204 82 -204 215c0 145 74 325 272 325c75 0 149 -37 149 -121c0 -165 -229 -201 -309 -208c0 -72 30 -123 128 -123c41 0 100 18 146 44zM343 396c0 27 -18 52 -61 52c-99 0 -133 -103 -142 -177
c98 17 203 45 203 125zM308 678c0 33 20 67 68 67c46 0 68 -28 68 -61c0 -49 -30 -69 -72 -69c-33 0 -64 17 -64 63zM96 678c0 33 20 67 68 67c46 0 68 -28 68 -61c0 -49 -30 -69 -72 -69c-33 0 -64 17 -64 63z" />
    <glyph glyph-name="egrave" unicode="&#xe8;" horiz-adv-x="463" 
d="M414 122l-14 -96c-26 -15 -93 -36 -168 -36c-133 0 -204 82 -204 215c0 145 74 325 272 325c75 0 149 -37 149 -121c0 -165 -229 -201 -309 -208c0 -72 30 -123 128 -123c41 0 100 18 146 44zM343 396c0 27 -18 52 -61 52c-99 0 -133 -103 -142 -177
c98 17 203 45 203 125zM201 781l167 -154l-66 -47l-171 150z" />
    <glyph glyph-name="iacute" unicode="&#xed;" horiz-adv-x="296" 
d="M40 438l7 82h178l-38 -438h69l-7 -82h-174l39 438h-74zM67 634l193 147l66 -51l-204 -150z" />
    <glyph glyph-name="icircumflex" unicode="&#xee;" horiz-adv-x="296" 
d="M40 438l7 82h178l-38 -438h69l-7 -82h-174l39 438h-74zM-3 660l161 115h76l141 -115l-71 -51l-114 96l-132 -96z" />
    <glyph glyph-name="idieresis" unicode="&#xef;" horiz-adv-x="296" 
d="M40 438l7 82h178l-38 -438h69l-7 -82h-174l39 438h-74zM224 678c0 33 20 67 68 67c46 0 68 -28 68 -61c0 -49 -30 -69 -72 -69c-33 0 -64 17 -64 63zM12 678c0 33 20 67 68 67c46 0 68 -28 68 -61c0 -49 -30 -69 -72 -69c-33 0 -64 17 -64 63z" />
    <glyph glyph-name="igrave" unicode="&#xec;" horiz-adv-x="296" 
d="M40 438l7 82h178l-38 -438h69l-7 -82h-174l39 438h-74zM117 781l167 -154l-66 -47l-171 150z" />
    <glyph glyph-name="ntilde" unicode="&#xf1;" horiz-adv-x="611" 
d="M42 438l7 82h177c-7 -80 -13 -137 -32 -220h2c54 168 142 230 232 230c82 0 107 -60 107 -128c0 -36 -4 -75 -8 -106l-27 -214h69l-7 -82h-179c22 123 46 332 46 377c0 31 -4 59 -36 59c-92 0 -183 -204 -205 -363l-10 -73h-103c11 67 17 137 23 206l20 232h-76zM458 734
l63 -44c-25 -42 -63 -85 -115 -85c-42 0 -110 60 -139 60c-25 0 -44 -28 -53 -49l-71 30c18 41 51 101 119 101c63 0 104 -60 142 -60c22 0 36 18 54 47z" />
    <glyph glyph-name="oacute" unicode="&#xf3;" horiz-adv-x="519" 
d="M140 222c0 -63 18 -144 102 -144c115 0 137 137 137 225c0 45 -13 139 -102 139c-115 0 -137 -132 -137 -220zM28 223c0 159 82 307 261 307c90 0 202 -54 202 -231c0 -217 -120 -309 -252 -309c-170 0 -211 130 -211 233zM179 634l193 147l66 -51l-204 -150z" />
    <glyph glyph-name="ocircumflex" unicode="&#xf4;" horiz-adv-x="519" 
d="M140 222c0 -63 18 -144 102 -144c115 0 137 137 137 225c0 45 -13 139 -102 139c-115 0 -137 -132 -137 -220zM28 223c0 159 82 307 261 307c90 0 202 -54 202 -231c0 -217 -120 -309 -252 -309c-170 0 -211 130 -211 233zM109 660l161 115h76l141 -115l-71 -51l-114 96
l-132 -96z" />
    <glyph glyph-name="odieresis" unicode="&#xf6;" horiz-adv-x="519" 
d="M140 222c0 -63 18 -144 102 -144c115 0 137 137 137 225c0 45 -13 139 -102 139c-115 0 -137 -132 -137 -220zM28 223c0 159 82 307 261 307c90 0 202 -54 202 -231c0 -217 -120 -309 -252 -309c-170 0 -211 130 -211 233zM336 678c0 33 20 67 68 67c46 0 68 -28 68 -61
c0 -49 -30 -69 -72 -69c-33 0 -64 17 -64 63zM124 678c0 33 20 67 68 67c46 0 68 -28 68 -61c0 -49 -30 -69 -72 -69c-33 0 -64 17 -64 63z" />
    <glyph glyph-name="ograve" unicode="&#xf2;" horiz-adv-x="519" 
d="M140 222c0 -63 18 -144 102 -144c115 0 137 137 137 225c0 45 -13 139 -102 139c-115 0 -137 -132 -137 -220zM28 223c0 159 82 307 261 307c90 0 202 -54 202 -231c0 -217 -120 -309 -252 -309c-170 0 -211 130 -211 233zM229 781l167 -154l-66 -47l-171 150z" />
    <glyph glyph-name="otilde" unicode="&#xf5;" horiz-adv-x="519" 
d="M140 222c0 -63 18 -144 102 -144c115 0 137 137 137 225c0 45 -13 139 -102 139c-115 0 -137 -132 -137 -220zM28 223c0 159 82 307 261 307c90 0 202 -54 202 -231c0 -217 -120 -309 -252 -309c-170 0 -211 130 -211 233zM424 734l63 -44c-25 -42 -63 -85 -115 -85
c-42 0 -110 60 -139 60c-25 0 -44 -28 -53 -49l-71 30c18 41 51 101 119 101c63 0 104 -60 142 -60c22 0 36 18 54 47z" />
    <glyph glyph-name="scaron" unicode="&#x161;" horiz-adv-x="481" 
d="M140 155v-66c26 -8 62 -17 93 -17c50 0 98 21 98 75c0 34 -19 48 -58 61l-93 30c-50 16 -115 45 -115 134c0 78 58 158 213 158c80 0 136 -22 154 -30l-4 -130h-88l4 63c-21 10 -45 15 -80 15c-61 0 -93 -28 -93 -64c0 -30 13 -45 76 -66l89 -29c53 -17 101 -50 101 -129
c0 -82 -57 -170 -209 -170c-82 0 -138 16 -184 31l4 134h92zM464 724l-161 -115h-76l-141 115l71 51l114 -96l132 96z" />
    <glyph glyph-name="uacute" unicode="&#xfa;" horiz-adv-x="611" 
d="M45 438l7 82h187l-36 -247c-8 -55 -13 -92 -13 -125c0 -35 14 -60 42 -60c63 0 169 156 205 432h103c-10 -56 -18 -116 -23 -174l-22 -264h71l-7 -82h-169c4 65 20 151 34 226h-2c-39 -116 -106 -232 -224 -232c-92 0 -114 71 -114 131c0 44 8 110 13 152l20 161h-72z
M237 634l193 147l66 -51l-204 -150z" />
    <glyph glyph-name="ucircumflex" unicode="&#xfb;" horiz-adv-x="611" 
d="M45 438l7 82h187l-36 -247c-8 -55 -13 -92 -13 -125c0 -35 14 -60 42 -60c63 0 169 156 205 432h103c-10 -56 -18 -116 -23 -174l-22 -264h71l-7 -82h-169c4 65 20 151 34 226h-2c-39 -116 -106 -232 -224 -232c-92 0 -114 71 -114 131c0 44 8 110 13 152l20 161h-72z
M143 660l161 115h76l141 -115l-71 -51l-114 96l-132 -96z" />
    <glyph glyph-name="udieresis" unicode="&#xfc;" horiz-adv-x="611" 
d="M45 438l7 82h187l-36 -247c-8 -55 -13 -92 -13 -125c0 -35 14 -60 42 -60c63 0 169 156 205 432h103c-10 -56 -18 -116 -23 -174l-22 -264h71l-7 -82h-169c4 65 20 151 34 226h-2c-39 -116 -106 -232 -224 -232c-92 0 -114 71 -114 131c0 44 8 110 13 152l20 161h-72z
M370 678c0 33 20 67 68 67c46 0 68 -28 68 -61c0 -49 -30 -69 -72 -69c-33 0 -64 17 -64 63zM158 678c0 33 20 67 68 67c46 0 68 -28 68 -61c0 -49 -30 -69 -72 -69c-33 0 -64 17 -64 63z" />
    <glyph glyph-name="ugrave" unicode="&#xf9;" horiz-adv-x="611" 
d="M45 438l7 82h187l-36 -247c-8 -55 -13 -92 -13 -125c0 -35 14 -60 42 -60c63 0 169 156 205 432h103c-10 -56 -18 -116 -23 -174l-22 -264h71l-7 -82h-169c4 65 20 151 34 226h-2c-39 -116 -106 -232 -224 -232c-92 0 -114 71 -114 131c0 44 8 110 13 152l20 161h-72z
M263 781l167 -154l-66 -47l-171 150z" />
    <glyph glyph-name="yacute" unicode="&#xfd;" horiz-adv-x="537" 
d="M-8 -253l8 84c10 -3 33 -6 50 -6c79 0 118 64 148 129l18 39l-134 445h-66l7 82h153l83 -313c8 -31 16 -78 19 -104h2c2 11 5 23 9 34l117 301h-82l7 82h178l-7 -78l-139 -338c-111 -270 -184 -367 -307 -367c-18 0 -41 3 -64 10zM188 634l193 147l66 -51l-204 -150z" />
    <glyph glyph-name="ydieresis" unicode="&#xff;" horiz-adv-x="537" 
d="M-8 -253l8 84c10 -3 33 -6 50 -6c79 0 118 64 148 129l18 39l-134 445h-66l7 82h153l83 -313c8 -31 16 -78 19 -104h2c2 11 5 23 9 34l117 301h-82l7 82h178l-7 -78l-139 -338c-111 -270 -184 -367 -307 -367c-18 0 -41 3 -64 10zM325 678c0 33 20 67 68 67
c46 0 68 -28 68 -61c0 -49 -30 -69 -72 -69c-33 0 -64 17 -64 63zM113 678c0 33 20 67 68 67c46 0 68 -28 68 -61c0 -49 -30 -69 -72 -69c-33 0 -64 17 -64 63z" />
    <glyph glyph-name="zcaron" unicode="&#x17e;" horiz-adv-x="500" 
d="M26 0l8 78l246 298c15 18 36 42 57 64c-23 -1 -49 -2 -72 -2h-111l-8 -69h-91l14 151h405l-5 -76l-245 -292c-24 -28 -41 -50 -64 -73c23 1 49 3 73 3h131l9 74h91l-15 -156h-423zM473 724l-161 -115h-76l-141 115l71 51l114 -96l132 96z" />
    <glyph glyph-name="exclam.sc" unicode="&#xf721;" horiz-adv-x="296" 
d="M90 225l35 544h121l-56 -544h-100zM50 52c0 45 29 72 74 72c50 0 74 -29 74 -65c0 -43 -28 -71 -78 -71c-30 0 -70 12 -70 64z" />
    <glyph glyph-name="hungarumlaut.sc" unicode="&#xf6f8;" horiz-adv-x="278" 
d="M-68 634l193 147l66 -51l-204 -150zM184 634l193 147l66 -51l-204 -150z" />
    <glyph glyph-name="ampersand.sc" unicode="&#xf726;" horiz-adv-x="778" 
d="M661 546l-436 -410c22 -24 61 -65 150 -65c156 0 212 145 212 175h-76l6 76h233l-6 -76h-57c-46 -170 -146 -257 -325 -257c-213 0 -304 163 -304 287c0 141 78 246 199 246c80 0 104 -53 104 -99c0 -41 -15 -65 -25 -80l2 -2l271 258zM248 428c-46 0 -96 -56 -96 -139
c0 -50 17 -82 25 -95c90 84 126 117 126 177c0 40 -28 57 -55 57z" />
    <glyph glyph-name="acute.sc" unicode="&#xf7b4;" horiz-adv-x="278" 
d="M58 634l193 147l66 -51l-204 -150z" />
    <glyph glyph-name="question.sc" unicode="&#xf73f;" horiz-adv-x="481" 
d="M84 671l4 88c23 7 86 22 145 22c170 0 223 -98 223 -180c0 -94 -58 -149 -135 -195l-78 -46c-44 -26 -60 -47 -60 -70c0 -20 15 -39 24 -51l-94 -33c-22 24 -36 55 -36 91c0 55 31 89 95 125l39 22c93 53 127 87 127 146c0 79 -71 103 -134 103c-30 0 -80 -7 -120 -22z
M60 52c0 45 29 72 74 72c50 0 74 -29 74 -65c0 -43 -28 -71 -78 -71c-30 0 -70 12 -70 64z" />
    <glyph glyph-name="circumflex.sc" unicode="&#xf6f6;" horiz-adv-x="278" 
d="M-12 660l161 115h76l141 -115l-71 -51l-114 96l-132 -96z" />
    <glyph glyph-name="grave.sc" unicode="&#xf760;" horiz-adv-x="278" 
d="M108 781l167 -154l-66 -47l-171 150z" />
    <glyph glyph-name="a.sc" unicode="&#xf761;" 
d="M32 76l223 479h112l141 -479h59l-6 -76h-230l6 76h59l-30 116h-184l-50 -116h71l-6 -76h-219l6 76h48zM298 473l-85 -205h136l-49 205h-2z" />
    <glyph glyph-name="b.sc" unicode="&#xf762;" horiz-adv-x="500" 
d="M87 76l34 392h-69l6 76h233c83 0 155 -25 155 -119c0 -107 -88 -123 -143 -132v-2c80 -10 151 -27 151 -124c0 -119 -83 -167 -179 -167h-250l6 76h56zM201 241l-14 -165h69c35 0 98 0 98 90c0 75 -60 75 -86 75h-67zM221 468l-12 -151h36c59 0 101 22 101 88
c0 60 -51 63 -89 63h-36z" />
    <glyph glyph-name="c.sc" unicode="&#xf763;" horiz-adv-x="537" 
d="M475 157l-16 -143c-25 -15 -101 -25 -149 -25c-79 0 -271 11 -271 253c0 206 119 313 299 313c76 0 115 -10 154 -21v-143h-82v74c-9 6 -54 8 -79 8c-159 0 -186 -145 -186 -223c0 -129 61 -179 157 -179c36 0 56 5 81 10l10 76h82z" />
    <glyph glyph-name="d.sc" unicode="&#xf764;" horiz-adv-x="611" 
d="M226 468l-35 -392h73c132 0 201 76 201 225c0 167 -115 167 -169 167h-70zM91 76l35 392h-68l6 76h243c77 0 264 0 264 -245c0 -194 -131 -299 -315 -299h-226l6 76h55z" />
    <glyph glyph-name="e.sc" unicode="&#xf765;" horiz-adv-x="519" 
d="M60 468l6 76h387v-153h-74l-4 77h-147l-10 -151h150l-4 -76h-152l-18 -165h156l18 81h77l-23 -157h-392l6 76h58l34 392h-68z" />
    <glyph glyph-name="f.sc" unicode="&#xf766;" horiz-adv-x="463" 
d="M52 468l6 76h387l-4 -153h-72l-4 77h-143l-14 -159h156l-6 -76h-157l-14 -157h74l-6 -76h-230l6 76h56l35 392h-70z" />
    <glyph glyph-name="g.sc" unicode="&#xf767;" 
d="M328 183l6 76h209l-6 -76h-51l-16 -167c-35 -18 -109 -27 -162 -27c-56 0 -267 0 -267 243c0 208 104 323 308 323c45 0 126 -8 151 -24v-140h-82v75c-20 6 -55 7 -83 7c-159 0 -188 -133 -188 -223c0 -77 12 -179 163 -179c19 0 53 0 72 7l10 105h-64z" />
    <glyph glyph-name="h.sc" unicode="&#xf768;" horiz-adv-x="648" 
d="M58 468l6 76h223l-6 -76h-55l-14 -159h225l16 159h-68l6 76h223l-6 -76h-55l-35 -392h67l-6 -76h-223l6 76h56l14 157h-227l-14 -157h68l-6 -76h-223l6 76h55l35 392h-68z" />
    <glyph glyph-name="i.sc" unicode="&#xf769;" horiz-adv-x="315" 
d="M58 468l6 76h223l-6 -76h-55l-35 -392h68l-6 -76h-223l6 76h55l35 392h-68z" />
    <glyph glyph-name="j.sc" unicode="&#xf76a;" horiz-adv-x="296" 
d="M279 544l-6 -76h-54l-33 -374c-4 -49 -14 -157 -181 -243l-41 64c108 58 122 137 129 226l26 327h-71l6 76h225z" />
    <glyph glyph-name="k.sc" unicode="&#xf76b;" 
d="M549 76l-6 -76h-228l6 76h52l-166 184l-16 -184h68l-6 -76h-223l6 76h55l35 392h-68l6 76h223l-6 -76h-55l-18 -188l206 188h-64l4 76h218v-76h-55l-206 -189l186 -203h52z" />
    <glyph glyph-name="l.sc" unicode="&#xf76c;" horiz-adv-x="463" 
d="M58 468l6 76h223l-6 -76h-55l-35 -392h154l18 81h79l-23 -157h-389l6 76h55l35 392h-68z" />
    <glyph glyph-name="m.sc" unicode="&#xf76d;" horiz-adv-x="815" 
d="M60 468l6 76h205l124 -432h2l182 432h191l-6 -76h-58l-23 -392h68l-6 -76h-215l6 76h50l30 360h-2l-187 -436h-100l-122 436h-2l-28 -360h60l-6 -76h-204l6 76h56l40 392h-67z" />
    <glyph glyph-name="n.sc" unicode="&#xf76e;" horiz-adv-x="648" 
d="M53 468l6 76h166l228 -377h2l24 301h-67l6 76h211l-6 -76h-56l-44 -468h-85l-238 387h-2l-22 -311h66l-6 -76h-211l6 76h57l35 392h-70z" />
    <glyph glyph-name="o.sc" unicode="&#xf76f;" horiz-adv-x="593" 
d="M41 244c0 179 104 311 276 311s235 -121 235 -254c0 -130 -62 -312 -271 -312c-154 0 -240 95 -240 255zM147 244c0 -93 38 -173 136 -173c163 0 163 197 163 231c0 77 -16 171 -137 171c-153 0 -162 -200 -162 -229z" />
    <glyph glyph-name="p.sc" unicode="&#xf770;" horiz-adv-x="463" 
d="M222 468l-16 -172h41c23 0 104 0 104 96c0 61 -41 76 -88 76h-41zM88 76l34 392h-69l6 76h169h45c69 0 178 0 178 -143c0 -65 -28 -181 -190 -181h-61l-12 -144h69l-6 -76h-226l6 76h57z" />
    <glyph glyph-name="q.sc" unicode="&#xf771;" horiz-adv-x="593" 
d="M590 -61l-7 -81c-12 -6 -36 -7 -60 -7c-105 0 -222 123 -258 138c-147 0 -224 115 -224 255c0 179 104 311 276 311s235 -121 235 -254c0 -108 -43 -251 -175 -294v-2c19 -5 47 -11 72 -27c27 -18 76 -45 102 -45c15 0 30 2 39 6zM309 473c-153 0 -162 -200 -162 -229
c0 -93 38 -173 136 -173c163 0 163 197 163 231c0 77 -16 171 -137 171z" />
    <glyph glyph-name="r.sc" unicode="&#xf772;" horiz-adv-x="519" 
d="M53 468l6 76h244c114 0 148 -61 148 -138c0 -102 -71 -139 -162 -147v-2c44 -4 63 -14 88 -54l70 -110c5 -8 11 -17 27 -17h30l-6 -76h-49c-37 0 -72 0 -95 42l-74 139c-24 45 -36 48 -80 50l-13 -155h57l-6 -76h-213l6 76h56l34 392h-68zM221 468l-16 -167
c67 0 146 0 146 94c0 59 -43 73 -88 73h-42z" />
    <glyph glyph-name="s.sc" unicode="&#xf773;" horiz-adv-x="481" 
d="M35 14v142h85l6 -81c24 -6 38 -10 68 -10c26 0 126 0 126 85c0 14 0 43 -51 63l-71 25c-92 32 -139 64 -139 149c0 94 62 168 208 168c51 0 93 -10 150 -23v-134h-74l-4 71c-25 8 -62 10 -79 10c-54 0 -101 -22 -101 -78c0 -41 34 -56 73 -67l79 -24
c62 -19 115 -55 115 -140c0 -71 -41 -181 -219 -181c-16 0 -129 11 -172 25z" />
    <glyph glyph-name="t.sc" unicode="&#xf774;" horiz-adv-x="500" 
d="M90 391h-76l22 153h456l4 -153h-75l-6 77h-103l-35 -392h71l-6 -76h-230l6 76h59l35 392h-106z" />
    <glyph glyph-name="u.sc" unicode="&#xf775;" horiz-adv-x="630" 
d="M46 468l6 76h224l-6 -76h-56l-24 -274c-1 -11 -2 -22 -2 -34c0 -49 24 -89 111 -89c65 0 117 23 125 110l26 287h-66l6 76h215l-6 -76h-61l-26 -300c-6 -68 -18 -179 -230 -179c-75 0 -194 12 -194 152c0 19 4 68 5 85l21 242h-68z" />
    <glyph glyph-name="v.sc" unicode="&#xf776;" horiz-adv-x="556" 
d="M205 0l-152 468h-54l4 76h228l-4 -76h-59l102 -380h2l157 380h-69l4 76h218l-4 -76h-46l-221 -468h-106z" />
    <glyph glyph-name="w.sc" unicode="&#xf777;" horiz-adv-x="870" 
d="M-1 468l4 76h228l-4 -76h-59l100 -386h2l139 308l-21 78h-62l4 76h223l-4 -76h-61l97 -386h2l152 386h-70l4 76h223l-4 -76h-53l-213 -468h-106l-81 284h-2l-128 -284h-106l-147 468h-57z" />
    <glyph glyph-name="x.sc" unicode="&#xf778;" 
d="M36 468l6 76h238l-6 -76h-60l87 -128l109 128h-73l6 76h211l-6 -76h-44l-165 -186l147 -206h54l-6 -76h-241l6 76h63l-93 139l-123 -139h77l-6 -76h-218l6 76h47l176 198l-135 194h-57z" />
    <glyph glyph-name="y.sc" unicode="&#xf779;" horiz-adv-x="500" 
d="M192 220l-156 248h-51l4 76h233l-4 -76h-64l103 -173l125 173h-69l4 76h218l-4 -76h-49l-190 -248l-10 -144h71l-6 -76h-232l6 76h61z" />
    <glyph glyph-name="z.sc" unicode="&#xf77a;" horiz-adv-x="500" 
d="M51 394l18 150h412l-4 -74l-342 -394h223l16 81h82l-22 -157h-426l4 76l339 392h-208l-16 -74h-76z" />
    <glyph glyph-name="tilde.sc" unicode="&#xf6fe;" horiz-adv-x="278" 
d="M303 734l63 -44c-25 -42 -63 -85 -115 -85c-42 0 -110 60 -139 60c-25 0 -44 -28 -53 -49l-71 30c18 41 51 101 119 101c63 0 104 -60 142 -60c22 0 36 18 54 47z" />
    <glyph glyph-name="exclamdown.sc" unicode="&#xf7a1;" horiz-adv-x="296" 
d="M201 305l-35 -544h-121l56 544h100zM93 471c0 43 28 71 78 71c30 0 70 -12 70 -64c0 -45 -29 -72 -74 -72c-50 0 -74 29 -74 65z" />
    <glyph glyph-name="lslash.sc" unicode="&#xf6f9;" horiz-adv-x="463" 
d="M58 468l6 76h223l-6 -76h-55l-13 -146l123 80l-6 -76l-124 -81l-15 -169h154l18 81h79l-23 -157h-389l6 76h55l9 100l-58 -38l6 76l59 39l19 215h-68z" />
    <glyph glyph-name="scaron.sc" unicode="&#xf6fd;" horiz-adv-x="481" 
d="M35 14v142h85l6 -81c24 -6 38 -10 68 -10c26 0 126 0 126 85c0 14 0 43 -51 63l-71 25c-92 32 -139 64 -139 149c0 94 62 168 208 168c51 0 93 -10 150 -23v-134h-74l-4 71c-25 8 -62 10 -79 10c-54 0 -101 -22 -101 -78c0 -41 34 -56 73 -67l79 -24
c62 -19 115 -55 115 -140c0 -71 -41 -181 -219 -181c-16 0 -129 11 -172 25zM464 724l-161 -115h-76l-141 115l71 51l114 -96l132 96z" />
    <glyph glyph-name="zcaron.sc" unicode="&#xf6ff;" horiz-adv-x="500" 
d="M51 394l18 150h412l-4 -74l-342 -394h223l16 81h82l-22 -157h-426l4 76l339 392h-208l-16 -74h-76zM473 724l-161 -115h-76l-141 115l71 51l114 -96l132 96z" />
    <glyph glyph-name="dieresis.sc" unicode="&#xf7a8;" horiz-adv-x="278" 
d="M215 678c0 33 20 67 68 67c46 0 68 -28 68 -61c0 -49 -30 -69 -72 -69c-33 0 -64 17 -64 63zM3 678c0 33 20 67 68 67c46 0 68 -28 68 -61c0 -49 -30 -69 -72 -69c-33 0 -64 17 -64 63z" />
    <glyph glyph-name="breve.sc" unicode="&#xf6f4;" horiz-adv-x="278" 
d="M-2 738l78 31c15 -46 40 -90 107 -90c68 0 94 48 110 90l70 -38c-25 -52 -67 -134 -187 -134c-87 0 -151 52 -178 141z" />
    <glyph glyph-name="caron.sc" unicode="&#xf6f5;" horiz-adv-x="278" 
d="M362 724l-161 -115h-76l-141 115l71 51l114 -96l132 96z" />
    <glyph glyph-name="dotaccent.sc" unicode="&#xf6f7;" horiz-adv-x="278" 
d="M109 678c0 33 20 67 68 67c46 0 68 -28 68 -61c0 -49 -30 -69 -72 -69c-33 0 -64 17 -64 63z" />
    <glyph glyph-name="macron.sc" unicode="&#xf7af;" horiz-adv-x="278" 
d="M31 641l7 82h277l-7 -82h-277z" />
    <glyph glyph-name="ogonek.sc" unicode="&#xf6fb;" horiz-adv-x="278" 
d="M261 -166l12 -58c-25 -9 -60 -16 -89 -16c-63 0 -110 30 -110 89c0 71 70 121 118 151h64c-52 -41 -88 -92 -88 -135c0 -22 13 -41 41 -41c22 0 38 4 52 10z" />
    <glyph glyph-name="ring.sc" unicode="&#xf6fc;" horiz-adv-x="278" 
d="M67 678c0 44 27 109 109 109c64 0 96 -43 96 -94c0 -54 -40 -111 -111 -111c-57 0 -94 37 -94 96zM125 681c0 -31 18 -53 43 -53c29 0 46 34 46 62c0 27 -10 51 -40 51c-31 0 -49 -32 -49 -60z" />
    <glyph glyph-name="cedilla.sc" unicode="&#xf7b8;" horiz-adv-x="278" 
d="M-9 -222l10 57c26 -8 53 -17 82 -17c27 0 62 7 62 38c0 33 -45 36 -71 36l14 108h64l-8 -60h6c33 0 83 -23 83 -78c0 -76 -75 -102 -145 -102c-41 0 -73 9 -97 18z" />
    <glyph glyph-name="questiondown.sc" unicode="&#xf7bf;" horiz-adv-x="481" 
d="M386 -141l-4 -88c-23 -7 -86 -22 -145 -22c-170 0 -223 98 -223 180c0 94 58 149 135 195l78 46c44 26 60 47 60 70c0 20 -15 39 -24 51l94 33c22 -24 36 -55 36 -91c0 -55 -31 -89 -95 -125l-39 -22c-93 -53 -127 -87 -127 -146c0 -79 71 -103 134 -103
c30 0 80 7 120 22zM410 478c0 -45 -29 -72 -74 -72c-50 0 -74 29 -74 65c0 43 28 71 78 71c30 0 70 -12 70 -64z" />
    <glyph glyph-name="one.superior" unicode="&#xb9;" horiz-adv-x="385" 
d="M73 284l6 64h80l28 285l-2 2c-2 -6 -14 -18 -32 -28l-77 -43l-27 58l152 83h82l-36 -357h89l-5 -64h-258z" />
    <glyph glyph-name="two.superior" unicode="&#xb2;" horiz-adv-x="385" 
d="M28 284l4 60c99 66 240 162 240 241c0 33 -21 60 -61 60c-50 0 -71 -32 -76 -66h-88c0 28 29 136 171 136c79 0 142 -40 142 -123c0 -108 -151 -199 -214 -239l2 -2c7 2 16 3 36 3h160l-4 -70h-312z" />
    <glyph glyph-name="three.superior" unicode="&#xb3;" horiz-adv-x="385" 
d="M28 300l5 70c35 -14 84 -26 125 -26c58 0 101 18 101 64c0 61 -82 61 -130 61l4 64c35 0 67 3 88 13c28 13 41 32 41 58s-19 41 -52 41c-44 0 -61 -20 -70 -51h-82c19 90 82 121 161 121c63 0 131 -30 131 -102c0 -56 -49 -97 -125 -104v-2c67 0 122 -37 122 -98
c0 -62 -54 -135 -185 -135c-51 0 -109 11 -134 26z" />
    <glyph glyph-name="agrave.sc" unicode="&#xf7e0;" 
d="M32 76l223 479h112l141 -479h59l-6 -76h-230l6 76h59l-30 116h-184l-50 -116h71l-6 -76h-219l6 76h48zM298 473l-85 -205h136l-49 205h-2zM256 781l167 -154l-66 -47l-171 150z" />
    <glyph glyph-name="aacute.sc" unicode="&#xf7e1;" 
d="M32 76l223 479h112l141 -479h59l-6 -76h-230l6 76h59l-30 116h-184l-50 -116h71l-6 -76h-219l6 76h48zM298 473l-85 -205h136l-49 205h-2zM218 634l193 147l66 -51l-204 -150z" />
    <glyph glyph-name="acircumflex.sc" unicode="&#xf7e2;" 
d="M32 76l223 479h112l141 -479h59l-6 -76h-230l6 76h59l-30 116h-184l-50 -116h71l-6 -76h-219l6 76h48zM298 473l-85 -205h136l-49 205h-2zM136 660l161 115h76l141 -115l-71 -51l-114 96l-132 -96z" />
    <glyph glyph-name="atilde.sc" unicode="&#xf7e3;" 
d="M32 76l223 479h112l141 -479h59l-6 -76h-230l6 76h59l-30 116h-184l-50 -116h71l-6 -76h-219l6 76h48zM298 473l-85 -205h136l-49 205h-2zM451 734l63 -44c-25 -42 -63 -85 -115 -85c-42 0 -110 60 -139 60c-25 0 -44 -28 -53 -49l-71 30c18 41 51 101 119 101
c63 0 104 -60 142 -60c22 0 36 18 54 47z" />
    <glyph glyph-name="adieresis.sc" unicode="&#xf7e4;" 
d="M32 76l223 479h112l141 -479h59l-6 -76h-230l6 76h59l-30 116h-184l-50 -116h71l-6 -76h-219l6 76h48zM298 473l-85 -205h136l-49 205h-2zM363 678c0 33 20 67 68 67c46 0 68 -28 68 -61c0 -49 -30 -69 -72 -69c-33 0 -64 17 -64 63zM151 678c0 33 20 67 68 67
c46 0 68 -28 68 -61c0 -49 -30 -69 -72 -69c-33 0 -64 17 -64 63z" />
    <glyph glyph-name="aring.sc" unicode="&#xf7e5;" 
d="M32 76l223 479h112l141 -479h59l-6 -76h-230l6 76h59l-30 116h-184l-50 -116h71l-6 -76h-219l6 76h48zM298 473l-85 -205h136l-49 205h-2zM227 678c0 44 27 109 109 109c64 0 96 -43 96 -94c0 -54 -40 -111 -111 -111c-57 0 -94 37 -94 96zM285 681c0 -31 18 -53 43 -53
c29 0 46 34 46 62c0 27 -10 51 -40 51c-31 0 -49 -32 -49 -60z" />
    <glyph glyph-name="ae.sc" unicode="&#xf7e6;" horiz-adv-x="741" 
d="M-10 76l297 468h401v-153h-76v77h-136l-14 -159h146l-6 -76h-146l-14 -157h156l18 81h77l-23 -157h-392l6 76h58l14 157h-166l-97 -157h70l-6 -76h-219l6 76h46zM362 309l14 159h-52l-92 -159h130z" />
    <glyph glyph-name="ccedilla.sc" unicode="&#xf7e7;" horiz-adv-x="537" 
d="M492 534v-143h-82v74c-9 6 -54 8 -79 8c-159 0 -186 -145 -186 -223c0 -129 61 -179 157 -179c36 0 56 5 81 10l10 76h82l-16 -143c-25 -15 -99 -25 -146 -25l-7 -49h6c33 0 83 -23 83 -78c0 -76 -75 -102 -145 -102c-41 0 -73 9 -97 18l10 57c26 -8 53 -17 82 -17
c27 0 62 7 62 38c0 33 -45 36 -71 36l13 101c-90 11 -210 57 -210 249c0 206 119 313 299 313c76 0 115 -10 154 -21z" />
    <glyph glyph-name="egrave.sc" unicode="&#xf7e8;" horiz-adv-x="519" 
d="M60 468l6 76h387v-153h-74l-4 77h-147l-10 -151h150l-4 -76h-152l-18 -165h156l18 81h77l-23 -157h-392l6 76h58l34 392h-68zM229 781l167 -154l-66 -47l-171 150z" />
    <glyph glyph-name="eacute.sc" unicode="&#xf7e9;" horiz-adv-x="519" 
d="M60 468l6 76h387v-153h-74l-4 77h-147l-10 -151h150l-4 -76h-152l-18 -165h156l18 81h77l-23 -157h-392l6 76h58l34 392h-68zM191 634l193 147l66 -51l-204 -150z" />
    <glyph glyph-name="ecircumflex.sc" unicode="&#xf7ea;" horiz-adv-x="519" 
d="M60 468l6 76h387v-153h-74l-4 77h-147l-10 -151h150l-4 -76h-152l-18 -165h156l18 81h77l-23 -157h-392l6 76h58l34 392h-68zM109 660l161 115h76l141 -115l-71 -51l-114 96l-132 -96z" />
    <glyph glyph-name="edieresis.sc" unicode="&#xf7eb;" horiz-adv-x="519" 
d="M60 468l6 76h387v-153h-74l-4 77h-147l-10 -151h150l-4 -76h-152l-18 -165h156l18 81h77l-23 -157h-392l6 76h58l34 392h-68zM336 678c0 33 20 67 68 67c46 0 68 -28 68 -61c0 -49 -30 -69 -72 -69c-33 0 -64 17 -64 63zM124 678c0 33 20 67 68 67c46 0 68 -28 68 -61
c0 -49 -30 -69 -72 -69c-33 0 -64 17 -64 63z" />
    <glyph glyph-name="igrave.sc" unicode="&#xf7ec;" horiz-adv-x="315" 
d="M58 468l6 76h223l-6 -76h-55l-35 -392h68l-6 -76h-223l6 76h55l35 392h-68zM127 781l167 -154l-66 -47l-171 150z" />
    <glyph glyph-name="iacute.sc" unicode="&#xf7ed;" horiz-adv-x="315" 
d="M58 468l6 76h223l-6 -76h-55l-35 -392h68l-6 -76h-223l6 76h55l35 392h-68zM77 634l193 147l66 -51l-204 -150z" />
    <glyph glyph-name="icircumflex.sc" unicode="&#xf7ee;" horiz-adv-x="315" 
d="M58 468l6 76h223l-6 -76h-55l-35 -392h68l-6 -76h-223l6 76h55l35 392h-68zM7 660l161 115h76l141 -115l-71 -51l-114 96l-132 -96z" />
    <glyph glyph-name="idieresis.sc" unicode="&#xf7ef;" horiz-adv-x="315" 
d="M58 468l6 76h223l-6 -76h-55l-35 -392h68l-6 -76h-223l6 76h55l35 392h-68zM234 678c0 33 20 67 68 67c46 0 68 -28 68 -61c0 -49 -30 -69 -72 -69c-33 0 -64 17 -64 63zM22 678c0 33 20 67 68 67c46 0 68 -28 68 -61c0 -49 -30 -69 -72 -69c-33 0 -64 17 -64 63z" />
    <glyph glyph-name="eth.sc" unicode="&#xf7f0;" horiz-adv-x="611" 
d="M44 241l6 76h63l13 151h-68l6 76h243c77 0 264 0 264 -245c0 -194 -131 -299 -315 -299h-226l6 76h55l15 165h-62zM330 317l-6 -76h-118l-15 -165h73c132 0 201 76 201 225c0 167 -115 167 -169 167h-70l-13 -151h117z" />
    <glyph glyph-name="ntilde.sc" unicode="&#xf7f1;" horiz-adv-x="648" 
d="M53 468l6 76h166l228 -377h2l24 301h-67l6 76h211l-6 -76h-56l-44 -468h-85l-238 387h-2l-22 -311h66l-6 -76h-211l6 76h57l35 392h-70zM476 734l63 -44c-25 -42 -63 -85 -115 -85c-42 0 -110 60 -139 60c-25 0 -44 -28 -53 -49l-71 30c18 41 51 101 119 101
c63 0 104 -60 142 -60c22 0 36 18 54 47z" />
    <glyph glyph-name="ograve.sc" unicode="&#xf7f2;" horiz-adv-x="593" 
d="M41 244c0 179 104 311 276 311s235 -121 235 -254c0 -130 -62 -312 -271 -312c-154 0 -240 95 -240 255zM147 244c0 -93 38 -173 136 -173c163 0 163 197 163 231c0 77 -16 171 -137 171c-153 0 -162 -200 -162 -229zM266 781l167 -154l-66 -47l-171 150z" />
    <glyph glyph-name="oacute.sc" unicode="&#xf7f3;" horiz-adv-x="593" 
d="M41 244c0 179 104 311 276 311s235 -121 235 -254c0 -130 -62 -312 -271 -312c-154 0 -240 95 -240 255zM147 244c0 -93 38 -173 136 -173c163 0 163 197 163 231c0 77 -16 171 -137 171c-153 0 -162 -200 -162 -229zM216 634l193 147l66 -51l-204 -150z" />
    <glyph glyph-name="ocircumflex.sc" unicode="&#xf7f4;" horiz-adv-x="593" 
d="M41 244c0 179 104 311 276 311s235 -121 235 -254c0 -130 -62 -312 -271 -312c-154 0 -240 95 -240 255zM147 244c0 -93 38 -173 136 -173c163 0 163 197 163 231c0 77 -16 171 -137 171c-153 0 -162 -200 -162 -229zM146 660l161 115h76l141 -115l-71 -51l-114 96
l-132 -96z" />
    <glyph glyph-name="otilde.sc" unicode="&#xf7f5;" horiz-adv-x="593" 
d="M41 244c0 179 104 311 276 311s235 -121 235 -254c0 -130 -62 -312 -271 -312c-154 0 -240 95 -240 255zM147 244c0 -93 38 -173 136 -173c163 0 163 197 163 231c0 77 -16 171 -137 171c-153 0 -162 -200 -162 -229zM461 734l63 -44c-25 -42 -63 -85 -115 -85
c-42 0 -110 60 -139 60c-25 0 -44 -28 -53 -49l-71 30c18 41 51 101 119 101c63 0 104 -60 142 -60c22 0 36 18 54 47z" />
    <glyph glyph-name="odieresis.sc" unicode="&#xf7f6;" horiz-adv-x="593" 
d="M41 244c0 179 104 311 276 311s235 -121 235 -254c0 -130 -62 -312 -271 -312c-154 0 -240 95 -240 255zM147 244c0 -93 38 -173 136 -173c163 0 163 197 163 231c0 77 -16 171 -137 171c-153 0 -162 -200 -162 -229zM373 678c0 33 20 67 68 67c46 0 68 -28 68 -61
c0 -49 -30 -69 -72 -69c-33 0 -64 17 -64 63zM161 678c0 33 20 67 68 67c46 0 68 -28 68 -61c0 -49 -30 -69 -72 -69c-33 0 -64 17 -64 63z" />
    <glyph glyph-name="oe.sc" unicode="&#xf6fa;" horiz-adv-x="778" 
d="M367 76l34 392h-84c-142 0 -183 -143 -183 -224c0 -120 63 -168 149 -168h84zM726 544v-153h-74l-4 77h-147l-10 -151h150l-4 -76h-152l-18 -165h156l18 81h77l-23 -157h-433c-148 0 -234 83 -234 231c0 160 85 311 283 313h415z" />
    <glyph glyph-name="oslash.sc" unicode="&#xf7f8;" horiz-adv-x="593" 
d="M167 144l225 306c-19 14 -46 23 -83 23c-153 0 -162 -200 -162 -229c0 -38 6 -73 20 -100zM428 406l-226 -308c21 -18 48 -27 81 -27c163 0 163 197 163 231s-3 72 -18 104zM23 -52l80 109c-41 45 -62 108 -62 187c0 179 104 311 276 311c53 0 96 -11 129 -31l66 89
l44 -32l-67 -92c45 -47 63 -116 63 -188c0 -130 -62 -312 -271 -312c-54 0 -99 11 -135 33l-79 -107z" />
    <glyph glyph-name="ugrave.sc" unicode="&#xf7f9;" horiz-adv-x="630" 
d="M46 468l6 76h224l-6 -76h-56l-24 -274c-1 -11 -2 -22 -2 -34c0 -49 24 -89 111 -89c65 0 117 23 125 110l26 287h-66l6 76h215l-6 -76h-61l-26 -300c-6 -68 -18 -179 -230 -179c-75 0 -194 12 -194 152c0 19 4 68 5 85l21 242h-68zM272 781l167 -154l-66 -47l-171 150z
" />
    <glyph glyph-name="uacute.sc" unicode="&#xf7fa;" horiz-adv-x="630" 
d="M46 468l6 76h224l-6 -76h-56l-24 -274c-1 -11 -2 -22 -2 -34c0 -49 24 -89 111 -89c65 0 117 23 125 110l26 287h-66l6 76h215l-6 -76h-61l-26 -300c-6 -68 -18 -179 -230 -179c-75 0 -194 12 -194 152c0 19 4 68 5 85l21 242h-68zM246 634l193 147l66 -51l-204 -150z
" />
    <glyph glyph-name="ucircumflex.sc" unicode="&#xf7fb;" horiz-adv-x="630" 
d="M46 468l6 76h224l-6 -76h-56l-24 -274c-1 -11 -2 -22 -2 -34c0 -49 24 -89 111 -89c65 0 117 23 125 110l26 287h-66l6 76h215l-6 -76h-61l-26 -300c-6 -68 -18 -179 -230 -179c-75 0 -194 12 -194 152c0 19 4 68 5 85l21 242h-68zM152 660l161 115h76l141 -115l-71 -51
l-114 96l-132 -96z" />
    <glyph glyph-name="udieresis.sc" unicode="&#xf7fc;" horiz-adv-x="630" 
d="M46 468l6 76h224l-6 -76h-56l-24 -274c-1 -11 -2 -22 -2 -34c0 -49 24 -89 111 -89c65 0 117 23 125 110l26 287h-66l6 76h215l-6 -76h-61l-26 -300c-6 -68 -18 -179 -230 -179c-75 0 -194 12 -194 152c0 19 4 68 5 85l21 242h-68zM379 678c0 33 20 67 68 67
c46 0 68 -28 68 -61c0 -49 -30 -69 -72 -69c-33 0 -64 17 -64 63zM167 678c0 33 20 67 68 67c46 0 68 -28 68 -61c0 -49 -30 -69 -72 -69c-33 0 -64 17 -64 63z" />
    <glyph glyph-name="yacute.sc" unicode="&#xf7fd;" horiz-adv-x="500" 
d="M192 220l-156 248h-51l4 76h233l-4 -76h-64l103 -173l125 173h-69l4 76h218l-4 -76h-49l-190 -248l-10 -144h71l-6 -76h-232l6 76h61zM169 634l193 147l66 -51l-204 -150z" />
    <glyph glyph-name="thorn.sc" unicode="&#xf7fe;" horiz-adv-x="463" 
d="M211 360l-15 -172h42c23 0 104 0 104 96c0 61 -41 76 -88 76h-43zM86 76l35 392h-68l6 76h223l-6 -76h-55l-4 -32h47c69 0 178 0 178 -143c0 -65 -28 -181 -190 -181h-62l-4 -36h68l-6 -76h-223l6 76h55z" />
    <glyph glyph-name="ydieresis.sc" unicode="&#xf7ff;" horiz-adv-x="500" 
d="M192 220l-156 248h-51l4 76h233l-4 -76h-64l103 -173l125 173h-69l4 76h218l-4 -76h-49l-190 -248l-10 -144h71l-6 -76h-232l6 76h61zM306 678c0 33 20 67 68 67c46 0 68 -28 68 -61c0 -49 -30 -69 -72 -69c-33 0 -64 17 -64 63zM94 678c0 33 20 67 68 67
c46 0 68 -28 68 -61c0 -49 -30 -69 -72 -69c-33 0 -64 17 -64 63z" />
    <glyph glyph-name="Delta" unicode="&#x2206;" horiz-adv-x="689" 
d="M1 0l5 59l318 663h111l198 -662l-6 -60h-626zM104 75h428l-112 362c-14 53 -42 140 -51 185h-5c-12 -35 -52 -115 -75 -169z" />
    <glyph glyph-name="Omega" unicode="&#x2126;" horiz-adv-x="765" 
d="M180 75l1 3c-68 60 -126 164 -114 303c16 191 165 333 350 333c195 0 301 -161 286 -329c-12 -142 -93 -251 -169 -307v-3h156l-6 -75h-263l4 56c83 47 167 150 181 312c12 130 -52 270 -196 270c-137 0 -236 -121 -250 -274c-13 -149 53 -263 127 -308l-5 -56h-263l6 75
h155z" />
    <glyph glyph-name="uni03BC" unicode="&#x3bc;" horiz-adv-x="611" 
d="M45 438l7 82h187l-36 -247c-8 -55 -13 -92 -13 -125c0 -35 14 -60 42 -60c63 0 169 156 205 432h103c-10 -56 -18 -116 -23 -174l-22 -264h71l-7 -82h-169c4 65 20 151 34 226h-2c-39 -116 -114 -232 -208 -232c-21 0 -38 11 -46 31h-2l-39 -276h-100
c21 157 44 314 63 471l27 218h-72z" />
    <glyph glyph-name="pi" unicode="&#x3c0;" horiz-adv-x="612" 
d="M595 446h-83l-26 -294c-7 -83 -3 -123 2 -152h-92c-9 18 -12 63 -5 145l27 301h-180c-17 -125 -67 -351 -114 -446h-92c48 109 97 318 112 446c-61 0 -92 -4 -116 -12l-7 61c28 17 76 30 160 30h429z" />
    <glyph glyph-name="Euro" unicode="&#x20ac;" horiz-adv-x="592" 
d="M600 686l-7 -149h-76v78c-29 9 -57 13 -84 13c-113 0 -186 -56 -221 -169h328l-41 -73h-302l-3 -63h284l-41 -73h-240c7 -57 26 -92 57 -125c33 -36 78 -54 133 -54c52 0 113 15 182 46l-7 -102c-57 -22 -118 -33 -181 -33c-173 0 -275 93 -292 268h-62l41 73h19l5 63
h-65l41 73h39c49 171 156 256 322 256c53 0 110 -10 171 -29z" />
    <glyph glyph-name="afii61289" unicode="&#x2113;" horiz-adv-x="522" 
d="M440 163l39 -40c-58 -92 -134 -134 -217 -134c-120 0 -163 84 -163 179c1 4 1 8 1 12c-19 -14 -41 -31 -62 -46l-23 52c32 25 63 46 91 70l23 268c16 184 105 248 191 248c94 0 130 -77 122 -169c-11 -126 -106 -244 -248 -366l-3 -33c-7 -98 40 -140 98 -140
c64 0 120 52 151 99zM219 532l-18 -208c95 92 169 187 177 279c6 60 -10 102 -62 102c-37 0 -85 -41 -97 -173z" />
    <glyph glyph-name="estimated" unicode="&#x212e;" horiz-adv-x="913" 
d="M878 340h-657c-3 0 -5 -1 -5 -5v-198c0 -9 3 -16 8 -23c64 -66 151 -108 249 -108c104 0 197 48 261 121h58c-72 -85 -190 -141 -321 -141c-223 0 -404 163 -404 364s181 365 404 365c225 0 407 -164 407 -365v-10zM728 366v199c0 9 -3 18 -9 24
c-64 63 -150 104 -246 104c-97 0 -184 -42 -248 -107c-6 -6 -9 -15 -9 -25v-195c0 -2 2 -7 5 -7h503c3 0 4 5 4 7z" />
    <glyph glyph-name="partialdiff" unicode="&#x2202;" horiz-adv-x="585" 
d="M135 663l-25 66c36 26 97 58 187 58c144 0 263 -128 241 -383c-21 -233 -135 -415 -318 -415c-143 0 -198 126 -188 236c14 157 126 257 247 257c97 0 150 -67 164 -96h1c2 11 3 30 4 42c15 165 -60 283 -168 283c-66 0 -115 -26 -145 -48zM235 65h1
c95 0 166 118 190 237c-11 41 -58 106 -136 106c-83 0 -156 -83 -165 -184c-8 -90 35 -159 110 -159z" />
    <glyph glyph-name="product" unicode="&#x220f;" horiz-adv-x="775" 
d="M749 620h-114v-717h-92v717h-279v-717h-92v717h-115v83h692v-83z" />
    <glyph glyph-name="summation" unicode="&#x2211;" horiz-adv-x="617" 
d="M595 -97h-540v59l276 340l-264 337v64h512v-79h-383v-4l241 -305l-262 -323v-3h420v-86z" />
    <glyph glyph-name="uni2219" unicode="&#x2219;" horiz-adv-x="296" 
d="M77 280c0 39 32 71 71 71s71 -32 71 -71s-32 -71 -71 -71s-71 32 -71 71z" />
    <glyph glyph-name="radical" unicode="&#x221a;" horiz-adv-x="639" 
d="M644 837l-236 -985h-79l-166 459l-78 -30l-18 54l152 60l130 -365c6 -26 14 -53 19 -74l1 -1c3 20 9 49 15 77l192 805h68z" />
    <glyph glyph-name="infinity" unicode="&#x221e;" horiz-adv-x="816" 
d="M764 292v-1c0 -104 -78 -169 -161 -169c-63 0 -117 38 -189 122c-54 -63 -111 -122 -195 -122s-157 70 -157 165c0 97 70 167 165 167c78 0 136 -55 191 -121c51 57 104 122 192 121c91 0 154 -66 154 -162zM227 177h1c64 0 114 62 155 108c-45 56 -89 116 -162 116
c-64 0 -102 -53 -101 -115c0 -60 43 -109 107 -109zM604 401h-1c-68 0 -121 -74 -156 -111c67 -77 105 -113 160 -113c63 0 99 58 99 110c0 70 -43 114 -102 114z" />
    <glyph glyph-name="integral" unicode="&#x222b;" horiz-adv-x="413" 
d="M397 848l-13 -63c-9 6 -25 10 -39 10c-18 0 -39 -6 -53 -24c-25 -30 -34 -85 -34 -177c0 -159 15 -330 15 -499c0 -104 -19 -166 -43 -202c-24 -41 -68 -59 -111 -59c-29 0 -59 10 -73 18l15 65c9 -4 27 -12 47 -12c18 0 36 7 48 22c21 26 35 69 35 169
c0 170 -15 345 -15 507c0 112 16 176 58 218c27 29 66 41 104 41c23 0 48 -7 59 -14z" />
    <glyph glyph-name="approxequal" unicode="&#x2248;" horiz-adv-x="598" 
d="M515 444l35 -33c-30 -57 -74 -99 -137 -99c-43 0 -72 15 -122 43c-31 18 -61 34 -96 34c-49 0 -77 -36 -104 -76l-36 33c31 60 85 99 147 99c50 0 86 -25 115 -41c38 -20 61 -36 98 -36c42 0 70 27 100 76zM515 262l35 -33c-30 -55 -74 -99 -137 -99
c-43 0 -73 16 -122 43c-32 19 -61 35 -96 35c-49 0 -77 -37 -104 -76l-36 32c31 60 85 100 146 100c52 0 87 -25 116 -40c34 -19 60 -37 98 -37c43 0 69 26 100 75z" />
    <glyph glyph-name="notequal" unicode="&#x2260;" horiz-adv-x="606" 
d="M439 517l-46 -100h160v-57h-183l-69 -149h252v-57h-275l-56 -122l-46 20l47 102h-154v57h178l68 149h-246v57h269l55 120z" />
    <glyph glyph-name="lessequal" unicode="&#x2264;" horiz-adv-x="612" 
d="M557 96l-475 231v61l475 231v-67l-414 -193v-2l414 -194v-67zM560 -3h-483v58h483v-58z" />
    <glyph glyph-name="greaterequal" unicode="&#x2265;" horiz-adv-x="613" 
d="M83 619l475 -231v-61l-474 -231v67l413 194v2l-414 193v67zM559 -3h-481v58h481v-58z" />
    <glyph glyph-name="lozenge" unicode="&#x25ca;" horiz-adv-x="639" 
d="M584 351l-213 -400h-74l-209 400l212 400h74zM500 349l-144 274c-7 16 -15 38 -19 53h-3c-5 -16 -12 -35 -20 -53l-143 -270l145 -276c8 -20 15 -39 18 -52h4c3 13 12 38 18 51z" />
    <glyph glyph-name="uni00A0" unicode="&#xa0;" horiz-adv-x="296" 
 />
    <glyph glyph-name="uni00AD" unicode="&#xad;" horiz-adv-x="389" 
d="M57 237l7 94h256l-7 -94h-256z" />
    <glyph glyph-name="uni02C9" unicode="&#x2c9;" horiz-adv-x="278" 
d="M31 641l7 82h277l-7 -82h-277z" />
    <glyph glyph-name="zero.taboldstyle" unicode="&#xf643;" horiz-adv-x="592" 
d="M51 235c0 170 101 299 259 299c173 0 225 -145 225 -247c0 -152 -84 -301 -254 -301c-122 0 -230 68 -230 249zM151 240c0 -26 0 -166 130 -166c133 0 154 141 154 202c0 59 -16 170 -135 170c-133 0 -149 -154 -149 -206z" />
    <glyph glyph-name="one.taboldstyle" unicode="&#xf644;" horiz-adv-x="592" 
d="M222 76l31 368h-100l6 76h292l-6 -76h-92l-31 -368h105l-6 -76h-298l6 76h93z" />
    <glyph glyph-name="two.taboldstyle" unicode="&#xf645;" horiz-adv-x="592" 
d="M69 0l7 76c81 54 319 181 319 291c0 54 -35 79 -90 79c-69 0 -103 -56 -109 -94h-100c3 53 56 182 221 182c145 0 184 -99 184 -155c0 -153 -240 -273 -276 -289v-2h275l-5 -88h-426z" />
    <glyph glyph-name="three.taboldstyle" unicode="&#xf646;" horiz-adv-x="592" 
d="M23 -158l9 90c37 -17 103 -44 176 -44c160 0 175 104 175 132c0 117 -149 117 -220 117l7 82c88 4 218 33 218 143c0 45 -29 84 -98 84c-58 0 -97 -25 -113 -88h-100c9 76 77 176 225 176c192 0 192 -148 192 -161c0 -140 -133 -175 -177 -187v-2
c140 -4 172 -97 172 -164c0 -80 -60 -220 -268 -220c-70 0 -133 16 -198 42z" />
    <glyph glyph-name="four.taboldstyle" unicode="&#xf647;" horiz-adv-x="592" 
d="M359 432l-248 -320h219l31 320h-2zM17 114l324 406h124l-35 -408h138l-4 -82h-141l-19 -212h-100l19 212h-314z" />
    <glyph glyph-name="five.taboldstyle" unicode="&#xf648;" horiz-adv-x="592" 
d="M502 520l-6 -88h-284l-15 -167c82 -3 303 -12 303 -211c0 -97 -71 -254 -294 -254c-42 0 -110 8 -155 22l6 87c54 -9 55 -21 139 -21c128 0 192 69 192 154c0 117 -119 137 -298 141l30 337h382z" />
    <glyph glyph-name="six.taboldstyle" unicode="&#xf649;" horiz-adv-x="592" 
d="M163 287v-27c0 -137 67 -186 137 -186c61 0 126 49 126 151c0 127 -106 127 -130 127c-52 0 -103 -31 -133 -65zM560 706l-10 -81c-27 8 -66 10 -99 10c-198 0 -276 -177 -288 -267h2c35 31 78 72 164 72c107 0 203 -68 203 -210c0 -118 -72 -244 -235 -244
c-109 0 -246 58 -246 283c0 243 128 448 387 448c47 0 99 -7 122 -11z" />
    <glyph glyph-name="seven.taboldstyle" unicode="&#xf64a;" horiz-adv-x="592" 
d="M76 432l5 88h441l-6 -74l-144 -248c-96 -166 -170 -276 -315 -404l-63 65c140 132 185 201 286 370l122 203h-326z" />
    <glyph glyph-name="eight.taboldstyle" unicode="&#xf64b;" horiz-adv-x="592" 
d="M279 -14c-167 0 -238 80 -238 174c0 118 92 159 182 207c-113 55 -128 113 -128 166c0 99 78 184 226 184c114 0 204 -45 204 -160c0 -70 -39 -131 -151 -185c74 -44 159 -88 159 -186c0 -146 -122 -200 -254 -200zM313 635c-66 0 -118 -32 -118 -102
c0 -59 64 -92 108 -117c50 28 122 64 122 131c0 63 -56 88 -112 88zM352 286l-62 37c-61 -32 -143 -67 -143 -148c0 -72 69 -101 132 -101c145 0 148 94 148 111c0 53 -42 82 -75 101z" />
    <glyph glyph-name="nine.taboldstyle" unicode="&#xf64c;" horiz-adv-x="592" 
d="M23 -180l8 81c45 -8 72 -11 97 -11c121 0 259 68 286 268h-2c-39 -52 -90 -74 -152 -74c-95 0 -203 61 -203 207c0 116 67 243 241 243c222 0 234 -248 234 -297c0 -220 -124 -429 -395 -429c-40 0 -78 3 -114 12zM287 446c-66 0 -124 -48 -124 -142
c0 -78 50 -132 129 -132c63 0 125 48 128 59c0 59 0 215 -133 215z" />
    <glyph glyph-name="dollar.taboldstyle" unicode="&#xf653;" horiz-adv-x="592" 
d="M38 20l6 168h85v-94c13 -6 56 -21 109 -21l22 248c-88 26 -198 59 -198 190c0 108 91 204 232 204l11 120h82l-11 -120c58 -1 122 -17 163 -31l-6 -158h-86l2 90c-20 9 -54 17 -80 17l-19 -223c165 -55 204 -114 204 -216c0 -133 -117 -204 -241 -209l-12 -132h-82
l12 132c-78 0 -160 19 -193 35zM270 431l17 202c-62 -9 -113 -33 -113 -105c1 -57 45 -80 96 -97zM340 299l-19 -224c46 4 121 28 121 121c0 59 -46 89 -102 103z" />
    <glyph glyph-name="cent.taboldstyle" unicode="&#xf654;" horiz-adv-x="592" 
d="M244 -133l10 118c-78 12 -181 57 -181 247c0 152 79 281 229 298l9 99h76l-9 -99c29 0 85 -2 141 -20l-15 -142h-82l3 72c-13 6 -39 8 -54 8l-33 -375c52 0 100 12 147 38l-9 -92c-50 -24 -103 -32 -146 -34l-10 -118h-76zM263 83l32 359c-68 -11 -110 -92 -110 -203
c0 -80 21 -128 78 -156z" />
    <glyph glyph-name="f_i.sc" unicode="&#xe03d;" horiz-adv-x="778" 
d="M52 468l6 76h387l-4 -153h-72l-4 77h-143l-14 -159h156l-6 -76h-157l-14 -157h74l-6 -76h-230l6 76h56l35 392h-70zM521 468l6 76h223l-6 -76h-55l-35 -392h68l-6 -76h-223l6 76h55l35 392h-68z" />
    <glyph glyph-name="f_l.sc" unicode="&#xe03e;" horiz-adv-x="926" 
d="M52 468l6 76h387l-4 -153h-72l-4 77h-143l-14 -159h156l-6 -76h-157l-14 -157h74l-6 -76h-230l6 76h56l35 392h-70zM521 468l6 76h223l-6 -76h-55l-35 -392h154l18 81h79l-23 -157h-389l6 76h55l35 392h-68z" />
    <glyph glyph-name="germandbls.sc" unicode="&#xe03f;" horiz-adv-x="962" 
d="M516 14v142h85l6 -81c24 -6 38 -10 68 -10c26 0 126 0 126 85c0 14 0 43 -51 63l-71 25c-92 32 -139 64 -139 149c0 94 62 168 208 168c51 0 93 -10 150 -23v-134h-74l-4 71c-25 8 -62 10 -79 10c-54 0 -101 -22 -101 -78c0 -41 34 -56 73 -67l79 -24
c62 -19 115 -55 115 -140c0 -71 -41 -181 -219 -181c-16 0 -129 11 -172 25zM35 14v142h85l6 -81c24 -6 38 -10 68 -10c26 0 126 0 126 85c0 14 0 43 -51 63l-71 25c-92 32 -139 64 -139 149c0 94 62 168 208 168c51 0 93 -10 150 -23v-134h-74l-4 71c-25 8 -62 10 -79 10
c-54 0 -101 -22 -101 -78c0 -41 34 -56 73 -67l79 -24c62 -19 115 -55 115 -140c0 -71 -41 -181 -219 -181c-16 0 -129 11 -172 25z" />
    <glyph glyph-name="uni2215" unicode="&#x2215;" horiz-adv-x="167" 
d="M-169 -29l437 798l68 -40l-437 -798z" />
    <glyph glyph-name="A.sc" unicode="&#xe000;" 
d="M32 76l223 479h112l141 -479h59l-6 -76h-230l6 76h59l-30 116h-184l-50 -116h71l-6 -76h-219l6 76h48zM298 473l-85 -205h136l-49 205h-2z" />
    <glyph glyph-name="B.sc" unicode="&#xe008;" horiz-adv-x="500" 
d="M87 76l34 392h-69l6 76h233c83 0 155 -25 155 -119c0 -107 -88 -123 -143 -132v-2c80 -10 151 -27 151 -124c0 -119 -83 -167 -179 -167h-250l6 76h56zM201 241l-14 -165h69c35 0 98 0 98 90c0 75 -60 75 -86 75h-67zM221 468l-12 -151h36c59 0 101 22 101 88
c0 60 -51 63 -89 63h-36z" />
    <glyph glyph-name="C.sc" unicode="&#xe009;" horiz-adv-x="537" 
d="M475 157l-16 -143c-25 -15 -101 -25 -149 -25c-79 0 -271 11 -271 253c0 206 119 313 299 313c76 0 115 -10 154 -21v-143h-82v74c-9 6 -54 8 -79 8c-159 0 -186 -145 -186 -223c0 -129 61 -179 157 -179c36 0 56 5 81 10l10 76h82z" />
    <glyph glyph-name="D.sc" unicode="&#xe00b;" horiz-adv-x="611" 
d="M226 468l-35 -392h73c132 0 201 76 201 225c0 167 -115 167 -169 167h-70zM91 76l35 392h-68l6 76h243c77 0 264 0 264 -245c0 -194 -131 -299 -315 -299h-226l6 76h55z" />
    <glyph glyph-name="E.sc" unicode="&#xe00c;" horiz-adv-x="519" 
d="M60 468l6 76h387v-153h-74l-4 77h-147l-10 -151h150l-4 -76h-152l-18 -165h156l18 81h77l-23 -157h-392l6 76h58l34 392h-68z" />
    <glyph glyph-name="F.sc" unicode="&#xe012;" horiz-adv-x="463" 
d="M52 468l6 76h387l-4 -153h-72l-4 77h-143l-14 -159h156l-6 -76h-157l-14 -157h74l-6 -76h-230l6 76h56l35 392h-70z" />
    <glyph glyph-name="G.sc" unicode="&#xe013;" 
d="M328 183l6 76h209l-6 -76h-51l-16 -167c-35 -18 -109 -27 -162 -27c-56 0 -267 0 -267 243c0 208 104 323 308 323c45 0 126 -8 151 -24v-140h-82v75c-20 6 -55 7 -83 7c-159 0 -188 -133 -188 -223c0 -77 12 -179 163 -179c19 0 53 0 72 7l10 105h-64z" />
    <glyph glyph-name="H.sc" unicode="&#xe014;" horiz-adv-x="648" 
d="M58 468l6 76h223l-6 -76h-55l-14 -159h225l16 159h-68l6 76h223l-6 -76h-55l-35 -392h67l-6 -76h-223l6 76h56l14 157h-227l-14 -157h68l-6 -76h-223l6 76h55l35 392h-68z" />
    <glyph glyph-name="I.sc" unicode="&#xe015;" horiz-adv-x="315" 
d="M58 468l6 76h223l-6 -76h-55l-35 -392h68l-6 -76h-223l6 76h55l35 392h-68z" />
    <glyph glyph-name="J.sc" unicode="&#xe01a;" horiz-adv-x="296" 
d="M279 544l-6 -76h-54l-33 -374c-4 -49 -14 -157 -181 -243l-41 64c108 58 122 137 129 226l26 327h-71l6 76h225z" />
    <glyph glyph-name="K.sc" unicode="&#xe01b;" 
d="M549 76l-6 -76h-228l6 76h52l-166 184l-16 -184h68l-6 -76h-223l6 76h55l35 392h-68l6 76h223l-6 -76h-55l-18 -188l206 188h-64l4 76h218v-76h-55l-206 -189l186 -203h52z" />
    <glyph glyph-name="L.sc" unicode="&#xe01c;" horiz-adv-x="463" 
d="M58 468l6 76h223l-6 -76h-55l-35 -392h154l18 81h79l-23 -157h-389l6 76h55l35 392h-68z" />
    <glyph glyph-name="M.sc" unicode="&#xe01e;" horiz-adv-x="815" 
d="M60 468l6 76h205l124 -432h2l182 432h191l-6 -76h-58l-23 -392h68l-6 -76h-215l6 76h50l30 360h-2l-187 -436h-100l-122 436h-2l-28 -360h60l-6 -76h-204l6 76h56l40 392h-67z" />
    <glyph glyph-name="N.sc" unicode="&#xe01f;" horiz-adv-x="648" 
d="M53 468l6 76h166l228 -377h2l24 301h-67l6 76h211l-6 -76h-56l-44 -468h-85l-238 387h-2l-22 -311h66l-6 -76h-211l6 76h57l35 392h-70z" />
    <glyph glyph-name="O.sc" unicode="&#xe021;" horiz-adv-x="593" 
d="M41 244c0 179 104 311 276 311s235 -121 235 -254c0 -130 -62 -312 -271 -312c-154 0 -240 95 -240 255zM147 244c0 -93 38 -173 136 -173c163 0 163 197 163 231c0 77 -16 171 -137 171c-153 0 -162 -200 -162 -229z" />
    <glyph glyph-name="P.sc" unicode="&#xe029;" horiz-adv-x="463" 
d="M222 468l-16 -172h41c23 0 104 0 104 96c0 61 -41 76 -88 76h-41zM88 76l34 392h-69l6 76h169h45c69 0 178 0 178 -143c0 -65 -28 -181 -190 -181h-61l-12 -144h69l-6 -76h-226l6 76h57z" />
    <glyph glyph-name="Q.sc" unicode="&#xe02a;" horiz-adv-x="593" 
d="M590 -61l-7 -81c-12 -6 -36 -7 -60 -7c-105 0 -222 123 -258 138c-147 0 -224 115 -224 255c0 179 104 311 276 311s235 -121 235 -254c0 -108 -43 -251 -175 -294v-2c19 -5 47 -11 72 -27c27 -18 76 -45 102 -45c15 0 30 2 39 6zM309 473c-153 0 -162 -200 -162 -229
c0 -93 38 -173 136 -173c163 0 163 197 163 231c0 77 -16 171 -137 171z" />
    <glyph glyph-name="R.sc" unicode="&#xe02b;" horiz-adv-x="519" 
d="M53 468l6 76h244c114 0 148 -61 148 -138c0 -102 -71 -139 -162 -147v-2c44 -4 63 -14 88 -54l70 -110c5 -8 11 -17 27 -17h30l-6 -76h-49c-37 0 -72 0 -95 42l-74 139c-24 45 -36 48 -80 50l-13 -155h57l-6 -76h-213l6 76h56l34 392h-68zM221 468l-16 -167
c67 0 146 0 146 94c0 59 -43 73 -88 73h-42z" />
    <glyph glyph-name="S.sc" unicode="&#xe02c;" horiz-adv-x="481" 
d="M35 14v142h85l6 -81c24 -6 38 -10 68 -10c26 0 126 0 126 85c0 14 0 43 -51 63l-71 25c-92 32 -139 64 -139 149c0 94 62 168 208 168c51 0 93 -10 150 -23v-134h-74l-4 71c-25 8 -62 10 -79 10c-54 0 -101 -22 -101 -78c0 -41 34 -56 73 -67l79 -24
c62 -19 115 -55 115 -140c0 -71 -41 -181 -219 -181c-16 0 -129 11 -172 25z" />
    <glyph glyph-name="T.sc" unicode="&#xe02e;" horiz-adv-x="500" 
d="M90 391h-76l22 153h456l4 -153h-75l-6 77h-103l-35 -392h71l-6 -76h-230l6 76h59l35 392h-106z" />
    <glyph glyph-name="U.sc" unicode="&#xe030;" horiz-adv-x="630" 
d="M46 468l6 76h224l-6 -76h-56l-24 -274c-1 -11 -2 -22 -2 -34c0 -49 24 -89 111 -89c65 0 117 23 125 110l26 287h-66l6 76h215l-6 -76h-61l-26 -300c-6 -68 -18 -179 -230 -179c-75 0 -194 12 -194 152c0 19 4 68 5 85l21 242h-68z" />
    <glyph glyph-name="V.sc" unicode="&#xe035;" horiz-adv-x="556" 
d="M205 0l-152 468h-54l4 76h228l-4 -76h-59l102 -380h2l157 380h-69l4 76h218l-4 -76h-46l-221 -468h-106z" />
    <glyph glyph-name="W.sc" unicode="&#xe036;" horiz-adv-x="870" 
d="M-1 468l4 76h228l-4 -76h-59l100 -386h2l139 308l-21 78h-62l4 76h223l-4 -76h-61l97 -386h2l152 386h-70l4 76h223l-4 -76h-53l-213 -468h-106l-81 284h-2l-128 -284h-106l-147 468h-57z" />
    <glyph glyph-name="X.sc" unicode="&#xe037;" 
d="M36 468l6 76h238l-6 -76h-60l87 -128l109 128h-73l6 76h211l-6 -76h-44l-165 -186l147 -206h54l-6 -76h-241l6 76h63l-93 139l-123 -139h77l-6 -76h-218l6 76h47l176 198l-135 194h-57z" />
    <glyph glyph-name="Y.sc" unicode="&#xe038;" horiz-adv-x="500" 
d="M192 220l-156 248h-51l4 76h233l-4 -76h-64l103 -173l125 173h-69l4 76h218l-4 -76h-49l-190 -248l-10 -144h71l-6 -76h-232l6 76h61z" />
    <glyph glyph-name="Z.sc" unicode="&#xe03b;" horiz-adv-x="500" 
d="M51 394l18 150h412l-4 -74l-342 -394h223l16 81h82l-22 -157h-426l4 76l339 392h-208l-16 -74h-76z" />
    <glyph glyph-name="Lslash.sc" unicode="&#xe01d;" horiz-adv-x="463" 
d="M58 468l6 76h223l-6 -76h-55l-13 -146l123 80l-6 -76l-124 -81l-15 -169h154l18 81h79l-23 -157h-389l6 76h55l9 100l-58 -38l6 76l59 39l19 215h-68z" />
    <glyph glyph-name="Scaron.sc" unicode="&#xe02d;" horiz-adv-x="481" 
d="M35 14v142h85l6 -81c24 -6 38 -10 68 -10c26 0 126 0 126 85c0 14 0 43 -51 63l-71 25c-92 32 -139 64 -139 149c0 94 62 168 208 168c51 0 93 -10 150 -23v-134h-74l-4 71c-25 8 -62 10 -79 10c-54 0 -101 -22 -101 -78c0 -41 34 -56 73 -67l79 -24
c62 -19 115 -55 115 -140c0 -71 -41 -181 -219 -181c-16 0 -129 11 -172 25zM464 724l-161 -115h-76l-141 115l71 51l114 -96l132 96z" />
    <glyph glyph-name="Zcaron.sc" unicode="&#xe03c;" horiz-adv-x="500" 
d="M51 394l18 150h412l-4 -74l-342 -394h223l16 81h82l-22 -157h-426l4 76l339 392h-208l-16 -74h-76zM473 724l-161 -115h-76l-141 115l71 51l114 -96l132 96z" />
    <glyph glyph-name="Agrave.sc" unicode="&#xe005;" 
d="M32 76l223 479h112l141 -479h59l-6 -76h-230l6 76h59l-30 116h-184l-50 -116h71l-6 -76h-219l6 76h48zM298 473l-85 -205h136l-49 205h-2zM256 781l167 -154l-66 -47l-171 150z" />
    <glyph glyph-name="Aacute.sc" unicode="&#xe002;" 
d="M32 76l223 479h112l141 -479h59l-6 -76h-230l6 76h59l-30 116h-184l-50 -116h71l-6 -76h-219l6 76h48zM298 473l-85 -205h136l-49 205h-2zM218 634l193 147l66 -51l-204 -150z" />
    <glyph glyph-name="Acircumflex.sc" unicode="&#xe003;" 
d="M32 76l223 479h112l141 -479h59l-6 -76h-230l6 76h59l-30 116h-184l-50 -116h71l-6 -76h-219l6 76h48zM298 473l-85 -205h136l-49 205h-2zM136 660l161 115h76l141 -115l-71 -51l-114 96l-132 -96z" />
    <glyph glyph-name="Atilde.sc" unicode="&#xe007;" 
d="M32 76l223 479h112l141 -479h59l-6 -76h-230l6 76h59l-30 116h-184l-50 -116h71l-6 -76h-219l6 76h48zM298 473l-85 -205h136l-49 205h-2zM451 734l63 -44c-25 -42 -63 -85 -115 -85c-42 0 -110 60 -139 60c-25 0 -44 -28 -53 -49l-71 30c18 41 51 101 119 101
c63 0 104 -60 142 -60c22 0 36 18 54 47z" />
    <glyph glyph-name="Adieresis.sc" unicode="&#xe004;" 
d="M32 76l223 479h112l141 -479h59l-6 -76h-230l6 76h59l-30 116h-184l-50 -116h71l-6 -76h-219l6 76h48zM298 473l-85 -205h136l-49 205h-2zM363 678c0 33 20 67 68 67c46 0 68 -28 68 -61c0 -49 -30 -69 -72 -69c-33 0 -64 17 -64 63zM151 678c0 33 20 67 68 67
c46 0 68 -28 68 -61c0 -49 -30 -69 -72 -69c-33 0 -64 17 -64 63z" />
    <glyph glyph-name="Aring.sc" unicode="&#xe006;" 
d="M32 76l223 479h112l141 -479h59l-6 -76h-230l6 76h59l-30 116h-184l-50 -116h71l-6 -76h-219l6 76h48zM298 473l-85 -205h136l-49 205h-2zM227 678c0 44 27 109 109 109c64 0 96 -43 96 -94c0 -54 -40 -111 -111 -111c-57 0 -94 37 -94 96zM285 681c0 -31 18 -53 43 -53
c29 0 46 34 46 62c0 27 -10 51 -40 51c-31 0 -49 -32 -49 -60z" />
    <glyph glyph-name="AE.sc" unicode="&#xe001;" horiz-adv-x="741" 
d="M-10 76l297 468h401v-153h-76v77h-136l-14 -159h146l-6 -76h-146l-14 -157h156l18 81h77l-23 -157h-392l6 76h58l14 157h-166l-97 -157h70l-6 -76h-219l6 76h46zM362 309l14 159h-52l-92 -159h130z" />
    <glyph glyph-name="Ccedilla.sc" unicode="&#xe00a;" horiz-adv-x="537" 
d="M492 534v-143h-82v74c-9 6 -54 8 -79 8c-159 0 -186 -145 -186 -223c0 -129 61 -179 157 -179c36 0 56 5 81 10l10 76h82l-16 -143c-25 -15 -99 -25 -146 -25l-7 -49h6c33 0 83 -23 83 -78c0 -76 -75 -102 -145 -102c-41 0 -73 9 -97 18l10 57c26 -8 53 -17 82 -17
c27 0 62 7 62 38c0 33 -45 36 -71 36l13 101c-90 11 -210 57 -210 249c0 206 119 313 299 313c76 0 115 -10 154 -21z" />
    <glyph glyph-name="Egrave.sc" unicode="&#xe010;" horiz-adv-x="519" 
d="M60 468l6 76h387v-153h-74l-4 77h-147l-10 -151h150l-4 -76h-152l-18 -165h156l18 81h77l-23 -157h-392l6 76h58l34 392h-68zM229 781l167 -154l-66 -47l-171 150z" />
    <glyph glyph-name="Eacute.sc" unicode="&#xe00d;" horiz-adv-x="519" 
d="M60 468l6 76h387v-153h-74l-4 77h-147l-10 -151h150l-4 -76h-152l-18 -165h156l18 81h77l-23 -157h-392l6 76h58l34 392h-68zM191 634l193 147l66 -51l-204 -150z" />
    <glyph glyph-name="Ecircumflex.sc" unicode="&#xe00e;" horiz-adv-x="519" 
d="M60 468l6 76h387v-153h-74l-4 77h-147l-10 -151h150l-4 -76h-152l-18 -165h156l18 81h77l-23 -157h-392l6 76h58l34 392h-68zM109 660l161 115h76l141 -115l-71 -51l-114 96l-132 -96z" />
    <glyph glyph-name="Edieresis.sc" unicode="&#xe00f;" horiz-adv-x="519" 
d="M60 468l6 76h387v-153h-74l-4 77h-147l-10 -151h150l-4 -76h-152l-18 -165h156l18 81h77l-23 -157h-392l6 76h58l34 392h-68zM336 678c0 33 20 67 68 67c46 0 68 -28 68 -61c0 -49 -30 -69 -72 -69c-33 0 -64 17 -64 63zM124 678c0 33 20 67 68 67c46 0 68 -28 68 -61
c0 -49 -30 -69 -72 -69c-33 0 -64 17 -64 63z" />
    <glyph glyph-name="Igrave.sc" unicode="&#xe019;" horiz-adv-x="315" 
d="M58 468l6 76h223l-6 -76h-55l-35 -392h68l-6 -76h-223l6 76h55l35 392h-68zM127 781l167 -154l-66 -47l-171 150z" />
    <glyph glyph-name="Iacute.sc" unicode="&#xe016;" horiz-adv-x="315" 
d="M58 468l6 76h223l-6 -76h-55l-35 -392h68l-6 -76h-223l6 76h55l35 392h-68zM77 634l193 147l66 -51l-204 -150z" />
    <glyph glyph-name="Icircumflex.sc" unicode="&#xe017;" horiz-adv-x="315" 
d="M58 468l6 76h223l-6 -76h-55l-35 -392h68l-6 -76h-223l6 76h55l35 392h-68zM7 660l161 115h76l141 -115l-71 -51l-114 96l-132 -96z" />
    <glyph glyph-name="Idieresis.sc" unicode="&#xe018;" horiz-adv-x="315" 
d="M58 468l6 76h223l-6 -76h-55l-35 -392h68l-6 -76h-223l6 76h55l35 392h-68zM234 678c0 33 20 67 68 67c46 0 68 -28 68 -61c0 -49 -30 -69 -72 -69c-33 0 -64 17 -64 63zM22 678c0 33 20 67 68 67c46 0 68 -28 68 -61c0 -49 -30 -69 -72 -69c-33 0 -64 17 -64 63z" />
    <glyph glyph-name="Eth.sc" unicode="&#xe011;" horiz-adv-x="611" 
d="M44 241l6 76h63l13 151h-68l6 76h243c77 0 264 0 264 -245c0 -194 -131 -299 -315 -299h-226l6 76h55l15 165h-62zM330 317l-6 -76h-118l-15 -165h73c132 0 201 76 201 225c0 167 -115 167 -169 167h-70l-13 -151h117z" />
    <glyph glyph-name="Ntilde.sc" unicode="&#xe020;" horiz-adv-x="648" 
d="M53 468l6 76h166l228 -377h2l24 301h-67l6 76h211l-6 -76h-56l-44 -468h-85l-238 387h-2l-22 -311h66l-6 -76h-211l6 76h57l35 392h-70zM476 734l63 -44c-25 -42 -63 -85 -115 -85c-42 0 -110 60 -139 60c-25 0 -44 -28 -53 -49l-71 30c18 41 51 101 119 101
c63 0 104 -60 142 -60c22 0 36 18 54 47z" />
    <glyph glyph-name="Ograve.sc" unicode="&#xe026;" horiz-adv-x="593" 
d="M41 244c0 179 104 311 276 311s235 -121 235 -254c0 -130 -62 -312 -271 -312c-154 0 -240 95 -240 255zM147 244c0 -93 38 -173 136 -173c163 0 163 197 163 231c0 77 -16 171 -137 171c-153 0 -162 -200 -162 -229zM266 781l167 -154l-66 -47l-171 150z" />
    <glyph glyph-name="Oacute.sc" unicode="&#xe023;" horiz-adv-x="593" 
d="M41 244c0 179 104 311 276 311s235 -121 235 -254c0 -130 -62 -312 -271 -312c-154 0 -240 95 -240 255zM147 244c0 -93 38 -173 136 -173c163 0 163 197 163 231c0 77 -16 171 -137 171c-153 0 -162 -200 -162 -229zM216 634l193 147l66 -51l-204 -150z" />
    <glyph glyph-name="Ocircumflex.sc" unicode="&#xe024;" horiz-adv-x="593" 
d="M41 244c0 179 104 311 276 311s235 -121 235 -254c0 -130 -62 -312 -271 -312c-154 0 -240 95 -240 255zM147 244c0 -93 38 -173 136 -173c163 0 163 197 163 231c0 77 -16 171 -137 171c-153 0 -162 -200 -162 -229zM146 660l161 115h76l141 -115l-71 -51l-114 96
l-132 -96z" />
    <glyph glyph-name="Otilde.sc" unicode="&#xe028;" horiz-adv-x="593" 
d="M41 244c0 179 104 311 276 311s235 -121 235 -254c0 -130 -62 -312 -271 -312c-154 0 -240 95 -240 255zM147 244c0 -93 38 -173 136 -173c163 0 163 197 163 231c0 77 -16 171 -137 171c-153 0 -162 -200 -162 -229zM461 734l63 -44c-25 -42 -63 -85 -115 -85
c-42 0 -110 60 -139 60c-25 0 -44 -28 -53 -49l-71 30c18 41 51 101 119 101c63 0 104 -60 142 -60c22 0 36 18 54 47z" />
    <glyph glyph-name="Odieresis.sc" unicode="&#xe025;" horiz-adv-x="593" 
d="M41 244c0 179 104 311 276 311s235 -121 235 -254c0 -130 -62 -312 -271 -312c-154 0 -240 95 -240 255zM147 244c0 -93 38 -173 136 -173c163 0 163 197 163 231c0 77 -16 171 -137 171c-153 0 -162 -200 -162 -229zM373 678c0 33 20 67 68 67c46 0 68 -28 68 -61
c0 -49 -30 -69 -72 -69c-33 0 -64 17 -64 63zM161 678c0 33 20 67 68 67c46 0 68 -28 68 -61c0 -49 -30 -69 -72 -69c-33 0 -64 17 -64 63z" />
    <glyph glyph-name="OE.sc" unicode="&#xe022;" horiz-adv-x="778" 
d="M367 76l34 392h-84c-142 0 -183 -143 -183 -224c0 -120 63 -168 149 -168h84zM726 544v-153h-74l-4 77h-147l-10 -151h150l-4 -76h-152l-18 -165h156l18 81h77l-23 -157h-433c-148 0 -234 83 -234 231c0 160 85 311 283 313h415z" />
    <glyph glyph-name="Oslash.sc" unicode="&#xe027;" horiz-adv-x="593" 
d="M167 144l225 306c-19 14 -46 23 -83 23c-153 0 -162 -200 -162 -229c0 -38 6 -73 20 -100zM428 406l-226 -308c21 -18 48 -27 81 -27c163 0 163 197 163 231s-3 72 -18 104zM23 -52l80 109c-41 45 -62 108 -62 187c0 179 104 311 276 311c53 0 96 -11 129 -31l66 89
l44 -32l-67 -92c45 -47 63 -116 63 -188c0 -130 -62 -312 -271 -312c-54 0 -99 11 -135 33l-79 -107z" />
    <glyph glyph-name="Ugrave.sc" unicode="&#xe034;" horiz-adv-x="630" 
d="M46 468l6 76h224l-6 -76h-56l-24 -274c-1 -11 -2 -22 -2 -34c0 -49 24 -89 111 -89c65 0 117 23 125 110l26 287h-66l6 76h215l-6 -76h-61l-26 -300c-6 -68 -18 -179 -230 -179c-75 0 -194 12 -194 152c0 19 4 68 5 85l21 242h-68zM272 781l167 -154l-66 -47l-171 150z
" />
    <glyph glyph-name="Uacute.sc" unicode="&#xe031;" horiz-adv-x="630" 
d="M46 468l6 76h224l-6 -76h-56l-24 -274c-1 -11 -2 -22 -2 -34c0 -49 24 -89 111 -89c65 0 117 23 125 110l26 287h-66l6 76h215l-6 -76h-61l-26 -300c-6 -68 -18 -179 -230 -179c-75 0 -194 12 -194 152c0 19 4 68 5 85l21 242h-68zM246 634l193 147l66 -51l-204 -150z
" />
    <glyph glyph-name="Ucircumflex.sc" unicode="&#xe032;" horiz-adv-x="630" 
d="M46 468l6 76h224l-6 -76h-56l-24 -274c-1 -11 -2 -22 -2 -34c0 -49 24 -89 111 -89c65 0 117 23 125 110l26 287h-66l6 76h215l-6 -76h-61l-26 -300c-6 -68 -18 -179 -230 -179c-75 0 -194 12 -194 152c0 19 4 68 5 85l21 242h-68zM152 660l161 115h76l141 -115l-71 -51
l-114 96l-132 -96z" />
    <glyph glyph-name="Udieresis.sc" unicode="&#xe033;" horiz-adv-x="630" 
d="M46 468l6 76h224l-6 -76h-56l-24 -274c-1 -11 -2 -22 -2 -34c0 -49 24 -89 111 -89c65 0 117 23 125 110l26 287h-66l6 76h215l-6 -76h-61l-26 -300c-6 -68 -18 -179 -230 -179c-75 0 -194 12 -194 152c0 19 4 68 5 85l21 242h-68zM379 678c0 33 20 67 68 67
c46 0 68 -28 68 -61c0 -49 -30 -69 -72 -69c-33 0 -64 17 -64 63zM167 678c0 33 20 67 68 67c46 0 68 -28 68 -61c0 -49 -30 -69 -72 -69c-33 0 -64 17 -64 63z" />
    <glyph glyph-name="Yacute.sc" unicode="&#xe039;" horiz-adv-x="500" 
d="M192 220l-156 248h-51l4 76h233l-4 -76h-64l103 -173l125 173h-69l4 76h218l-4 -76h-49l-190 -248l-10 -144h71l-6 -76h-232l6 76h61zM169 634l193 147l66 -51l-204 -150z" />
    <glyph glyph-name="Thorn.sc" unicode="&#xe02f;" horiz-adv-x="463" 
d="M211 360l-15 -172h42c23 0 104 0 104 96c0 61 -41 76 -88 76h-43zM86 76l35 392h-68l6 76h223l-6 -76h-55l-4 -32h47c69 0 178 0 178 -143c0 -65 -28 -181 -190 -181h-62l-4 -36h68l-6 -76h-223l6 76h55z" />
    <glyph glyph-name="Ydieresis.sc" unicode="&#xe03a;" horiz-adv-x="500" 
d="M192 220l-156 248h-51l4 76h233l-4 -76h-64l103 -173l125 173h-69l4 76h218l-4 -76h-49l-190 -248l-10 -144h71l-6 -76h-232l6 76h61zM306 678c0 33 20 67 68 67c46 0 68 -28 68 -61c0 -49 -30 -69 -72 -69c-33 0 -64 17 -64 63zM94 678c0 33 20 67 68 67
c46 0 68 -28 68 -61c0 -49 -30 -69 -72 -69c-33 0 -64 17 -64 63z" />
    <glyph glyph-name="uni03A9" unicode="&#x3a9;" horiz-adv-x="765" 
d="M180 75l1 3c-68 60 -126 164 -114 303c16 191 165 333 350 333c195 0 301 -161 286 -329c-12 -142 -93 -251 -169 -307v-3h156l-6 -75h-263l4 56c83 47 167 150 181 312c12 130 -52 270 -196 270c-137 0 -236 -121 -250 -274c-13 -149 53 -263 127 -308l-5 -56h-263l6 75
h155z" />
    </font>
</defs>
</svg>
