<?xml version="1.0" standalone="no"?>
<!DOCTYPE svg PUBLIC "-//W3C//DTD SVG 1.1//EN" "http://www.w3.org/Graphics/SVG/1.1/DTD/svg11.dtd" >
<svg>
<metadata>
Created by FontForge 20110222 at Sat Nov 17 04:16:55 2012
 By Stefan Warting
 The digitally encoded machine readable software for producing the
 Typefaces licensed to you is copyrighted (c) 1991, 1992, 1995, 2002 Adobe Systems.
 All Rights Reserved. This software is the property of Adobe Systems
 Incorporated and its licensors, and may not be reproduced, used, 
 displayed, modified, disclosed or transferred without the express 
 written approval of Adobe.
 
 The digitally encoded machine readable outline data for producing the Typefaces 
 provided as part of your laser printer is copyrighted (c) 1981, 2002 Heidelberger Druckmaschinen AG. 
 All rights reserved. This data is the property of Heidelberger Druckmaschinen AG, 
 and may not be reproduced, used, displayed, modified, disclosed or transferred 
 without the express written approval of Heidelberger Druckmaschinen AG. 
</metadata>
<defs>
<font id="CaeciliaLTStd-HeavyItalic" horiz-adv-x="593" >
  <font-face 
    font-family="Caecilia LT Std"
    font-weight="850"
    font-style="italic"
    font-stretch="normal"
    units-per-em="1000"
    panose-1="0 0 9 0 0 0 0 0 0 0"
    ascent="769"
    descent="-231"
    x-height="523"
    cap-height="700"
    bbox="-293 -277 1108 943"
    underline-thickness="50"
    underline-position="-50"
    slope="-5"
    stemh="102"
    stemv="138"
    unicode-range="U+0020-FB02"
  />
<missing-glyph horiz-adv-x="530" 
d="M30 0v700h500v-700h-500zM280 395l170 255h-340zM310 350l170 -255v510zM110 50h340l-170 255zM80 605v-510l170 255z" />
    <glyph glyph-name="f_i" unicode="fi" horiz-adv-x="611" 
d="M37 421l9 102h67c7 159 75 252 240 252c45 0 93 -7 126 -16l-13 -97c-30 7 -56 11 -82 11c-85 0 -133 -32 -139 -150h299l-35 -421h63l-9 -102h-194l35 421h-166l-27 -369c-19 -258 -101 -315 -227 -315c-30 0 -68 4 -98 12l10 105c18 -5 41 -9 62 -9
c79 0 108 38 124 254l24 322h-69z" />
    <glyph glyph-name="f_l" unicode="fl" horiz-adv-x="611" 
d="M37 421l9 102h67c16 192 85 252 227 252c25 0 50 -1 75 -3s50 -3 74 -3h76l-56 -667h63l-9 -102h-194l59 661c-21 4 -43 6 -66 6c-59 0 -111 -17 -117 -144h124l-9 -102h-122l-27 -369c-19 -258 -101 -315 -227 -315c-30 0 -68 4 -98 12l10 105c18 -5 41 -9 62 -9
c79 0 108 38 124 254l24 322h-69z" />
    <glyph glyph-name=".notdef" horiz-adv-x="530" 
d="M30 0v700h500v-700h-500zM280 395l170 255h-340zM310 350l170 -255v510zM110 50h340l-170 255zM80 605v-510l170 255z" />
    <glyph glyph-name="space" unicode=" " horiz-adv-x="296" 
 />
    <glyph glyph-name="exclam" unicode="!" horiz-adv-x="296" 
d="M75 224l30 545h156l-54 -545h-132zM35 66c0 56 37 86 92 86c53 0 86 -28 86 -77c0 -55 -37 -85 -93 -85c-51 0 -85 28 -85 76z" />
    <glyph glyph-name="quotedbl" unicode="&#x22;" horiz-adv-x="537" 
d="M237 594l-12 -133c-4 -41 -18 -63 -48 -63s-44 22 -48 63l-12 133c-3 35 -6 80 -6 111c0 42 18 79 66 79s66 -37 66 -79c0 -31 -3 -76 -6 -111zM420 594l-12 -133c-4 -41 -18 -63 -48 -63s-44 22 -48 63l-12 133c-3 35 -6 80 -6 111c0 42 18 79 66 79s66 -37 66 -79
c0 -31 -3 -76 -6 -111z" />
    <glyph glyph-name="numbersign" unicode="#" horiz-adv-x="592" 
d="M338 289l17 122h-102l-17 -122h102zM367 497l27 203h90l-27 -203h98l-12 -86h-98l-16 -122h97l-12 -86h-97l-27 -203h-90l27 203h-102l-28 -203h-90l28 203h-98l12 86h98l16 122h-97l12 86h97l27 203h90l-27 -203h102z" />
    <glyph glyph-name="dollar" unicode="$" horiz-adv-x="592" 
d="M229 97l18 212c-138 31 -200 93 -200 192c0 125 95 205 233 216l10 120h102l-10 -120c53 -4 116 -17 169 -33l-12 -182h-108v92c-16 7 -38 13 -58 15l-14 -186c175 -49 211 -113 211 -206c0 -135 -104 -227 -252 -234l-10 -133h-102l10 133c-78 4 -144 12 -194 35l12 188
h108v-95c25 -8 56 -12 87 -14zM258 451l12 158c-48 -9 -79 -36 -79 -83c0 -33 15 -58 67 -75zM345 284l-15 -187c72 12 96 61 96 100c0 36 -21 70 -81 87z" />
    <glyph glyph-name="percent" unicode="%" horiz-adv-x="815" 
d="M169 537c0 -54 24 -68 54 -68c33 0 66 34 66 94c0 54 -24 68 -54 68c-33 0 -66 -34 -66 -94zM31 -17l684 791l69 -57l-684 -791zM526 137c0 -54 24 -68 54 -68c33 0 66 34 66 94c0 54 -24 68 -54 68c-33 0 -66 -34 -66 -94zM67 535c0 110 72 182 174 182
c73 0 150 -43 150 -152c0 -110 -72 -182 -174 -182c-73 0 -150 43 -150 152zM424 135c0 110 72 182 174 182c73 0 150 -43 150 -152c0 -110 -72 -182 -174 -182c-73 0 -150 43 -150 152z" />
    <glyph glyph-name="ampersand" unicode="&#x26;" horiz-adv-x="778" 
d="M518 337l9 102h228l-9 -102h-63c-8 -67 -25 -146 -78 -198c30 -31 53 -37 81 -37h43l-9 -102h-82c-46 0 -65 11 -111 59c-58 -50 -126 -76 -218 -76c-181 0 -257 92 -257 205c0 65 29 123 106 174l54 36c-55 52 -82 106 -82 156c0 91 88 163 207 163
c107 0 177 -57 177 -142c0 -63 -35 -124 -147 -183l167 -179c29 34 38 86 41 124h-57zM250 555c0 -28 23 -66 58 -100c72 39 98 73 98 108c0 37 -31 58 -77 58c-49 0 -79 -29 -79 -66zM455 131l-184 198c-57 -29 -87 -75 -87 -121c0 -79 63 -123 147 -123c49 0 93 18 124 46
z" />
    <glyph glyph-name="quoteright" unicode="&#x2019;" horiz-adv-x="296" 
d="M78 398l-44 80c76 36 104 71 104 109c0 44 -44 70 -44 117c0 48 39 80 84 80c54 0 104 -41 104 -130s-50 -186 -204 -256z" />
    <glyph glyph-name="parenleft" unicode="(" horiz-adv-x="333" 
d="M297 795l92 -71c-110 -141 -187 -319 -187 -536c0 -130 27 -279 108 -407l-98 -58c-100 151 -160 307 -160 477c0 214 85 419 245 595z" />
    <glyph glyph-name="parenright" unicode=")" horiz-adv-x="333" 
d="M21 -277l-92 71c110 141 187 319 187 536c0 130 -27 279 -108 407l98 58c100 -151 160 -307 160 -477c0 -214 -85 -419 -245 -595z" />
    <glyph glyph-name="asterisk" unicode="*" horiz-adv-x="370" 
d="M235 450h-86l37 130l-2 2l-106 -91l-40 76l133 43v2l-122 44l48 74l93 -87l-14 126h86l-32 -124l2 -2l96 87l44 -74l-131 -44v-2l119 -43l-47 -76l-91 91l-2 -2z" />
    <glyph glyph-name="plus" unicode="+" horiz-adv-x="600" 
d="M47 199v108h199v199h108v-199h199v-108h-199v-199h-108v199h-199z" />
    <glyph glyph-name="comma" unicode="," horiz-adv-x="296" 
d="M25 -226l-44 80c76 36 104 71 104 109c0 44 -44 70 -44 117c0 48 39 80 84 80c54 0 104 -41 104 -130s-50 -186 -204 -256z" />
    <glyph glyph-name="hyphen" unicode="-" horiz-adv-x="407" 
d="M62 241l11 114h272l-11 -114h-272z" />
    <glyph glyph-name="period" unicode="." horiz-adv-x="296" 
d="M42 66c0 56 37 86 92 86c53 0 86 -28 86 -77c0 -55 -37 -85 -93 -85c-51 0 -85 28 -85 76z" />
    <glyph glyph-name="slash" unicode="/" horiz-adv-x="370" 
d="M6 -84l-94 39l452 829l94 -39z" />
    <glyph glyph-name="zero" unicode="0" horiz-adv-x="592" 
d="M23 290c0 239 103 427 307 427c127 0 239 -59 239 -307c0 -239 -103 -427 -307 -427c-127 0 -239 59 -239 307zM161 307c0 -179 56 -216 114 -216c87 0 156 98 156 302c0 179 -56 216 -115 216c-86 0 -155 -98 -155 -302z" />
    <glyph glyph-name="one" unicode="1" horiz-adv-x="592" 
d="M71 553l235 147h126l-51 -598h140l-10 -102h-400l10 102h128l41 483l-2 2c-7 -10 -23 -24 -55 -44l-110 -69z" />
    <glyph glyph-name="two" unicode="2" horiz-adv-x="592" 
d="M514 0h-498l9 96c155 105 387 298 387 421c0 56 -37 92 -95 92c-57 0 -108 -34 -117 -100h-132c22 132 124 208 261 208c116 0 215 -60 215 -193c0 -139 -149 -297 -356 -420l2 -2c23 3 76 6 134 6h199z" />
    <glyph glyph-name="three" unicode="3" horiz-adv-x="592" 
d="M200 520h-126c13 123 135 197 256 197c125 0 213 -63 213 -173c0 -85 -74 -161 -190 -176v-2c126 -5 183 -71 183 -163c0 -101 -86 -220 -291 -220c-87 0 -155 16 -223 47l9 115c54 -33 135 -54 206 -54c110 0 161 52 161 112c0 85 -82 102 -215 102l9 102
c149 0 219 59 219 125c0 53 -34 77 -89 77c-59 0 -104 -28 -122 -89z" />
    <glyph glyph-name="four" unicode="4" horiz-adv-x="592" 
d="M337 296l24 284h-2l-223 -287c20 2 43 3 66 3h135zM261 102h59l8 92h-318l9 106l312 400h172l-34 -404h113l-9 -102h-113l-8 -92h71l-9 -102h-262z" />
    <glyph glyph-name="five" unicode="5" horiz-adv-x="592" 
d="M117 700h404l-9 -108h-279l-13 -137c231 -16 305 -93 305 -218c0 -155 -125 -254 -295 -254c-73 0 -129 13 -187 33l9 111c49 -22 105 -36 167 -36c97 0 168 49 168 134s-68 127 -303 128z" />
    <glyph glyph-name="six" unicode="6" horiz-adv-x="592" 
d="M581 700l-17 -108c-34 9 -72 17 -116 17c-148 0 -236 -83 -267 -242h2c32 49 95 74 165 74c114 0 205 -81 205 -211c0 -144 -106 -247 -258 -247c-156 0 -252 114 -252 291c0 244 135 443 395 443c53 0 104 -9 143 -17zM181 284v-27c0 -104 49 -160 127 -160
c74 0 113 66 113 120c0 72 -41 116 -113 116c-41 0 -88 -18 -127 -49z" />
    <glyph glyph-name="seven" unicode="7" horiz-adv-x="592" 
d="M196 0h-144c33 41 68 90 90 127l208 353c30 52 54 91 73 112h-335l9 108h482l-9 -86l-302 -515c-16 -28 -41 -63 -72 -99z" />
    <glyph glyph-name="eight" unicode="8" horiz-adv-x="592" 
d="M162 177c0 -59 55 -86 128 -86c80 0 126 40 126 93c0 54 -48 92 -122 127c-103 -48 -132 -83 -132 -134zM82 527c0 118 104 190 239 190c153 0 226 -87 226 -171c0 -82 -55 -137 -149 -175c117 -65 156 -108 156 -185c0 -108 -86 -203 -273 -203c-160 0 -257 72 -257 175
c0 90 68 163 185 207c-74 32 -127 83 -127 162zM214 531c0 -40 37 -71 100 -107c77 37 113 74 113 114c0 43 -42 77 -106 77c-67 0 -107 -38 -107 -84z" />
    <glyph glyph-name="nine" unicode="9" horiz-adv-x="592" 
d="M11 0l17 108c34 -9 72 -17 116 -17c148 0 236 83 267 242h-2c-32 -49 -95 -74 -165 -74c-114 0 -205 81 -205 211c0 144 106 247 258 247c156 0 252 -114 252 -291c0 -244 -135 -443 -395 -443c-53 0 -104 9 -143 17zM411 416v27c0 104 -49 160 -127 160
c-74 0 -113 -66 -113 -120c0 -72 41 -116 113 -116c41 0 88 18 127 49z" />
    <glyph glyph-name="colon" unicode=":" horiz-adv-x="296" 
d="M76 455c0 56 37 86 92 86c53 0 86 -28 86 -77c0 -55 -37 -85 -93 -85c-51 0 -85 28 -85 76zM42 66c0 56 37 86 92 86c53 0 86 -28 86 -77c0 -55 -37 -85 -93 -85c-51 0 -85 28 -85 76z" />
    <glyph glyph-name="semicolon" unicode=";" horiz-adv-x="296" 
d="M25 -226l-44 80c76 36 104 71 104 109c0 44 -44 70 -44 117c0 48 39 80 84 80c54 0 104 -41 104 -130s-50 -186 -204 -256zM76 455c0 56 37 86 92 86c53 0 86 -28 86 -77c0 -55 -37 -85 -93 -85c-51 0 -85 28 -85 76z" />
    <glyph glyph-name="less" unicode="&#x3c;" horiz-adv-x="600" 
d="M47 205v96l506 213v-108l-386 -153l386 -153v-108z" />
    <glyph glyph-name="equal" unicode="=" horiz-adv-x="600" 
d="M47 295v108h506v-108h-506zM47 103v108h506v-108h-506z" />
    <glyph glyph-name="greater" unicode="&#x3e;" horiz-adv-x="600" 
d="M47 -8v108l386 153l-386 153v108l506 -213v-96z" />
    <glyph glyph-name="question" unicode="?" horiz-adv-x="481" 
d="M214 242l-123 -37c-18 26 -32 58 -32 91c0 48 20 83 78 117l114 66c53 31 76 63 76 103c0 52 -46 88 -142 88c-38 0 -78 -8 -118 -22l9 114c53 13 105 22 157 22c135 0 244 -59 244 -189c0 -201 -280 -213 -280 -310c0 -16 5 -28 17 -43zM42 66c0 56 37 86 92 86
c53 0 86 -28 86 -77c0 -55 -37 -85 -93 -85c-51 0 -85 28 -85 76z" />
    <glyph glyph-name="at" unicode="@" horiz-adv-x="800" 
d="M489 390c0 67 -30 95 -80 95c-81 0 -138 -100 -138 -180c0 -60 29 -99 90 -99c69 0 128 111 128 184zM520 482l16 58h74l-69 -248c-11 -39 -16 -59 -16 -68c0 -10 7 -18 33 -18c61 0 123 86 123 197c0 144 -119 234 -265 234c-180 0 -297 -132 -297 -290
c0 -177 130 -284 289 -284c105 0 191 33 244 86h86c-54 -96 -169 -166 -330 -166c-209 0 -375 137 -375 368c0 206 155 366 383 366c199 0 351 -123 351 -302c0 -198 -156 -283 -251 -283c-49 0 -69 25 -70 59h-3c-26 -31 -68 -59 -121 -59c-76 0 -137 63 -137 160
c0 141 105 267 220 267c49 0 88 -26 115 -77z" />
    <glyph glyph-name="A" unicode="A" horiz-adv-x="722" 
d="M276 344h170l-49 200c-6 23 -10 45 -12 66h-2c-4 -25 -12 -44 -22 -67zM35 102l284 604h162l175 -604h52l-9 -102h-250l9 102h48l-35 140h-238l-60 -140h66l-9 -102h-250l9 102h46z" />
    <glyph glyph-name="B" unicode="B" horiz-adv-x="611" 
d="M19 0l9 102h52l43 496h-66l9 102h278c160 0 215 -70 215 -170c0 -90 -60 -162 -171 -168v-2c115 0 183 -49 183 -151c0 -115 -87 -209 -242 -209h-310zM261 598l-16 -184h64c74 0 118 37 118 101c0 49 -28 83 -97 83h-69zM236 312l-18 -210h88c82 0 121 45 121 111
c0 67 -37 99 -132 99h-59z" />
    <glyph glyph-name="C" unicode="C" horiz-adv-x="630" 
d="M472 109l16 89h108l-16 -180c-73 -22 -146 -35 -208 -35c-254 0 -338 160 -338 333c0 236 134 401 389 401c63 0 135 -10 203 -27l-12 -176h-108v85c-24 6 -53 10 -85 10c-176 0 -237 -136 -237 -285c0 -176 91 -227 211 -227c26 0 49 4 77 12z" />
    <glyph glyph-name="D" unicode="D" horiz-adv-x="741" 
d="M19 0l9 102h52l43 496h-66l9 102h303c224 0 340 -109 340 -302c0 -236 -142 -398 -379 -398h-311zM354 598h-93l-43 -496h109c163 0 238 136 238 285c0 172 -105 211 -211 211z" />
    <glyph glyph-name="E" unicode="E" 
d="M57 598l9 102h501l-12 -198h-108v96h-186l-16 -184h189l-9 -102h-189l-18 -210h194l12 96h114l-18 -198h-501l9 102h52l43 496h-66z" />
    <glyph glyph-name="F" unicode="F" horiz-adv-x="556" 
d="M19 0l9 102h52l43 496h-66l9 102h493l-12 -198h-108v96h-178l-18 -194h196l-9 -108h-196l-16 -194h66l-9 -102h-256z" />
    <glyph glyph-name="G" unicode="G" horiz-adv-x="685" 
d="M477 108l13 130h-67l9 102h244l-9 -102h-54l-21 -216c-72 -25 -149 -39 -228 -39c-254 0 -338 160 -338 333c0 236 134 401 389 401c84 0 162 -10 218 -27l-12 -176h-108v85c-32 7 -60 10 -94 10c-184 0 -243 -136 -243 -285c0 -176 91 -227 211 -227c33 0 65 3 90 11z
" />
    <glyph glyph-name="H" unicode="H" horiz-adv-x="759" 
d="M19 0l9 102h52l43 496h-66l9 102h256l-9 -102h-52l-18 -194h282l16 194h-66l9 102h256l-9 -102h-52l-43 -496h66l-9 -102h-256l9 102h52l18 194h-282l-16 -194h66l-9 -102h-256z" />
    <glyph glyph-name="I" unicode="I" horiz-adv-x="333" 
d="M15 0l9 102h52l43 496h-66l9 102h256l-9 -102h-52l-43 -496h66l-9 -102h-256z" />
    <glyph glyph-name="J" unicode="J" horiz-adv-x="352" 
d="M-33 -181l-56 96c175 97 194 187 208 394l19 289h-66l9 102h256l-9 -102h-52l-35 -419c-11 -130 -79 -264 -221 -334z" />
    <glyph glyph-name="K" unicode="K" horiz-adv-x="704" 
d="M19 0l9 102h52l43 496h-66l9 102h256l-9 -102h-52l-19 -217l246 217h-68l9 102h273l-9 -102h-48l-258 -231l235 -265h58l-9 -102h-287l9 102h52l-207 234l-20 -234h66l-9 -102h-256z" />
    <glyph glyph-name="L" unicode="L" horiz-adv-x="556" 
d="M30 0l9 102h52l43 496h-66l9 102h256l-9 -102h-52l-43 -496h169l14 96h114l-16 -198h-480z" />
    <glyph glyph-name="M" unicode="M" horiz-adv-x="963" 
d="M15 0l9 102h52l49 496h-72l9 102h255l133 -472c7 -24 15 -54 16 -81h2c9 41 23 72 35 98l207 455h238l-9 -102h-63l-28 -496h62l-9 -102h-252l9 102h52l38 442h-2c-3 -14 -8 -28 -14 -42l-218 -502h-144l-129 486c-5 20 -10 41 -12 58h-2l-37 -442h66l-9 -102h-232z" />
    <glyph glyph-name="N" unicode="N" horiz-adv-x="778" 
d="M15 0l9 102h52l43 496h-66l9 102h175l298 -436c8 -12 14 -24 20 -38h2l31 372h-66l9 102h232l-9 -102h-52l-51 -598h-114l-297 437c-9 13 -15 28 -18 36h-2l-30 -371h66l-9 -102h-232z" />
    <glyph glyph-name="O" unicode="O" horiz-adv-x="722" 
d="M176 317c0 -143 64 -220 170 -220c127 0 200 121 200 286c0 143 -64 220 -170 220c-127 0 -200 -121 -200 -286zM26 318c0 225 135 399 355 399c224 0 315 -169 315 -335c0 -225 -135 -399 -355 -399c-224 0 -315 169 -315 335z" />
    <glyph glyph-name="P" unicode="P" horiz-adv-x="574" 
d="M19 0l9 102h52l43 496h-66l9 102h251c155 0 249 -49 249 -197c0 -143 -104 -229 -264 -229h-70l-14 -172h66l-9 -102h-256zM261 598l-21 -222h73c78 0 121 50 121 122c0 81 -50 100 -123 100h-50z" />
    <glyph glyph-name="Q" unicode="Q" horiz-adv-x="722" 
d="M26 318c0 225 135 399 355 399c224 0 315 -169 315 -335c0 -150 -63 -341 -233 -365v-2c163 -10 196 -99 284 -99c15 0 33 5 49 11l-10 -102c-20 -11 -46 -17 -70 -17c-31 0 -70 7 -130 40l-99 54c-102 56 -147 77 -210 86c-107 15 -251 93 -251 330zM176 317
c0 -143 64 -220 170 -220c127 0 200 121 200 286c0 143 -64 220 -170 220c-127 0 -200 -121 -200 -286z" />
    <glyph glyph-name="R" unicode="R" horiz-adv-x="630" 
d="M19 0l9 102h52l43 496h-66l9 102h289c132 0 211 -64 211 -178c0 -109 -62 -185 -195 -196v-2c46 -3 78 -25 100 -69l53 -107c19 -38 31 -46 49 -46h38l-9 -102h-101c-38 0 -68 15 -88 56l-81 169c-25 52 -42 61 -76 61h-22l-16 -184h66l-9 -102h-256zM316 598h-55
l-19 -210h48c84 0 144 31 144 118c0 67 -44 92 -118 92z" />
    <glyph glyph-name="S" unicode="S" 
d="M524 502h-108v92c-29 9 -62 15 -90 15c-87 0 -123 -37 -123 -86c0 -35 20 -55 83 -79l133 -51c96 -37 130 -98 130 -174c0 -123 -93 -236 -293 -236c-70 0 -151 7 -222 35c0 34 6 155 6 188h114v-91c32 -12 73 -18 113 -18c84 0 138 34 138 102c0 37 -19 61 -84 84
l-123 44c-97 35 -139 95 -139 180c0 128 99 210 271 210c72 0 136 -12 206 -33z" />
    <glyph glyph-name="T" unicode="T" horiz-adv-x="630" 
d="M19 502l19 198h611l-12 -198h-108v96h-123l-43 -496h66l-9 -102h-256l9 102h52l43 496h-127l-8 -96h-114z" />
    <glyph glyph-name="U" unicode="U" horiz-adv-x="741" 
d="M53 598l10 102h254l-9 -102h-51l-27 -270c-5 -51 -8 -89 -8 -120c0 -73 47 -111 133 -111c107 0 158 36 169 171l27 330h-69l9 102h240l-9 -102h-51l-27 -324c-18 -214 -96 -291 -300 -291c-185 0 -260 79 -260 213c0 36 4 68 9 118l26 284h-66z" />
    <glyph glyph-name="V" unicode="V" horiz-adv-x="722" 
d="M256 0l-178 598h-55l9 102h260l-9 -102h-49l94 -364c8 -32 15 -69 23 -114h2c8 32 22 63 34 90l166 388h-70l9 102h260l-9 -102h-52l-279 -598h-156z" />
    <glyph glyph-name="W" unicode="W" horiz-adv-x="1074" 
d="M18 598l9 102h256l-9 -102h-51l87 -367c9 -38 19 -79 24 -129h2c11 38 23 70 36 100l127 285l-32 111h-55l9 102h250l-9 -102h-51l90 -385c7 -30 14 -65 19 -99h2c10 40 23 74 36 105l154 379h-73l9 102h256l-9 -102h-51l-261 -598h-156l-86 330h-2l-143 -330h-156
l-167 598h-55z" />
    <glyph glyph-name="X" unicode="X" horiz-adv-x="704" 
d="M-6 0l9 102h52l226 254l-169 242h-52l9 102h272l-9 -102h-58c10 -10 27 -31 37 -46l64 -96l91 98c17 18 33 35 47 42v2h-78l9 102h266l-9 -102h-50l-211 -236l181 -260h52l-9 -102h-272l9 102h58c-11 11 -25 27 -35 41l-85 128l-109 -137c-10 -12 -20 -21 -31 -32h82
l-9 -102h-278z" />
    <glyph glyph-name="Y" unicode="Y" horiz-adv-x="685" 
d="M191 0l9 102h57l14 165l-206 331h-52l9 102h272l-9 -102h-58c9 -11 21 -26 29 -41l101 -177l142 188c8 10 18 20 29 30h-82l9 102h260l-9 -102h-52l-245 -320l-14 -176h65l-9 -102h-260z" />
    <glyph glyph-name="Z" unicode="Z" horiz-adv-x="630" 
d="M8 0l9 96l391 466c11 13 23 24 36 36h-252l-4 -96h-120l16 198h538l-9 -96l-397 -474c-8 -10 -20 -20 -29 -28h275l15 102h114l-18 -204h-565z" />
    <glyph glyph-name="bracketleft" unicode="[" horiz-adv-x="333" 
d="M43 -251l84 1020h221l-9 -102h-90l-67 -816h90l-9 -102h-220z" />
    <glyph glyph-name="backslash" unicode="\" horiz-adv-x="370" 
d="M328 -84l-380 829l94 39l380 -829z" />
    <glyph glyph-name="bracketright" unicode="]" horiz-adv-x="333" 
d="M46 667l9 102h220l-84 -1020h-221l9 102h90l67 816h-90z" />
    <glyph glyph-name="asciicircum" unicode="^" horiz-adv-x="600" 
d="M62 335l178 365h120l178 -365h-108l-130 257l-130 -257h-108z" />
    <glyph glyph-name="underscore" unicode="_" horiz-adv-x="500" 
d="M0 -125v50h500v-50h-500z" />
    <glyph glyph-name="quoteleft" unicode="&#x2018;" horiz-adv-x="296" 
d="M258 784l44 -80c-76 -36 -104 -71 -104 -109c0 -44 44 -70 44 -117c0 -48 -39 -80 -84 -80c-54 0 -104 41 -104 130s50 186 204 256z" />
    <glyph glyph-name="a" unicode="a" 
d="M174 200c0 -57 15 -90 42 -90c69 0 159 171 167 313c-16 4 -35 8 -51 8c-102 0 -158 -108 -158 -231zM479 511h51c-8 -34 -13 -70 -16 -104l-25 -305h63l-9 -102h-182c7 67 17 137 33 199h-4c-43 -146 -120 -209 -204 -209c-87 0 -150 61 -150 195c0 226 136 348 301 348
c53 0 100 -9 142 -22z" />
    <glyph glyph-name="b" unicode="b" horiz-adv-x="574" 
d="M21 667l9 102h210l-21 -252c-5 -58 -12 -105 -30 -169h3c41 125 120 185 210 185c85 0 142 -69 142 -185c0 -195 -106 -358 -313 -358c-61 0 -131 17 -187 42c7 54 13 109 17 160l39 475h-79zM249 98c92 0 157 117 157 234c0 48 -10 81 -39 81c-73 0 -163 -128 -185 -303
c20 -8 45 -12 67 -12z" />
    <glyph glyph-name="c" unicode="c" horiz-adv-x="444" 
d="M413 138l-13 -114c-43 -24 -93 -34 -144 -34c-138 0 -232 72 -232 240c0 208 128 303 277 303c52 0 98 -8 139 -22l-12 -156h-108v70c-5 4 -16 6 -26 6c-58 0 -132 -46 -132 -182c0 -98 50 -145 129 -145c40 0 81 12 122 34z" />
    <glyph glyph-name="d" unicode="d" 
d="M326 667l9 102h210l-56 -667h63l-9 -102h-182c7 67 17 137 33 199h-4c-43 -146 -120 -209 -204 -209c-87 0 -150 61 -150 195c0 226 136 348 301 348c18 0 36 -2 55 -6l13 140h-79zM174 200c0 -57 15 -90 42 -90c69 0 159 171 167 313c-16 4 -35 8 -51 8
c-102 0 -158 -108 -158 -231z" />
    <glyph glyph-name="e" unicode="e" horiz-adv-x="481" 
d="M437 144l-18 -120c-47 -22 -102 -34 -165 -34c-148 0 -230 69 -230 221c0 197 108 322 283 322c116 0 166 -55 166 -126c0 -101 -95 -193 -311 -209c3 -73 57 -94 115 -94c57 0 112 18 160 40zM284 431c-77 0 -116 -68 -122 -147c134 18 173 61 173 105
c0 27 -20 42 -51 42z" />
    <glyph glyph-name="f" unicode="f" horiz-adv-x="352" 
d="M37 421l9 102h67c9 186 91 252 226 252c40 0 77 -5 107 -16l-12 -97c-21 7 -44 11 -72 11c-59 0 -111 -17 -117 -150h109l-9 -102h-107l-27 -369c-19 -258 -101 -315 -227 -315c-30 0 -68 4 -98 12l10 105c18 -5 41 -9 62 -9c79 0 108 38 124 254l24 322h-69z" />
    <glyph glyph-name="g" unicode="g" horiz-adv-x="556" 
d="M320 431c-103 0 -158 -109 -158 -242c0 -53 20 -79 45 -79c68 0 156 171 164 313c-16 4 -35 8 -51 8zM8 -220l14 120c43 -31 111 -49 165 -49c108 0 158 45 170 190c5 61 13 108 26 149h-3c-35 -122 -117 -200 -206 -200c-87 0 -150 61 -150 201c0 196 108 342 301 342
c52 0 107 -8 156 -22h42c-16 -80 -20 -170 -29 -273l-21 -235c-17 -186 -114 -266 -272 -266c-69 0 -144 15 -193 43z" />
    <glyph glyph-name="h" unicode="h" horiz-adv-x="630" 
d="M43 667l9 102h210l-18 -213c-6 -75 -14 -147 -34 -220h4c46 135 121 197 220 197c67 0 122 -30 122 -143c0 -35 -2 -73 -7 -111l-22 -177h60l-9 -102h-200l36 247c7 46 10 86 10 112c0 41 -12 54 -30 54c-41 0 -85 -45 -123 -120c-50 -98 -64 -191 -76 -293h-132
c9 52 17 122 22 186l37 481h-79z" />
    <glyph glyph-name="i" unicode="i" horiz-adv-x="296" 
d="M58 0l35 421h-63l9 102h194l-35 -421h63l-9 -102h-194zM88 699c0 54 41 85 93 85c51 0 85 -31 85 -77c0 -54 -39 -85 -92 -85c-52 0 -86 31 -86 77z" />
    <glyph glyph-name="j" unicode="j" horiz-adv-x="315" 
d="M-30 -263l-46 90c119 49 149 135 162 285l26 309h-63l9 102h194l-38 -437c-17 -191 -79 -271 -193 -325zM107 699c0 54 41 85 93 85c51 0 85 -31 85 -77c0 -54 -39 -85 -92 -85c-52 0 -86 31 -86 77z" />
    <glyph glyph-name="k" unicode="k" horiz-adv-x="574" 
d="M231 260l-10 -32c120 40 193 97 193 154c0 22 -14 37 -37 37c-51 0 -115 -59 -146 -159zM373 0l-157 194c-8 -58 -16 -121 -21 -194h-132c9 52 17 122 22 186l37 481h-79l9 102h210c-12 -116 -14 -252 -46 -388h3c41 101 122 152 204 152c75 0 129 -41 129 -113
c0 -87 -61 -153 -185 -206l99 -112h66l-9 -102h-150z" />
    <glyph glyph-name="l" unicode="l" horiz-adv-x="296" 
d="M58 0l56 667h-79l9 102h210l-56 -667h63l-9 -102h-194z" />
    <glyph glyph-name="m" unicode="m" horiz-adv-x="926" 
d="M33 421l9 102h194c-3 -64 -11 -127 -26 -187h4c46 135 121 197 220 197c73 0 108 -59 108 -124c0 -10 -1 -20 -2 -29h3c31 79 98 153 187 153c67 0 122 -30 122 -143c0 -35 -2 -73 -7 -111l-22 -177h60l-9 -102h-200l36 247c7 46 10 86 10 112c0 41 -12 54 -30 54
c-33 0 -77 -45 -115 -120c-50 -98 -64 -191 -76 -293h-129l36 247c7 46 10 86 10 112c0 41 -12 54 -30 54c-33 0 -77 -45 -115 -120c-50 -98 -64 -191 -76 -293h-132c9 52 18 122 22 186l16 235h-68z" />
    <glyph glyph-name="n" unicode="n" horiz-adv-x="630" 
d="M378 0l36 247c7 46 10 86 10 112c0 41 -12 54 -30 54c-41 0 -85 -45 -123 -120c-50 -98 -64 -191 -76 -293h-132c9 52 18 122 22 186l16 235h-68l9 102h194c-3 -64 -11 -127 -26 -187h4c46 135 121 197 220 197c67 0 122 -30 122 -143c0 -35 -2 -73 -7 -111l-22 -177h60
l-9 -102h-200z" />
    <glyph glyph-name="o" unicode="o" horiz-adv-x="537" 
d="M24 233c0 203 117 300 269 300c116 0 220 -71 220 -243c0 -203 -117 -300 -268 -300c-117 0 -221 71 -221 243zM283 419c-77 0 -121 -63 -121 -179c0 -91 34 -136 92 -136c78 0 121 62 121 179c0 104 -38 136 -92 136z" />
    <glyph glyph-name="p" unicode="p" 
d="M268 98c92 0 157 117 157 234c0 48 -10 81 -39 81c-73 0 -163 -128 -185 -303c20 -8 45 -12 67 -12zM51 -149l49 570h-68l9 102h194c-4 -60 -12 -117 -27 -175h3c41 125 120 185 210 185c85 0 142 -69 142 -185c0 -195 -106 -358 -313 -358c-20 0 -43 2 -56 5l-11 -144
h64l-9 -102h-250l9 102h54z" />
    <glyph glyph-name="q" unicode="q" 
d="M174 189c0 -47 18 -79 41 -79c70 0 160 171 168 313c-16 4 -35 8 -51 8c-103 0 -158 -109 -158 -242zM275 -251l9 102h54c8 104 18 231 46 333h-3c-38 -123 -111 -194 -195 -194c-87 0 -150 61 -150 195c0 226 136 348 301 348c53 0 100 -9 142 -22h51
c-11 -57 -17 -113 -22 -173l-38 -487h64l-9 -102h-250z" />
    <glyph glyph-name="r" unicode="r" horiz-adv-x="444" 
d="M33 421l9 102h194c-5 -56 -11 -122 -23 -187h4c33 151 105 192 189 192c12 0 21 -1 33 -5l-18 -127c-7 1 -14 2 -21 2c-77 0 -157 -46 -198 -398h-132c6 56 13 123 16 178l15 243h-68z" />
    <glyph glyph-name="s" unicode="s" horiz-adv-x="500" 
d="M26 20l6 144h120c-1 -24 -3 -45 -3 -56c22 -9 48 -16 80 -16c62 0 89 28 89 60c0 89 -271 22 -271 210c0 107 83 171 226 171c61 0 120 -13 171 -31c0 -25 -4 -111 -4 -138h-114v54c-18 8 -41 13 -65 13c-66 0 -82 -26 -82 -51c0 -86 271 -22 271 -210
c0 -106 -81 -180 -225 -180c-67 0 -136 11 -199 30z" />
    <glyph glyph-name="t" unicode="t" horiz-adv-x="370" 
d="M113 523l10 112l132 10l-10 -122h139l-9 -102h-140l-14 -160c-3 -36 -8 -82 -8 -105c0 -38 17 -54 47 -54c29 0 59 13 92 28l-11 -110c-40 -18 -80 -26 -121 -26c-94 0 -139 48 -139 138c0 27 5 67 8 106l14 183h-70l9 102h71z" />
    <glyph glyph-name="u" unicode="u" horiz-adv-x="630" 
d="M43 421l9 102h208l-36 -250c-6 -45 -13 -92 -13 -120c0 -29 11 -43 31 -43c66 0 155 140 195 413h132c-13 -64 -23 -147 -30 -230l-16 -191h64l-9 -102h-186c6 71 16 134 32 189h-3c-51 -148 -134 -199 -216 -199c-79 0 -126 44 -126 147c0 31 7 90 12 139l15 145h-63z
" />
    <glyph glyph-name="v" unicode="v" horiz-adv-x="574" 
d="M35 523h204c-10 -94 -16 -189 -16 -271c0 -114 14 -142 44 -142c64 0 132 125 143 311h-71l9 102h200c-11 -255 -88 -533 -310 -533c-99 0 -153 56 -153 259c0 56 3 119 9 172h-68z" />
    <glyph glyph-name="w" unicode="w" horiz-adv-x="870" 
d="M39 523h212c-16 -114 -32 -266 -32 -325c0 -71 18 -88 49 -88c67 0 117 163 141 413h132c-12 -116 -26 -252 -26 -301c0 -83 16 -112 49 -112c60 0 111 121 128 311h-67l8 102h190c-15 -378 -126 -533 -278 -533c-103 0 -132 79 -132 155v20h-2
c-43 -129 -101 -175 -192 -175c-77 0 -138 41 -138 172c0 79 10 173 20 259h-71z" />
    <glyph glyph-name="x" unicode="x" horiz-adv-x="556" 
d="M355 0l-110 183l-98 -87h76l-9 -96h-212l9 96l188 162l-98 163h-69l9 102h156l112 -186l100 90h-70l9 96h206l-9 -96l-190 -165l96 -160h69l-9 -102h-156z" />
    <glyph glyph-name="y" unicode="y" horiz-adv-x="556" 
d="M17 421l10 102h179l73 -294c7 -27 13 -60 15 -91h2c6 36 27 82 45 127l65 162h-84l10 96h200l-10 -102l-127 -295c-147 -341 -222 -389 -326 -389c-27 0 -51 6 -74 12l8 108c20 -7 37 -12 56 -12c46 0 86 18 121 86l36 69l-135 421h-64z" />
    <glyph glyph-name="z" unicode="z" horiz-adv-x="519" 
d="M17 0l8 96l231 267c21 24 39 41 56 58h-141l-8 -60h-114l16 162h418l-8 -96l-240 -275c-14 -17 -32 -33 -49 -50h169l8 66h108l-16 -168h-438z" />
    <glyph glyph-name="braceleft" unicode="{" horiz-adv-x="333" 
d="M3 222l6 74c49 3 99 55 104 117l18 207c8 97 73 149 138 149h93l-6 -74h-27c-44 0 -58 -31 -62 -78l-18 -204c-7 -84 -63 -136 -117 -153v-2c46 -15 90 -59 90 -136c0 -23 -1 -47 -3 -65l-11 -126c-2 -18 -5 -43 -5 -58c0 -24 14 -50 50 -50h26l-6 -74h-93
c-60 0 -115 45 -115 129c0 11 3 37 5 63l11 123c2 24 3 46 3 60c0 52 -38 95 -81 98z" />
    <glyph glyph-name="bar" unicode="|" horiz-adv-x="222" 
d="M57 -250v1000h108v-1000h-108z" />
    <glyph glyph-name="braceright" unicode="}" horiz-adv-x="333" 
d="M-44 -251l6 74h27c44 0 58 31 62 78l18 204c7 84 63 136 117 153v2c-46 15 -90 59 -90 136c0 23 1 47 3 65l11 126c2 18 5 43 5 58c0 24 -14 50 -50 50h-26l6 74h93c60 0 115 -45 115 -129c0 -11 -3 -37 -5 -63l-11 -123c-2 -24 -3 -46 -3 -60c0 -52 38 -95 81 -98
l-6 -74c-49 -3 -99 -55 -104 -117l-18 -207c-8 -97 -73 -149 -138 -149h-93z" />
    <glyph glyph-name="asciitilde" unicode="~" horiz-adv-x="600" 
d="M105 160l-36 95c30 62 79 86 125 86c36 0 78 -17 116 -34c39 -17 75 -34 97 -34c39 0 61 33 88 73l36 -95c-37 -62 -81 -86 -125 -86c-82 0 -130 68 -217 68c-31 0 -62 -24 -84 -73z" />
    <glyph glyph-name="exclamdown" unicode="&#xa1;" horiz-adv-x="296" 
d="M20 -236l54 545h132l-30 -545h-156zM68 458c0 55 37 85 93 85c51 0 85 -28 85 -76c0 -56 -37 -86 -92 -86c-53 0 -86 28 -86 77z" />
    <glyph glyph-name="cent" unicode="&#xa2;" horiz-adv-x="592" 
d="M312 629h86l-8 -96c52 0 109 -8 146 -22l-12 -156h-102v70c-10 4 -27 7 -42 7l-27 -341c62 1 104 14 150 34l-10 -112c-36 -20 -96 -28 -150 -30l-10 -122h-86l10 122c-130 17 -194 111 -194 241c0 211 139 306 241 309zM268 107l26 318c-55 -22 -93 -73 -93 -185
c0 -65 23 -114 67 -133z" />
    <glyph glyph-name="sterling" unicode="&#xa3;" horiz-adv-x="592" 
d="M0 0l9 102h55c37 51 41 129 41 206h-89l9 102h80v49c0 193 134 258 287 258c64 0 129 -14 180 -29v-176h-114v90c-22 4 -43 7 -63 7c-95 0 -158 -35 -158 -149v-50h152l-9 -102h-143c0 -91 -6 -144 -41 -206h218l14 96h114l-18 -198h-524z" />
    <glyph glyph-name="fraction" unicode="&#x2044;" horiz-adv-x="167" 
d="M-293 -17l684 791l69 -57l-684 -791z" />
    <glyph glyph-name="yen" unicode="&#xa5;" horiz-adv-x="592" 
d="M165 0l10 102h48l6 73h-147l10 86h144l2 12l-15 29h-127l10 86h72l-111 210h-45l9 102h235l-9 -102h-46l104 -219l147 219h-66l9 102h225l-9 -102h-45l-144 -210h88l-10 -86h-136l-16 -24l-2 -17h150l-10 -86h-147l-6 -73h56l-9 -102h-225z" />
    <glyph glyph-name="florin" unicode="&#x192;" horiz-adv-x="592" 
d="M571 700l-13 -94c-25 7 -43 9 -60 9c-82 0 -136 -32 -136 -217h125l-9 -102h-120l-16 -243c-12 -181 -99 -251 -226 -251c-31 0 -67 8 -84 13l10 105c19 -8 36 -10 53 -10c52 0 103 19 115 174l16 212h-87l9 102h82c0 161 32 319 240 319c43 0 74 -7 101 -17z" />
    <glyph glyph-name="section" unicode="&#xa7;" horiz-adv-x="592" 
d="M54 -176v154h114v-70c27 -6 56 -13 81 -13c80 0 113 35 113 77c0 32 -21 57 -100 95c-144 69 -188 124 -188 189c0 62 29 119 119 149c-70 35 -95 72 -95 132c0 86 65 180 236 180c73 0 135 -11 191 -31v-144h-114v62c-28 6 -51 11 -78 11c-67 0 -103 -23 -103 -67
c0 -32 12 -44 119 -101c146 -78 169 -114 169 -180c0 -68 -39 -125 -121 -140v-2c65 -34 97 -82 97 -139c0 -109 -94 -193 -245 -193c-76 0 -137 10 -195 31zM236 227l97 -56c34 13 59 46 59 75c0 22 -6 43 -70 78l-59 32c-42 -13 -63 -44 -63 -74c0 -22 11 -41 36 -55z" />
    <glyph glyph-name="currency" unicode="&#xa4;" horiz-adv-x="592" 
d="M440 552l59 57l62 -60l-60 -60c28 -40 43 -87 43 -139s-15 -99 -43 -139l60 -60l-62 -60l-59 57c-41 -29 -91 -46 -144 -46s-103 17 -144 46l-59 -57l-62 60l60 60c-28 40 -43 87 -43 139s15 99 43 139l-60 60l62 60l59 -57c41 29 91 46 144 46s103 -17 144 -46zM436 350
c0 89 -63 146 -140 146s-140 -57 -140 -146s63 -146 140 -146s140 57 140 146z" />
    <glyph glyph-name="quotesingle" unicode="'" horiz-adv-x="296" 
d="M208 594l-12 -133c-4 -41 -18 -63 -48 -63s-44 22 -48 63l-12 133c-3 35 -6 80 -6 111c0 42 18 79 66 79s66 -37 66 -79c0 -31 -3 -76 -6 -111z" />
    <glyph glyph-name="quotedblleft" unicode="&#x201c;" horiz-adv-x="537" 
d="M514 784l44 -80c-76 -36 -104 -71 -104 -109c0 -44 44 -70 44 -117c0 -48 -39 -80 -84 -80c-54 0 -104 41 -104 130s50 186 204 256zM273 784l44 -80c-76 -36 -104 -71 -104 -109c0 -44 44 -70 44 -117c0 -48 -39 -80 -84 -80c-54 0 -104 41 -104 130s50 186 204 256z
" />
    <glyph glyph-name="guillemotleft" unicode="&#xab;" horiz-adv-x="537" 
d="M33 258l8 89l158 148l76 -77l-127 -120l103 -125l-88 -72zM274 258l8 89l158 148l76 -77l-127 -120l103 -125l-88 -72z" />
    <glyph glyph-name="guilsinglleft" unicode="&#x2039;" horiz-adv-x="296" 
d="M41 347l158 148l76 -77l-127 -120l103 -125l-88 -72l-130 157z" />
    <glyph glyph-name="guilsinglright" unicode="&#x203a;" horiz-adv-x="296" 
d="M97 101l-76 77l127 120l-103 125l88 72l130 -157l-8 -89z" />
    <glyph glyph-name="endash" unicode="&#x2013;" horiz-adv-x="500" 
d="M-4 244l8 108h500l-8 -108h-500z" />
    <glyph glyph-name="dagger" unicode="&#x2020;" horiz-adv-x="592" 
d="M265 700h120l-18 -206h211l-9 -102h-211l-51 -582h-120l51 582h-211l9 102h211z" />
    <glyph glyph-name="daggerdbl" unicode="&#x2021;" horiz-adv-x="592" 
d="M264 700h120l-20 -236h211l-9 -102h-211l-18 -214h211l-9 -102h-211l-21 -236h-120l21 236h-211l9 102h211l18 214h-211l9 102h211z" />
    <glyph glyph-name="periodcentered" unicode="&#xb7;" horiz-adv-x="296" 
d="M64 266c0 46 38 84 84 84s84 -38 84 -84s-38 -84 -84 -84s-84 38 -84 84z" />
    <glyph glyph-name="paragraph" unicode="&#xb6;" horiz-adv-x="600" 
d="M375 -190l72 822h-100l-72 -822h-99l45 519c-100 0 -170 73 -170 163c0 136 96 208 251 208h250l-78 -890h-99z" />
    <glyph glyph-name="bullet" unicode="&#x2022;" horiz-adv-x="500" 
d="M75 350c0 97 78 175 175 175s175 -78 175 -175s-78 -175 -175 -175s-175 78 -175 175z" />
    <glyph glyph-name="quotesinglbase" unicode="&#x201a;" horiz-adv-x="296" 
d="M25 -226l-44 80c76 36 104 71 104 109c0 44 -44 70 -44 117c0 48 39 80 84 80c54 0 104 -41 104 -130s-50 -186 -204 -256z" />
    <glyph glyph-name="quotedblbase" unicode="&#x201e;" horiz-adv-x="537" 
d="M23 -226l-44 80c76 36 104 71 104 109c0 44 -44 70 -44 117c0 48 39 80 84 80c54 0 104 -41 104 -130s-50 -186 -204 -256zM264 -226l-44 80c76 36 104 71 104 109c0 44 -44 70 -44 117c0 48 39 80 84 80c54 0 104 -41 104 -130s-50 -186 -204 -256z" />
    <glyph glyph-name="quotedblright" unicode="&#x201d;" horiz-adv-x="537" 
d="M68 398l-44 80c76 36 104 71 104 109c0 44 -44 70 -44 117c0 48 39 80 84 80c54 0 104 -41 104 -130s-50 -186 -204 -256zM309 398l-44 80c76 36 104 71 104 109c0 44 -44 70 -44 117c0 48 39 80 84 80c54 0 104 -41 104 -130s-50 -186 -204 -256z" />
    <glyph glyph-name="guillemotright" unicode="&#xbb;" horiz-adv-x="537" 
d="M338 101l-76 77l127 120l-103 125l88 72l130 -157l-8 -89zM97 101l-76 77l127 120l-103 125l88 72l130 -157l-8 -89z" />
    <glyph glyph-name="ellipsis" unicode="&#x2026;" horiz-adv-x="1000" 
d="M78 66c0 56 37 86 92 86c53 0 86 -28 86 -77c0 -55 -37 -85 -93 -85c-51 0 -85 28 -85 76zM411 66c0 56 37 86 92 86c53 0 86 -28 86 -77c0 -55 -37 -85 -93 -85c-51 0 -85 28 -85 76zM744 66c0 56 37 86 92 86c53 0 86 -28 86 -77c0 -55 -37 -85 -93 -85
c-51 0 -85 28 -85 76z" />
    <glyph glyph-name="perthousand" unicode="&#x2030;" horiz-adv-x="1167" 
d="M886 137c0 -54 24 -68 54 -68c33 0 66 34 66 94c0 54 -24 68 -54 68c-33 0 -66 -34 -66 -94zM31 -17l684 791l69 -57l-684 -791zM169 537c0 -54 24 -68 54 -68c33 0 66 34 66 94c0 54 -24 68 -54 68c-33 0 -66 -34 -66 -94zM784 135c0 110 72 182 174 182
c73 0 150 -43 150 -152c0 -110 -72 -182 -174 -182c-73 0 -150 43 -150 152zM67 535c0 110 72 182 174 182c73 0 150 -43 150 -152c0 -110 -72 -182 -174 -182c-73 0 -150 43 -150 152zM526 137c0 -54 24 -68 54 -68c33 0 66 34 66 94c0 54 -24 68 -54 68
c-33 0 -66 -34 -66 -94zM424 135c0 110 72 182 174 182c73 0 150 -43 150 -152c0 -110 -72 -182 -174 -182c-73 0 -150 43 -150 152z" />
    <glyph glyph-name="questiondown" unicode="&#xbf;" horiz-adv-x="481" 
d="M237 291l123 37c18 -26 32 -58 32 -91c0 -48 -20 -83 -78 -117l-114 -66c-53 -31 -76 -63 -76 -103c0 -52 46 -88 142 -88c38 0 78 8 118 22l-9 -114c-53 -13 -105 -22 -157 -22c-135 0 -244 59 -244 189c0 201 280 213 280 310c0 16 -5 28 -17 43zM231 458
c0 55 37 85 93 85c51 0 85 -28 85 -76c0 -56 -37 -86 -92 -86c-53 0 -86 28 -86 77z" />
    <glyph glyph-name="grave" unicode="`" horiz-adv-x="278" 
d="M116 801l191 -171l-80 -57l-196 165z" />
    <glyph glyph-name="acute" unicode="&#xb4;" horiz-adv-x="278" 
d="M23 641l221 160l79 -63l-233 -165z" />
    <glyph glyph-name="circumflex" unicode="&#x2c6;" horiz-adv-x="278" 
d="M-36 679l179 122h90l157 -122l-88 -64l-123 96l-141 -96z" />
    <glyph glyph-name="tilde" unicode="&#x2dc;" horiz-adv-x="278" 
d="M56 615l-87 34c29 68 72 113 132 113c32 0 60 -15 84 -31s46 -31 65 -31c21 0 37 13 58 50l75 -50c-42 -69 -81 -96 -130 -96c-48 0 -116 62 -149 62c-21 0 -38 -22 -48 -51z" />
    <glyph glyph-name="macron" unicode="&#xaf;" horiz-adv-x="278" 
d="M15 639l8 102h303l-8 -102h-303z" />
    <glyph glyph-name="breve" unicode="&#x2d8;" horiz-adv-x="278" 
d="M-31 755l97 36c21 -72 57 -100 115 -100c60 0 97 36 115 100l90 -45c-53 -106 -119 -151 -215 -151c-105 0 -168 59 -202 160z" />
    <glyph glyph-name="dotaccent" unicode="&#x2d9;" horiz-adv-x="278" 
d="M71 681c0 43 33 81 86 81c49 0 82 -33 82 -75c0 -43 -33 -81 -87 -81c-48 0 -81 33 -81 75z" />
    <glyph glyph-name="dieresis" unicode="&#xa8;" horiz-adv-x="278" 
d="M-34 681c0 43 33 81 86 81c49 0 82 -33 82 -75c0 -43 -33 -81 -87 -81c-48 0 -81 33 -81 75zM187 681c0 43 33 81 86 81c49 0 82 -33 82 -75c0 -43 -33 -81 -87 -81c-48 0 -81 33 -81 75z" />
    <glyph glyph-name="ring" unicode="&#x2da;" horiz-adv-x="278" 
d="M116 684c0 -31 16 -48 38 -48c23 0 48 19 48 61c0 33 -16 50 -38 50c-23 0 -48 -19 -48 -63zM48 682c0 74 57 115 120 115c56 0 102 -35 102 -102c0 -74 -57 -115 -120 -115c-56 0 -102 35 -102 102z" />
    <glyph glyph-name="cedilla" unicode="&#xb8;" horiz-adv-x="278" 
d="M97 -128l17 138h74l-11 -88c66 -2 95 -34 95 -83c0 -60 -55 -111 -161 -111c-42 0 -79 9 -111 21l16 64c33 -9 63 -17 89 -17c47 0 65 15 65 36c0 24 -10 39 -73 40z" />
    <glyph glyph-name="hungarumlaut" unicode="&#x2dd;" horiz-adv-x="278" 
d="M-95 641l221 160l79 -63l-233 -165zM141 641l221 160l79 -63l-233 -165z" />
    <glyph glyph-name="ogonek" unicode="&#x2db;" horiz-adv-x="278" 
d="M261 -187l12 -64c-25 -13 -60 -21 -89 -21c-71 0 -118 33 -118 104c0 79 70 135 118 168h74c-54 -46 -90 -103 -90 -150c0 -27 13 -48 41 -48c22 0 38 4 52 11z" />
    <glyph glyph-name="caron" unicode="&#x2c7;" horiz-adv-x="278" 
d="M118 615l-146 125l86 61l114 -96l135 96l75 -61l-168 -125h-96z" />
    <glyph glyph-name="emdash" unicode="&#x2014;" horiz-adv-x="1000" 
d="M996 244h-1000l8 108h1000z" />
    <glyph glyph-name="AE" unicode="&#xc6;" horiz-adv-x="981" 
d="M-20 0l9 102h46l365 598h541l-12 -198h-108v96h-161l-17 -204h172l-9 -102h-172l-16 -190h194l12 96h114l-18 -198h-501l9 102h52l16 190h-214l-109 -190h66l-9 -102h-250zM457 598l-117 -204h165l17 204h-65z" />
    <glyph glyph-name="ordfeminine" unicode="&#xaa;" horiz-adv-x="385" 
d="M116 509c0 -20 12 -39 27 -39c45 0 104 103 109 168c-10 2 -23 5 -33 5c-67 0 -103 -66 -103 -134zM330 472h41l-6 -74h-127c4 38 11 80 21 117h-2c-28 -87 -78 -125 -133 -125c-69 0 -110 37 -110 117c0 141 89 210 208 210c35 0 65 -6 92 -11h43c-6 -24 -9 -45 -11 -66
z" />
    <glyph glyph-name="Lslash" unicode="&#x141;" horiz-adv-x="556" 
d="M30 0l9 102h52l11 121l-60 -42l7 108l62 44l23 265h-66l9 102h256l-9 -102h-52l-14 -162l159 111l-7 -108l-162 -113l-19 -224h169l14 96h114l-16 -198h-480z" />
    <glyph glyph-name="Oslash" unicode="&#xd8;" horiz-adv-x="722" 
d="M104 -102l-69 48l83 122c-64 64 -92 158 -92 250c0 225 135 399 355 399c61 0 112 -13 154 -34l81 119l71 -45l-84 -124c64 -64 93 -158 93 -251c0 -225 -135 -399 -355 -399c-62 0 -114 13 -156 35zM200 189l264 390c-24 16 -54 24 -88 24c-127 0 -200 -121 -200 -286
c0 -51 8 -94 24 -128zM521 513l-265 -390c25 -18 55 -26 90 -26c127 0 200 121 200 286c0 53 -9 96 -25 130z" />
    <glyph glyph-name="OE" unicode="&#x152;" horiz-adv-x="981" 
d="M484 104l40 497c-20 2 -43 3 -67 3c-172 0 -281 -97 -281 -280c0 -146 74 -228 224 -228c33 0 61 3 84 8zM803 102l13 96h114l-14 -198h-414c-24 0 -46 -1 -69 -3s-46 -3 -71 -3c-198 0 -336 106 -336 320c0 131 50 254 158 328c70 48 145 64 261 64c34 0 67 -1 99 -3
c31 -2 62 -3 92 -3h319l-12 -198h-108v96h-173l-15 -184h177l-9 -102h-177l-16 -210h181z" />
    <glyph glyph-name="ordmasculine" unicode="&#xba;" horiz-adv-x="385" 
d="M36 536c0 123 76 181 184 181c86 0 153 -43 153 -147c0 -122 -76 -180 -184 -180c-86 0 -153 43 -153 146zM138 540c0 -51 26 -70 57 -70c48 0 76 38 76 96c0 52 -25 71 -57 71c-47 0 -76 -37 -76 -97z" />
    <glyph glyph-name="ae" unicode="&#xe6;" horiz-adv-x="796" 
d="M744 144l-18 -120c-47 -22 -102 -34 -165 -34c-114 0 -185 37 -186 179h-2c-35 -111 -95 -179 -187 -179c-87 0 -150 61 -150 195c0 226 136 348 301 348c67 0 118 -20 157 -53c32 33 82 53 138 53c88 0 148 -55 148 -126c0 -101 -95 -193 -289 -209c0 -74 37 -94 93 -94
c57 0 112 18 160 40zM174 200c0 -57 15 -90 42 -90c69 0 159 171 167 313c-16 4 -35 8 -51 8c-102 0 -158 -108 -158 -231zM595 431c-66 0 -97 -52 -102 -137c110 10 149 53 149 95c0 27 -19 42 -47 42z" />
    <glyph glyph-name="dotlessi" unicode="&#x131;" horiz-adv-x="296" 
d="M58 0l35 421h-63l9 102h194l-35 -421h63l-9 -102h-194z" />
    <glyph glyph-name="lslash" unicode="&#x142;" horiz-adv-x="296" 
d="M261 102l-9 -102h-194l24 284l-80 -72l9 114l80 72l23 269h-79l9 102h210l-20 -243l80 72l-9 -114l-80 -72l-27 -310h63z" />
    <glyph glyph-name="oslash" unicode="&#xf8;" horiz-adv-x="537" 
d="M84 -92l-70 46l68 102c-35 38 -58 96 -58 177c0 203 117 300 269 300c33 0 65 -6 93 -18l67 100l70 -47l-68 -102c36 -38 58 -96 58 -176c0 -203 -117 -300 -268 -300c-33 0 -66 6 -94 18zM167 184l152 229c-11 4 -23 6 -36 6c-77 0 -121 -63 -121 -179
c0 -22 2 -41 5 -56zM370 338l-151 -228c11 -4 22 -6 35 -6c78 0 121 62 121 179c0 21 -2 39 -5 55z" />
    <glyph glyph-name="oe" unicode="&#x153;" horiz-adv-x="815" 
d="M771 144l-18 -120c-48 -23 -102 -34 -168 -34c-85 0 -163 27 -178 105h-2c-18 -58 -88 -105 -176 -105c-101 0 -205 71 -205 243c0 203 117 300 260 300c84 0 151 -44 165 -120h2c35 83 105 120 194 120c112 0 162 -55 162 -126c0 -101 -95 -193 -311 -209
c3 -73 57 -94 115 -94c57 0 112 18 160 40zM376 283c0 104 -38 136 -92 136c-78 0 -122 -63 -122 -179c0 -105 40 -136 93 -136c78 0 121 62 121 179zM618 431c-77 0 -116 -68 -122 -147c134 18 173 61 173 105c0 27 -20 42 -51 42z" />
    <glyph glyph-name="germandbls" unicode="&#xdf;" horiz-adv-x="667" 
d="M-114 -251l10 107c14 -8 33 -11 48 -11c76 0 107 39 119 178l42 498c17 198 105 263 272 263c131 0 226 -54 226 -160c0 -134 -160 -164 -160 -230c0 -77 197 -74 197 -227c0 -103 -79 -177 -219 -177c-68 0 -127 13 -160 29l12 139h108v-57c11 -7 28 -9 48 -9
c64 0 85 30 85 60c0 83 -203 75 -203 218c0 126 172 153 172 234c0 45 -41 72 -112 72c-78 0 -121 -40 -129 -135l-49 -561c-13 -147 -70 -243 -222 -243c-29 0 -58 4 -85 12z" />
    <glyph glyph-name="logicalnot" unicode="&#xac;" horiz-adv-x="600" 
d="M445 103v192h-398v108h506v-300h-108z" />
    <glyph glyph-name="mu" unicode="&#xb5;" horiz-adv-x="630" 
d="M37 -251l69 672h-63l9 102h208l-36 -250c-6 -45 -13 -92 -13 -120c0 -29 11 -43 31 -43c66 0 155 140 195 413h132c-13 -64 -23 -147 -30 -230l-16 -191h64l-9 -102h-186c6 71 16 134 32 189h-3c-51 -148 -142 -199 -192 -199c-20 0 -36 9 -42 26h-2l-28 -267h-120z" />
    <glyph glyph-name="trademark" unicode="&#x2122;" horiz-adv-x="990" 
d="M141 284v348h-123v68h332v-68h-123v-348h-86zM663 404l111 296h126v-416h-86v330h-2l-121 -330h-56l-121 330h-2v-330h-86v416h126z" />
    <glyph glyph-name="Eth" unicode="&#xd0;" horiz-adv-x="741" 
d="M19 0l9 102h52l18 210h-59l9 102h59l16 184h-66l9 102h303c224 0 340 -109 340 -302c0 -236 -142 -398 -379 -398h-311zM261 598l-16 -184h171l-9 -102h-171l-18 -210h109c163 0 238 136 238 285c0 172 -105 211 -211 211h-93z" />
    <glyph glyph-name="onehalf" unicode="&#xbd;" horiz-adv-x="889" 
d="M59 -17l684 791l69 -57l-684 -791zM505 0l6 68c102 56 253 171 253 238c0 26 -24 47 -58 47c-37 0 -70 -20 -76 -60h-92c15 95 81 140 176 140c87 0 152 -36 152 -113c0 -80 -97 -175 -227 -244v-2c16 3 39 6 56 6h157l-6 -80h-341zM23 284l7 68h83l27 266l-2 2
c-7 -7 -15 -13 -26 -20l-81 -47l-34 59l153 88h98l-33 -348h91l-7 -68h-276z" />
    <glyph glyph-name="plusminus" unicode="&#xb1;" horiz-adv-x="600" 
d="M47 267v108h199v131h108v-131h199v-108h-199v-131h-108v131h-199zM47 0v108h506v-108h-506z" />
    <glyph glyph-name="Thorn" unicode="&#xde;" horiz-adv-x="574" 
d="M19 0l9 102h52l43 496h-66l9 102h256l-9 -102h-52l-4 -40h55c158 0 243 -61 243 -185c0 -112 -89 -217 -258 -217h-74l-5 -54h66l-9 -102h-256zM249 456l-18 -198h71c70 0 121 44 121 110c0 60 -48 88 -117 88h-57z" />
    <glyph glyph-name="onequarter" unicode="&#xbc;" horiz-adv-x="889" 
d="M691 186l16 148l-2 2l-138 -151l2 -2c6 2 14 3 22 3h100zM639 0l6 74h36l4 38h-215l5 78l202 226h138l-22 -230h73l-6 -74h-73l-4 -38h48l-6 -74h-186zM91 -17l684 791l69 -57l-684 -791zM49 284l7 68h83l27 266l-2 2c-7 -7 -15 -13 -26 -20l-81 -47l-34 59l153 88h98
l-33 -348h91l-7 -68h-276z" />
    <glyph glyph-name="divide" unicode="&#xf7;" horiz-adv-x="600" 
d="M47 199v108h506v-108h-506zM216 46c0 46 38 84 84 84s84 -38 84 -84s-38 -84 -84 -84s-84 38 -84 84zM216 460c0 46 38 84 84 84s84 -38 84 -84s-38 -84 -84 -84s-84 38 -84 84z" />
    <glyph glyph-name="brokenbar" unicode="&#xa6;" horiz-adv-x="222" 
d="M57 -175v350h108v-350h-108zM57 325v350h108v-350h-108z" />
    <glyph glyph-name="degree" unicode="&#xb0;" horiz-adv-x="400" 
d="M70 574c0 79 64 143 143 143s143 -64 143 -143s-64 -143 -143 -143s-143 64 -143 143zM150 574c0 -35 28 -63 63 -63s63 28 63 63s-28 63 -63 63s-63 -28 -63 -63z" />
    <glyph glyph-name="thorn" unicode="&#xfe;" 
d="M268 98c92 0 157 117 157 234c0 48 -10 81 -39 81c-73 0 -163 -128 -185 -303c20 -8 45 -12 67 -12zM51 -149l68 816h-79l9 102h210l-21 -252c-5 -58 -12 -105 -30 -169h3c41 125 120 185 210 185c85 0 142 -69 142 -185c0 -195 -106 -358 -313 -358c-20 0 -43 2 -56 5
l-11 -144h64l-9 -102h-250l9 102h54z" />
    <glyph glyph-name="threequarters" unicode="&#xbe;" horiz-adv-x="889" 
d="M691 186l16 148l-2 2l-138 -151l2 -2c6 2 14 3 22 3h100zM639 0l6 74h36l4 38h-215l5 78l202 226h138l-22 -230h73l-6 -74h-73l-4 -38h48l-6 -74h-186zM91 -17l684 791l69 -57l-684 -791zM122 459l6 74c94 0 139 35 139 68c0 22 -22 36 -52 36c-35 0 -64 -16 -77 -48h-86
c8 84 87 128 169 128c91 0 148 -38 148 -104c0 -51 -48 -96 -124 -102v-2c83 -5 120 -45 120 -100c0 -64 -55 -135 -200 -135c-59 0 -103 9 -149 28l6 84c36 -20 89 -32 132 -32c70 0 103 28 103 49c0 45 -54 56 -135 56z" />
    <glyph glyph-name="registered" unicode="&#xae;" horiz-adv-x="800" 
d="M483 140l-105 177h-61v-177h-74v420h162c104 0 158 -36 158 -121c0 -76 -48 -108 -108 -119l114 -180h-86zM317 379h75c76 0 97 20 97 63c0 41 -36 56 -95 56h-77v-119zM33 350c0 203 164 367 367 367s367 -164 367 -367s-164 -367 -367 -367s-367 164 -367 367zM129 350
c0 -163 123 -281 271 -281s271 118 271 281s-123 281 -271 281s-271 -118 -271 -281z" />
    <glyph glyph-name="minus" unicode="&#x2212;" horiz-adv-x="600" 
d="M47 199v108h506v-108h-506z" />
    <glyph glyph-name="eth" unicode="&#xf0;" horiz-adv-x="537" 
d="M162 240c0 -105 39 -136 92 -136c78 0 121 62 121 179c0 104 -38 136 -92 136c-77 0 -121 -63 -121 -179zM162 591l-56 51l90 39c-37 21 -73 34 -102 37l84 80c50 -19 93 -41 131 -67l105 47l48 -54l-91 -40c107 -101 142 -230 142 -368c0 -254 -128 -326 -268 -326
c-117 0 -221 71 -221 243c0 203 130 300 250 300c39 0 72 -11 98 -39l2 2c-21 49 -71 113 -110 140z" />
    <glyph glyph-name="multiply" unicode="&#xd7;" horiz-adv-x="600" 
d="M62 415l76 76l162 -163l162 163l76 -76l-163 -162l163 -162l-76 -76l-162 163l-162 -163l-76 76l163 162z" />
    <glyph glyph-name="copyright" unicode="&#xa9;" horiz-adv-x="800" 
d="M508 286h86c-20 -98 -93 -157 -190 -157c-120 0 -200 86 -200 222s81 221 207 221c90 0 163 -54 177 -152h-80c-9 47 -41 78 -99 78c-76 0 -119 -64 -119 -147c0 -85 44 -148 123 -148c49 0 89 30 95 83zM33 350c0 203 164 367 367 367s367 -164 367 -367
s-164 -367 -367 -367s-367 164 -367 367zM129 350c0 -163 123 -281 271 -281s271 118 271 281s-123 281 -271 281s-271 -118 -271 -281z" />
    <glyph glyph-name="Aacute" unicode="&#xc1;" horiz-adv-x="722" 
d="M276 344h170l-49 200c-6 23 -10 45 -12 66h-2c-4 -25 -12 -44 -22 -67zM35 102l284 604h162l175 -604h52l-9 -102h-250l9 102h48l-35 140h-238l-60 -140h66l-9 -102h-250l9 102h46zM255 783l221 160l79 -63l-233 -165z" />
    <glyph glyph-name="Acircumflex" unicode="&#xc2;" horiz-adv-x="722" 
d="M276 344h170l-49 200c-6 23 -10 45 -12 66h-2c-4 -25 -12 -44 -22 -67zM35 102l284 604h162l175 -604h52l-9 -102h-250l9 102h48l-35 140h-238l-60 -140h66l-9 -102h-250l9 102h46zM186 821l179 122h90l157 -122l-88 -64l-123 96l-141 -96z" />
    <glyph glyph-name="Adieresis" unicode="&#xc4;" horiz-adv-x="722" 
d="M276 344h170l-49 200c-6 23 -10 45 -12 66h-2c-4 -25 -12 -44 -22 -67zM35 102l284 604h162l175 -604h52l-9 -102h-250l9 102h48l-35 140h-238l-60 -140h66l-9 -102h-250l9 102h46zM200 823c0 43 33 81 86 81c49 0 82 -33 82 -75c0 -43 -33 -81 -87 -81
c-48 0 -81 33 -81 75zM421 823c0 43 33 81 86 81c49 0 82 -33 82 -75c0 -43 -33 -81 -87 -81c-48 0 -81 33 -81 75z" />
    <glyph glyph-name="Agrave" unicode="&#xc0;" horiz-adv-x="722" 
d="M276 344h170l-49 200c-6 23 -10 45 -12 66h-2c-4 -25 -12 -44 -22 -67zM35 102l284 604h162l175 -604h52l-9 -102h-250l9 102h48l-35 140h-238l-60 -140h66l-9 -102h-250l9 102h46zM338 943l191 -171l-80 -57l-196 165z" />
    <glyph glyph-name="Aring" unicode="&#xc5;" horiz-adv-x="722" 
d="M276 344h170l-49 200c-6 23 -10 45 -12 66h-2c-4 -25 -12 -44 -22 -67zM35 102l284 604h162l175 -604h52l-9 -102h-250l9 102h48l-35 140h-238l-60 -140h66l-9 -102h-250l9 102h46zM356 826c0 -31 16 -48 38 -48c23 0 48 19 48 61c0 33 -16 50 -38 50
c-23 0 -48 -19 -48 -63zM288 824c0 74 57 115 120 115c56 0 102 -35 102 -102c0 -74 -57 -115 -120 -115c-56 0 -102 35 -102 102z" />
    <glyph glyph-name="Atilde" unicode="&#xc3;" horiz-adv-x="722" 
d="M276 344h170l-49 200c-6 23 -10 45 -12 66h-2c-4 -25 -12 -44 -22 -67zM35 102l284 604h162l175 -604h52l-9 -102h-250l9 102h48l-35 140h-238l-60 -140h66l-9 -102h-250l9 102h46zM278 757l-87 34c29 68 72 113 132 113c32 0 60 -15 84 -31s46 -31 65 -31
c21 0 37 13 58 50l75 -50c-42 -69 -81 -96 -130 -96c-48 0 -116 62 -149 62c-21 0 -38 -22 -48 -51z" />
    <glyph glyph-name="Ccedilla" unicode="&#xc7;" horiz-adv-x="630" 
d="M220 -251l16 64c33 -9 63 -17 89 -17c47 0 65 15 65 36c0 24 -10 39 -73 40l14 111c-222 18 -297 170 -297 333c0 236 134 401 389 401c63 0 135 -10 203 -27l-12 -176h-108v85c-24 6 -53 10 -85 10c-176 0 -237 -136 -237 -285c0 -176 91 -227 211 -227c26 0 49 4 77 12
l16 89h108l-16 -180c-61 -18 -122 -30 -175 -35l-8 -61c66 -2 95 -34 95 -83c0 -60 -55 -111 -161 -111c-42 0 -79 9 -111 21z" />
    <glyph glyph-name="Eacute" unicode="&#xc9;" 
d="M57 598l9 102h501l-12 -198h-108v96h-186l-16 -184h189l-9 -102h-189l-18 -210h194l12 96h114l-18 -198h-501l9 102h52l43 496h-66zM181 783l221 160l79 -63l-233 -165z" />
    <glyph glyph-name="Ecircumflex" unicode="&#xca;" 
d="M57 598l9 102h501l-12 -198h-108v96h-186l-16 -184h189l-9 -102h-189l-18 -210h194l12 96h114l-18 -198h-501l9 102h52l43 496h-66zM122 821l179 122h90l157 -122l-88 -64l-123 96l-141 -96z" />
    <glyph glyph-name="Edieresis" unicode="&#xcb;" 
d="M57 598l9 102h501l-12 -198h-108v96h-186l-16 -184h189l-9 -102h-189l-18 -210h194l12 96h114l-18 -198h-501l9 102h52l43 496h-66zM124 823c0 43 33 81 86 81c49 0 82 -33 82 -75c0 -43 -33 -81 -87 -81c-48 0 -81 33 -81 75zM345 823c0 43 33 81 86 81
c49 0 82 -33 82 -75c0 -43 -33 -81 -87 -81c-48 0 -81 33 -81 75z" />
    <glyph glyph-name="Egrave" unicode="&#xc8;" 
d="M57 598l9 102h501l-12 -198h-108v96h-186l-16 -184h189l-9 -102h-189l-18 -210h194l12 96h114l-18 -198h-501l9 102h52l43 496h-66zM274 943l191 -171l-80 -57l-196 165z" />
    <glyph glyph-name="Iacute" unicode="&#xcd;" horiz-adv-x="333" 
d="M15 0l9 102h52l43 496h-66l9 102h256l-9 -102h-52l-43 -496h66l-9 -102h-256zM51 783l221 160l79 -63l-233 -165z" />
    <glyph glyph-name="Icircumflex" unicode="&#xce;" horiz-adv-x="333" 
d="M15 0l9 102h52l43 496h-66l9 102h256l-9 -102h-52l-43 -496h66l-9 -102h-256zM-8 821l179 122h90l157 -122l-88 -64l-123 96l-141 -96z" />
    <glyph glyph-name="Idieresis" unicode="&#xcf;" horiz-adv-x="333" 
d="M15 0l9 102h52l43 496h-66l9 102h256l-9 -102h-52l-43 -496h66l-9 -102h-256zM-6 823c0 43 33 81 86 81c49 0 82 -33 82 -75c0 -43 -33 -81 -87 -81c-48 0 -81 33 -81 75zM215 823c0 43 33 81 86 81c49 0 82 -33 82 -75c0 -43 -33 -81 -87 -81c-48 0 -81 33 -81 75z" />
    <glyph glyph-name="Igrave" unicode="&#xcc;" horiz-adv-x="333" 
d="M15 0l9 102h52l43 496h-66l9 102h256l-9 -102h-52l-43 -496h66l-9 -102h-256zM144 943l191 -171l-80 -57l-196 165z" />
    <glyph glyph-name="Ntilde" unicode="&#xd1;" horiz-adv-x="778" 
d="M15 0l9 102h52l43 496h-66l9 102h175l298 -436c8 -12 14 -24 20 -38h2l31 372h-66l9 102h232l-9 -102h-52l-51 -598h-114l-297 437c-9 13 -15 28 -18 36h-2l-30 -371h66l-9 -102h-232zM306 757l-87 34c29 68 72 113 132 113c32 0 60 -15 84 -31s46 -31 65 -31
c21 0 37 13 58 50l75 -50c-42 -69 -81 -96 -130 -96c-48 0 -116 62 -149 62c-21 0 -38 -22 -48 -51z" />
    <glyph glyph-name="Oacute" unicode="&#xd3;" horiz-adv-x="722" 
d="M176 317c0 -143 64 -220 170 -220c127 0 200 121 200 286c0 143 -64 220 -170 220c-127 0 -200 -121 -200 -286zM26 318c0 225 135 399 355 399c224 0 315 -169 315 -335c0 -225 -135 -399 -355 -399c-224 0 -315 169 -315 335zM245 783l221 160l79 -63l-233 -165z" />
    <glyph glyph-name="Ocircumflex" unicode="&#xd4;" horiz-adv-x="722" 
d="M176 317c0 -143 64 -220 170 -220c127 0 200 121 200 286c0 143 -64 220 -170 220c-127 0 -200 -121 -200 -286zM26 318c0 225 135 399 355 399c224 0 315 -169 315 -335c0 -225 -135 -399 -355 -399c-224 0 -315 169 -315 335zM186 821l179 122h90l157 -122l-88 -64
l-123 96l-141 -96z" />
    <glyph glyph-name="Odieresis" unicode="&#xd6;" horiz-adv-x="722" 
d="M176 317c0 -143 64 -220 170 -220c127 0 200 121 200 286c0 143 -64 220 -170 220c-127 0 -200 -121 -200 -286zM26 318c0 225 135 399 355 399c224 0 315 -169 315 -335c0 -225 -135 -399 -355 -399c-224 0 -315 169 -315 335zM188 823c0 43 33 81 86 81
c49 0 82 -33 82 -75c0 -43 -33 -81 -87 -81c-48 0 -81 33 -81 75zM409 823c0 43 33 81 86 81c49 0 82 -33 82 -75c0 -43 -33 -81 -87 -81c-48 0 -81 33 -81 75z" />
    <glyph glyph-name="Ograve" unicode="&#xd2;" horiz-adv-x="722" 
d="M176 317c0 -143 64 -220 170 -220c127 0 200 121 200 286c0 143 -64 220 -170 220c-127 0 -200 -121 -200 -286zM26 318c0 225 135 399 355 399c224 0 315 -169 315 -335c0 -225 -135 -399 -355 -399c-224 0 -315 169 -315 335zM338 943l191 -171l-80 -57l-196 165z" />
    <glyph glyph-name="Otilde" unicode="&#xd5;" horiz-adv-x="722" 
d="M176 317c0 -143 64 -220 170 -220c127 0 200 121 200 286c0 143 -64 220 -170 220c-127 0 -200 -121 -200 -286zM26 318c0 225 135 399 355 399c224 0 315 -169 315 -335c0 -225 -135 -399 -355 -399c-224 0 -315 169 -315 335zM278 757l-87 34c29 68 72 113 132 113
c32 0 60 -15 84 -31s46 -31 65 -31c21 0 37 13 58 50l75 -50c-42 -69 -81 -96 -130 -96c-48 0 -116 62 -149 62c-21 0 -38 -22 -48 -51z" />
    <glyph glyph-name="Scaron" unicode="&#x160;" 
d="M524 502h-108v92c-29 9 -62 15 -90 15c-87 0 -123 -37 -123 -86c0 -35 20 -55 83 -79l133 -51c96 -37 130 -98 130 -174c0 -123 -93 -236 -293 -236c-70 0 -151 7 -222 35c0 34 6 155 6 188h114v-91c32 -12 73 -18 113 -18c84 0 138 34 138 102c0 37 -19 61 -84 84
l-123 44c-97 35 -139 95 -139 180c0 128 99 210 271 210c72 0 136 -12 206 -33zM276 757l-146 125l86 61l114 -96l135 96l75 -61l-168 -125h-96z" />
    <glyph glyph-name="Uacute" unicode="&#xda;" horiz-adv-x="741" 
d="M53 598l10 102h254l-9 -102h-51l-27 -270c-5 -51 -8 -89 -8 -120c0 -73 47 -111 133 -111c107 0 158 36 169 171l27 330h-69l9 102h240l-9 -102h-51l-27 -324c-18 -214 -96 -291 -300 -291c-185 0 -260 79 -260 213c0 36 4 68 9 118l26 284h-66zM255 783l221 160l79 -63
l-233 -165z" />
    <glyph glyph-name="Ucircumflex" unicode="&#xdb;" horiz-adv-x="741" 
d="M53 598l10 102h254l-9 -102h-51l-27 -270c-5 -51 -8 -89 -8 -120c0 -73 47 -111 133 -111c107 0 158 36 169 171l27 330h-69l9 102h240l-9 -102h-51l-27 -324c-18 -214 -96 -291 -300 -291c-185 0 -260 79 -260 213c0 36 4 68 9 118l26 284h-66zM196 821l179 122h90
l157 -122l-88 -64l-123 96l-141 -96z" />
    <glyph glyph-name="Udieresis" unicode="&#xdc;" horiz-adv-x="741" 
d="M53 598l10 102h254l-9 -102h-51l-27 -270c-5 -51 -8 -89 -8 -120c0 -73 47 -111 133 -111c107 0 158 36 169 171l27 330h-69l9 102h240l-9 -102h-51l-27 -324c-18 -214 -96 -291 -300 -291c-185 0 -260 79 -260 213c0 36 4 68 9 118l26 284h-66zM208 823
c0 43 33 81 86 81c49 0 82 -33 82 -75c0 -43 -33 -81 -87 -81c-48 0 -81 33 -81 75zM429 823c0 43 33 81 86 81c49 0 82 -33 82 -75c0 -43 -33 -81 -87 -81c-48 0 -81 33 -81 75z" />
    <glyph glyph-name="Ugrave" unicode="&#xd9;" horiz-adv-x="741" 
d="M53 598l10 102h254l-9 -102h-51l-27 -270c-5 -51 -8 -89 -8 -120c0 -73 47 -111 133 -111c107 0 158 36 169 171l27 330h-69l9 102h240l-9 -102h-51l-27 -324c-18 -214 -96 -291 -300 -291c-185 0 -260 79 -260 213c0 36 4 68 9 118l26 284h-66zM348 943l191 -171
l-80 -57l-196 165z" />
    <glyph glyph-name="Yacute" unicode="&#xdd;" horiz-adv-x="685" 
d="M191 0l9 102h57l14 165l-206 331h-52l9 102h272l-9 -102h-58c9 -11 21 -26 29 -41l101 -177l142 188c8 10 18 20 29 30h-82l9 102h260l-9 -102h-52l-245 -320l-14 -176h65l-9 -102h-260zM252 783l221 160l79 -63l-233 -165z" />
    <glyph glyph-name="Ydieresis" unicode="&#x178;" horiz-adv-x="685" 
d="M191 0l9 102h57l14 165l-206 331h-52l9 102h272l-9 -102h-58c9 -11 21 -26 29 -41l101 -177l142 188c8 10 18 20 29 30h-82l9 102h260l-9 -102h-52l-245 -320l-14 -176h65l-9 -102h-260zM180 823c0 43 33 81 86 81c49 0 82 -33 82 -75c0 -43 -33 -81 -87 -81
c-48 0 -81 33 -81 75zM401 823c0 43 33 81 86 81c49 0 82 -33 82 -75c0 -43 -33 -81 -87 -81c-48 0 -81 33 -81 75z" />
    <glyph glyph-name="Zcaron" unicode="&#x17d;" horiz-adv-x="630" 
d="M8 0l9 96l391 466c11 13 23 24 36 36h-252l-4 -96h-120l16 198h538l-9 -96l-397 -474c-8 -10 -20 -20 -29 -28h275l15 102h114l-18 -204h-565zM294 757l-146 125l86 61l114 -96l135 96l75 -61l-168 -125h-96z" />
    <glyph glyph-name="aacute" unicode="&#xe1;" 
d="M174 200c0 -57 15 -90 42 -90c69 0 159 171 167 313c-16 4 -35 8 -51 8c-102 0 -158 -108 -158 -231zM479 511h51c-8 -34 -13 -70 -16 -104l-25 -305h63l-9 -102h-182c7 67 17 137 33 199h-4c-43 -146 -120 -209 -204 -209c-87 0 -150 61 -150 195c0 226 136 348 301 348
c53 0 100 -9 142 -22zM201 641l221 160l79 -63l-233 -165z" />
    <glyph glyph-name="acircumflex" unicode="&#xe2;" 
d="M174 200c0 -57 15 -90 42 -90c69 0 159 171 167 313c-16 4 -35 8 -51 8c-102 0 -158 -108 -158 -231zM479 511h51c-8 -34 -13 -70 -16 -104l-25 -305h63l-9 -102h-182c7 67 17 137 33 199h-4c-43 -146 -120 -209 -204 -209c-87 0 -150 61 -150 195c0 226 136 348 301 348
c53 0 100 -9 142 -22zM142 679l179 122h90l157 -122l-88 -64l-123 96l-141 -96z" />
    <glyph glyph-name="adieresis" unicode="&#xe4;" 
d="M174 200c0 -57 15 -90 42 -90c69 0 159 171 167 313c-16 4 -35 8 -51 8c-102 0 -158 -108 -158 -231zM479 511h51c-8 -34 -13 -70 -16 -104l-25 -305h63l-9 -102h-182c7 67 17 137 33 199h-4c-43 -146 -120 -209 -204 -209c-87 0 -150 61 -150 195c0 226 136 348 301 348
c53 0 100 -9 142 -22zM154 681c0 43 33 81 86 81c49 0 82 -33 82 -75c0 -43 -33 -81 -87 -81c-48 0 -81 33 -81 75zM375 681c0 43 33 81 86 81c49 0 82 -33 82 -75c0 -43 -33 -81 -87 -81c-48 0 -81 33 -81 75z" />
    <glyph glyph-name="agrave" unicode="&#xe0;" 
d="M174 200c0 -57 15 -90 42 -90c69 0 159 171 167 313c-16 4 -35 8 -51 8c-102 0 -158 -108 -158 -231zM479 511h51c-8 -34 -13 -70 -16 -104l-25 -305h63l-9 -102h-182c7 67 17 137 33 199h-4c-43 -146 -120 -209 -204 -209c-87 0 -150 61 -150 195c0 226 136 348 301 348
c53 0 100 -9 142 -22zM294 801l191 -171l-80 -57l-196 165z" />
    <glyph glyph-name="aring" unicode="&#xe5;" 
d="M174 200c0 -57 15 -90 42 -90c69 0 159 171 167 313c-16 4 -35 8 -51 8c-102 0 -158 -108 -158 -231zM479 511h51c-8 -34 -13 -70 -16 -104l-25 -305h63l-9 -102h-182c7 67 17 137 33 199h-4c-43 -146 -120 -209 -204 -209c-87 0 -150 61 -150 195c0 226 136 348 301 348
c53 0 100 -9 142 -22zM299 684c0 -31 16 -48 38 -48c23 0 48 19 48 61c0 33 -16 50 -38 50c-23 0 -48 -19 -48 -63zM231 682c0 74 57 115 120 115c56 0 102 -35 102 -102c0 -74 -57 -115 -120 -115c-56 0 -102 35 -102 102z" />
    <glyph glyph-name="atilde" unicode="&#xe3;" 
d="M174 200c0 -57 15 -90 42 -90c69 0 159 171 167 313c-16 4 -35 8 -51 8c-102 0 -158 -108 -158 -231zM479 511h51c-8 -34 -13 -70 -16 -104l-25 -305h63l-9 -102h-182c7 67 17 137 33 199h-4c-43 -146 -120 -209 -204 -209c-87 0 -150 61 -150 195c0 226 136 348 301 348
c53 0 100 -9 142 -22zM234 615l-87 34c29 68 72 113 132 113c32 0 60 -15 84 -31s46 -31 65 -31c21 0 37 13 58 50l75 -50c-42 -69 -81 -96 -130 -96c-48 0 -116 62 -149 62c-21 0 -38 -22 -48 -51z" />
    <glyph glyph-name="ccedilla" unicode="&#xe7;" horiz-adv-x="444" 
d="M101 -251l16 64c33 -9 63 -17 89 -17c47 0 65 15 65 36c0 24 -10 39 -73 40l15 119c-115 16 -189 89 -189 239c0 208 128 303 277 303c52 0 98 -8 139 -22l-12 -156h-108v70c-5 4 -16 6 -26 6c-58 0 -132 -46 -132 -182c0 -98 50 -145 129 -145c40 0 81 12 122 34
l-13 -114c-35 -19 -74 -30 -113 -34l-9 -68c66 -2 95 -34 95 -83c0 -60 -55 -111 -161 -111c-42 0 -79 9 -111 21z" />
    <glyph glyph-name="eacute" unicode="&#xe9;" horiz-adv-x="481" 
d="M437 144l-18 -120c-47 -22 -102 -34 -165 -34c-148 0 -230 69 -230 221c0 197 108 322 283 322c116 0 166 -55 166 -126c0 -101 -95 -193 -311 -209c3 -73 57 -94 115 -94c57 0 112 18 160 40zM284 431c-77 0 -116 -68 -122 -147c134 18 173 61 173 105
c0 27 -20 42 -51 42zM145 641l221 160l79 -63l-233 -165z" />
    <glyph glyph-name="ecircumflex" unicode="&#xea;" horiz-adv-x="481" 
d="M437 144l-18 -120c-47 -22 -102 -34 -165 -34c-148 0 -230 69 -230 221c0 197 108 322 283 322c116 0 166 -55 166 -126c0 -101 -95 -193 -311 -209c3 -73 57 -94 115 -94c57 0 112 18 160 40zM284 431c-77 0 -116 -68 -122 -147c134 18 173 61 173 105
c0 27 -20 42 -51 42zM86 679l179 122h90l157 -122l-88 -64l-123 96l-141 -96z" />
    <glyph glyph-name="edieresis" unicode="&#xeb;" horiz-adv-x="481" 
d="M437 144l-18 -120c-47 -22 -102 -34 -165 -34c-148 0 -230 69 -230 221c0 197 108 322 283 322c116 0 166 -55 166 -126c0 -101 -95 -193 -311 -209c3 -73 57 -94 115 -94c57 0 112 18 160 40zM284 431c-77 0 -116 -68 -122 -147c134 18 173 61 173 105
c0 27 -20 42 -51 42zM113 681c0 43 33 81 86 81c49 0 82 -33 82 -75c0 -43 -33 -81 -87 -81c-48 0 -81 33 -81 75zM334 681c0 43 33 81 86 81c49 0 82 -33 82 -75c0 -43 -33 -81 -87 -81c-48 0 -81 33 -81 75z" />
    <glyph glyph-name="egrave" unicode="&#xe8;" horiz-adv-x="481" 
d="M437 144l-18 -120c-47 -22 -102 -34 -165 -34c-148 0 -230 69 -230 221c0 197 108 322 283 322c116 0 166 -55 166 -126c0 -101 -95 -193 -311 -209c3 -73 57 -94 115 -94c57 0 112 18 160 40zM284 431c-77 0 -116 -68 -122 -147c134 18 173 61 173 105
c0 27 -20 42 -51 42zM238 801l191 -171l-80 -57l-196 165z" />
    <glyph glyph-name="iacute" unicode="&#xed;" horiz-adv-x="296" 
d="M58 0l35 421h-63l9 102h194l-35 -421h63l-9 -102h-194zM32 641l221 160l79 -63l-233 -165z" />
    <glyph glyph-name="icircumflex" unicode="&#xee;" horiz-adv-x="296" 
d="M58 0l35 421h-63l9 102h194l-35 -421h63l-9 -102h-194zM-37 679l179 122h90l157 -122l-88 -64l-123 96l-141 -96z" />
    <glyph glyph-name="idieresis" unicode="&#xef;" horiz-adv-x="296" 
d="M58 0l35 421h-63l9 102h194l-35 -421h63l-9 -102h-194zM-25 681c0 43 33 81 86 81c49 0 82 -33 82 -75c0 -43 -33 -81 -87 -81c-48 0 -81 33 -81 75zM196 681c0 43 33 81 86 81c49 0 82 -33 82 -75c0 -43 -33 -81 -87 -81c-48 0 -81 33 -81 75z" />
    <glyph glyph-name="igrave" unicode="&#xec;" horiz-adv-x="296" 
d="M58 0l35 421h-63l9 102h194l-35 -421h63l-9 -102h-194zM125 801l191 -171l-80 -57l-196 165z" />
    <glyph glyph-name="ntilde" unicode="&#xf1;" horiz-adv-x="630" 
d="M378 0l36 247c7 46 10 86 10 112c0 41 -12 54 -30 54c-41 0 -85 -45 -123 -120c-50 -98 -64 -191 -76 -293h-132c9 52 18 122 22 186l16 235h-68l9 102h194c-3 -64 -11 -127 -26 -187h4c46 135 121 197 220 197c67 0 122 -30 122 -143c0 -35 -2 -73 -7 -111l-22 -177h60
l-9 -102h-200zM220 615l-87 34c29 68 72 113 132 113c32 0 60 -15 84 -31s46 -31 65 -31c21 0 37 13 58 50l75 -50c-42 -69 -81 -96 -130 -96c-48 0 -116 62 -149 62c-21 0 -38 -22 -48 -51z" />
    <glyph glyph-name="oacute" unicode="&#xf3;" horiz-adv-x="537" 
d="M24 233c0 203 117 300 269 300c116 0 220 -71 220 -243c0 -203 -117 -300 -268 -300c-117 0 -221 71 -221 243zM283 419c-77 0 -121 -63 -121 -179c0 -91 34 -136 92 -136c78 0 121 62 121 179c0 104 -38 136 -92 136zM173 641l221 160l79 -63l-233 -165z" />
    <glyph glyph-name="ocircumflex" unicode="&#xf4;" horiz-adv-x="537" 
d="M24 233c0 203 117 300 269 300c116 0 220 -71 220 -243c0 -203 -117 -300 -268 -300c-117 0 -221 71 -221 243zM283 419c-77 0 -121 -63 -121 -179c0 -91 34 -136 92 -136c78 0 121 62 121 179c0 104 -38 136 -92 136zM94 679l179 122h90l157 -122l-88 -64l-123 96
l-141 -96z" />
    <glyph glyph-name="odieresis" unicode="&#xf6;" horiz-adv-x="537" 
d="M24 233c0 203 117 300 269 300c116 0 220 -71 220 -243c0 -203 -117 -300 -268 -300c-117 0 -221 71 -221 243zM283 419c-77 0 -121 -63 -121 -179c0 -91 34 -136 92 -136c78 0 121 62 121 179c0 104 -38 136 -92 136zM96 681c0 43 33 81 86 81c49 0 82 -33 82 -75
c0 -43 -33 -81 -87 -81c-48 0 -81 33 -81 75zM317 681c0 43 33 81 86 81c49 0 82 -33 82 -75c0 -43 -33 -81 -87 -81c-48 0 -81 33 -81 75z" />
    <glyph glyph-name="ograve" unicode="&#xf2;" horiz-adv-x="537" 
d="M24 233c0 203 117 300 269 300c116 0 220 -71 220 -243c0 -203 -117 -300 -268 -300c-117 0 -221 71 -221 243zM283 419c-77 0 -121 -63 -121 -179c0 -91 34 -136 92 -136c78 0 121 62 121 179c0 104 -38 136 -92 136zM246 801l191 -171l-80 -57l-196 165z" />
    <glyph glyph-name="otilde" unicode="&#xf5;" horiz-adv-x="537" 
d="M24 233c0 203 117 300 269 300c116 0 220 -71 220 -243c0 -203 -117 -300 -268 -300c-117 0 -221 71 -221 243zM283 419c-77 0 -121 -63 -121 -179c0 -91 34 -136 92 -136c78 0 121 62 121 179c0 104 -38 136 -92 136zM186 615l-87 34c29 68 72 113 132 113
c32 0 60 -15 84 -31s46 -31 65 -31c21 0 37 13 58 50l75 -50c-42 -69 -81 -96 -130 -96c-48 0 -116 62 -149 62c-21 0 -38 -22 -48 -51z" />
    <glyph glyph-name="scaron" unicode="&#x161;" horiz-adv-x="500" 
d="M26 20l6 144h120c-1 -24 -3 -45 -3 -56c22 -9 48 -16 80 -16c62 0 89 28 89 60c0 89 -271 22 -271 210c0 107 83 171 226 171c61 0 120 -13 171 -31c0 -25 -4 -111 -4 -138h-114v54c-18 8 -41 13 -65 13c-66 0 -82 -26 -82 -51c0 -86 271 -22 271 -210
c0 -106 -81 -180 -225 -180c-67 0 -136 11 -199 30zM229 615l-146 125l86 61l114 -96l135 96l75 -61l-168 -125h-96z" />
    <glyph glyph-name="uacute" unicode="&#xfa;" horiz-adv-x="630" 
d="M43 421l9 102h208l-36 -250c-6 -45 -13 -92 -13 -120c0 -29 11 -43 31 -43c66 0 155 140 195 413h132c-13 -64 -23 -147 -30 -230l-16 -191h64l-9 -102h-186c6 71 16 134 32 189h-3c-51 -148 -134 -199 -216 -199c-79 0 -126 44 -126 147c0 31 7 90 12 139l15 145h-63z
M199 641l221 160l79 -63l-233 -165z" />
    <glyph glyph-name="ucircumflex" unicode="&#xfb;" horiz-adv-x="630" 
d="M43 421l9 102h208l-36 -250c-6 -45 -13 -92 -13 -120c0 -29 11 -43 31 -43c66 0 155 140 195 413h132c-13 -64 -23 -147 -30 -230l-16 -191h64l-9 -102h-186c6 71 16 134 32 189h-3c-51 -148 -134 -199 -216 -199c-79 0 -126 44 -126 147c0 31 7 90 12 139l15 145h-63z
M140 679l179 122h90l157 -122l-88 -64l-123 96l-141 -96z" />
    <glyph glyph-name="udieresis" unicode="&#xfc;" horiz-adv-x="630" 
d="M43 421l9 102h208l-36 -250c-6 -45 -13 -92 -13 -120c0 -29 11 -43 31 -43c66 0 155 140 195 413h132c-13 -64 -23 -147 -30 -230l-16 -191h64l-9 -102h-186c6 71 16 134 32 189h-3c-51 -148 -134 -199 -216 -199c-79 0 -126 44 -126 147c0 31 7 90 12 139l15 145h-63z
M142 681c0 43 33 81 86 81c49 0 82 -33 82 -75c0 -43 -33 -81 -87 -81c-48 0 -81 33 -81 75zM363 681c0 43 33 81 86 81c49 0 82 -33 82 -75c0 -43 -33 -81 -87 -81c-48 0 -81 33 -81 75z" />
    <glyph glyph-name="ugrave" unicode="&#xf9;" horiz-adv-x="630" 
d="M43 421l9 102h208l-36 -250c-6 -45 -13 -92 -13 -120c0 -29 11 -43 31 -43c66 0 155 140 195 413h132c-13 -64 -23 -147 -30 -230l-16 -191h64l-9 -102h-186c6 71 16 134 32 189h-3c-51 -148 -134 -199 -216 -199c-79 0 -126 44 -126 147c0 31 7 90 12 139l15 145h-63z
M292 801l191 -171l-80 -57l-196 165z" />
    <glyph glyph-name="yacute" unicode="&#xfd;" horiz-adv-x="556" 
d="M17 421l10 102h179l73 -294c7 -27 13 -60 15 -91h2c6 36 27 82 45 127l65 162h-84l10 96h200l-10 -102l-127 -295c-147 -341 -222 -389 -326 -389c-27 0 -51 6 -74 12l8 108c20 -7 37 -12 56 -12c46 0 86 18 121 86l36 69l-135 421h-64zM162 641l221 160l79 -63
l-233 -165z" />
    <glyph glyph-name="ydieresis" unicode="&#xff;" horiz-adv-x="556" 
d="M17 421l10 102h179l73 -294c7 -27 13 -60 15 -91h2c6 36 27 82 45 127l65 162h-84l10 96h200l-10 -102l-127 -295c-147 -341 -222 -389 -326 -389c-27 0 -51 6 -74 12l8 108c20 -7 37 -12 56 -12c46 0 86 18 121 86l36 69l-135 421h-64zM105 681c0 43 33 81 86 81
c49 0 82 -33 82 -75c0 -43 -33 -81 -87 -81c-48 0 -81 33 -81 75zM326 681c0 43 33 81 86 81c49 0 82 -33 82 -75c0 -43 -33 -81 -87 -81c-48 0 -81 33 -81 75z" />
    <glyph glyph-name="zcaron" unicode="&#x17e;" horiz-adv-x="519" 
d="M17 0l8 96l231 267c21 24 39 41 56 58h-141l-8 -60h-114l16 162h418l-8 -96l-240 -275c-14 -17 -32 -33 -49 -50h169l8 66h108l-16 -168h-438zM239 615l-146 125l86 61l114 -96l135 96l75 -61l-168 -125h-96z" />
    <glyph glyph-name="exclam.sc" unicode="&#xf721;" horiz-adv-x="296" 
d="M75 224l30 545h156l-54 -545h-132zM35 66c0 56 37 86 92 86c53 0 86 -28 86 -77c0 -55 -37 -85 -93 -85c-51 0 -85 28 -85 76z" />
    <glyph glyph-name="hungarumlaut.sc" unicode="&#xf6f8;" horiz-adv-x="278" 
d="M-95 641l221 160l79 -63l-233 -165zM141 641l221 160l79 -63l-233 -165z" />
    <glyph glyph-name="ampersand.sc" unicode="&#xf726;" horiz-adv-x="834" 
d="M189 304c0 -28 10 -64 26 -85c60 46 89 96 89 135c0 30 -17 49 -46 49c-40 0 -69 -29 -69 -99zM781 242h-53c-38 -133 -130 -255 -328 -255c-183 0 -331 125 -331 313c0 146 96 229 196 229c62 0 113 -39 113 -107c0 -24 -7 -47 -15 -64l2 -2l267 255l65 -67l-416 -398
c34 -31 77 -45 125 -45c117 0 169 78 190 141h-68l9 96h253z" />
    <glyph glyph-name="acute.sc" unicode="&#xf7b4;" horiz-adv-x="278" 
d="M23 641l221 160l79 -63l-233 -165z" />
    <glyph glyph-name="question.sc" unicode="&#xf73f;" horiz-adv-x="481" 
d="M214 242l-123 -37c-18 26 -32 58 -32 91c0 48 20 83 78 117l114 66c53 31 76 63 76 103c0 52 -46 88 -142 88c-38 0 -78 -8 -118 -22l9 114c53 13 105 22 157 22c135 0 244 -59 244 -189c0 -201 -280 -213 -280 -310c0 -16 5 -28 17 -43zM42 66c0 56 37 86 92 86
c53 0 86 -28 86 -77c0 -55 -37 -85 -93 -85c-51 0 -85 28 -85 76z" />
    <glyph glyph-name="circumflex.sc" unicode="&#xf6f6;" horiz-adv-x="278" 
d="M-36 679l179 122h90l157 -122l-88 -64l-123 96l-141 -96z" />
    <glyph glyph-name="grave.sc" unicode="&#xf760;" horiz-adv-x="278" 
d="M116 801l191 -171l-80 -57l-196 165z" />
    <glyph glyph-name="a.sc" unicode="&#xf761;" horiz-adv-x="591" 
d="M-27 0l9 96h41l225 461h144l146 -461h53l-9 -96h-253l9 96h50l-20 79h-178l-35 -79h66l-9 -96h-239zM344 271l-41 178h-2l-72 -178h115z" />
    <glyph glyph-name="b.sc" unicode="&#xf762;" horiz-adv-x="520" 
d="M22 0l9 96h49l32 352h-61l9 96h269c91 0 143 -45 143 -121c0 -79 -63 -122 -148 -131v-2c95 -7 152 -34 152 -128c0 -70 -66 -162 -168 -162h-286zM244 448l-12 -124h37c32 0 71 30 71 71c0 36 -21 53 -59 53h-37zM225 228l-13 -132h52c61 0 80 41 80 73
c0 44 -27 59 -65 59h-54z" />
    <glyph glyph-name="c.sc" unicode="&#xf763;" horiz-adv-x="554" 
d="M395 177h102l-20 -164c-59 -15 -120 -26 -189 -26c-166 0 -256 107 -256 250c0 169 94 320 310 320c61 0 117 -10 165 -22l-6 -163h-99v71c-18 4 -38 6 -57 6c-145 0 -175 -118 -175 -215c0 -92 55 -139 129 -139c30 0 57 4 83 9z" />
    <glyph glyph-name="d.sc" unicode="&#xf764;" horiz-adv-x="610" 
d="M22 0l9 96h49l32 352h-61l9 96h281c136 0 241 -78 241 -243c0 -146 -101 -301 -297 -301h-263zM244 448l-32 -352h74c98 0 158 99 158 206c0 97 -49 146 -131 146h-69z" />
    <glyph glyph-name="e.sc" unicode="&#xf765;" horiz-adv-x="519" 
d="M22 0l9 96h49l32 352h-61l9 96h403l-3 -167h-99l-3 71h-114l-11 -124h137l-9 -96h-137l-12 -132h128l18 78h102l-27 -174h-411z" />
    <glyph glyph-name="f.sc" unicode="&#xf766;" horiz-adv-x="463" 
d="M22 0l9 96h49l32 352h-61l9 96h403l-3 -167h-99l-3 71h-114l-11 -124h137l-9 -96h-137l-12 -132h61l-9 -96h-242z" />
    <glyph glyph-name="g.sc" unicode="&#xf767;" horiz-adv-x="573" 
d="M499 188l-14 -175c-63 -16 -134 -26 -197 -26c-166 0 -256 107 -256 250c0 169 94 320 310 320c61 0 125 -11 174 -24l-5 -162h-100l1 72c-20 4 -41 6 -67 6c-145 0 -175 -118 -175 -215c0 -92 55 -139 129 -139c26 0 54 1 75 3l8 90h-57l9 96h222l-9 -96h-48z" />
    <glyph glyph-name="h.sc" unicode="&#xf768;" horiz-adv-x="648" 
d="M416 228h-192l-12 -132h61l-9 -96h-242l9 96h49l32 352h-61l9 96h242l-9 -96h-49l-11 -124h192l11 124h-61l9 96h242l-9 -96h-49l-32 -352h61l-9 -96h-242l9 96h49z" />
    <glyph glyph-name="i.sc" unicode="&#xf769;" horiz-adv-x="332" 
d="M116 448h-61l9 96h242l-9 -96h-49l-32 -352h61l-9 -96h-242l9 96h49z" />
    <glyph glyph-name="j.sc" unicode="&#xf76a;" horiz-adv-x="299" 
d="M15 -152l-53 82c83 53 109 122 115 215l20 303h-61l9 96h242l-9 -96h-49l-23 -307c-9 -125 -46 -213 -191 -293z" />
    <glyph glyph-name="k.sc" unicode="&#xf76b;" horiz-adv-x="595" 
d="M22 0l9 96h49l32 352h-61l9 96h242l-9 -96h-49l-18 -164l175 164h-52l9 96h240l-9 -96h-49l-182 -164l170 -188h49l-9 -96h-254l9 96h49l-147 173l-13 -173h49l-9 -96h-230z" />
    <glyph glyph-name="l.sc" unicode="&#xf76c;" horiz-adv-x="468" 
d="M26 0l9 96h49l32 352h-61l9 96h242l-9 -96h-49l-32 -352h127l17 79h102l-25 -175h-411z" />
    <glyph glyph-name="m.sc" unicode="&#xf76d;" horiz-adv-x="852" 
d="M30 0l9 96h49l32 352h-61l9 96h251l105 -399h2l163 399h233l-9 -96h-49l-32 -352h61l-9 -96h-230l9 96h49l30 328h-2l-174 -424h-132l-106 418h-2l-27 -322h54l-9 -96h-214z" />
    <glyph glyph-name="n.sc" unicode="&#xf76e;" horiz-adv-x="650" 
d="M576 448l-40 -454h-114l-212 345h-2l-20 -243h61l-9 -96h-224l9 96h49l32 352h-61l9 96h184l202 -322h2l20 226h-61l9 96h224l-9 -96h-49z" />
    <glyph glyph-name="o.sc" unicode="&#xf76f;" 
d="M170 237c0 -85 38 -142 120 -142c102 0 133 103 133 207c0 90 -31 147 -114 147c-93 0 -139 -87 -139 -212zM32 239c0 155 75 318 281 318c162 0 248 -97 248 -251c0 -156 -75 -319 -282 -319c-161 0 -247 97 -247 252z" />
    <glyph glyph-name="p.sc" unicode="&#xf770;" horiz-adv-x="481" 
d="M22 0l9 96h49l32 352h-61l9 96h263c99 0 153 -61 153 -148c0 -105 -68 -182 -165 -182h-88l-11 -118h61l-9 -96h-242zM244 448l-14 -138h44c41 0 70 35 70 83c0 38 -25 55 -56 55h-44z" />
    <glyph glyph-name="q.sc" unicode="&#xf771;" horiz-adv-x="611" 
d="M609 -35l-8 -103c-15 -6 -33 -9 -69 -9c-66 0 -156 54 -244 128c-8 6 -21 9 -34 9c-132 0 -222 97 -222 249c0 155 75 318 281 318c162 0 248 -97 248 -251c0 -122 -57 -260 -154 -284v-2h13c46 0 96 -59 147 -59c15 0 27 1 42 4zM170 237c0 -85 38 -142 120 -142
c102 0 133 103 133 207c0 90 -31 147 -114 147c-93 0 -139 -87 -139 -212z" />
    <glyph glyph-name="r.sc" unicode="&#xf772;" horiz-adv-x="538" 
d="M521 96l-8 -96h-76c-45 0 -73 15 -96 64l-50 106c-22 46 -30 52 -69 52l-10 -126h43l-8 -96h-225l9 96h49l32 352h-61l9 96h249c114 0 169 -56 169 -131c0 -90 -66 -147 -159 -153v-2c44 -3 73 -13 95 -52l49 -85c12 -20 25 -25 41 -25h17zM244 448l-13 -130h50
c37 0 65 36 65 72c0 39 -24 58 -62 58h-40z" />
    <glyph glyph-name="s.sc" unicode="&#xf773;" horiz-adv-x="502" 
d="M440 390h-101l-2 59c-15 3 -42 6 -64 6c-61 0 -87 -21 -87 -57c0 -24 15 -39 48 -48l75 -21c97 -27 139 -76 139 -154c0 -84 -61 -188 -237 -188c-54 0 -120 10 -179 28l3 156h105l3 -73c18 -5 43 -9 71 -9c76 0 102 40 102 71c0 24 -16 36 -52 48l-110 36
c-65 21 -100 74 -100 136c0 98 74 177 224 177c62 0 115 -8 162 -23v-144z" />
    <glyph glyph-name="t.sc" unicode="&#xf774;" horiz-adv-x="480" 
d="M95 0l9 96h49l32 352h-77l-15 -72h-99l23 168h478l-2 -168h-100l-2 72h-74l-32 -352h61l-9 -96h-242z" />
    <glyph glyph-name="u.sc" unicode="&#xf775;" horiz-adv-x="628" 
d="M98 448h-61l9 96h242l-9 -96h-49l-18 -200c-3 -28 -8 -54 -8 -82c0 -40 28 -71 93 -71c75 0 108 33 114 100l23 253h-61l9 96h224l-9 -96h-49l-23 -257c-9 -105 -50 -204 -231 -204c-156 0 -222 55 -222 160c0 26 5 61 8 95z" />
    <glyph glyph-name="v.sc" unicode="&#xf776;" horiz-adv-x="575" 
d="M42 448h-53l9 96h253l-9 -96h-50l88 -334h2l138 334h-62l9 96h238l-9 -96h-44l-216 -454h-138z" />
    <glyph glyph-name="w.sc" unicode="&#xf777;" horiz-adv-x="907" 
d="M52 448h-52l9 96h251l-9 -96h-52l89 -340h2l127 282l-16 58h-59l9 96h243l-9 -96h-52l89 -340h2l139 340h-67l8 96h241l-9 -96h-44l-215 -454h-144l-72 254l-116 -254h-144z" />
    <glyph glyph-name="x.sc" unicode="&#xf778;" 
d="M0 0l9 96h41l171 178l-137 174h-52l9 96h269l-9 -96h-52l72 -94l90 94h-73l9 96h228l-9 -96h-41l-155 -164l143 -188h52l-9 -96h-268l9 96h57l-81 108l-103 -108h76l-9 -96h-237z" />
    <glyph glyph-name="y.sc" unicode="&#xf779;" horiz-adv-x="500" 
d="M20 448h-48l9 96h258l-9 -96h-60l92 -135l111 135h-72l9 96h240l-9 -96h-44l-187 -227l-11 -125h61l-9 -96h-242l9 96h49l11 120z" />
    <glyph glyph-name="z.sc" unicode="&#xf77a;" horiz-adv-x="520" 
d="M151 379h-102l25 165h433l-7 -87l-328 -361h188l17 78h108l-26 -174h-457l10 96l322 352h-167z" />
    <glyph glyph-name="tilde.sc" unicode="&#xf6fe;" horiz-adv-x="278" 
d="M56 615l-87 34c29 68 72 113 132 113c32 0 60 -15 84 -31s46 -31 65 -31c21 0 37 13 58 50l75 -50c-42 -69 -81 -96 -130 -96c-48 0 -116 62 -149 62c-21 0 -38 -22 -48 -51z" />
    <glyph glyph-name="exclamdown.sc" unicode="&#xf7a1;" horiz-adv-x="296" 
d="M20 -236l54 545h132l-30 -545h-156zM68 458c0 55 37 85 93 85c51 0 85 -28 85 -76c0 -56 -37 -86 -92 -86c-53 0 -86 28 -86 77z" />
    <glyph glyph-name="lslash.sc" unicode="&#xf6f9;" horiz-adv-x="468" 
d="M26 0l9 96h49l8 86l-56 -34l6 78l57 34l17 188h-61l9 96h242l-9 -96h-49l-10 -105l114 67l-6 -76l-115 -69l-15 -169h127l17 79h102l-25 -175h-411z" />
    <glyph glyph-name="scaron.sc" unicode="&#xf6fd;" horiz-adv-x="502" 
d="M440 390h-101l-2 59c-15 3 -42 6 -64 6c-61 0 -87 -21 -87 -57c0 -24 15 -39 48 -48l75 -21c97 -27 139 -76 139 -154c0 -84 -61 -188 -237 -188c-54 0 -120 10 -179 28l3 156h105l3 -73c18 -5 43 -9 71 -9c76 0 102 40 102 71c0 24 -16 36 -52 48l-110 36
c-65 21 -100 74 -100 136c0 98 74 177 224 177c62 0 115 -8 162 -23v-144zM230 615l-146 125l86 61l114 -96l135 96l75 -61l-168 -125h-96z" />
    <glyph glyph-name="zcaron.sc" unicode="&#xf6ff;" horiz-adv-x="520" 
d="M151 379h-102l25 165h433l-7 -87l-328 -361h188l17 78h108l-26 -174h-457l10 96l322 352h-167zM239 615l-146 125l86 61l114 -96l135 96l75 -61l-168 -125h-96z" />
    <glyph glyph-name="dieresis.sc" unicode="&#xf7a8;" horiz-adv-x="278" 
d="M-34 681c0 43 33 81 86 81c49 0 82 -33 82 -75c0 -43 -33 -81 -87 -81c-48 0 -81 33 -81 75zM187 681c0 43 33 81 86 81c49 0 82 -33 82 -75c0 -43 -33 -81 -87 -81c-48 0 -81 33 -81 75z" />
    <glyph glyph-name="breve.sc" unicode="&#xf6f4;" horiz-adv-x="278" 
d="M-31 755l97 36c21 -72 57 -100 115 -100c60 0 97 36 115 100l90 -45c-53 -106 -119 -151 -215 -151c-105 0 -168 59 -202 160z" />
    <glyph glyph-name="caron.sc" unicode="&#xf6f5;" horiz-adv-x="278" 
d="M118 615l-146 125l86 61l114 -96l135 96l75 -61l-168 -125h-96z" />
    <glyph glyph-name="dotaccent.sc" unicode="&#xf6f7;" horiz-adv-x="278" 
d="M71 681c0 43 33 81 86 81c49 0 82 -33 82 -75c0 -43 -33 -81 -87 -81c-48 0 -81 33 -81 75z" />
    <glyph glyph-name="macron.sc" unicode="&#xf7af;" horiz-adv-x="278" 
d="M15 639l8 102h303l-8 -102h-303z" />
    <glyph glyph-name="ogonek.sc" unicode="&#xf6fb;" horiz-adv-x="278" 
d="M261 -187l12 -64c-25 -13 -60 -21 -89 -21c-71 0 -118 33 -118 104c0 79 70 135 118 168h74c-54 -46 -90 -103 -90 -150c0 -27 13 -48 41 -48c22 0 38 4 52 11z" />
    <glyph glyph-name="ring.sc" unicode="&#xf6fc;" horiz-adv-x="278" 
d="M116 684c0 -31 16 -48 38 -48c23 0 48 19 48 61c0 33 -16 50 -38 50c-23 0 -48 -19 -48 -63zM48 682c0 74 57 115 120 115c56 0 102 -35 102 -102c0 -74 -57 -115 -120 -115c-56 0 -102 35 -102 102z" />
    <glyph glyph-name="cedilla.sc" unicode="&#xf7b8;" horiz-adv-x="278" 
d="M97 -128l17 138h74l-11 -88c66 -2 95 -34 95 -83c0 -60 -55 -111 -161 -111c-42 0 -79 9 -111 21l16 64c33 -9 63 -17 89 -17c47 0 65 15 65 36c0 24 -10 39 -73 40z" />
    <glyph glyph-name="questiondown.sc" unicode="&#xf7bf;" horiz-adv-x="481" 
d="M237 291l123 37c18 -26 32 -58 32 -91c0 -48 -20 -83 -78 -117l-114 -66c-53 -31 -76 -63 -76 -103c0 -52 46 -88 142 -88c38 0 78 8 118 22l-9 -114c-53 -13 -105 -22 -157 -22c-135 0 -244 59 -244 189c0 201 280 213 280 310c0 16 -5 28 -17 43zM231 458
c0 55 37 85 93 85c51 0 85 -28 85 -76c0 -56 -37 -86 -92 -86c-53 0 -86 28 -86 77z" />
    <glyph glyph-name="one.superior" unicode="&#xb9;" horiz-adv-x="385" 
d="M64 284l7 68h83l27 266l-2 2c-7 -7 -15 -13 -26 -20l-81 -47l-34 59l153 88h98l-33 -348h91l-7 -68h-276z" />
    <glyph glyph-name="two.superior" unicode="&#xb2;" horiz-adv-x="385" 
d="M12 284l6 68c102 56 253 171 253 238c0 26 -24 47 -58 47c-37 0 -70 -20 -76 -60h-92c15 95 81 140 176 140c87 0 152 -36 152 -113c0 -80 -97 -175 -227 -244v-2c16 3 39 6 56 6h157l-6 -80h-341z" />
    <glyph glyph-name="three.superior" unicode="&#xb3;" horiz-adv-x="385" 
d="M122 459l6 74c94 0 139 35 139 68c0 22 -22 36 -52 36c-35 0 -64 -16 -77 -48h-86c8 84 87 128 169 128c91 0 148 -38 148 -104c0 -51 -48 -96 -124 -102v-2c83 -5 120 -45 120 -100c0 -64 -55 -135 -200 -135c-59 0 -103 9 -149 28l6 84c36 -20 89 -32 132 -32
c70 0 103 28 103 49c0 45 -54 56 -135 56z" />
    <glyph glyph-name="agrave.sc" unicode="&#xf7e0;" horiz-adv-x="591" 
d="M-27 0l9 96h41l225 461h144l146 -461h53l-9 -96h-253l9 96h50l-20 79h-178l-35 -79h66l-9 -96h-239zM344 271l-41 178h-2l-72 -178h115zM293 801l191 -171l-80 -57l-196 165z" />
    <glyph glyph-name="aacute.sc" unicode="&#xf7e1;" horiz-adv-x="591" 
d="M-27 0l9 96h41l225 461h144l146 -461h53l-9 -96h-253l9 96h50l-20 79h-178l-35 -79h66l-9 -96h-239zM344 271l-41 178h-2l-72 -178h115zM200 641l221 160l79 -63l-233 -165z" />
    <glyph glyph-name="acircumflex.sc" unicode="&#xf7e2;" horiz-adv-x="591" 
d="M-27 0l9 96h41l225 461h144l146 -461h53l-9 -96h-253l9 96h50l-20 79h-178l-35 -79h66l-9 -96h-239zM344 271l-41 178h-2l-72 -178h115zM141 679l179 122h90l157 -122l-88 -64l-123 96l-141 -96z" />
    <glyph glyph-name="atilde.sc" unicode="&#xf7e3;" horiz-adv-x="591" 
d="M-27 0l9 96h41l225 461h144l146 -461h53l-9 -96h-253l9 96h50l-20 79h-178l-35 -79h66l-9 -96h-239zM344 271l-41 178h-2l-72 -178h115zM233 615l-87 34c29 68 72 113 132 113c32 0 60 -15 84 -31s46 -31 65 -31c21 0 37 13 58 50l75 -50c-42 -69 -81 -96 -130 -96
c-48 0 -116 62 -149 62c-21 0 -38 -22 -48 -51z" />
    <glyph glyph-name="adieresis.sc" unicode="&#xf7e4;" horiz-adv-x="591" 
d="M-27 0l9 96h41l225 461h144l146 -461h53l-9 -96h-253l9 96h50l-20 79h-178l-35 -79h66l-9 -96h-239zM344 271l-41 178h-2l-72 -178h115zM153 681c0 43 33 81 86 81c49 0 82 -33 82 -75c0 -43 -33 -81 -87 -81c-48 0 -81 33 -81 75zM374 681c0 43 33 81 86 81
c49 0 82 -33 82 -75c0 -43 -33 -81 -87 -81c-48 0 -81 33 -81 75z" />
    <glyph glyph-name="aring.sc" unicode="&#xf7e5;" horiz-adv-x="591" 
d="M-27 0l9 96h41l225 461h144l146 -461h53l-9 -96h-253l9 96h50l-20 79h-178l-35 -79h66l-9 -96h-239zM344 271l-41 178h-2l-72 -178h115zM298 684c0 -31 16 -48 38 -48c23 0 48 19 48 61c0 33 -16 50 -38 50c-23 0 -48 -19 -48 -63zM230 682c0 74 57 115 120 115
c56 0 102 -35 102 -102c0 -74 -57 -115 -120 -115c-56 0 -102 35 -102 102z" />
    <glyph glyph-name="ae.sc" unicode="&#xf7e6;" horiz-adv-x="779" 
d="M375 448h-47l-73 -124h109zM-56 0l9 96h40l286 448h434l-3 -167h-99l-3 71h-101l-11 -124h137l-9 -96h-137l-12 -132h128l18 78h102l-27 -174h-411l9 96h49l12 132h-153l-77 -132h66l-9 -96h-238z" />
    <glyph glyph-name="ccedilla.sc" unicode="&#xf7e7;" horiz-adv-x="554" 
d="M395 177h102l-20 -164c-55 -14 -111 -24 -174 -26l-8 -65c66 -2 95 -34 95 -83c0 -60 -55 -111 -161 -111c-42 0 -79 9 -111 21l16 64c33 -9 63 -17 89 -17c47 0 65 15 65 36c0 24 -10 39 -73 40l15 120c-129 22 -198 120 -198 245c0 169 94 320 310 320
c61 0 117 -10 165 -22l-6 -163h-99v71c-18 4 -38 6 -57 6c-145 0 -175 -118 -175 -215c0 -92 55 -139 129 -139c30 0 57 4 83 9z" />
    <glyph glyph-name="egrave.sc" unicode="&#xf7e8;" horiz-adv-x="519" 
d="M22 0l9 96h49l32 352h-61l9 96h403l-3 -167h-99l-3 71h-114l-11 -124h137l-9 -96h-137l-12 -132h128l18 78h102l-27 -174h-411zM257 801l191 -171l-80 -57l-196 165z" />
    <glyph glyph-name="eacute.sc" unicode="&#xf7e9;" horiz-adv-x="519" 
d="M22 0l9 96h49l32 352h-61l9 96h403l-3 -167h-99l-3 71h-114l-11 -124h137l-9 -96h-137l-12 -132h128l18 78h102l-27 -174h-411zM164 641l221 160l79 -63l-233 -165z" />
    <glyph glyph-name="ecircumflex.sc" unicode="&#xf7ea;" horiz-adv-x="519" 
d="M22 0l9 96h49l32 352h-61l9 96h403l-3 -167h-99l-3 71h-114l-11 -124h137l-9 -96h-137l-12 -132h128l18 78h102l-27 -174h-411zM105 679l179 122h90l157 -122l-88 -64l-123 96l-141 -96z" />
    <glyph glyph-name="edieresis.sc" unicode="&#xf7eb;" horiz-adv-x="519" 
d="M22 0l9 96h49l32 352h-61l9 96h403l-3 -167h-99l-3 71h-114l-11 -124h137l-9 -96h-137l-12 -132h128l18 78h102l-27 -174h-411zM132 681c0 43 33 81 86 81c49 0 82 -33 82 -75c0 -43 -33 -81 -87 -81c-48 0 -81 33 -81 75zM353 681c0 43 33 81 86 81c49 0 82 -33 82 -75
c0 -43 -33 -81 -87 -81c-48 0 -81 33 -81 75z" />
    <glyph glyph-name="igrave.sc" unicode="&#xf7ec;" horiz-adv-x="332" 
d="M116 448h-61l9 96h242l-9 -96h-49l-32 -352h61l-9 -96h-242l9 96h49zM143 801l191 -171l-80 -57l-196 165z" />
    <glyph glyph-name="iacute.sc" unicode="&#xf7ed;" horiz-adv-x="332" 
d="M116 448h-61l9 96h242l-9 -96h-49l-32 -352h61l-9 -96h-242l9 96h49zM50 641l221 160l79 -63l-233 -165z" />
    <glyph glyph-name="icircumflex.sc" unicode="&#xf7ee;" horiz-adv-x="332" 
d="M116 448h-61l9 96h242l-9 -96h-49l-32 -352h61l-9 -96h-242l9 96h49zM-19 679l179 122h90l157 -122l-88 -64l-123 96l-141 -96z" />
    <glyph glyph-name="idieresis.sc" unicode="&#xf7ef;" horiz-adv-x="332" 
d="M116 448h-61l9 96h242l-9 -96h-49l-32 -352h61l-9 -96h-242l9 96h49zM-7 681c0 43 33 81 86 81c49 0 82 -33 82 -75c0 -43 -33 -81 -87 -81c-48 0 -81 33 -81 75zM214 681c0 43 33 81 86 81c49 0 82 -33 82 -75c0 -43 -33 -81 -87 -81c-48 0 -81 33 -81 75z" />
    <glyph glyph-name="eth.sc" unicode="&#xf7f0;" horiz-adv-x="610" 
d="M22 0l9 96h49l12 132h-54l7 96h56l11 124h-61l9 96h281c136 0 241 -78 241 -243c0 -146 -101 -301 -297 -301h-263zM244 448l-11 -124h94l-7 -96h-96l-12 -132h74c98 0 158 99 158 206c0 97 -49 146 -131 146h-69z" />
    <glyph glyph-name="ntilde.sc" unicode="&#xf7f1;" horiz-adv-x="650" 
d="M576 448l-40 -454h-114l-212 345h-2l-20 -243h61l-9 -96h-224l9 96h49l32 352h-61l9 96h184l202 -322h2l20 226h-61l9 96h224l-9 -96h-49zM230 615l-87 34c29 68 72 113 132 113c32 0 60 -15 84 -31s46 -31 65 -31c21 0 37 13 58 50l75 -50c-42 -69 -81 -96 -130 -96
c-48 0 -116 62 -149 62c-21 0 -38 -22 -48 -51z" />
    <glyph glyph-name="ograve.sc" unicode="&#xf7f2;" 
d="M170 237c0 -85 38 -142 120 -142c102 0 133 103 133 207c0 90 -31 147 -114 147c-93 0 -139 -87 -139 -212zM32 239c0 155 75 318 281 318c162 0 248 -97 248 -251c0 -156 -75 -319 -282 -319c-161 0 -247 97 -247 252zM274 801l191 -171l-80 -57l-196 165z" />
    <glyph glyph-name="oacute.sc" unicode="&#xf7f3;" 
d="M170 237c0 -85 38 -142 120 -142c102 0 133 103 133 207c0 90 -31 147 -114 147c-93 0 -139 -87 -139 -212zM32 239c0 155 75 318 281 318c162 0 248 -97 248 -251c0 -156 -75 -319 -282 -319c-161 0 -247 97 -247 252zM201 641l221 160l79 -63l-233 -165z" />
    <glyph glyph-name="ocircumflex.sc" unicode="&#xf7f4;" 
d="M170 237c0 -85 38 -142 120 -142c102 0 133 103 133 207c0 90 -31 147 -114 147c-93 0 -139 -87 -139 -212zM32 239c0 155 75 318 281 318c162 0 248 -97 248 -251c0 -156 -75 -319 -282 -319c-161 0 -247 97 -247 252zM122 679l179 122h90l157 -122l-88 -64l-123 96
l-141 -96z" />
    <glyph glyph-name="otilde.sc" unicode="&#xf7f5;" 
d="M170 237c0 -85 38 -142 120 -142c102 0 133 103 133 207c0 90 -31 147 -114 147c-93 0 -139 -87 -139 -212zM32 239c0 155 75 318 281 318c162 0 248 -97 248 -251c0 -156 -75 -319 -282 -319c-161 0 -247 97 -247 252zM214 615l-87 34c29 68 72 113 132 113
c32 0 60 -15 84 -31s46 -31 65 -31c21 0 37 13 58 50l75 -50c-42 -69 -81 -96 -130 -96c-48 0 -116 62 -149 62c-21 0 -38 -22 -48 -51z" />
    <glyph glyph-name="odieresis.sc" unicode="&#xf7f6;" 
d="M170 237c0 -85 38 -142 120 -142c102 0 133 103 133 207c0 90 -31 147 -114 147c-93 0 -139 -87 -139 -212zM32 239c0 155 75 318 281 318c162 0 248 -97 248 -251c0 -156 -75 -319 -282 -319c-161 0 -247 97 -247 252zM124 681c0 43 33 81 86 81c49 0 82 -33 82 -75
c0 -43 -33 -81 -87 -81c-48 0 -81 33 -81 75zM345 681c0 43 33 81 86 81c49 0 82 -33 82 -75c0 -43 -33 -81 -87 -81c-48 0 -81 33 -81 75z" />
    <glyph glyph-name="oe.sc" unicode="&#xf6fa;" horiz-adv-x="797" 
d="M636 174h102l-27 -174h-461c-138 0 -230 97 -230 238c0 164 111 306 282 306h439l-3 -167h-99l-3 71h-114l-11 -124h137l-9 -96h-137l-12 -132h128zM358 96l32 352h-66c-114 0 -166 -110 -166 -199c0 -91 48 -153 157 -153h43z" />
    <glyph glyph-name="oslash.sc" unicode="&#xf7f8;" 
d="M181 168l193 264c-16 11 -38 17 -65 17c-93 0 -139 -87 -139 -212c0 -27 4 -50 11 -69zM72 -90l-52 38l77 105c-43 46 -65 109 -65 186c0 155 75 318 281 318c52 0 96 -10 131 -29l77 106l52 -38l-77 -105c44 -45 65 -108 65 -185c0 -156 -75 -319 -282 -319
c-51 0 -95 10 -130 29zM413 376l-192 -262c18 -12 41 -19 69 -19c102 0 133 103 133 207c0 28 -3 53 -10 74z" />
    <glyph glyph-name="ugrave.sc" unicode="&#xf7f9;" horiz-adv-x="628" 
d="M98 448h-61l9 96h242l-9 -96h-49l-18 -200c-3 -28 -8 -54 -8 -82c0 -40 28 -71 93 -71c75 0 108 33 114 100l23 253h-61l9 96h224l-9 -96h-49l-23 -257c-9 -105 -50 -204 -231 -204c-156 0 -222 55 -222 160c0 26 5 61 8 95zM291 801l191 -171l-80 -57l-196 165z" />
    <glyph glyph-name="uacute.sc" unicode="&#xf7fa;" horiz-adv-x="628" 
d="M98 448h-61l9 96h242l-9 -96h-49l-18 -200c-3 -28 -8 -54 -8 -82c0 -40 28 -71 93 -71c75 0 108 33 114 100l23 253h-61l9 96h224l-9 -96h-49l-23 -257c-9 -105 -50 -204 -231 -204c-156 0 -222 55 -222 160c0 26 5 61 8 95zM198 641l221 160l79 -63l-233 -165z" />
    <glyph glyph-name="ucircumflex.sc" unicode="&#xf7fb;" horiz-adv-x="628" 
d="M98 448h-61l9 96h242l-9 -96h-49l-18 -200c-3 -28 -8 -54 -8 -82c0 -40 28 -71 93 -71c75 0 108 33 114 100l23 253h-61l9 96h224l-9 -96h-49l-23 -257c-9 -105 -50 -204 -231 -204c-156 0 -222 55 -222 160c0 26 5 61 8 95zM139 679l179 122h90l157 -122l-88 -64
l-123 96l-141 -96z" />
    <glyph glyph-name="udieresis.sc" unicode="&#xf7fc;" horiz-adv-x="628" 
d="M98 448h-61l9 96h242l-9 -96h-49l-18 -200c-3 -28 -8 -54 -8 -82c0 -40 28 -71 93 -71c75 0 108 33 114 100l23 253h-61l9 96h224l-9 -96h-49l-23 -257c-9 -105 -50 -204 -231 -204c-156 0 -222 55 -222 160c0 26 5 61 8 95zM141 681c0 43 33 81 86 81
c49 0 82 -33 82 -75c0 -43 -33 -81 -87 -81c-48 0 -81 33 -81 75zM362 681c0 43 33 81 86 81c49 0 82 -33 82 -75c0 -43 -33 -81 -87 -81c-48 0 -81 33 -81 75z" />
    <glyph glyph-name="yacute.sc" unicode="&#xf7fd;" horiz-adv-x="500" 
d="M20 448h-48l9 96h258l-9 -96h-60l92 -135l111 135h-72l9 96h240l-9 -96h-44l-187 -227l-11 -125h61l-9 -96h-242l9 96h49l11 120zM134 641l221 160l79 -63l-233 -165z" />
    <glyph glyph-name="thorn.sc" unicode="&#xf7fe;" horiz-adv-x="481" 
d="M22 0l9 96h49l32 352h-61l9 96h242l-9 -96h-49l-1 -29h70c101 0 155 -61 155 -128c0 -85 -68 -162 -165 -162h-88l-3 -33h61l-9 -96h-242zM236 345l-14 -142h44c41 0 70 35 70 85c0 40 -25 57 -56 57h-44z" />
    <glyph glyph-name="ydieresis.sc" unicode="&#xf7ff;" horiz-adv-x="500" 
d="M20 448h-48l9 96h258l-9 -96h-60l92 -135l111 135h-72l9 96h240l-9 -96h-44l-187 -227l-11 -125h61l-9 -96h-242l9 96h49l11 120zM77 681c0 43 33 81 86 81c49 0 82 -33 82 -75c0 -43 -33 -81 -87 -81c-48 0 -81 33 -81 75zM298 681c0 43 33 81 86 81c49 0 82 -33 82 -75
c0 -43 -33 -81 -87 -81c-48 0 -81 33 -81 75z" />
    <glyph glyph-name="Delta" unicode="&#x2206;" horiz-adv-x="692" 
d="M-1 0l5 70l306 654h142l186 -652l-6 -72h-633zM130 95h380l-98 322c-11 54 -37 138 -45 182h-4c-12 -35 -49 -112 -71 -166z" />
    <glyph glyph-name="Omega" unicode="&#x2126;" horiz-adv-x="757" 
d="M169 96v3c-62 57 -120 157 -108 290c16 183 162 329 352 329c201 0 302 -166 288 -324c-12 -135 -88 -239 -161 -295l-1 -3h150l-8 -96h-275l6 71c75 44 151 139 165 299c11 127 -46 251 -173 251c-121 0 -210 -110 -223 -255c-13 -147 44 -253 113 -295l-6 -71h-276
l9 96h148z" />
    <glyph glyph-name="uni03BC" unicode="&#x3bc;" horiz-adv-x="630" 
d="M37 -251l69 672h-63l9 102h208l-36 -250c-6 -45 -13 -92 -13 -120c0 -29 11 -43 31 -43c66 0 155 140 195 413h132c-13 -64 -23 -147 -30 -230l-16 -191h64l-9 -102h-186c6 71 16 134 32 189h-3c-51 -148 -142 -199 -192 -199c-20 0 -36 9 -42 26h-2l-28 -267h-120z" />
    <glyph glyph-name="pi" unicode="&#x3c0;" horiz-adv-x="627" 
d="M608 430h-77l-24 -276c-7 -79 -5 -123 1 -154h-117c-10 20 -12 71 -5 146l24 284h-157c-15 -116 -61 -331 -107 -430h-117c46 114 92 312 105 430c-53 0 -85 -4 -108 -11l-8 78c28 20 82 33 171 33h438z" />
    <glyph glyph-name="Euro" unicode="&#x20ac;" horiz-adv-x="592" 
d="M604 692l-9 -161h-95v70c-23 7 -49 10 -77 10c-91 0 -154 -46 -188 -138h316l-53 -89h-283c-3 -19 -4 -38 -4 -56h262l-53 -89h-200c13 -51 34 -88 65 -110c29 -21 70 -31 124 -31c43 0 97 9 164 28l-7 -114c-61 -19 -123 -28 -187 -28c-170 0 -269 85 -297 255h-70
l53 89h11c1 17 2 36 4 56h-68l53 89h33c49 165 158 248 327 248c52 0 112 -10 179 -29z" />
    <glyph glyph-name="afii61289" unicode="&#x2113;" horiz-adv-x="536" 
d="M449 178l46 -51c-62 -101 -144 -140 -227 -140c-122 0 -168 78 -171 170v11c-18 -13 -39 -29 -59 -43l-26 64c33 25 64 46 92 70l22 257c17 184 107 258 205 258c100 0 138 -80 129 -177c-10 -123 -103 -238 -243 -358l-2 -37c-6 -81 35 -120 88 -120c60 0 113 49 146 96
zM242 524l-15 -177c84 84 148 173 155 252c5 55 -9 91 -54 91c-33 0 -75 -38 -86 -166z" />
    <glyph glyph-name="estimated" unicode="&#x212e;" horiz-adv-x="917" 
d="M882 340h-660c-4 0 -6 -1 -6 -5v-199c0 -9 3 -17 9 -23c64 -66 152 -109 250 -109c105 0 198 48 262 122h59c-73 -86 -191 -142 -322 -142c-225 0 -408 164 -408 366c0 203 183 367 408 367s408 -164 408 -367v-10zM732 366v201c0 8 -3 17 -10 24
c-64 63 -151 104 -247 104c-97 0 -185 -43 -249 -108c-7 -6 -10 -15 -10 -25v-196c0 -2 2 -7 6 -7h506c3 0 4 5 4 7z" />
    <glyph glyph-name="partialdiff" unicode="&#x2202;" horiz-adv-x="598" 
d="M133 647l-27 86c34 25 98 59 195 59c152 0 273 -132 251 -386c-21 -244 -143 -419 -328 -419c-148 0 -205 131 -195 240c14 160 125 263 249 263c91 0 141 -62 155 -89h1c2 9 3 27 4 36c13 143 -53 258 -161 258c-65 0 -114 -27 -144 -48zM244 85h1c84 0 147 113 168 216
c-8 35 -49 94 -119 94c-76 0 -139 -79 -147 -171c-7 -78 31 -139 97 -139z" />
    <glyph glyph-name="product" unicode="&#x220f;" horiz-adv-x="784" 
d="M759 601h-111v-699h-118v699h-245v-699h-118v699h-111v106h703v-106z" />
    <glyph glyph-name="summation" unicode="&#x2211;" horiz-adv-x="618" 
d="M598 -98h-543v75l261 327l-251 321v82h516v-101h-353v-3l223 -281l-245 -308v-3h392v-109z" />
    <glyph glyph-name="uni2219" unicode="&#x2219;" horiz-adv-x="296" 
d="M64 266c0 46 38 84 84 84s84 -38 84 -84s-38 -84 -84 -84s-84 38 -84 84z" />
    <glyph glyph-name="radical" unicode="&#x221a;" horiz-adv-x="648" 
d="M658 845l-237 -990h-97l-161 450l-77 -31l-21 66l170 68l117 -340c7 -29 15 -60 20 -82h2c3 20 9 54 15 87l184 772h85z" />
    <glyph glyph-name="infinity" unicode="&#x221e;" horiz-adv-x="815" 
d="M765 293v-1c0 -109 -80 -175 -165 -175c-60 0 -116 30 -186 119c-54 -65 -109 -119 -193 -119c-85 0 -161 70 -161 170c0 102 73 174 170 174c77 0 134 -50 188 -117c46 52 98 117 189 117c90 0 158 -67 158 -168zM230 183h1c60 0 106 56 146 101
c-43 57 -83 113 -152 113c-60 0 -97 -49 -97 -111c0 -56 43 -103 102 -103zM600 397h-1c-65 0 -114 -69 -148 -106c65 -77 100 -108 152 -108c60 0 94 56 94 104c0 65 -40 110 -97 110z" />
    <glyph glyph-name="integral" unicode="&#x222b;" horiz-adv-x="430" 
d="M412 859l-13 -80c-10 5 -24 9 -38 9c-20 0 -40 -7 -53 -25c-23 -29 -30 -86 -30 -173c0 -163 15 -313 15 -491c0 -99 -17 -164 -40 -202c-27 -49 -77 -69 -126 -69c-31 0 -63 9 -78 17l16 83c10 -4 26 -11 46 -11c17 0 36 6 47 21c19 25 31 67 31 161
c0 180 -16 333 -16 503c0 116 18 180 62 225c29 31 73 45 115 45c25 0 50 -7 62 -13z" />
    <glyph glyph-name="approxequal" unicode="&#x2248;" horiz-adv-x="589" 
d="M504 456l43 -40c-33 -61 -81 -104 -140 -104c-43 0 -72 14 -120 42c-30 18 -57 34 -92 34c-47 0 -74 -36 -101 -74l-43 40c31 59 87 103 150 103c51 0 85 -24 113 -39c37 -22 59 -37 93 -37c41 0 68 28 97 75zM504 267l43 -41c-33 -59 -80 -103 -141 -103
c-42 0 -72 15 -119 42c-31 19 -58 35 -92 35c-48 0 -74 -37 -101 -75l-43 40c31 60 87 103 150 103c51 0 85 -23 112 -38c34 -19 58 -38 94 -38c42 0 67 28 97 75z" />
    <glyph glyph-name="notequal" unicode="&#x2260;" horiz-adv-x="597" 
d="M440 522l-42 -94h149v-69h-176l-64 -143h240v-70h-268l-54 -119l-55 23l44 96h-146v70h174l63 143h-237v69h264l53 117z" />
    <glyph glyph-name="lessequal" unicode="&#x2264;" horiz-adv-x="604" 
d="M552 100l-471 230v75l471 229v-80l-400 -185v-2l400 -186v-81zM555 -10h-478v71h478v-71z" />
    <glyph glyph-name="greaterequal" unicode="&#x2265;" horiz-adv-x="605" 
d="M82 634l471 -230v-74l-470 -230v81l399 185v3l-400 185v80zM554 -10h-477v71h477v-71z" />
    <glyph glyph-name="lozenge" unicode="&#x25ca;" horiz-adv-x="648" 
d="M596 353l-210 -403h-95l-206 403l210 403h95zM490 350l-129 255c-7 17 -15 40 -19 56h-3c-5 -17 -12 -37 -20 -56l-129 -250l130 -257c8 -20 15 -42 18 -54h4c4 13 13 41 18 52z" />
    <glyph glyph-name="uni00A0" unicode="&#xa0;" horiz-adv-x="296" 
 />
    <glyph glyph-name="uni00AD" unicode="&#xad;" horiz-adv-x="407" 
d="M62 241l11 114h272l-11 -114h-272z" />
    <glyph glyph-name="uni02C9" unicode="&#x2c9;" horiz-adv-x="278" 
d="M15 639l8 102h303l-8 -102h-303z" />
    <glyph glyph-name="zero.taboldstyle" unicode="&#xf643;" horiz-adv-x="592" 
d="M173 241c0 -73 33 -150 108 -150c91 0 132 84 132 188c0 89 -33 150 -109 150c-90 0 -131 -94 -131 -188zM41 240c0 159 97 297 271 297c133 0 233 -81 233 -258c0 -158 -97 -296 -271 -296c-133 0 -233 81 -233 257z" />
    <glyph glyph-name="one.taboldstyle" unicode="&#xf644;" horiz-adv-x="592" 
d="M236 421h-92l9 102h308l-9 -102h-84l-28 -319h92l-9 -102h-308l9 102h84z" />
    <glyph glyph-name="two.taboldstyle" unicode="&#xf645;" horiz-adv-x="592" 
d="M203 348h-127c8 88 84 189 236 189c128 0 194 -74 194 -160c0 -88 -76 -181 -266 -273l2 -2c43 2 88 6 133 6h133l-10 -108h-446l8 90l91 54c191 113 223 176 223 218c0 34 -26 67 -74 67c-68 0 -91 -45 -97 -81z" />
    <glyph glyph-name="three.taboldstyle" unicode="&#xf646;" horiz-adv-x="592" 
d="M16 -156l11 115c42 -26 127 -45 190 -45c116 0 155 57 155 109c0 57 -50 101 -174 101h-35l10 102c102 2 207 49 207 126c0 46 -39 71 -87 71c-69 0 -97 -45 -102 -78h-124c5 87 80 192 244 192c111 0 197 -57 197 -170c0 -100 -83 -163 -170 -180v-2
c83 -2 166 -50 166 -160c0 -112 -93 -225 -264 -225c-82 0 -168 17 -224 44z" />
    <glyph glyph-name="four.taboldstyle" unicode="&#xf647;" horiz-adv-x="592" 
d="M312 12h-316l11 118l309 393h172l-35 -403h123l-10 -108h-122l-17 -192h-132zM349 409l-223 -289h195l30 289h-2z" />
    <glyph glyph-name="five.taboldstyle" unicode="&#xf648;" horiz-adv-x="592" 
d="M31 -159l10 109c45 -19 113 -34 163 -34c131 0 172 71 172 133c0 88 -82 120 -303 123l30 351h406l-9 -108h-281l-11 -135c152 -2 306 -52 306 -220c0 -157 -140 -252 -274 -252c-70 0 -154 13 -209 33z" />
    <glyph glyph-name="six.taboldstyle" unicode="&#xf649;" horiz-adv-x="592" 
d="M179 256c0 -102 42 -159 116 -159c87 0 118 73 118 126c0 61 -40 114 -117 114c-44 0 -87 -16 -116 -44c-1 -13 -1 -25 -1 -37zM569 705l-11 -105c-29 5 -61 9 -97 9c-143 0 -243 -73 -279 -229l3 -2c35 39 85 67 147 67c128 0 213 -84 213 -214
c0 -120 -86 -248 -257 -248c-135 0 -247 90 -247 290c0 221 115 444 401 444c52 0 95 -4 127 -12z" />
    <glyph glyph-name="seven.taboldstyle" unicode="&#xf64a;" horiz-adv-x="592" 
d="M68 415l10 108h456l-9 -90l-145 -244c-116 -195 -197 -305 -320 -395l-79 80c96 76 141 131 206 234l194 307h-313z" />
    <glyph glyph-name="eight.taboldstyle" unicode="&#xf64b;" horiz-adv-x="592" 
d="M34 167c0 85 52 139 180 197c-80 45 -123 86 -123 163c0 117 90 190 238 190s216 -74 216 -170c0 -73 -57 -131 -145 -177c112 -58 151 -113 151 -184c0 -105 -87 -203 -258 -203c-145 0 -259 49 -259 184zM219 528c0 -31 15 -55 93 -104c79 42 105 79 105 115
c0 46 -36 76 -96 76c-62 0 -102 -32 -102 -87zM172 182c0 -68 55 -91 121 -91c74 0 120 41 120 96c0 44 -27 77 -116 123c-105 -57 -125 -88 -125 -128z" />
    <glyph glyph-name="nine.taboldstyle" unicode="&#xf64c;" horiz-adv-x="592" 
d="M12 -178l8 104c23 -6 67 -10 100 -10c170 0 243 89 277 227l-2 2c-32 -39 -79 -63 -133 -63c-143 0 -217 96 -217 209c0 134 93 246 248 246c160 0 247 -117 247 -298c0 -221 -138 -431 -389 -431c-55 0 -106 4 -139 14zM402 232v30c0 96 -39 161 -113 161
c-64 0 -112 -48 -112 -118c0 -75 55 -115 119 -115c35 0 73 16 106 42z" />
    <glyph glyph-name="dollar.taboldstyle" unicode="&#xf653;" horiz-adv-x="592" 
d="M229 97l18 212c-138 31 -200 93 -200 192c0 125 95 205 233 216l10 120h102l-10 -120c53 -4 116 -17 169 -33l-12 -182h-108v92c-16 7 -38 13 -58 15l-14 -186c175 -49 211 -113 211 -206c0 -135 -104 -227 -252 -234l-10 -133h-102l10 133c-78 4 -144 12 -194 35l12 188
h108v-95c25 -8 56 -12 87 -14zM258 451l12 158c-48 -9 -79 -36 -79 -83c0 -33 15 -58 67 -75zM345 284l-15 -187c72 12 96 61 96 100c0 36 -21 70 -81 87z" />
    <glyph glyph-name="cent.taboldstyle" unicode="&#xf654;" horiz-adv-x="592" 
d="M312 629h86l-8 -96c52 0 109 -8 146 -22l-12 -156h-102v70c-10 4 -27 7 -42 7l-27 -341c62 1 104 14 150 34l-10 -112c-36 -20 -96 -28 -150 -30l-10 -122h-86l10 122c-130 17 -194 111 -194 241c0 211 139 306 241 309zM268 107l26 318c-55 -22 -93 -73 -93 -185
c0 -65 23 -114 67 -133z" />
    <glyph glyph-name="f_i.sc" unicode="&#xe03d;" horiz-adv-x="796" 
d="M580 448h-61l9 96h242l-9 -96h-49l-32 -352h61l-9 -96h-242l9 96h49zM22 0l9 96h49l32 352h-61l9 96h403l-3 -167h-99l-3 71h-114l-11 -124h137l-9 -96h-137l-12 -132h61l-9 -96h-242z" />
    <glyph glyph-name="f_l.sc" unicode="&#xe03e;" horiz-adv-x="932" 
d="M490 0l9 96h49l32 352h-61l9 96h242l-9 -96h-49l-32 -352h127l17 79h102l-25 -175h-411zM22 0l9 96h49l32 352h-61l9 96h403l-3 -167h-99l-3 71h-114l-11 -124h137l-9 -96h-137l-12 -132h61l-9 -96h-242z" />
    <glyph glyph-name="germandbls.sc" unicode="&#xe03f;" horiz-adv-x="1004" 
d="M964 390h-101l-2 59c-15 3 -42 6 -64 6c-61 0 -87 -21 -87 -57c0 -24 15 -39 48 -48l75 -21c97 -27 139 -76 139 -154c0 -84 -61 -188 -237 -188c-54 0 -120 10 -179 28l3 156h105l3 -73c18 -5 43 -9 71 -9c76 0 102 40 102 71c0 24 -16 36 -52 48l-110 36
c-65 21 -100 74 -100 136c0 98 74 177 224 177c62 0 115 -8 162 -23v-144zM440 390h-101l-2 59c-15 3 -42 6 -64 6c-61 0 -87 -21 -87 -57c0 -24 15 -39 48 -48l75 -21c97 -27 139 -76 139 -154c0 -84 -61 -188 -237 -188c-54 0 -120 10 -179 28l3 156h105l3 -73
c18 -5 43 -9 71 -9c76 0 102 40 102 71c0 24 -16 36 -52 48l-110 36c-65 21 -100 74 -100 136c0 98 74 177 224 177c62 0 115 -8 162 -23v-144z" />
    <glyph glyph-name="uni2215" unicode="&#x2215;" horiz-adv-x="167" 
d="M-293 -17l684 791l69 -57l-684 -791z" />
    <glyph glyph-name="A.sc" unicode="&#xe000;" horiz-adv-x="591" 
d="M-27 0l9 96h41l225 461h144l146 -461h53l-9 -96h-253l9 96h50l-20 79h-178l-35 -79h66l-9 -96h-239zM344 271l-41 178h-2l-72 -178h115z" />
    <glyph glyph-name="B.sc" unicode="&#xe008;" horiz-adv-x="520" 
d="M22 0l9 96h49l32 352h-61l9 96h269c91 0 143 -45 143 -121c0 -79 -63 -122 -148 -131v-2c95 -7 152 -34 152 -128c0 -70 -66 -162 -168 -162h-286zM244 448l-12 -124h37c32 0 71 30 71 71c0 36 -21 53 -59 53h-37zM225 228l-13 -132h52c61 0 80 41 80 73
c0 44 -27 59 -65 59h-54z" />
    <glyph glyph-name="C.sc" unicode="&#xe009;" horiz-adv-x="554" 
d="M395 177h102l-20 -164c-59 -15 -120 -26 -189 -26c-166 0 -256 107 -256 250c0 169 94 320 310 320c61 0 117 -10 165 -22l-6 -163h-99v71c-18 4 -38 6 -57 6c-145 0 -175 -118 -175 -215c0 -92 55 -139 129 -139c30 0 57 4 83 9z" />
    <glyph glyph-name="D.sc" unicode="&#xe00b;" horiz-adv-x="610" 
d="M22 0l9 96h49l32 352h-61l9 96h281c136 0 241 -78 241 -243c0 -146 -101 -301 -297 -301h-263zM244 448l-32 -352h74c98 0 158 99 158 206c0 97 -49 146 -131 146h-69z" />
    <glyph glyph-name="E.sc" unicode="&#xe00c;" horiz-adv-x="519" 
d="M22 0l9 96h49l32 352h-61l9 96h403l-3 -167h-99l-3 71h-114l-11 -124h137l-9 -96h-137l-12 -132h128l18 78h102l-27 -174h-411z" />
    <glyph glyph-name="F.sc" unicode="&#xe012;" horiz-adv-x="463" 
d="M22 0l9 96h49l32 352h-61l9 96h403l-3 -167h-99l-3 71h-114l-11 -124h137l-9 -96h-137l-12 -132h61l-9 -96h-242z" />
    <glyph glyph-name="G.sc" unicode="&#xe013;" horiz-adv-x="573" 
d="M499 188l-14 -175c-63 -16 -134 -26 -197 -26c-166 0 -256 107 -256 250c0 169 94 320 310 320c61 0 125 -11 174 -24l-5 -162h-100l1 72c-20 4 -41 6 -67 6c-145 0 -175 -118 -175 -215c0 -92 55 -139 129 -139c26 0 54 1 75 3l8 90h-57l9 96h222l-9 -96h-48z" />
    <glyph glyph-name="H.sc" unicode="&#xe014;" horiz-adv-x="648" 
d="M416 228h-192l-12 -132h61l-9 -96h-242l9 96h49l32 352h-61l9 96h242l-9 -96h-49l-11 -124h192l11 124h-61l9 96h242l-9 -96h-49l-32 -352h61l-9 -96h-242l9 96h49z" />
    <glyph glyph-name="I.sc" unicode="&#xe015;" horiz-adv-x="332" 
d="M116 448h-61l9 96h242l-9 -96h-49l-32 -352h61l-9 -96h-242l9 96h49z" />
    <glyph glyph-name="J.sc" unicode="&#xe01a;" horiz-adv-x="299" 
d="M15 -152l-53 82c83 53 109 122 115 215l20 303h-61l9 96h242l-9 -96h-49l-23 -307c-9 -125 -46 -213 -191 -293z" />
    <glyph glyph-name="K.sc" unicode="&#xe01b;" horiz-adv-x="595" 
d="M22 0l9 96h49l32 352h-61l9 96h242l-9 -96h-49l-18 -164l175 164h-52l9 96h240l-9 -96h-49l-182 -164l170 -188h49l-9 -96h-254l9 96h49l-147 173l-13 -173h49l-9 -96h-230z" />
    <glyph glyph-name="L.sc" unicode="&#xe01c;" horiz-adv-x="468" 
d="M26 0l9 96h49l32 352h-61l9 96h242l-9 -96h-49l-32 -352h127l17 79h102l-25 -175h-411z" />
    <glyph glyph-name="M.sc" unicode="&#xe01e;" horiz-adv-x="852" 
d="M30 0l9 96h49l32 352h-61l9 96h251l105 -399h2l163 399h233l-9 -96h-49l-32 -352h61l-9 -96h-230l9 96h49l30 328h-2l-174 -424h-132l-106 418h-2l-27 -322h54l-9 -96h-214z" />
    <glyph glyph-name="N.sc" unicode="&#xe01f;" horiz-adv-x="650" 
d="M576 448l-40 -454h-114l-212 345h-2l-20 -243h61l-9 -96h-224l9 96h49l32 352h-61l9 96h184l202 -322h2l20 226h-61l9 96h224l-9 -96h-49z" />
    <glyph glyph-name="O.sc" unicode="&#xe021;" 
d="M170 237c0 -85 38 -142 120 -142c102 0 133 103 133 207c0 90 -31 147 -114 147c-93 0 -139 -87 -139 -212zM32 239c0 155 75 318 281 318c162 0 248 -97 248 -251c0 -156 -75 -319 -282 -319c-161 0 -247 97 -247 252z" />
    <glyph glyph-name="P.sc" unicode="&#xe029;" horiz-adv-x="481" 
d="M22 0l9 96h49l32 352h-61l9 96h263c99 0 153 -61 153 -148c0 -105 -68 -182 -165 -182h-88l-11 -118h61l-9 -96h-242zM244 448l-14 -138h44c41 0 70 35 70 83c0 38 -25 55 -56 55h-44z" />
    <glyph glyph-name="Q.sc" unicode="&#xe02a;" horiz-adv-x="611" 
d="M609 -35l-8 -103c-15 -6 -33 -9 -69 -9c-66 0 -156 54 -244 128c-8 6 -21 9 -34 9c-132 0 -222 97 -222 249c0 155 75 318 281 318c162 0 248 -97 248 -251c0 -122 -57 -260 -154 -284v-2h13c46 0 96 -59 147 -59c15 0 27 1 42 4zM170 237c0 -85 38 -142 120 -142
c102 0 133 103 133 207c0 90 -31 147 -114 147c-93 0 -139 -87 -139 -212z" />
    <glyph glyph-name="R.sc" unicode="&#xe02b;" horiz-adv-x="538" 
d="M521 96l-8 -96h-76c-45 0 -73 15 -96 64l-50 106c-22 46 -30 52 -69 52l-10 -126h43l-8 -96h-225l9 96h49l32 352h-61l9 96h249c114 0 169 -56 169 -131c0 -90 -66 -147 -159 -153v-2c44 -3 73 -13 95 -52l49 -85c12 -20 25 -25 41 -25h17zM244 448l-13 -130h50
c37 0 65 36 65 72c0 39 -24 58 -62 58h-40z" />
    <glyph glyph-name="S.sc" unicode="&#xe02c;" horiz-adv-x="502" 
d="M440 390h-101l-2 59c-15 3 -42 6 -64 6c-61 0 -87 -21 -87 -57c0 -24 15 -39 48 -48l75 -21c97 -27 139 -76 139 -154c0 -84 -61 -188 -237 -188c-54 0 -120 10 -179 28l3 156h105l3 -73c18 -5 43 -9 71 -9c76 0 102 40 102 71c0 24 -16 36 -52 48l-110 36
c-65 21 -100 74 -100 136c0 98 74 177 224 177c62 0 115 -8 162 -23v-144z" />
    <glyph glyph-name="T.sc" unicode="&#xe02e;" horiz-adv-x="480" 
d="M95 0l9 96h49l32 352h-77l-15 -72h-99l23 168h478l-2 -168h-100l-2 72h-74l-32 -352h61l-9 -96h-242z" />
    <glyph glyph-name="U.sc" unicode="&#xe030;" horiz-adv-x="628" 
d="M98 448h-61l9 96h242l-9 -96h-49l-18 -200c-3 -28 -8 -54 -8 -82c0 -40 28 -71 93 -71c75 0 108 33 114 100l23 253h-61l9 96h224l-9 -96h-49l-23 -257c-9 -105 -50 -204 -231 -204c-156 0 -222 55 -222 160c0 26 5 61 8 95z" />
    <glyph glyph-name="V.sc" unicode="&#xe035;" horiz-adv-x="575" 
d="M42 448h-53l9 96h253l-9 -96h-50l88 -334h2l138 334h-62l9 96h238l-9 -96h-44l-216 -454h-138z" />
    <glyph glyph-name="W.sc" unicode="&#xe036;" horiz-adv-x="907" 
d="M52 448h-52l9 96h251l-9 -96h-52l89 -340h2l127 282l-16 58h-59l9 96h243l-9 -96h-52l89 -340h2l139 340h-67l8 96h241l-9 -96h-44l-215 -454h-144l-72 254l-116 -254h-144z" />
    <glyph glyph-name="X.sc" unicode="&#xe037;" 
d="M0 0l9 96h41l171 178l-137 174h-52l9 96h269l-9 -96h-52l72 -94l90 94h-73l9 96h228l-9 -96h-41l-155 -164l143 -188h52l-9 -96h-268l9 96h57l-81 108l-103 -108h76l-9 -96h-237z" />
    <glyph glyph-name="Y.sc" unicode="&#xe038;" horiz-adv-x="500" 
d="M20 448h-48l9 96h258l-9 -96h-60l92 -135l111 135h-72l9 96h240l-9 -96h-44l-187 -227l-11 -125h61l-9 -96h-242l9 96h49l11 120z" />
    <glyph glyph-name="Z.sc" unicode="&#xe03b;" horiz-adv-x="520" 
d="M151 379h-102l25 165h433l-7 -87l-328 -361h188l17 78h108l-26 -174h-457l10 96l322 352h-167z" />
    <glyph glyph-name="Lslash.sc" unicode="&#xe01d;" horiz-adv-x="468" 
d="M26 0l9 96h49l8 86l-56 -34l6 78l57 34l17 188h-61l9 96h242l-9 -96h-49l-10 -105l114 67l-6 -76l-115 -69l-15 -169h127l17 79h102l-25 -175h-411z" />
    <glyph glyph-name="Scaron.sc" unicode="&#xe02d;" horiz-adv-x="502" 
d="M440 390h-101l-2 59c-15 3 -42 6 -64 6c-61 0 -87 -21 -87 -57c0 -24 15 -39 48 -48l75 -21c97 -27 139 -76 139 -154c0 -84 -61 -188 -237 -188c-54 0 -120 10 -179 28l3 156h105l3 -73c18 -5 43 -9 71 -9c76 0 102 40 102 71c0 24 -16 36 -52 48l-110 36
c-65 21 -100 74 -100 136c0 98 74 177 224 177c62 0 115 -8 162 -23v-144zM230 615l-146 125l86 61l114 -96l135 96l75 -61l-168 -125h-96z" />
    <glyph glyph-name="Zcaron.sc" unicode="&#xe03c;" horiz-adv-x="520" 
d="M151 379h-102l25 165h433l-7 -87l-328 -361h188l17 78h108l-26 -174h-457l10 96l322 352h-167zM239 615l-146 125l86 61l114 -96l135 96l75 -61l-168 -125h-96z" />
    <glyph glyph-name="Agrave.sc" unicode="&#xe005;" horiz-adv-x="591" 
d="M-27 0l9 96h41l225 461h144l146 -461h53l-9 -96h-253l9 96h50l-20 79h-178l-35 -79h66l-9 -96h-239zM344 271l-41 178h-2l-72 -178h115zM293 801l191 -171l-80 -57l-196 165z" />
    <glyph glyph-name="Aacute.sc" unicode="&#xe002;" horiz-adv-x="591" 
d="M-27 0l9 96h41l225 461h144l146 -461h53l-9 -96h-253l9 96h50l-20 79h-178l-35 -79h66l-9 -96h-239zM344 271l-41 178h-2l-72 -178h115zM200 641l221 160l79 -63l-233 -165z" />
    <glyph glyph-name="Acircumflex.sc" unicode="&#xe003;" horiz-adv-x="591" 
d="M-27 0l9 96h41l225 461h144l146 -461h53l-9 -96h-253l9 96h50l-20 79h-178l-35 -79h66l-9 -96h-239zM344 271l-41 178h-2l-72 -178h115zM141 679l179 122h90l157 -122l-88 -64l-123 96l-141 -96z" />
    <glyph glyph-name="Atilde.sc" unicode="&#xe007;" horiz-adv-x="591" 
d="M-27 0l9 96h41l225 461h144l146 -461h53l-9 -96h-253l9 96h50l-20 79h-178l-35 -79h66l-9 -96h-239zM344 271l-41 178h-2l-72 -178h115zM233 615l-87 34c29 68 72 113 132 113c32 0 60 -15 84 -31s46 -31 65 -31c21 0 37 13 58 50l75 -50c-42 -69 -81 -96 -130 -96
c-48 0 -116 62 -149 62c-21 0 -38 -22 -48 -51z" />
    <glyph glyph-name="Adieresis.sc" unicode="&#xe004;" horiz-adv-x="591" 
d="M-27 0l9 96h41l225 461h144l146 -461h53l-9 -96h-253l9 96h50l-20 79h-178l-35 -79h66l-9 -96h-239zM344 271l-41 178h-2l-72 -178h115zM153 681c0 43 33 81 86 81c49 0 82 -33 82 -75c0 -43 -33 -81 -87 -81c-48 0 -81 33 -81 75zM374 681c0 43 33 81 86 81
c49 0 82 -33 82 -75c0 -43 -33 -81 -87 -81c-48 0 -81 33 -81 75z" />
    <glyph glyph-name="Aring.sc" unicode="&#xe006;" horiz-adv-x="591" 
d="M-27 0l9 96h41l225 461h144l146 -461h53l-9 -96h-253l9 96h50l-20 79h-178l-35 -79h66l-9 -96h-239zM344 271l-41 178h-2l-72 -178h115zM298 684c0 -31 16 -48 38 -48c23 0 48 19 48 61c0 33 -16 50 -38 50c-23 0 -48 -19 -48 -63zM230 682c0 74 57 115 120 115
c56 0 102 -35 102 -102c0 -74 -57 -115 -120 -115c-56 0 -102 35 -102 102z" />
    <glyph glyph-name="AE.sc" unicode="&#xe001;" horiz-adv-x="779" 
d="M375 448h-47l-73 -124h109zM-56 0l9 96h40l286 448h434l-3 -167h-99l-3 71h-101l-11 -124h137l-9 -96h-137l-12 -132h128l18 78h102l-27 -174h-411l9 96h49l12 132h-153l-77 -132h66l-9 -96h-238z" />
    <glyph glyph-name="Ccedilla.sc" unicode="&#xe00a;" horiz-adv-x="554" 
d="M395 177h102l-20 -164c-55 -14 -111 -24 -174 -26l-8 -65c66 -2 95 -34 95 -83c0 -60 -55 -111 -161 -111c-42 0 -79 9 -111 21l16 64c33 -9 63 -17 89 -17c47 0 65 15 65 36c0 24 -10 39 -73 40l15 120c-129 22 -198 120 -198 245c0 169 94 320 310 320
c61 0 117 -10 165 -22l-6 -163h-99v71c-18 4 -38 6 -57 6c-145 0 -175 -118 -175 -215c0 -92 55 -139 129 -139c30 0 57 4 83 9z" />
    <glyph glyph-name="Egrave.sc" unicode="&#xe010;" horiz-adv-x="519" 
d="M22 0l9 96h49l32 352h-61l9 96h403l-3 -167h-99l-3 71h-114l-11 -124h137l-9 -96h-137l-12 -132h128l18 78h102l-27 -174h-411zM257 801l191 -171l-80 -57l-196 165z" />
    <glyph glyph-name="Eacute.sc" unicode="&#xe00d;" horiz-adv-x="519" 
d="M22 0l9 96h49l32 352h-61l9 96h403l-3 -167h-99l-3 71h-114l-11 -124h137l-9 -96h-137l-12 -132h128l18 78h102l-27 -174h-411zM164 641l221 160l79 -63l-233 -165z" />
    <glyph glyph-name="Ecircumflex.sc" unicode="&#xe00e;" horiz-adv-x="519" 
d="M22 0l9 96h49l32 352h-61l9 96h403l-3 -167h-99l-3 71h-114l-11 -124h137l-9 -96h-137l-12 -132h128l18 78h102l-27 -174h-411zM105 679l179 122h90l157 -122l-88 -64l-123 96l-141 -96z" />
    <glyph glyph-name="Edieresis.sc" unicode="&#xe00f;" horiz-adv-x="519" 
d="M22 0l9 96h49l32 352h-61l9 96h403l-3 -167h-99l-3 71h-114l-11 -124h137l-9 -96h-137l-12 -132h128l18 78h102l-27 -174h-411zM132 681c0 43 33 81 86 81c49 0 82 -33 82 -75c0 -43 -33 -81 -87 -81c-48 0 -81 33 -81 75zM353 681c0 43 33 81 86 81c49 0 82 -33 82 -75
c0 -43 -33 -81 -87 -81c-48 0 -81 33 -81 75z" />
    <glyph glyph-name="Igrave.sc" unicode="&#xe019;" horiz-adv-x="332" 
d="M116 448h-61l9 96h242l-9 -96h-49l-32 -352h61l-9 -96h-242l9 96h49zM143 801l191 -171l-80 -57l-196 165z" />
    <glyph glyph-name="Iacute.sc" unicode="&#xe016;" horiz-adv-x="332" 
d="M116 448h-61l9 96h242l-9 -96h-49l-32 -352h61l-9 -96h-242l9 96h49zM50 641l221 160l79 -63l-233 -165z" />
    <glyph glyph-name="Icircumflex.sc" unicode="&#xe017;" horiz-adv-x="332" 
d="M116 448h-61l9 96h242l-9 -96h-49l-32 -352h61l-9 -96h-242l9 96h49zM-19 679l179 122h90l157 -122l-88 -64l-123 96l-141 -96z" />
    <glyph glyph-name="Idieresis.sc" unicode="&#xe018;" horiz-adv-x="332" 
d="M116 448h-61l9 96h242l-9 -96h-49l-32 -352h61l-9 -96h-242l9 96h49zM-7 681c0 43 33 81 86 81c49 0 82 -33 82 -75c0 -43 -33 -81 -87 -81c-48 0 -81 33 -81 75zM214 681c0 43 33 81 86 81c49 0 82 -33 82 -75c0 -43 -33 -81 -87 -81c-48 0 -81 33 -81 75z" />
    <glyph glyph-name="Eth.sc" unicode="&#xe011;" horiz-adv-x="610" 
d="M22 0l9 96h49l12 132h-54l7 96h56l11 124h-61l9 96h281c136 0 241 -78 241 -243c0 -146 -101 -301 -297 -301h-263zM244 448l-11 -124h94l-7 -96h-96l-12 -132h74c98 0 158 99 158 206c0 97 -49 146 -131 146h-69z" />
    <glyph glyph-name="Ntilde.sc" unicode="&#xe020;" horiz-adv-x="650" 
d="M576 448l-40 -454h-114l-212 345h-2l-20 -243h61l-9 -96h-224l9 96h49l32 352h-61l9 96h184l202 -322h2l20 226h-61l9 96h224l-9 -96h-49zM230 615l-87 34c29 68 72 113 132 113c32 0 60 -15 84 -31s46 -31 65 -31c21 0 37 13 58 50l75 -50c-42 -69 -81 -96 -130 -96
c-48 0 -116 62 -149 62c-21 0 -38 -22 -48 -51z" />
    <glyph glyph-name="Ograve.sc" unicode="&#xe026;" 
d="M170 237c0 -85 38 -142 120 -142c102 0 133 103 133 207c0 90 -31 147 -114 147c-93 0 -139 -87 -139 -212zM32 239c0 155 75 318 281 318c162 0 248 -97 248 -251c0 -156 -75 -319 -282 -319c-161 0 -247 97 -247 252zM274 801l191 -171l-80 -57l-196 165z" />
    <glyph glyph-name="Oacute.sc" unicode="&#xe023;" 
d="M170 237c0 -85 38 -142 120 -142c102 0 133 103 133 207c0 90 -31 147 -114 147c-93 0 -139 -87 -139 -212zM32 239c0 155 75 318 281 318c162 0 248 -97 248 -251c0 -156 -75 -319 -282 -319c-161 0 -247 97 -247 252zM201 641l221 160l79 -63l-233 -165z" />
    <glyph glyph-name="Ocircumflex.sc" unicode="&#xe024;" 
d="M170 237c0 -85 38 -142 120 -142c102 0 133 103 133 207c0 90 -31 147 -114 147c-93 0 -139 -87 -139 -212zM32 239c0 155 75 318 281 318c162 0 248 -97 248 -251c0 -156 -75 -319 -282 -319c-161 0 -247 97 -247 252zM122 679l179 122h90l157 -122l-88 -64l-123 96
l-141 -96z" />
    <glyph glyph-name="Otilde.sc" unicode="&#xe028;" 
d="M170 237c0 -85 38 -142 120 -142c102 0 133 103 133 207c0 90 -31 147 -114 147c-93 0 -139 -87 -139 -212zM32 239c0 155 75 318 281 318c162 0 248 -97 248 -251c0 -156 -75 -319 -282 -319c-161 0 -247 97 -247 252zM214 615l-87 34c29 68 72 113 132 113
c32 0 60 -15 84 -31s46 -31 65 -31c21 0 37 13 58 50l75 -50c-42 -69 -81 -96 -130 -96c-48 0 -116 62 -149 62c-21 0 -38 -22 -48 -51z" />
    <glyph glyph-name="Odieresis.sc" unicode="&#xe025;" 
d="M170 237c0 -85 38 -142 120 -142c102 0 133 103 133 207c0 90 -31 147 -114 147c-93 0 -139 -87 -139 -212zM32 239c0 155 75 318 281 318c162 0 248 -97 248 -251c0 -156 -75 -319 -282 -319c-161 0 -247 97 -247 252zM124 681c0 43 33 81 86 81c49 0 82 -33 82 -75
c0 -43 -33 -81 -87 -81c-48 0 -81 33 -81 75zM345 681c0 43 33 81 86 81c49 0 82 -33 82 -75c0 -43 -33 -81 -87 -81c-48 0 -81 33 -81 75z" />
    <glyph glyph-name="OE.sc" unicode="&#xe022;" horiz-adv-x="797" 
d="M636 174h102l-27 -174h-461c-138 0 -230 97 -230 238c0 164 111 306 282 306h439l-3 -167h-99l-3 71h-114l-11 -124h137l-9 -96h-137l-12 -132h128zM358 96l32 352h-66c-114 0 -166 -110 -166 -199c0 -91 48 -153 157 -153h43z" />
    <glyph glyph-name="Oslash.sc" unicode="&#xe027;" 
d="M181 168l193 264c-16 11 -38 17 -65 17c-93 0 -139 -87 -139 -212c0 -27 4 -50 11 -69zM72 -90l-52 38l77 105c-43 46 -65 109 -65 186c0 155 75 318 281 318c52 0 96 -10 131 -29l77 106l52 -38l-77 -105c44 -45 65 -108 65 -185c0 -156 -75 -319 -282 -319
c-51 0 -95 10 -130 29zM413 376l-192 -262c18 -12 41 -19 69 -19c102 0 133 103 133 207c0 28 -3 53 -10 74z" />
    <glyph glyph-name="Ugrave.sc" unicode="&#xe034;" horiz-adv-x="628" 
d="M98 448h-61l9 96h242l-9 -96h-49l-18 -200c-3 -28 -8 -54 -8 -82c0 -40 28 -71 93 -71c75 0 108 33 114 100l23 253h-61l9 96h224l-9 -96h-49l-23 -257c-9 -105 -50 -204 -231 -204c-156 0 -222 55 -222 160c0 26 5 61 8 95zM291 801l191 -171l-80 -57l-196 165z" />
    <glyph glyph-name="Uacute.sc" unicode="&#xe031;" horiz-adv-x="628" 
d="M98 448h-61l9 96h242l-9 -96h-49l-18 -200c-3 -28 -8 -54 -8 -82c0 -40 28 -71 93 -71c75 0 108 33 114 100l23 253h-61l9 96h224l-9 -96h-49l-23 -257c-9 -105 -50 -204 -231 -204c-156 0 -222 55 -222 160c0 26 5 61 8 95zM198 641l221 160l79 -63l-233 -165z" />
    <glyph glyph-name="Ucircumflex.sc" unicode="&#xe032;" horiz-adv-x="628" 
d="M98 448h-61l9 96h242l-9 -96h-49l-18 -200c-3 -28 -8 -54 -8 -82c0 -40 28 -71 93 -71c75 0 108 33 114 100l23 253h-61l9 96h224l-9 -96h-49l-23 -257c-9 -105 -50 -204 -231 -204c-156 0 -222 55 -222 160c0 26 5 61 8 95zM139 679l179 122h90l157 -122l-88 -64
l-123 96l-141 -96z" />
    <glyph glyph-name="Udieresis.sc" unicode="&#xe033;" horiz-adv-x="628" 
d="M98 448h-61l9 96h242l-9 -96h-49l-18 -200c-3 -28 -8 -54 -8 -82c0 -40 28 -71 93 -71c75 0 108 33 114 100l23 253h-61l9 96h224l-9 -96h-49l-23 -257c-9 -105 -50 -204 -231 -204c-156 0 -222 55 -222 160c0 26 5 61 8 95zM141 681c0 43 33 81 86 81
c49 0 82 -33 82 -75c0 -43 -33 -81 -87 -81c-48 0 -81 33 -81 75zM362 681c0 43 33 81 86 81c49 0 82 -33 82 -75c0 -43 -33 -81 -87 -81c-48 0 -81 33 -81 75z" />
    <glyph glyph-name="Yacute.sc" unicode="&#xe039;" horiz-adv-x="500" 
d="M20 448h-48l9 96h258l-9 -96h-60l92 -135l111 135h-72l9 96h240l-9 -96h-44l-187 -227l-11 -125h61l-9 -96h-242l9 96h49l11 120zM134 641l221 160l79 -63l-233 -165z" />
    <glyph glyph-name="Thorn.sc" unicode="&#xe02f;" horiz-adv-x="481" 
d="M22 0l9 96h49l32 352h-61l9 96h242l-9 -96h-49l-1 -29h70c101 0 155 -61 155 -128c0 -85 -68 -162 -165 -162h-88l-3 -33h61l-9 -96h-242zM236 345l-14 -142h44c41 0 70 35 70 85c0 40 -25 57 -56 57h-44z" />
    <glyph glyph-name="Ydieresis.sc" unicode="&#xe03a;" horiz-adv-x="500" 
d="M20 448h-48l9 96h258l-9 -96h-60l92 -135l111 135h-72l9 96h240l-9 -96h-44l-187 -227l-11 -125h61l-9 -96h-242l9 96h49l11 120zM77 681c0 43 33 81 86 81c49 0 82 -33 82 -75c0 -43 -33 -81 -87 -81c-48 0 -81 33 -81 75zM298 681c0 43 33 81 86 81c49 0 82 -33 82 -75
c0 -43 -33 -81 -87 -81c-48 0 -81 33 -81 75z" />
    <glyph glyph-name="uni03A9" unicode="&#x3a9;" horiz-adv-x="757" 
d="M169 96v3c-62 57 -120 157 -108 290c16 183 162 329 352 329c201 0 302 -166 288 -324c-12 -135 -88 -239 -161 -295l-1 -3h150l-8 -96h-275l6 71c75 44 151 139 165 299c11 127 -46 251 -173 251c-121 0 -210 -110 -223 -255c-13 -147 44 -253 113 -295l-6 -71h-276
l9 96h148z" />
    </font>
</defs>
</svg>
