<?xml version="1.0" standalone="no"?>
<!DOCTYPE svg PUBLIC "-//W3C//DTD SVG 1.1//EN" "http://www.w3.org/Graphics/SVG/1.1/DTD/svg11.dtd" >
<svg>
<metadata>
Created by FontForge 20110222 at Sat Nov 17 04:17:00 2012
 By Stefan Warting
 The digitally encoded machine readable software for producing the
 Typefaces licensed to you is copyrighted (c) 1991, 1992, 1995, 2002 Adobe Systems.
 All Rights Reserved. This software is the property of Adobe Systems
 Incorporated and its licensors, and may not be reproduced, used, 
 displayed, modified, disclosed or transferred without the express 
 written approval of Adobe.
 
 The digitally encoded machine readable outline data for producing the Typefaces 
 provided as part of your laser printer is copyrighted (c) 1981, 2002 Heidelberger Druckmaschinen AG. 
 All rights reserved. This data is the property of Heidelberger Druckmaschinen AG, 
 and may not be reproduced, used, displayed, modified, disclosed or transferred 
 without the express written approval of Heidelberger Druckmaschinen AG. 
</metadata>
<defs>
<font id="CaeciliaLTStd-LightItalic" horiz-adv-x="278" >
  <font-face 
    font-family="Caecilia LT Std"
    font-weight="300"
    font-style="italic"
    font-stretch="normal"
    units-per-em="1000"
    panose-1="0 0 4 0 0 0 0 0 0 0"
    ascent="769"
    descent="-231"
    x-height="514"
    cap-height="700"
    bbox="-166 -267 1033 909"
    underline-thickness="50"
    underline-position="-50"
    slope="-5"
    stemh="44"
    stemv="44"
    unicode-range="U+0020-FB02"
  />
<missing-glyph horiz-adv-x="535" 
d="M35 0v700h500v-700h-500zM285 395l170 255h-340zM315 350l170 -255v510zM115 50h340l-170 255zM85 605v-510l170 255z" />
    <glyph glyph-name="f_i" unicode="fi" horiz-adv-x="556" 
d="M54 470l4 44h79c12 176 64 263 230 263c47 0 87 -11 111 -20l-5 -44c-28 10 -58 20 -106 20c-151 0 -170 -88 -178 -219h277l-42 -470h85l-4 -44h-133l42 470h-228l-27 -358c-16 -218 -36 -375 -207 -375c-29 0 -63 9 -88 17l4 44c27 -10 55 -17 80 -17
c115 0 144 93 161 331l25 358h-80z" />
    <glyph glyph-name="f_l" unicode="fl" horiz-adv-x="556" 
d="M54 470l4 44h79c12 176 64 263 230 263c22 0 45 -3 68 -8h53l-64 -725h85l-4 -44h-133l64 721c-15 6 -42 12 -69 12c-151 0 -170 -88 -178 -219h148l-4 -44h-147l-27 -358c-16 -218 -36 -375 -207 -375c-29 0 -63 9 -88 17l4 44c27 -10 55 -17 80 -17
c115 0 144 93 161 331l25 358h-80z" />
    <glyph glyph-name=".notdef" horiz-adv-x="535" 
d="M35 0v700h500v-700h-500zM285 395l170 255h-340zM315 350l170 -255v510zM115 50h340l-170 255zM85 605v-510l170 255z" />
    <glyph glyph-name="space" unicode=" " 
 />
    <glyph glyph-name="exclam" unicode="!" horiz-adv-x="296" 
d="M78 35c0 28 16 52 44 52c26 0 42 -22 42 -47c0 -28 -22 -46 -43 -46c-27 0 -43 18 -43 41zM117 236l40 533h56l-52 -533h-44z" />
    <glyph glyph-name="quotedbl" unicode="&#x22;" horiz-adv-x="389" 
d="M259 564l-14 139c-2 18 -3 30 -3 40c0 11 9 34 36 34s36 -23 36 -34c0 -10 -1 -22 -3 -40l-14 -139c-1 -11 -5 -24 -19 -24s-18 13 -19 24zM122 564l-14 139c-2 18 -3 30 -3 40c0 11 9 34 36 34s36 -23 36 -34c0 -10 -1 -22 -3 -40l-14 -139c-1 -11 -5 -24 -19 -24
s-18 13 -19 24z" />
    <glyph glyph-name="numbersign" unicode="#" horiz-adv-x="556" 
d="M338 272l22 156h-142l-22 -156h142zM110 0l31 224h-115l7 48h115l22 156h-115l7 48h115l31 224h48l-31 -224h142l31 224h48l-31 -224h115l-7 -48h-115l-22 -156h115l-7 -48h-115l-31 -224h-48l31 224h-142l-31 -224h-48z" />
    <glyph glyph-name="dollar" unicode="$" horiz-adv-x="556" 
d="M215 -144l12 134c-88 4 -168 24 -193 36l11 134h44l-3 -100c38 -14 116 -26 145 -26l28 309c-155 47 -191 102 -191 176c0 148 137 186 224 191l11 124h44l-11 -124c58 -3 115 -13 157 -30l-6 -124h-41v92c-29 9 -74 18 -114 18l-25 -282c107 -36 200 -70 200 -185
c0 -139 -122 -200 -236 -209l-12 -134h-44zM264 396l24 270c-86 -3 -164 -53 -164 -142c0 -72 49 -94 140 -128zM302 329l-27 -295c80 9 176 54 176 162c0 75 -56 99 -149 133z" />
    <glyph glyph-name="percent" unicode="%" horiz-adv-x="796" 
d="M112 540c0 -58 27 -102 89 -102c42 0 99 32 99 128c0 56 -24 100 -84 100c-49 0 -104 -27 -104 -126zM60 540c0 93 56 170 159 170c81 0 133 -52 133 -142c0 -106 -69 -174 -156 -174c-92 0 -136 66 -136 146zM452 136c0 93 56 170 159 170c81 0 133 -52 133 -142
c0 -106 -69 -174 -156 -174c-92 0 -136 66 -136 146zM504 136c0 -58 27 -102 89 -102c42 0 99 32 99 128c0 56 -24 100 -84 100c-49 0 -104 -27 -104 -126zM37 -19l681 767l32 -29l-681 -767z" />
    <glyph glyph-name="ampersand" unicode="&#x26;" horiz-adv-x="741" 
d="M679 411l-4 -44h-67c-5 -77 -29 -164 -73 -223l55 -59c31 -34 47 -41 80 -41h30l-4 -44h-40c-53 0 -63 15 -121 75l-29 30c-25 -23 -93 -105 -233 -105c-136 0 -221 75 -221 183c0 114 96 174 175 228c-47 50 -80 96 -80 155c0 75 58 148 161 148c75 0 139 -41 139 -119
c0 -90 -97 -152 -154 -186l214 -234c30 46 52 125 53 192h-80l4 44h195zM399 591c0 58 -48 79 -92 79c-61 0 -112 -33 -112 -100c0 -48 37 -97 72 -135c57 39 132 80 132 156zM478 137l-225 246c-52 -32 -149 -101 -149 -195c0 -102 93 -144 173 -144c109 0 168 55 201 93z
" />
    <glyph glyph-name="quoteright" unicode="&#x2019;" 
d="M89 540l-17 31c41 17 84 42 84 90c0 38 -31 39 -31 76c0 29 24 40 43 40c35 0 54 -29 54 -74c0 -96 -73 -137 -133 -163z" />
    <glyph glyph-name="parenleft" unicode="(" horiz-adv-x="333" 
d="M348 785l30 -26c-110 -140 -218 -316 -218 -577c0 -163 33 -292 113 -422l-31 -27c-86 132 -138 271 -138 458c0 226 98 434 244 594z" />
    <glyph glyph-name="parenright" unicode=")" horiz-adv-x="333" 
d="M-65 -267l-30 26c110 140 218 316 218 577c0 163 -33 292 -113 422l31 27c86 -132 138 -271 138 -458c0 -226 -98 -434 -244 -594z" />
    <glyph glyph-name="asterisk" unicode="*" horiz-adv-x="333" 
d="M148 494l25 114l-101 -66l-24 46l111 42l-102 60l31 44l87 -82l2 117h52l-27 -117l95 68l26 -46l-112 -44l104 -56l-30 -43l-85 77v-114h-52z" />
    <glyph glyph-name="plus" unicode="+" horiz-adv-x="600" 
d="M276 0v229h-229v48h229v229h48v-229h229v-48h-229v-229h-48z" />
    <glyph glyph-name="comma" unicode="," 
d="M46 -153l-17 31c41 17 84 42 84 90c0 38 -31 39 -31 76c0 29 24 40 43 40c35 0 54 -29 54 -74c0 -96 -73 -137 -133 -163z" />
    <glyph glyph-name="hyphen" unicode="-" horiz-adv-x="352" 
d="M65 236l4 48h208l-4 -48h-208z" />
    <glyph glyph-name="period" unicode="." 
d="M73 35c0 28 16 52 44 52c26 0 42 -22 42 -47c0 -28 -22 -46 -43 -46c-27 0 -43 18 -43 41z" />
    <glyph glyph-name="slash" unicode="/" horiz-adv-x="389" 
d="M-16 -57l397 834l40 -20l-397 -834z" />
    <glyph glyph-name="zero" unicode="0" horiz-adv-x="556" 
d="M49 283c0 223 79 427 257 427c182 0 209 -207 209 -317c0 -184 -64 -403 -261 -403c-150 0 -205 140 -205 293zM101 289c0 -114 26 -251 163 -251c158 0 199 213 199 355c0 188 -66 269 -160 269c-160 0 -202 -227 -202 -373z" />
    <glyph glyph-name="one" unicode="1" horiz-adv-x="556" 
d="M111 0l4 44h129l53 609l-2 2c-2 -5 -11 -12 -20 -18l-170 -101l-21 36l219 128h50l-57 -656h145l-4 -44h-326z" />
    <glyph glyph-name="two" unicode="2" horiz-adv-x="556" 
d="M43 0l4 40c181 176 383 356 383 489c0 81 -51 133 -130 133c-102 0 -149 -62 -172 -149h-52c18 87 78 197 229 197c129 0 181 -95 181 -173c0 -64 -15 -138 -208 -329l-163 -162v-2c11 2 21 4 32 4h339l-4 -48h-439z" />
    <glyph glyph-name="three" unicode="3" horiz-adv-x="556" 
d="M38 22l5 52c36 -14 88 -36 173 -36c119 0 197 60 197 160c0 136 -130 142 -238 142l4 48h19c136 0 216 86 216 162c0 61 -41 112 -126 112c-77 0 -136 -45 -151 -121h-52c-1 2 21 169 210 169c126 0 171 -82 171 -153c0 -106 -78 -166 -173 -183v-2
c96 -12 176 -59 176 -165c0 -111 -80 -217 -261 -217c-61 0 -115 14 -170 32z" />
    <glyph glyph-name="four" unicode="4" horiz-adv-x="556" 
d="M351 271l33 361h-2l-303 -364c13 2 26 3 40 3h232zM330 44l16 183h-323l5 47l354 426h58l-37 -429h126l-4 -44h-127l-16 -183h84l-4 -44h-203l4 44h67z" />
    <glyph glyph-name="five" unicode="5" horiz-adv-x="556" 
d="M102 390l31 310h337l-4 -48h-290l-23 -218c158 -2 311 -50 311 -212c0 -105 -77 -232 -268 -232c-44 0 -103 9 -144 23l4 52c44 -22 96 -27 144 -27c134 0 212 79 212 180c0 135 -123 163 -310 172z" />
    <glyph glyph-name="six" unicode="6" horiz-adv-x="556" 
d="M524 692l-11 -42c-22 9 -59 16 -95 16c-210 0 -280 -166 -305 -332l2 -2c28 46 93 102 188 102c109 0 195 -83 195 -205c0 -120 -78 -239 -218 -239c-160 0 -221 118 -221 281c0 103 40 439 358 439c48 0 85 -9 107 -18zM446 224c0 98 -62 162 -155 162
s-150 -68 -180 -103c0 -116 33 -249 173 -249c87 0 162 74 162 190z" />
    <glyph glyph-name="seven" unicode="7" horiz-adv-x="556" 
d="M100 652l4 48h413l-4 -36l-317 -555c-25 -44 -47 -76 -69 -109h-61c27 37 67 94 86 127l264 458c14 25 28 49 44 67h-360z" />
    <glyph glyph-name="eight" unicode="8" horiz-adv-x="556" 
d="M37 165c0 108 98 168 193 203c-77 45 -135 81 -135 167c0 132 124 175 211 175c93 0 189 -44 189 -150c0 -109 -99 -157 -172 -190c109 -48 172 -98 172 -191c0 -111 -93 -189 -245 -189c-126 0 -213 62 -213 175zM147 538c0 -72 66 -109 134 -147c76 36 162 81 162 169
c0 77 -73 106 -139 106c-103 0 -157 -57 -157 -128zM89 163c0 -75 63 -129 173 -129c106 0 181 50 181 143c0 91 -86 129 -171 170c-96 -42 -183 -86 -183 -184z" />
    <glyph glyph-name="nine" unicode="9" horiz-adv-x="556" 
d="M34 6l12 45c30 -8 65 -17 110 -17c242 0 275 253 285 341l-2 2c-25 -40 -76 -96 -174 -96c-107 0 -197 68 -197 204c0 153 113 225 218 225c113 0 207 -85 207 -287c0 -219 -91 -433 -336 -433c-56 0 -95 9 -123 16zM120 488c0 -97 62 -159 159 -159c89 0 140 67 162 96
c0 114 -43 241 -163 241c-91 0 -158 -72 -158 -178z" />
    <glyph glyph-name="colon" unicode=":" 
d="M73 35c0 28 16 52 44 52c26 0 42 -22 42 -47c0 -28 -22 -46 -43 -46c-27 0 -43 18 -43 41zM114 444c0 28 16 52 44 52c26 0 42 -22 42 -47c0 -28 -22 -46 -43 -46c-27 0 -43 18 -43 41z" />
    <glyph glyph-name="semicolon" unicode=";" 
d="M46 -153l-17 31c41 17 84 42 84 90c0 38 -31 39 -31 76c0 29 24 40 43 40c35 0 54 -29 54 -74c0 -96 -73 -137 -133 -163zM114 444c0 28 16 52 44 52c26 0 42 -22 42 -47c0 -28 -22 -46 -43 -46c-27 0 -43 18 -43 41z" />
    <glyph glyph-name="less" unicode="&#x3c;" horiz-adv-x="600" 
d="M553 -8l-506 233v56l506 233v-56l-445 -205l445 -205v-56z" />
    <glyph glyph-name="equal" unicode="=" horiz-adv-x="600" 
d="M47 327v48h506v-48h-506zM47 131v48h506v-48h-506z" />
    <glyph glyph-name="greater" unicode="&#x3e;" horiz-adv-x="600" 
d="M47 514l506 -233v-56l-506 -233v56l445 205l-445 205v56z" />
    <glyph glyph-name="question" unicode="?" horiz-adv-x="481" 
d="M194 244l-40 -31c-17 18 -44 55 -44 91c0 62 54 93 97 122l68 45c47 31 91 74 91 139c0 77 -59 119 -139 119c-50 0 -91 -12 -107 -19l-10 45c36 12 70 22 124 22c125 0 184 -78 184 -160c0 -90 -66 -148 -95 -168l-68 -46c-64 -43 -93 -61 -93 -95c0 -31 21 -47 32 -64z
M101 35c0 28 16 52 44 52c26 0 42 -22 42 -47c0 -28 -22 -46 -43 -46c-27 0 -43 18 -43 41z" />
    <glyph glyph-name="at" unicode="@" horiz-adv-x="800" 
d="M246 282c0 -61 26 -101 85 -101c105 0 181 149 181 240c0 64 -25 95 -84 95c-106 0 -182 -140 -182 -234zM625 547l-100 -288c-7 -21 -13 -42 -13 -58c0 -15 10 -24 27 -24c90 0 177 135 177 237c0 155 -141 256 -296 256c-196 0 -336 -148 -336 -320
c0 -179 147 -320 336 -320c106 0 217 52 273 137h58c-67 -112 -198 -181 -331 -181c-219 0 -384 164 -384 364c0 203 172 364 384 364c192 0 344 -127 344 -303c0 -151 -128 -278 -234 -278c-37 0 -68 21 -66 67h-2c-46 -44 -85 -67 -139 -67c-77 0 -129 55 -129 144
c0 136 98 287 239 287c46 0 88 -22 110 -82h2l24 65h56z" />
    <glyph glyph-name="A" unicode="A" horiz-adv-x="759" 
d="M9 0l4 44h70l301 661h56l184 -661h84l-4 -44h-206l4 44h65l-65 240h-260l-107 -240h84l-4 -44h-206zM490 328l-69 259c-6 23 -12 45 -15 70h-2c-8 -25 -17 -47 -27 -70l-115 -259h228z" />
    <glyph glyph-name="B" unicode="B" horiz-adv-x="574" 
d="M182 341l-26 -297h119c67 0 190 24 190 164c0 97 -84 135 -191 135h-52c-19 0 -33 -1 -40 -2zM32 0l4 44h68l54 612h-83l4 44h217c54 0 83 -3 120 -21c51 -25 86 -68 86 -137c0 -75 -47 -153 -152 -173v-2c90 1 171 -55 171 -161c0 -79 -41 -128 -87 -162
c-49 -36 -122 -44 -196 -44h-206zM210 656l-24 -271c15 -2 31 -2 46 -2h36c90 0 178 46 178 158c0 108 -92 115 -159 115h-77z" />
    <glyph glyph-name="C" unicode="C" horiz-adv-x="648" 
d="M597 685l-4 -132h-48l4 99c-30 9 -66 18 -123 18c-241 0 -309 -202 -309 -361c0 -179 104 -279 272 -279c46 0 93 9 124 21l10 95h44l-10 -131c-49 -16 -135 -29 -175 -29c-244 0 -321 166 -321 330c0 126 60 398 368 398c65 0 120 -15 168 -29z" />
    <glyph glyph-name="D" unicode="D" horiz-adv-x="722" 
d="M210 656l-54 -612h142c141 0 217 60 265 146c33 59 55 128 55 215c0 62 -18 127 -50 168c-44 56 -95 83 -204 83h-154zM32 0l4 44h68l54 612h-83l4 44h262c149 0 199 -31 233 -59c54 -44 100 -114 100 -243c0 -70 -19 -169 -76 -251s-152 -147 -302 -147h-264z" />
    <glyph glyph-name="E" unicode="E" horiz-adv-x="556" 
d="M32 0l4 44h68l54 612h-83l4 44h434l-12 -142h-44l4 98h-251l-24 -271h257l-3 -44h-258l-26 -297h281l14 98h44l-13 -142h-450z" />
    <glyph glyph-name="F" unicode="F" horiz-adv-x="519" 
d="M104 44l54 612h-83l4 44h431l-12 -146h-44l4 102h-248l-25 -286h246l-4 -44h-246l-25 -282h90l-4 -44h-210l4 44h68z" />
    <glyph glyph-name="G" unicode="G" horiz-adv-x="704" 
d="M587 241l-18 -220c-64 -20 -134 -35 -189 -35c-242 0 -319 166 -319 322c0 236 135 406 364 406c73 0 135 -13 182 -29l-8 -130h-44v95c-33 13 -83 20 -129 20c-241 0 -309 -202 -309 -361c0 -173 104 -279 272 -279c42 0 101 12 132 25l18 186h-87l4 44h204l-4 -44h-69z
" />
    <glyph glyph-name="H" unicode="H" horiz-adv-x="741" 
d="M181 326l-25 -282h83l-4 -44h-203l4 44h68l54 612h-83l4 44h203l-4 -44h-68l-25 -286h375l25 286h-83l4 44h203l-4 -44h-68l-54 -612h83l-4 -44h-203l4 44h68l25 282h-375z" />
    <glyph glyph-name="I" unicode="I" horiz-adv-x="314" 
d="M32 0l4 44h68l54 612h-83l4 44h203l-4 -44h-68l-54 -612h83l-4 -44h-203z" />
    <glyph glyph-name="J" unicode="J" horiz-adv-x="296" 
d="M75 656l4 44h203l-4 -44h-68l-35 -393c-16 -180 -50 -334 -269 -435l-16 38c173 88 214 178 233 395l35 395h-83z" />
    <glyph glyph-name="K" unicode="K" horiz-adv-x="630" 
d="M32 0l4 44h68l54 612h-83l4 44h203l-4 -44h-68l-25 -284l316 284h-84l4 44h205l-4 -44h-60l-323 -290l296 -322h70l-4 -44h-206l4 44h70l-286 311l-27 -311h83l-4 -44h-203z" />
    <glyph glyph-name="L" unicode="L" horiz-adv-x="500" 
d="M32 0l4 44h68l54 612h-83l4 44h203l-4 -44h-68l-54 -612h250l14 100h44l-16 -144h-416z" />
    <glyph glyph-name="M" unicode="M" horiz-adv-x="870" 
d="M24 0l4 44h71l62 612h-90l4 44h153l163 -562c9 -30 17 -60 22 -90h2c9 30 21 61 34 90l257 562h140l-4 -44h-71l-42 -612h83l-4 -44h-202l4 44h71l40 586h-2c-8 -23 -28 -69 -48 -111l-241 -519h-48l-155 519c-12 39 -19 70 -23 90h-2l-55 -565h83l-4 -44h-202z" />
    <glyph glyph-name="N" unicode="N" horiz-adv-x="759" 
d="M24 0l4 44h71l51 612h-80l4 44h120l343 -572c9 -15 18 -33 23 -42h2l50 570h-89l4 44h208l-4 -44h-71l-57 -656h-48l-343 573c-8 14 -14 27 -17 35h-2l-46 -564h89l-4 -44h-208z" />
    <glyph glyph-name="O" unicode="O" horiz-adv-x="722" 
d="M117 302c0 -66 11 -133 45 -183c35 -52 94 -89 175 -89c79 0 160 45 203 114c49 79 65 150 65 265c0 145 -64 261 -214 261c-214 0 -274 -209 -274 -368zM61 302c0 261 141 412 333 412c175 0 267 -125 267 -310c0 -205 -90 -418 -327 -418c-191 0 -273 142 -273 316z
" />
    <glyph glyph-name="P" unicode="P" horiz-adv-x="537" 
d="M210 656l-28 -319c17 -2 45 -4 66 -4c163 0 207 100 207 181c0 120 -88 142 -167 142h-78zM32 0l4 44h68l54 612h-83l4 44h202c52 0 94 -5 134 -23c51 -23 92 -70 92 -157c0 -133 -80 -227 -259 -227c-20 0 -56 2 -70 4l-22 -253h91l-4 -44h-211z" />
    <glyph glyph-name="Q" unicode="Q" horiz-adv-x="722" 
d="M117 302c0 -66 11 -133 45 -183c35 -52 94 -89 175 -89c79 0 160 45 203 114c49 79 65 150 65 265c0 145 -64 261 -214 261c-214 0 -274 -209 -274 -368zM775 -122l-4 -43c-20 -9 -39 -17 -62 -17c-33 0 -70 19 -132 54l-105 60c-35 20 -88 54 -139 54
c-190 0 -272 142 -272 316c0 261 141 412 333 412c175 0 267 -125 267 -310c0 -197 -80 -365 -236 -406v-2c21 -2 55 -14 92 -36l83 -49c57 -34 87 -49 114 -49c26 0 45 9 61 16z" />
    <glyph glyph-name="R" unicode="R" horiz-adv-x="611" 
d="M210 656l-26 -295c14 -1 43 -3 79 -3c126 0 192 74 192 172c0 127 -102 126 -180 126h-65zM32 0l4 44h68l54 612h-83l4 44h208c63 0 104 -6 137 -22c59 -28 83 -81 83 -148c0 -118 -86 -199 -202 -199v-2c50 -4 76 -22 116 -104l38 -78c48 -98 57 -103 87 -103h42l-4 -44
h-68c-41 0 -57 18 -101 110l-52 109c-38 80 -61 99 -133 99h-50l-24 -274h83l-4 -44h-203z" />
    <glyph glyph-name="S" unicode="S" horiz-adv-x="537" 
d="M423 561v90c-35 12 -78 17 -119 19c-134 0 -183 -71 -183 -146c0 -74 52 -98 106 -117l116 -42c79 -29 141 -72 141 -169c0 -96 -72 -210 -255 -210c-85 0 -142 18 -195 34l11 135h40l-3 -100c33 -12 90 -25 141 -25c152 0 205 85 205 163c0 83 -71 108 -132 131l-78 29
c-82 30 -153 69 -153 162c0 122 92 199 240 199c41 0 110 -9 166 -28l-8 -125h-40z" />
    <glyph glyph-name="T" unicode="T" horiz-adv-x="593" 
d="M164 0l4 44h68l54 612h-208l-15 -99h-44l16 143h563l-12 -143h-44l4 99h-208l-54 -612h85l-4 -44h-205z" />
    <glyph glyph-name="U" unicode="U" horiz-adv-x="722" 
d="M61 656l4 44h202l-4 -44h-67l-30 -324c-6 -64 -10 -112 -10 -153c0 -98 57 -149 175 -149c204 0 214 131 222 220l35 406h-89l4 44h202l-4 -44h-69l-35 -412c-8 -88 -23 -143 -57 -180c-53 -57 -125 -78 -212 -78c-171 0 -224 84 -224 195c0 37 6 90 10 137l30 338h-83z
" />
    <glyph glyph-name="V" unicode="V" horiz-adv-x="685" 
d="M282 0l-169 656h-82l4 44h202l-4 -44h-68l137 -537c6 -23 10 -47 14 -71h2c7 24 14 48 24 71l227 537h-82l4 44h202l-4 -44h-68l-287 -656h-52z" />
    <glyph glyph-name="W" unicode="W" horiz-adv-x="1019" 
d="M280 0l-163 656h-82l4 44h202l-4 -44h-68l136 -550c5 -21 8 -41 12 -62h2c7 21 12 41 21 62l176 418l-33 132h-82l4 44h202l-4 -44h-68l134 -533c7 -27 11 -53 15 -79h2c7 26 15 53 24 79l194 533h-85l4 44h204l-4 -44h-71l-242 -656h-62l-111 450h-2l-193 -450h-62z" />
    <glyph glyph-name="X" unicode="X" horiz-adv-x="704" 
d="M20 0l4 44h67l237 320l-161 292h-83l4 44h202l-4 -44h-67c6 -7 12 -15 17 -24l124 -225l166 225c7 9 13 17 21 24h-89l4 44h205l-4 -44h-67l-214 -290l177 -322h82l-4 -44h-202l4 44h68c-6 7 -11 16 -16 24l-140 254l-187 -254c-6 -9 -12 -17 -20 -24h88l-4 -44h-208z
" />
    <glyph glyph-name="Y" unicode="Y" horiz-adv-x="667" 
d="M209 0l4 44h69l22 253l-200 359h-82l4 44h202l-4 -44h-65c6 -7 11 -16 16 -24l161 -292l208 292c6 9 12 17 20 24h-85l4 44h205l-4 -44h-71l-257 -357l-22 -255h84l-4 -44h-205z" />
    <glyph glyph-name="Z" unicode="Z" horiz-adv-x="611" 
d="M28 0l3 36l458 589c9 12 19 22 30 31l-2 2c-7 -2 -17 -2 -26 -2h-342l-13 -98h-44l11 142h480l-3 -36l-462 -596c-7 -9 -14 -16 -23 -26c14 1 27 2 41 2h354l16 100h44l-15 -144h-507z" />
    <glyph glyph-name="bracketleft" unicode="[" horiz-adv-x="296" 
d="M63 -251l89 1020h158l-4 -44h-109l-82 -932h99l-4 -44h-147z" />
    <glyph glyph-name="backslash" unicode="\" horiz-adv-x="389" 
d="M68 777l290 -834l-40 -20l-290 834z" />
    <glyph glyph-name="bracketright" unicode="]" horiz-adv-x="296" 
d="M217 769l-89 -1020h-158l4 44h109l82 932h-99l4 44h147z" />
    <glyph glyph-name="asciicircum" unicode="^" horiz-adv-x="600" 
d="M93 335l183 365h48l183 -365h-56l-151 299l-151 -299h-56z" />
    <glyph glyph-name="underscore" unicode="_" horiz-adv-x="500" 
d="M0 -125v50h500v-50h-500z" />
    <glyph glyph-name="quoteleft" unicode="&#x2018;" 
d="M220 777l17 -31c-41 -17 -84 -42 -84 -90c0 -38 31 -39 31 -76c0 -29 -24 -40 -43 -40c-35 0 -54 29 -54 74c0 96 73 137 133 163z" />
    <glyph glyph-name="a" unicode="a" horiz-adv-x="537" 
d="M347 0l25 228c2 19 7 37 11 56h-2c-5 -19 -9 -38 -15 -56c-32 -99 -98 -238 -203 -238c-91 0 -111 100 -111 186c0 173 73 348 265 348c40 0 77 -11 97 -19h29c-7 -35 -14 -93 -20 -165l-24 -296h82l-4 -44h-130zM384 434l5 31c-20 8 -50 19 -84 19
c-68 0 -120 -39 -151 -90c-33 -57 -50 -123 -50 -217s24 -139 66 -139c68 0 169 115 214 396z" />
    <glyph glyph-name="b" unicode="b" horiz-adv-x="537" 
d="M81 21l64 704h-96l4 44h146l-41 -433c-3 -31 -10 -62 -15 -93h2l15 60c14 58 95 221 209 221c88 0 116 -95 116 -181c0 -102 -42 -353 -267 -353c-47 0 -99 13 -137 31zM139 72l-3 -27c17 -5 51 -15 86 -15c160 0 211 188 211 311c0 74 -19 139 -71 139
c-76 0 -194 -149 -223 -408z" />
    <glyph glyph-name="c" unicode="c" horiz-adv-x="407" 
d="M354 80l-4 -52c-25 -17 -85 -38 -136 -38c-120 0 -183 89 -183 229c0 159 74 305 244 305c47 0 85 -11 107 -17l-12 -121h-44l4 87c-10 4 -31 7 -51 7c-142 0 -196 -128 -196 -257c0 -94 28 -185 137 -185c51 0 98 21 134 42z" />
    <glyph glyph-name="d" unicode="d" horiz-adv-x="537" 
d="M381 399l8 64c-16 8 -39 17 -82 17c-164 0 -203 -187 -203 -292c0 -103 23 -150 69 -150c110 0 194 258 208 361zM348 0l22 205c3 28 10 56 15 84h-2c-5 -19 -8 -38 -14 -56c-34 -97 -90 -243 -206 -243c-67 0 -111 71 -111 181c0 99 25 199 81 269c47 58 106 84 184 84
c30 0 60 -7 75 -13l20 214h-97l4 44h145l-64 -725h82l-4 -44h-130z" />
    <glyph glyph-name="e" unicode="e" horiz-adv-x="444" 
d="M372 81l-4 -51c-28 -16 -79 -40 -147 -40c-137 0 -176 89 -176 215c0 148 69 319 243 319c78 0 123 -42 123 -110c0 -141 -191 -196 -314 -210c0 -53 0 -170 131 -170c52 0 103 24 144 47zM359 410c0 28 -15 70 -81 70c-105 0 -171 -102 -181 -232c143 12 262 72 262 162
z" />
    <glyph glyph-name="f" unicode="f" horiz-adv-x="333" 
d="M54 470l4 44h79c12 176 64 263 230 263c22 0 72 -8 81 -13l-4 -44c-22 8 -57 13 -77 13c-151 0 -170 -88 -178 -219h148l-4 -44h-147l-27 -358c-16 -218 -36 -375 -207 -375c-29 0 -63 9 -88 17l4 44c27 -10 55 -17 80 -17c115 0 144 93 161 331l25 358h-80z" />
    <glyph glyph-name="g" unicode="g" horiz-adv-x="537" 
d="M39 -216l4 53c21 -14 71 -44 139 -44c164 0 175 129 187 270l8 83c4 48 13 96 25 148h-2c-6 -17 -10 -34 -17 -50c-34 -84 -96 -250 -215 -250c-95 0 -116 108 -116 183c0 101 43 347 270 347c44 0 81 -10 104 -19h34c-3 -17 -9 -52 -14 -110c-6 -69 -28 -382 -37 -436
c-13 -78 -38 -210 -226 -210c-60 0 -112 20 -144 35zM394 399l10 67c-22 10 -51 18 -80 18c-163 0 -220 -162 -220 -308c0 -92 29 -138 71 -138c92 0 196 214 219 361z" />
    <glyph glyph-name="h" unicode="h" horiz-adv-x="556" 
d="M47 725l4 44h146l-42 -430c-5 -47 -12 -80 -18 -120h2c4 14 7 29 11 43c24 85 100 262 228 262c72 0 86 -61 86 -121c0 -68 -25 -261 -38 -359h83l-4 -44h-135c14 95 46 307 46 400c0 37 -8 76 -50 76c-55 0 -194 -89 -243 -476h-48c9 67 18 144 25 222l44 503h-97z" />
    <glyph glyph-name="i" unicode="i" 
d="M92 0l42 470h-85l4 44h133l-42 -470h85l-4 -44h-133zM129 725c0 34 23 52 47 52c25 0 41 -19 41 -45c0 -29 -19 -49 -48 -49c-25 0 -40 20 -40 42z" />
    <glyph glyph-name="j" unicode="j" 
d="M-97 -263l-12 40c141 49 187 111 206 318l34 375h-84l3 44h136l-37 -412c-22 -241 -85 -314 -246 -365zM129 725c0 34 23 52 47 52c25 0 41 -19 41 -45c0 -29 -19 -49 -48 -49c-25 0 -40 20 -40 42z" />
    <glyph glyph-name="k" unicode="k" horiz-adv-x="519" 
d="M404 417c0 37 -21 59 -56 59c-92 0 -162 -102 -193 -223c121 19 249 86 249 164zM463 44l-4 -44h-106l-201 238c-7 -30 -24 -175 -29 -238h-48c9 67 18 144 25 222l44 503h-97l4 44h146l-25 -286c-5 -58 -17 -116 -28 -174h2c5 17 10 35 17 51c29 67 84 164 191 164
c57 0 102 -38 102 -100c0 -81 -99 -162 -234 -190l162 -190h79z" />
    <glyph glyph-name="l" unicode="l" horiz-adv-x="259" 
d="M75 0l64 725h-92l4 44h140l-64 -725h85l-4 -44h-133z" />
    <glyph glyph-name="m" unicode="m" horiz-adv-x="852" 
d="M37 470l4 44h135l-13 -146c-4 -47 -10 -93 -19 -140h2c3 10 5 19 7 29c12 50 84 267 224 267c76 0 86 -61 86 -125c0 -31 -6 -75 -15 -123h2c17 65 90 248 217 248c86 0 87 -85 87 -130c0 -79 -27 -252 -41 -350h81l-4 -44h-133c12 90 49 292 49 390c0 35 -1 86 -52 86
c-65 0 -151 -116 -191 -250c-19 -63 -35 -158 -45 -226h-48c19 128 45 283 45 395c0 32 -4 81 -48 81c-76 0 -205 -142 -236 -476h-48c7 43 19 188 21 211l19 259h-86z" />
    <glyph glyph-name="n" unicode="n" horiz-adv-x="556" 
d="M31 470l4 44h140l-20 -175c-5 -47 -12 -80 -18 -120h2c4 14 7 29 11 43c24 85 100 262 228 262c72 0 86 -61 86 -121c0 -68 -25 -261 -38 -359h83l-4 -44h-135c14 95 46 307 46 400c0 37 -8 76 -50 76c-55 0 -194 -89 -243 -476h-48c9 67 18 144 25 222l22 248h-91z" />
    <glyph glyph-name="o" unicode="o" horiz-adv-x="481" 
d="M31 220c0 146 65 304 233 304c98 0 172 -71 172 -230c0 -170 -80 -304 -227 -304c-93 0 -178 59 -178 230zM83 217c0 -95 34 -183 128 -183c133 0 173 149 173 256c0 133 -56 190 -129 190c-126 0 -172 -144 -172 -263z" />
    <glyph glyph-name="p" unicode="p" horiz-adv-x="537" 
d="M433 347c0 61 -13 133 -74 133c-87 0 -196 -199 -215 -354c-3 -24 -7 -50 -10 -74c23 -7 53 -18 89 -18c160 0 210 171 210 313zM-11 -251l4 44h69l60 677h-84l4 44h133l-10 -112c-5 -61 -14 -110 -24 -165h2c5 19 8 37 14 56c38 119 111 231 214 231
c96 0 114 -113 114 -190c0 -158 -83 -340 -256 -340c-47 0 -77 6 -98 13l-21 -214h86l-4 -44h-203z" />
    <glyph glyph-name="q" unicode="q" horiz-adv-x="537" 
d="M273 -251l4 44h69l28 318c6 69 19 136 28 183h-2c-6 -17 -10 -34 -17 -50c-34 -84 -96 -250 -215 -250c-95 0 -116 108 -116 183c0 101 43 347 270 347c44 0 81 -10 104 -19h34c-6 -31 -11 -84 -15 -132l-51 -580h85l-4 -44h-202zM394 399l10 67c-22 10 -51 18 -80 18
c-163 0 -220 -162 -220 -308c0 -92 29 -138 71 -138c92 0 196 214 219 361z" />
    <glyph glyph-name="r" unicode="r" horiz-adv-x="389" 
d="M49 470l4 44h131l-14 -138c-4 -37 -10 -75 -17 -112h2c5 17 7 35 12 52c23 77 57 208 186 208c13 0 28 -2 38 -5l-8 -47c-9 2 -19 4 -34 4c-168 0 -198 -366 -209 -476h-48c4 41 15 135 25 269l16 201h-84z" />
    <glyph glyph-name="s" unicode="s" horiz-adv-x="444" 
d="M37 20v124h48v-88c11 -8 57 -22 101 -22c88 0 137 38 137 100c0 46 -23 68 -101 99c-116 46 -164 65 -164 147c0 91 72 144 187 144c43 0 93 -11 130 -23v-119h-48v87c-23 8 -48 15 -87 15c-64 0 -130 -26 -130 -100c0 -46 35 -66 103 -92c91 -35 162 -62 162 -150
c0 -81 -58 -152 -188 -152c-74 0 -129 20 -150 30z" />
    <glyph glyph-name="t" unicode="t" horiz-adv-x="352" 
d="M42 470l4 44h88l12 136h48l-12 -136h154l-4 -44h-154l-21 -240c-2 -25 -8 -92 -8 -114c0 -48 14 -82 64 -82c41 0 78 15 105 32l-3 -47c-25 -13 -64 -29 -112 -29c-89 0 -102 59 -102 115c0 34 5 87 7 115l22 250h-88z" />
    <glyph glyph-name="u" unicode="u" horiz-adv-x="574" 
d="M530 44l-4 -44h-140l20 171c5 40 13 79 19 119h-2c-3 -15 -10 -41 -17 -63c-20 -65 -100 -237 -223 -237c-72 0 -86 61 -86 121c0 68 25 261 38 359h-83l4 44h135c-14 -95 -46 -307 -46 -400c0 -37 8 -76 50 -76c55 0 194 89 243 476h48c-9 -67 -18 -144 -25 -222
l-22 -248h91z" />
    <glyph glyph-name="v" unicode="v" horiz-adv-x="556" 
d="M31 470l4 44h136c-2 -61 -13 -158 -13 -252c0 -162 18 -224 75 -224c33 0 72 22 109 80s70 152 86 298l6 54h-88l4 44h136l-6 -68c-8 -95 -26 -192 -62 -285c-43 -110 -126 -171 -190 -171c-118 0 -118 137 -118 278c0 58 4 130 8 202h-87z" />
    <glyph glyph-name="w" unicode="w" horiz-adv-x="815" 
d="M31 470l4 44h137c-3 -14 -21 -202 -21 -293c0 -85 0 -183 77 -183c66 0 127 105 145 191c15 70 28 221 34 285h48c-7 -92 -17 -185 -17 -279c0 -109 11 -197 81 -197c153 0 177 363 177 432h-84l3 44h133c-7 -143 -27 -524 -238 -524c-83 0 -112 76 -112 165v40h-2
c-25 -114 -90 -205 -180 -205c-117 0 -117 140 -117 222c0 54 9 172 16 258h-84z" />
    <glyph glyph-name="x" unicode="x" horiz-adv-x="537" 
d="M31 0l4 40l207 227l-114 203h-78l4 44h110l115 -211l150 167h-87l4 44h144l-4 -44l-186 -205l120 -221h82l-4 -44h-111l-122 227l-168 -183h80l-4 -44h-142z" />
    <glyph glyph-name="y" unicode="y" horiz-adv-x="519" 
d="M22 470l4 44h116l102 -404c6 -24 10 -47 14 -71h2c7 22 15 44 23 66l138 365h-87l4 44h140l-4 -32c-28 -90 -91 -240 -174 -455c-84 -218 -142 -290 -256 -290c-19 0 -38 3 -49 7l7 44c16 -5 35 -7 44 -7c93 0 125 65 183 198l-132 491h-75z" />
    <glyph glyph-name="z" unicode="z" horiz-adv-x="481" 
d="M31 0l4 42l308 396c11 15 20 24 29 32h-269l-11 -80h-40l11 124h374l-4 -33l-308 -400c-13 -17 -22 -27 -32 -37h284l12 80h40l-12 -124h-386z" />
    <glyph glyph-name="braceleft" unicode="{" horiz-adv-x="296" 
d="M305 769l-4 -44h-41c-33 0 -58 -18 -64 -77l-19 -224c-9 -107 -39 -155 -83 -164v-2c31 -11 57 -40 57 -107c0 -22 -6 -89 -11 -155c-6 -66 -12 -131 -12 -152c0 -38 19 -51 50 -51h42l-4 -44h-51c-66 0 -89 41 -89 106c0 50 6 99 12 148c5 49 11 99 11 148
c0 63 -22 84 -55 86l4 44c43 2 68 38 78 153l17 199c7 83 36 136 111 136h51z" />
    <glyph glyph-name="bar" unicode="|" horiz-adv-x="222" 
d="M87 -250v1000h48v-1000h-48z" />
    <glyph glyph-name="braceright" unicode="}" horiz-adv-x="296" 
d="M-39 -251l4 44h41c33 0 58 18 64 77l19 224c9 107 39 155 83 164v2c-31 11 -57 40 -57 107c0 22 6 89 11 155c6 66 12 131 12 152c0 38 -19 51 -50 51h-42l4 44h51c66 0 89 -41 89 -106c0 -50 -6 -99 -12 -148c-5 -49 -11 -99 -11 -148c0 -63 22 -84 55 -86l-4 -44
c-43 -2 -68 -38 -78 -153l-17 -199c-7 -83 -36 -136 -111 -136h-51z" />
    <glyph glyph-name="asciitilde" unicode="~" horiz-adv-x="600" 
d="M105 195l-36 30c22 42 58 86 125 86c37 0 77 -17 115 -34s73 -34 98 -34c40 0 65 37 88 68l36 -30c-30 -42 -63 -86 -125 -86c-41 0 -71 17 -104 34c-32 17 -65 34 -113 34c-44 0 -68 -37 -84 -68z" />
    <glyph glyph-name="exclamdown" unicode="&#xa1;" horiz-adv-x="296" 
d="M212 491c0 -28 -16 -52 -44 -52c-26 0 -42 22 -42 47c0 28 22 46 43 46c27 0 43 -18 43 -41zM173 290l-40 -533h-56l52 533h44z" />
    <glyph glyph-name="cent" unicode="&#xa2;" horiz-adv-x="556" 
d="M258 37l39 443c-105 -14 -155 -136 -155 -264c0 -88 34 -164 116 -179zM243 -131l11 121c-105 11 -164 96 -164 226c0 222 121 301 211 308l9 107h40l-9 -107c48 0 100 -10 132 -20l-12 -118h-44l4 82c-21 6 -52 12 -84 12l-39 -446c47 0 107 20 143 45l-7 -54
c-45 -25 -94 -35 -140 -35l-11 -121h-40z" />
    <glyph glyph-name="sterling" unicode="&#xa3;" horiz-adv-x="556" 
d="M481 142l-15 -142h-453l4 44h65c25 33 57 99 57 285v16h-101l4 44h97v42c0 166 60 279 235 279c49 0 106 -11 152 -27l-12 -127h-44l4 96c-24 9 -59 14 -99 14c-138 0 -184 -81 -184 -231v-46h155l-4 -44h-151v-28c0 -112 -18 -235 -61 -271v-2h291l16 98h44z" />
    <glyph glyph-name="fraction" unicode="&#x2044;" horiz-adv-x="167" 
d="M-166 -27l462 775l37 -21l-462 -775z" />
    <glyph glyph-name="yen" unicode="&#xa5;" horiz-adv-x="556" 
d="M108 179l4 40h140l8 79h-140l4 40h116l-143 318h-67l4 44h168l-4 -44h-53l141 -314l196 314h-71l4 44h171l-4 -44h-60l-195 -318h121l-4 -40h-140l-8 -79h140l-4 -40h-140l-13 -135h70l-4 -44h-171l4 44h57l13 135h-140z" />
    <glyph glyph-name="florin" unicode="&#x192;" horiz-adv-x="556" 
d="M133 367l4 44h108l8 86c15 158 92 213 211 213c26 0 67 -5 90 -14l-4 -44c-25 9 -61 14 -89 14c-99 0 -148 -55 -160 -177l-8 -78h157l-4 -44h-156l-23 -294c-7 -92 -26 -168 -55 -204c-34 -42 -82 -64 -139 -64c-26 0 -55 2 -71 10l4 44c19 -6 40 -10 55 -10
c59 0 99 20 125 74c15 31 26 99 33 175l23 269h-109z" />
    <glyph glyph-name="section" unicode="&#xa7;" horiz-adv-x="556" 
d="M473 693l-12 -122h-44l4 88c-19 7 -58 15 -100 15c-72 0 -154 -29 -154 -113c0 -67 40 -90 100 -125l99 -57c50 -29 96 -65 96 -137c0 -81 -65 -138 -123 -148v-2c35 -18 96 -57 96 -130c0 -104 -89 -169 -213 -169c-85 0 -137 19 -176 30l12 122h44l-4 -85
c26 -13 85 -23 127 -23c72 0 158 28 158 120c0 51 -35 77 -81 103l-105 60c-62 35 -114 83 -114 147c0 84 62 138 124 150v2c-38 17 -92 58 -92 132c0 98 73 163 204 163c59 0 118 -11 154 -21zM328 345l-94 53c-51 -23 -99 -59 -99 -124c0 -79 114 -134 173 -161
c41 14 102 52 102 120c0 34 -9 71 -82 112z" />
    <glyph glyph-name="currency" unicode="&#xa4;" horiz-adv-x="556" 
d="M30 140l53 56c-37 46 -53 100 -53 154s16 108 53 154l-53 56l38 38l53 -56c45 38 100 56 157 56s112 -18 157 -56l53 56l38 -38l-53 -56c37 -46 53 -100 53 -154s-16 -108 -53 -154l53 -56l-38 -38l-53 56c-45 -38 -100 -56 -157 -56s-112 18 -157 56l-53 -56zM78 350
c0 -110 90 -200 200 -200s200 90 200 200s-90 200 -200 200s-200 -90 -200 -200z" />
    <glyph glyph-name="quotesingle" unicode="'" 
d="M135 564l-14 139c-2 18 -3 30 -3 40c0 11 9 34 36 34s36 -23 36 -34c0 -10 -1 -22 -3 -40l-14 -139c-1 -11 -5 -24 -19 -24s-18 13 -19 24z" />
    <glyph glyph-name="quotedblleft" unicode="&#x201c;" horiz-adv-x="389" 
d="M204 777l17 -31c-41 -17 -84 -42 -84 -90c0 -38 31 -39 31 -76c0 -29 -24 -40 -43 -40c-35 0 -54 29 -54 74c0 96 73 137 133 163zM397 777l17 -31c-41 -17 -84 -42 -84 -90c0 -38 31 -39 31 -76c0 -29 -24 -40 -43 -40c-35 0 -54 29 -54 74c0 96 73 137 133 163z" />
    <glyph glyph-name="guillemotleft" unicode="&#xab;" horiz-adv-x="463" 
d="M355 98l-128 151l4 36l152 137l32 -32l-138 -125l115 -135zM179 98l-128 151l4 36l152 137l32 -32l-138 -125l115 -135z" />
    <glyph glyph-name="guilsinglleft" unicode="&#x2039;" horiz-adv-x="296" 
d="M184 98l-128 151l4 36l152 137l32 -32l-138 -125l115 -135z" />
    <glyph glyph-name="guilsinglright" unicode="&#x203a;" horiz-adv-x="296" 
d="M106 422l128 -151l-4 -36l-152 -137l-32 32l138 125l-115 135z" />
    <glyph glyph-name="endash" unicode="&#x2013;" horiz-adv-x="500" 
d="M-8 238l8 44h500l-8 -44h-500z" />
    <glyph glyph-name="dagger" unicode="&#x2020;" horiz-adv-x="556" 
d="M54 455l4 44h200l16 201h52l-16 -201h200l-4 -44h-200l-52 -648h-52l52 648h-200z" />
    <glyph glyph-name="daggerdbl" unicode="&#x2021;" horiz-adv-x="556" 
d="M204 -193l20 245h-200l4 44h199l27 329h-200l4 44h199l19 231h52l-19 -231h201l-4 -44h-200l-27 -329h201l-4 -44h-200l-20 -245h-52z" />
    <glyph glyph-name="periodcentered" unicode="&#xb7;" 
d="M83 292c0 31 25 56 56 56s56 -25 56 -56s-25 -56 -56 -56s-56 25 -56 56z" />
    <glyph glyph-name="paragraph" unicode="&#xb6;" horiz-adv-x="600" 
d="M193 -193l45 513c-89 0 -150 81 -148 182c2 129 95 198 206 198h176l-78 -893h-48l74 849h-105l-74 -849h-48z" />
    <glyph glyph-name="bullet" unicode="&#x2022;" horiz-adv-x="500" 
d="M75 350c0 97 78 175 175 175s175 -78 175 -175s-78 -175 -175 -175s-175 78 -175 175z" />
    <glyph glyph-name="quotesinglbase" unicode="&#x201a;" 
d="M36 -153l-17 31c41 17 84 42 84 90c0 38 -31 39 -31 76c0 29 24 40 43 40c35 0 54 -29 54 -74c0 -96 -73 -137 -133 -163z" />
    <glyph glyph-name="quotedblbase" unicode="&#x201e;" horiz-adv-x="389" 
d="M-4 -153l-17 31c41 17 84 42 84 90c0 38 -31 39 -31 76c0 29 24 40 43 40c35 0 54 -29 54 -74c0 -96 -73 -137 -133 -163zM181 -153l-17 31c41 17 84 42 84 90c0 38 -31 39 -31 76c0 29 24 40 43 40c35 0 54 -29 54 -74c0 -96 -73 -137 -133 -163z" />
    <glyph glyph-name="quotedblright" unicode="&#x201d;" horiz-adv-x="389" 
d="M68 540l-17 31c41 17 84 42 84 90c0 38 -31 39 -31 76c0 29 24 40 43 40c35 0 54 -29 54 -74c0 -96 -73 -137 -133 -163zM261 540l-17 31c41 17 84 42 84 90c0 38 -31 39 -31 76c0 29 24 40 43 40c35 0 54 -29 54 -74c0 -96 -73 -137 -133 -163z" />
    <glyph glyph-name="guillemotright" unicode="&#xbb;" horiz-adv-x="463" 
d="M101 422l128 -151l-4 -36l-152 -137l-32 32l138 125l-115 135zM277 422l128 -151l-4 -36l-152 -137l-32 32l138 125l-115 135z" />
    <glyph glyph-name="ellipsis" unicode="&#x2026;" horiz-adv-x="1000" 
d="M104 35c0 28 16 52 44 52c26 0 42 -22 42 -47c0 -28 -22 -46 -43 -46c-27 0 -43 18 -43 41zM437 35c0 28 16 52 44 52c26 0 42 -22 42 -47c0 -28 -22 -46 -43 -46c-27 0 -43 18 -43 41zM770 35c0 28 16 52 44 52c26 0 42 -22 42 -47c0 -28 -22 -46 -43 -46
c-27 0 -43 18 -43 41z" />
    <glyph glyph-name="perthousand" unicode="&#x2030;" horiz-adv-x="1093" 
d="M793 136c0 -58 27 -102 89 -102c42 0 99 32 99 128c0 56 -24 100 -84 100c-49 0 -104 -27 -104 -126zM741 136c0 93 56 170 159 170c81 0 133 -52 133 -142c0 -106 -69 -174 -156 -174c-92 0 -136 66 -136 146zM112 540c0 -58 27 -102 89 -102c42 0 99 32 99 128
c0 56 -24 100 -84 100c-49 0 -104 -27 -104 -126zM60 540c0 93 56 170 159 170c81 0 133 -52 133 -142c0 -106 -69 -174 -156 -174c-92 0 -136 66 -136 146zM406 136c0 93 56 170 159 170c81 0 133 -52 133 -142c0 -106 -69 -174 -156 -174c-92 0 -136 66 -136 146zM458 136
c0 -58 27 -102 89 -102c42 0 99 32 99 128c0 56 -24 100 -84 100c-49 0 -104 -27 -104 -126zM37 -19l681 767l32 -29l-681 -767z" />
    <glyph glyph-name="questiondown" unicode="&#xbf;" horiz-adv-x="481" 
d="M240 282l40 31c17 -18 44 -55 44 -91c0 -62 -54 -93 -97 -122l-68 -45c-47 -31 -91 -74 -91 -139c0 -77 59 -119 139 -119c50 0 91 12 107 19l10 -45c-36 -12 -70 -22 -124 -22c-125 0 -184 78 -184 160c0 90 66 148 95 168l68 46c64 43 93 61 93 95c0 31 -21 47 -32 64z
M333 491c0 -28 -16 -52 -44 -52c-26 0 -42 22 -42 47c0 28 22 46 43 46c27 0 43 -18 43 -41z" />
    <glyph glyph-name="grave" unicode="`" 
d="M91 745l124 -120l-34 -29l-130 121z" />
    <glyph glyph-name="acute" unicode="&#xb4;" 
d="M306 718l-149 -122l-33 28l142 121z" />
    <glyph glyph-name="circumflex" unicode="&#x2c6;" 
d="M37 640l129 101h42l113 -101l-40 -28l-98 93l-112 -93z" />
    <glyph glyph-name="tilde" unicode="&#x2dc;" 
d="M296 700l36 -27c-12 -22 -39 -64 -88 -64c-21 0 -45 14 -67 29s-42 28 -58 28c-28 0 -40 -29 -50 -52l-41 18c11 34 43 82 88 82c29 0 53 -14 73 -28c21 -15 38 -29 55 -29c24 0 38 22 52 43z" />
    <glyph glyph-name="macron" unicode="&#xaf;" 
d="M65 646l4 44h224l-4 -44h-224z" />
    <glyph glyph-name="breve" unicode="&#x2d8;" 
d="M52 707l44 23c10 -27 32 -77 86 -77c49 0 77 29 97 73l44 -19c-24 -52 -68 -98 -136 -98c-74 0 -113 40 -135 98z" />
    <glyph glyph-name="dotaccent" unicode="&#x2d9;" 
d="M182 632c-24 0 -38 14 -38 36c0 18 9 46 44 46c21 0 34 -16 34 -37c0 -11 -8 -45 -40 -45z" />
    <glyph glyph-name="dieresis" unicode="&#xa8;" 
d="M83 632c-24 0 -38 14 -38 36c0 18 9 46 44 46c21 0 34 -16 34 -37c0 -11 -8 -45 -40 -45zM281 632c-24 0 -38 14 -38 36c0 18 9 46 44 46c21 0 34 -16 34 -37c0 -11 -8 -45 -40 -45z" />
    <glyph glyph-name="ring" unicode="&#x2da;" 
d="M135 666c0 -27 16 -50 45 -50c37 0 49 34 49 60c0 27 -11 51 -43 51s-51 -29 -51 -61zM95 662c0 47 34 101 95 101c43 0 79 -29 79 -84c0 -62 -41 -99 -95 -99c-50 0 -79 38 -79 82z" />
    <glyph glyph-name="cedilla" unicode="&#xb8;" 
d="M57 -198l3 43c21 -7 51 -14 77 -14c32 0 54 10 54 38c0 26 -30 35 -52 35c-9 0 -16 -2 -21 -3l8 99h44l-8 -64c43 0 85 -14 85 -63c0 -41 -36 -86 -109 -86c-32 0 -57 7 -81 15z" />
    <glyph glyph-name="hungarumlaut" unicode="&#x2dd;" 
d="M221 718l-149 -122l-33 28l142 121zM391 718l-149 -122l-33 28l142 121z" />
    <glyph glyph-name="ogonek" unicode="&#x2db;" 
d="M294 -138l-4 -36c-23 -21 -58 -39 -102 -39c-36 0 -74 17 -74 70c0 60 50 115 80 143h36c-30 -34 -60 -78 -60 -119c0 -25 12 -50 48 -50c26 0 56 12 76 31z" />
    <glyph glyph-name="caron" unicode="&#x2c7;" 
d="M330 713l-129 -101h-42l-113 101l40 28l98 -93l112 93z" />
    <glyph glyph-name="emdash" unicode="&#x2014;" horiz-adv-x="1000" 
d="M-8 238l8 44h1000l-8 -44h-1000z" />
    <glyph glyph-name="AE" unicode="&#xc6;" horiz-adv-x="944" 
d="M-1 0l4 44h64l399 656h425l-12 -143h-44l4 99h-236l-25 -286h247l-4 -44h-246l-26 -282h281l14 98h44l-13 -142h-451l4 44h69l26 282h-232l-169 -282h84l-4 -44h-203zM526 370l25 286h-64l-172 -286h211z" />
    <glyph glyph-name="ordfeminine" unicode="&#xaa;" horiz-adv-x="349" 
d="M243 398l19 139h-2c-26 -60 -68 -147 -136 -147c-65 0 -79 64 -79 112c0 97 48 208 175 208c33 0 53 -7 67 -10h33c-5 -22 -8 -57 -12 -100l-17 -170h47l-3 -32h-92zM93 502c0 -52 17 -76 43 -76c39 0 117 99 131 223l2 18c-11 5 -31 11 -47 11
c-106 0 -129 -129 -129 -176z" />
    <glyph glyph-name="Lslash" unicode="&#x141;" horiz-adv-x="500" 
d="M32 0l4 44h68l22 247l-78 -53l4 51l79 53l27 314h-83l4 44h203l-4 -44h-68l-24 -276l177 121l-4 -51l-178 -121l-25 -285h250l14 100h44l-16 -144h-416z" />
    <glyph glyph-name="Oslash" unicode="&#xd8;" horiz-adv-x="722" 
d="M172 106l350 522c-33 27 -76 42 -131 42c-214 0 -274 -209 -274 -368c0 -66 11 -133 45 -183c3 -5 7 -10 10 -13zM51 -75l91 136c-56 57 -81 144 -81 241c0 261 141 412 333 412c62 0 113 -16 155 -45l87 129l35 -23l-89 -134c52 -55 79 -138 79 -237
c0 -205 -90 -418 -327 -418c-66 0 -119 17 -160 47l-88 -131zM552 597l-350 -521c36 -29 80 -46 135 -46c79 0 160 45 203 114c49 79 65 150 65 265c0 75 -17 142 -53 188z" />
    <glyph glyph-name="OE" unicode="&#x152;" horiz-adv-x="944" 
d="M486 44l54 616c-33 1 -84 6 -124 6c-52 0 -81 -7 -116 -21c-118 -47 -183 -175 -183 -331c0 -277 183 -276 266 -276c32 0 72 2 103 6zM883 142l-13 -142h-331c-49 0 -83 -2 -118 -4c-17 -1 -37 -2 -53 -2c-196 0 -307 96 -307 314c0 224 130 398 350 398
c21 0 48 -1 71 -3s56 -3 75 -3h344l-12 -142h-44l4 98h-257l-24 -271h262l-4 -44h-262l-26 -297h287l14 98h44z" />
    <glyph glyph-name="ordmasculine" unicode="&#xba;" horiz-adv-x="361" 
d="M59 526c0 89 43 184 157 184c67 0 116 -43 116 -140c0 -99 -53 -180 -152 -180c-65 0 -121 35 -121 136zM107 530c0 -54 20 -100 74 -100c78 0 103 83 103 138c0 71 -36 102 -74 102c-73 0 -103 -83 -103 -140z" />
    <glyph glyph-name="ae" unicode="&#xe6;" horiz-adv-x="722" 
d="M352 298l31 151c-26 16 -62 31 -101 31c-64 0 -117 -45 -145 -114c-21 -52 -33 -116 -33 -180c0 -105 35 -148 73 -148c71 0 147 124 175 260zM551 480c-32 0 -70 -11 -97 -38c-35 -35 -43 -89 -52 -190c115 11 234 56 234 153c0 40 -22 75 -85 75zM658 75l-8 -53
c-41 -18 -86 -32 -139 -32c-133 0 -157 103 -157 162c0 14 2 32 4 44h-2c-16 -63 -79 -206 -187 -206c-92 0 -117 112 -117 194c0 103 27 193 79 259c39 49 92 81 158 81c55 0 101 -29 136 -57c26 28 74 57 137 57c82 0 126 -47 126 -112c0 -149 -174 -194 -286 -200
c0 -75 1 -178 124 -178c52 0 93 20 132 41z" />
    <glyph glyph-name="dotlessi" unicode="&#x131;" 
d="M92 0l42 470h-85l4 44h133l-42 -470h85l-4 -44h-133z" />
    <glyph glyph-name="lslash" unicode="&#x142;" horiz-adv-x="259" 
d="M75 0l33 380l-80 -60l4 52l81 60l26 293h-92l4 44h140l-26 -299l80 60l-4 -52l-81 -60l-33 -374h85l-4 -44h-133z" />
    <glyph glyph-name="oslash" unicode="&#xf8;" horiz-adv-x="481" 
d="M107 100l230 346c-21 23 -50 34 -82 34c-126 0 -172 -144 -172 -263c0 -43 7 -85 24 -117zM359 414l-230 -346c19 -21 46 -34 82 -34c133 0 173 149 173 256c0 52 -9 93 -25 124zM0 -59l76 113c-27 34 -45 89 -45 166c0 146 65 304 233 304c39 0 75 -12 102 -35l71 106
l30 -20l-76 -113c28 -37 45 -92 45 -168c0 -170 -80 -304 -227 -304c-39 0 -77 10 -107 37l-72 -108z" />
    <glyph glyph-name="oe" unicode="&#x153;" horiz-adv-x="741" 
d="M655 403c0 32 -23 77 -84 77c-124 0 -166 -124 -166 -228c93 7 250 39 250 151zM669 73l-5 -50c-34 -14 -76 -33 -144 -33c-113 0 -154 84 -154 132h-2c-8 -47 -56 -132 -152 -132c-93 0 -178 59 -178 223c0 89 26 191 82 251c29 31 79 60 145 60c98 0 130 -85 133 -134
h2c25 70 76 134 181 134c86 0 130 -49 130 -111c0 -150 -186 -196 -302 -201c0 -62 -1 -178 126 -178c47 0 95 19 138 39zM86 217c0 -95 31 -183 125 -183c60 0 125 50 138 151c3 24 12 119 12 156c0 85 -39 139 -110 139c-121 0 -165 -144 -165 -263z" />
    <glyph glyph-name="germandbls" unicode="&#xdf;" horiz-adv-x="593" 
d="M-136 -246l4 44c27 -10 55 -17 80 -17c97 0 126 69 135 203l39 556c10 146 83 237 228 237c121 0 180 -60 180 -128c0 -138 -214 -177 -214 -265c0 -101 227 -84 227 -238c0 -101 -87 -156 -170 -156c-49 0 -112 11 -140 21l4 122h48l-4 -86c17 -6 42 -13 81 -13
c118 0 129 76 129 110c0 119 -227 94 -227 236c0 127 214 145 214 266c0 64 -74 87 -130 87c-160 0 -174 -143 -180 -226l-34 -492c-10 -139 -18 -278 -182 -278c-29 0 -63 9 -88 17z" />
    <glyph glyph-name="logicalnot" unicode="&#xac;" horiz-adv-x="600" 
d="M505 111v216h-458v48h506v-264h-48z" />
    <glyph glyph-name="mu" unicode="&#xb5;" horiz-adv-x="574" 
d="M530 44l-4 -44h-140l20 171c5 40 13 79 19 119h-2c-3 -15 -10 -41 -17 -63c-20 -65 -100 -237 -223 -237c-28 0 -46 11 -55 29h-2l-32 -270h-48c13 123 73 604 89 721h-83l4 44h135c-14 -95 -46 -307 -46 -400c0 -37 8 -76 50 -76c55 0 194 89 243 476h48
c-9 -67 -18 -144 -25 -222l-22 -248h91z" />
    <glyph glyph-name="trademark" unicode="&#x2122;" horiz-adv-x="990" 
d="M208 288v368h-136v44h320v-44h-136v-368h-48zM468 288v412h82l134 -339l130 339h82v-412h-48v368h-2l-149 -368h-30l-149 368h-2v-368h-48z" />
    <glyph glyph-name="Eth" unicode="&#xd0;" horiz-adv-x="722" 
d="M210 656l-24 -271h205l-4 -44h-205l-26 -297h142c141 0 217 60 265 146c33 59 55 128 55 215c0 62 -18 127 -50 168c-44 56 -95 83 -204 83h-154zM32 0l4 44h68l26 297h-74l4 44h74l24 271h-83l4 44h262c149 0 199 -31 233 -59c54 -44 100 -114 100 -243
c0 -70 -19 -169 -76 -251s-152 -147 -302 -147h-264z" />
    <glyph glyph-name="onehalf" unicode="&#xbd;" horiz-adv-x="834" 
d="M168 -27l462 775l37 -21l-462 -775zM72 284l4 40h76l35 334l-119 -65l-13 36l142 77h40l-37 -382h88l-4 -40h-212zM501 0l3 37c113 103 237 214 237 279c0 43 -31 74 -73 74c-64 0 -86 -32 -102 -78h-44c10 52 51 118 151 118c83 0 116 -60 116 -106
c0 -38 -11 -91 -138 -204l-90 -80h228l-3 -40h-285z" />
    <glyph glyph-name="plusminus" unicode="&#xb1;" horiz-adv-x="600" 
d="M276 322v184h48v-184h229v-48h-229v-184h-48v184h-229v48h229zM47 0v48h506v-48h-506z" />
    <glyph glyph-name="Thorn" unicode="&#xde;" horiz-adv-x="537" 
d="M199 526l-28 -317c16 -2 44 -4 65 -4c163 0 207 100 207 179c0 120 -88 142 -167 142h-77zM32 0l4 44h68l54 612h-83l4 44h211l-4 -44h-76l-8 -86h67c52 0 94 -5 134 -23c51 -23 92 -70 92 -157c0 -131 -80 -225 -259 -225c-20 0 -56 2 -69 4l-11 -125h91l-4 -44h-211z
" />
    <glyph glyph-name="onequarter" unicode="&#xbc;" horiz-adv-x="834" 
d="M676 172l21 190h-2l-174 -190h155zM662 40l10 92h-204l3 38l227 252h49l-23 -250h73l-3 -40h-74l-10 -92h51l-3 -40h-139l3 40h40zM168 -27l462 775l37 -21l-462 -775zM72 284l4 40h76l35 334l-119 -65l-13 36l142 77h40l-37 -382h88l-4 -40h-212z" />
    <glyph glyph-name="divide" unicode="&#xf7;" horiz-adv-x="600" 
d="M47 229v48h506v-48h-506zM244 462c0 31 25 56 56 56s56 -25 56 -56s-25 -56 -56 -56s-56 25 -56 56zM244 44c0 31 25 56 56 56s56 -25 56 -56s-25 -56 -56 -56s-56 25 -56 56z" />
    <glyph glyph-name="brokenbar" unicode="&#xa6;" horiz-adv-x="222" 
d="M87 -175v350h48v-350h-48zM87 325v350h48v-350h-48z" />
    <glyph glyph-name="degree" unicode="&#xb0;" horiz-adv-x="400" 
d="M67 567c0 79 64 143 143 143s143 -64 143 -143s-64 -143 -143 -143s-143 64 -143 143zM111 567c0 -55 44 -99 99 -99s99 44 99 99s-44 99 -99 99s-99 -44 -99 -99z" />
    <glyph glyph-name="thorn" unicode="&#xfe;" horiz-adv-x="537" 
d="M433 347c0 61 -13 133 -74 133c-87 0 -196 -199 -215 -354c-3 -24 -7 -50 -10 -74c23 -7 53 -18 89 -18c160 0 210 171 210 313zM-11 -251l4 44h69l83 932h-96l4 44h146l-34 -367c-5 -61 -14 -110 -24 -165h2c5 19 8 37 14 56c38 119 111 231 214 231
c96 0 114 -113 114 -190c0 -158 -83 -340 -256 -340c-47 0 -77 6 -98 13l-21 -214h86l-4 -44h-203z" />
    <glyph glyph-name="threequarters" unicode="&#xbe;" horiz-adv-x="834" 
d="M676 172l21 190h-2l-174 -190h155zM662 40l10 92h-204l3 38l227 252h49l-23 -250h73l-3 -40h-74l-10 -92h51l-3 -40h-139l3 40h40zM168 -27l462 775l37 -21l-462 -775zM30 295l3 44c23 -16 57 -23 112 -23c78 0 120 37 120 89c0 75 -76 79 -147 79l3 40h13
c83 0 132 46 132 90c0 31 -22 60 -74 60s-78 -25 -88 -61h-44c0 1 14 101 137 101c85 0 114 -49 114 -91c0 -66 -51 -102 -116 -113v-2c66 -6 118 -34 118 -98c0 -66 -52 -134 -173 -134c-39 0 -75 8 -110 19z" />
    <glyph glyph-name="registered" unicode="&#xae;" horiz-adv-x="800" 
d="M261 131v439h169c99 0 143 -44 143 -122c0 -77 -51 -112 -110 -122l130 -195h-54l-130 195h-100v-195h-48zM309 526v-156h110c60 -1 106 17 106 79s-51 77 -106 77h-110zM36 350c0 201 163 364 364 364s364 -163 364 -364s-163 -364 -364 -364s-364 163 -364 364zM84 350
c0 -175 141 -316 316 -316s316 141 316 316s-141 316 -316 316s-316 -141 -316 -316z" />
    <glyph glyph-name="minus" unicode="&#x2212;" horiz-adv-x="600" 
d="M47 229v48h506v-48h-506z" />
    <glyph glyph-name="eth" unicode="&#xf0;" horiz-adv-x="481" 
d="M153 632l108 52c-22 23 -56 49 -88 69l42 24c33 -20 65 -45 91 -71l103 49l27 -30l-102 -49c77 -89 102 -211 102 -382c0 -170 -80 -304 -227 -304c-93 0 -178 59 -178 230c0 146 65 304 233 304c48 0 85 -22 106 -56l2 2c-13 80 -45 138 -84 184l-108 -52zM83 217
c0 -95 31 -183 128 -183c133 0 173 149 173 256c0 133 -56 190 -129 190c-126 0 -172 -144 -172 -263z" />
    <glyph glyph-name="multiply" unicode="&#xd7;" horiz-adv-x="600" 
d="M75 61l191 191l-191 191l34 34l191 -191l191 191l34 -34l-191 -191l191 -191l-34 -34l-191 191l-191 -191z" />
    <glyph glyph-name="copyright" unicode="&#xa9;" horiz-adv-x="800" 
d="M36 350c0 201 163 364 364 364s364 -163 364 -364s-163 -364 -364 -364s-364 163 -364 364zM543 275h52c-21 -100 -91 -155 -186 -155c-131 0 -216 101 -216 230c0 132 80 229 216 229c95 0 172 -54 186 -151h-52c-12 58 -60 103 -134 103c-108 0 -164 -79 -164 -181
c0 -93 61 -182 164 -182c75 0 123 47 134 107zM84 350c0 -175 141 -316 316 -316s316 141 316 316s-141 316 -316 316s-316 -141 -316 -316z" />
    <glyph glyph-name="Aacute" unicode="&#xc1;" horiz-adv-x="759" 
d="M9 0l4 44h70l301 661h56l184 -661h84l-4 -44h-206l4 44h65l-65 240h-260l-107 -240h84l-4 -44h-206zM490 328l-69 259c-6 23 -12 45 -15 70h-2c-8 -25 -17 -47 -27 -70l-115 -259h228zM547 864l-149 -122l-33 28l142 121z" />
    <glyph glyph-name="Acircumflex" unicode="&#xc2;" horiz-adv-x="759" 
d="M9 0l4 44h70l301 661h56l184 -661h84l-4 -44h-206l4 44h65l-65 240h-260l-107 -240h84l-4 -44h-206zM490 328l-69 259c-6 23 -12 45 -15 70h-2c-8 -25 -17 -47 -27 -70l-115 -259h228zM278 786l129 101h42l113 -101l-40 -28l-98 93l-112 -93z" />
    <glyph glyph-name="Adieresis" unicode="&#xc4;" horiz-adv-x="759" 
d="M9 0l4 44h70l301 661h56l184 -661h84l-4 -44h-206l4 44h65l-65 240h-260l-107 -240h84l-4 -44h-206zM490 328l-69 259c-6 23 -12 45 -15 70h-2c-8 -25 -17 -47 -27 -70l-115 -259h228zM324 778c-24 0 -38 14 -38 36c0 18 9 46 44 46c21 0 34 -16 34 -37
c0 -11 -8 -45 -40 -45zM522 778c-24 0 -38 14 -38 36c0 18 9 46 44 46c21 0 34 -16 34 -37c0 -11 -8 -45 -40 -45z" />
    <glyph glyph-name="Agrave" unicode="&#xc0;" horiz-adv-x="759" 
d="M9 0l4 44h70l301 661h56l184 -661h84l-4 -44h-206l4 44h65l-65 240h-260l-107 -240h84l-4 -44h-206zM490 328l-69 259c-6 23 -12 45 -15 70h-2c-8 -25 -17 -47 -27 -70l-115 -259h228zM332 891l124 -120l-34 -29l-130 121z" />
    <glyph glyph-name="Aring" unicode="&#xc5;" horiz-adv-x="759" 
d="M9 0l4 44h70l301 661h56l184 -661h84l-4 -44h-206l4 44h65l-65 240h-260l-107 -240h84l-4 -44h-206zM490 328l-69 259c-6 23 -12 45 -15 70h-2c-8 -25 -17 -47 -27 -70l-115 -259h228zM376 812c0 -27 16 -50 45 -50c37 0 49 34 49 60c0 27 -11 51 -43 51s-51 -29 -51 -61
zM336 808c0 47 34 101 95 101c43 0 79 -29 79 -84c0 -62 -41 -99 -95 -99c-50 0 -79 38 -79 82z" />
    <glyph glyph-name="Atilde" unicode="&#xc3;" horiz-adv-x="759" 
d="M9 0l4 44h70l301 661h56l184 -661h84l-4 -44h-206l4 44h65l-65 240h-260l-107 -240h84l-4 -44h-206zM490 328l-69 259c-6 23 -12 45 -15 70h-2c-8 -25 -17 -47 -27 -70l-115 -259h228zM537 846l36 -27c-12 -22 -39 -64 -88 -64c-21 0 -45 14 -67 29s-42 28 -58 28
c-28 0 -40 -29 -50 -52l-41 18c11 34 43 82 88 82c29 0 53 -14 73 -28c21 -15 38 -29 55 -29c24 0 38 22 52 43z" />
    <glyph glyph-name="Ccedilla" unicode="&#xc7;" horiz-adv-x="648" 
d="M567 146l-10 -131c-45 -15 -122 -27 -162 -29l-8 -50c43 0 85 -14 85 -63c0 -41 -36 -86 -109 -86c-32 0 -57 7 -81 15l3 43c21 -7 51 -14 77 -14c32 0 54 10 54 38c0 26 -30 35 -52 35c-9 0 -16 -2 -21 -3l8 85c-220 15 -290 173 -290 330c0 126 60 398 368 398
c65 0 120 -15 168 -29l-4 -132h-48l4 99c-30 9 -66 18 -123 18c-241 0 -309 -202 -309 -361c0 -179 104 -279 272 -279c46 0 93 9 124 21l10 95h44z" />
    <glyph glyph-name="Eacute" unicode="&#xc9;" horiz-adv-x="556" 
d="M32 0l4 44h68l54 612h-83l4 44h434l-12 -142h-44l4 98h-251l-24 -271h257l-3 -44h-258l-26 -297h281l14 98h44l-13 -142h-450zM445 864l-149 -122l-33 28l142 121z" />
    <glyph glyph-name="Ecircumflex" unicode="&#xca;" horiz-adv-x="556" 
d="M32 0l4 44h68l54 612h-83l4 44h434l-12 -142h-44l4 98h-251l-24 -271h257l-3 -44h-258l-26 -297h281l14 98h44l-13 -142h-450zM176 786l129 101h42l113 -101l-40 -28l-98 93l-112 -93z" />
    <glyph glyph-name="Edieresis" unicode="&#xcb;" horiz-adv-x="556" 
d="M32 0l4 44h68l54 612h-83l4 44h434l-12 -142h-44l4 98h-251l-24 -271h257l-3 -44h-258l-26 -297h281l14 98h44l-13 -142h-450zM222 778c-24 0 -38 14 -38 36c0 18 9 46 44 46c21 0 34 -16 34 -37c0 -11 -8 -45 -40 -45zM420 778c-24 0 -38 14 -38 36c0 18 9 46 44 46
c21 0 34 -16 34 -37c0 -11 -8 -45 -40 -45z" />
    <glyph glyph-name="Egrave" unicode="&#xc8;" horiz-adv-x="556" 
d="M32 0l4 44h68l54 612h-83l4 44h434l-12 -142h-44l4 98h-251l-24 -271h257l-3 -44h-258l-26 -297h281l14 98h44l-13 -142h-450zM230 891l124 -120l-34 -29l-130 121z" />
    <glyph glyph-name="Iacute" unicode="&#xcd;" horiz-adv-x="314" 
d="M32 0l4 44h68l54 612h-83l4 44h203l-4 -44h-68l-54 -612h83l-4 -44h-203zM324 864l-149 -122l-33 28l142 121z" />
    <glyph glyph-name="Icircumflex" unicode="&#xce;" horiz-adv-x="314" 
d="M32 0l4 44h68l54 612h-83l4 44h203l-4 -44h-68l-54 -612h83l-4 -44h-203zM55 786l129 101h42l113 -101l-40 -28l-98 93l-112 -93z" />
    <glyph glyph-name="Idieresis" unicode="&#xcf;" horiz-adv-x="314" 
d="M32 0l4 44h68l54 612h-83l4 44h203l-4 -44h-68l-54 -612h83l-4 -44h-203zM101 778c-24 0 -38 14 -38 36c0 18 9 46 44 46c21 0 34 -16 34 -37c0 -11 -8 -45 -40 -45zM299 778c-24 0 -38 14 -38 36c0 18 9 46 44 46c21 0 34 -16 34 -37c0 -11 -8 -45 -40 -45z" />
    <glyph glyph-name="Igrave" unicode="&#xcc;" horiz-adv-x="314" 
d="M32 0l4 44h68l54 612h-83l4 44h203l-4 -44h-68l-54 -612h83l-4 -44h-203zM109 891l124 -120l-34 -29l-130 121z" />
    <glyph glyph-name="Ntilde" unicode="&#xd1;" horiz-adv-x="759" 
d="M24 0l4 44h71l51 612h-80l4 44h120l343 -572c9 -15 18 -33 23 -42h2l50 570h-89l4 44h208l-4 -44h-71l-57 -656h-48l-343 573c-8 14 -14 27 -17 35h-2l-46 -564h89l-4 -44h-208zM537 846l36 -27c-12 -22 -39 -64 -88 -64c-21 0 -45 14 -67 29s-42 28 -58 28
c-28 0 -40 -29 -50 -52l-41 18c11 34 43 82 88 82c29 0 53 -14 73 -28c21 -15 38 -29 55 -29c24 0 38 22 52 43z" />
    <glyph glyph-name="Oacute" unicode="&#xd3;" horiz-adv-x="722" 
d="M117 302c0 -66 11 -133 45 -183c35 -52 94 -89 175 -89c79 0 160 45 203 114c49 79 65 150 65 265c0 145 -64 261 -214 261c-214 0 -274 -209 -274 -368zM61 302c0 261 141 412 333 412c175 0 267 -125 267 -310c0 -205 -90 -418 -327 -418c-191 0 -273 142 -273 316z
M528 864l-149 -122l-33 28l142 121z" />
    <glyph glyph-name="Ocircumflex" unicode="&#xd4;" horiz-adv-x="722" 
d="M117 302c0 -66 11 -133 45 -183c35 -52 94 -89 175 -89c79 0 160 45 203 114c49 79 65 150 65 265c0 145 -64 261 -214 261c-214 0 -274 -209 -274 -368zM61 302c0 261 141 412 333 412c175 0 267 -125 267 -310c0 -205 -90 -418 -327 -418c-191 0 -273 142 -273 316z
M259 786l129 101h42l113 -101l-40 -28l-98 93l-112 -93z" />
    <glyph glyph-name="Odieresis" unicode="&#xd6;" horiz-adv-x="722" 
d="M117 302c0 -66 11 -133 45 -183c35 -52 94 -89 175 -89c79 0 160 45 203 114c49 79 65 150 65 265c0 145 -64 261 -214 261c-214 0 -274 -209 -274 -368zM61 302c0 261 141 412 333 412c175 0 267 -125 267 -310c0 -205 -90 -418 -327 -418c-191 0 -273 142 -273 316z
M305 778c-24 0 -38 14 -38 36c0 18 9 46 44 46c21 0 34 -16 34 -37c0 -11 -8 -45 -40 -45zM503 778c-24 0 -38 14 -38 36c0 18 9 46 44 46c21 0 34 -16 34 -37c0 -11 -8 -45 -40 -45z" />
    <glyph glyph-name="Ograve" unicode="&#xd2;" horiz-adv-x="722" 
d="M117 302c0 -66 11 -133 45 -183c35 -52 94 -89 175 -89c79 0 160 45 203 114c49 79 65 150 65 265c0 145 -64 261 -214 261c-214 0 -274 -209 -274 -368zM61 302c0 261 141 412 333 412c175 0 267 -125 267 -310c0 -205 -90 -418 -327 -418c-191 0 -273 142 -273 316z
M313 891l124 -120l-34 -29l-130 121z" />
    <glyph glyph-name="Otilde" unicode="&#xd5;" horiz-adv-x="722" 
d="M117 302c0 -66 11 -133 45 -183c35 -52 94 -89 175 -89c79 0 160 45 203 114c49 79 65 150 65 265c0 145 -64 261 -214 261c-214 0 -274 -209 -274 -368zM61 302c0 261 141 412 333 412c175 0 267 -125 267 -310c0 -205 -90 -418 -327 -418c-191 0 -273 142 -273 316z
M518 846l36 -27c-12 -22 -39 -64 -88 -64c-21 0 -45 14 -67 29s-42 28 -58 28c-28 0 -40 -29 -50 -52l-41 18c11 34 43 82 88 82c29 0 53 -14 73 -28c21 -15 38 -29 55 -29c24 0 38 22 52 43z" />
    <glyph glyph-name="Scaron" unicode="&#x160;" horiz-adv-x="537" 
d="M423 561v90c-35 12 -78 17 -119 19c-134 0 -183 -71 -183 -146c0 -74 52 -98 106 -117l116 -42c79 -29 141 -72 141 -169c0 -96 -72 -210 -255 -210c-85 0 -142 18 -195 34l11 135h40l-3 -100c33 -12 90 -25 141 -25c152 0 205 85 205 163c0 83 -71 108 -132 131l-78 29
c-82 30 -153 69 -153 162c0 122 92 199 240 199c41 0 110 -9 166 -28l-8 -125h-40zM460 859l-129 -101h-42l-113 101l40 28l98 -93l112 93z" />
    <glyph glyph-name="Uacute" unicode="&#xda;" horiz-adv-x="722" 
d="M61 656l4 44h202l-4 -44h-67l-30 -324c-6 -64 -10 -112 -10 -153c0 -98 57 -149 175 -149c204 0 214 131 222 220l35 406h-89l4 44h202l-4 -44h-69l-35 -412c-8 -88 -23 -143 -57 -180c-53 -57 -125 -78 -212 -78c-171 0 -224 84 -224 195c0 37 6 90 10 137l30 338h-83z
M528 864l-149 -122l-33 28l142 121z" />
    <glyph glyph-name="Ucircumflex" unicode="&#xdb;" horiz-adv-x="722" 
d="M61 656l4 44h202l-4 -44h-67l-30 -324c-6 -64 -10 -112 -10 -153c0 -98 57 -149 175 -149c204 0 214 131 222 220l35 406h-89l4 44h202l-4 -44h-69l-35 -412c-8 -88 -23 -143 -57 -180c-53 -57 -125 -78 -212 -78c-171 0 -224 84 -224 195c0 37 6 90 10 137l30 338h-83z
M259 786l129 101h42l113 -101l-40 -28l-98 93l-112 -93z" />
    <glyph glyph-name="Udieresis" unicode="&#xdc;" horiz-adv-x="722" 
d="M61 656l4 44h202l-4 -44h-67l-30 -324c-6 -64 -10 -112 -10 -153c0 -98 57 -149 175 -149c204 0 214 131 222 220l35 406h-89l4 44h202l-4 -44h-69l-35 -412c-8 -88 -23 -143 -57 -180c-53 -57 -125 -78 -212 -78c-171 0 -224 84 -224 195c0 37 6 90 10 137l30 338h-83z
M305 778c-24 0 -38 14 -38 36c0 18 9 46 44 46c21 0 34 -16 34 -37c0 -11 -8 -45 -40 -45zM503 778c-24 0 -38 14 -38 36c0 18 9 46 44 46c21 0 34 -16 34 -37c0 -11 -8 -45 -40 -45z" />
    <glyph glyph-name="Ugrave" unicode="&#xd9;" horiz-adv-x="722" 
d="M61 656l4 44h202l-4 -44h-67l-30 -324c-6 -64 -10 -112 -10 -153c0 -98 57 -149 175 -149c204 0 214 131 222 220l35 406h-89l4 44h202l-4 -44h-69l-35 -412c-8 -88 -23 -143 -57 -180c-53 -57 -125 -78 -212 -78c-171 0 -224 84 -224 195c0 37 6 90 10 137l30 338h-83z
M313 891l124 -120l-34 -29l-130 121z" />
    <glyph glyph-name="Yacute" unicode="&#xdd;" horiz-adv-x="667" 
d="M209 0l4 44h69l22 253l-200 359h-82l4 44h202l-4 -44h-65c6 -7 11 -16 16 -24l161 -292l208 292c6 9 12 17 20 24h-85l4 44h205l-4 -44h-71l-257 -357l-22 -255h84l-4 -44h-205zM501 864l-149 -122l-33 28l142 121z" />
    <glyph glyph-name="Ydieresis" unicode="&#x178;" horiz-adv-x="667" 
d="M209 0l4 44h69l22 253l-200 359h-82l4 44h202l-4 -44h-65c6 -7 11 -16 16 -24l161 -292l208 292c6 9 12 17 20 24h-85l4 44h205l-4 -44h-71l-257 -357l-22 -255h84l-4 -44h-205zM278 778c-24 0 -38 14 -38 36c0 18 9 46 44 46c21 0 34 -16 34 -37c0 -11 -8 -45 -40 -45z
M476 778c-24 0 -38 14 -38 36c0 18 9 46 44 46c21 0 34 -16 34 -37c0 -11 -8 -45 -40 -45z" />
    <glyph glyph-name="Zcaron" unicode="&#x17d;" horiz-adv-x="611" 
d="M28 0l3 36l458 589c9 12 19 22 30 31l-2 2c-7 -2 -17 -2 -26 -2h-342l-13 -98h-44l11 142h480l-3 -36l-462 -596c-7 -9 -14 -16 -23 -26c14 1 27 2 41 2h354l16 100h44l-15 -144h-507zM497 859l-129 -101h-42l-113 101l40 28l98 -93l112 93z" />
    <glyph glyph-name="aacute" unicode="&#xe1;" horiz-adv-x="537" 
d="M347 0l25 228c2 19 7 37 11 56h-2c-5 -19 -9 -38 -15 -56c-32 -99 -98 -238 -203 -238c-91 0 -111 100 -111 186c0 173 73 348 265 348c40 0 77 -11 97 -19h29c-7 -35 -14 -93 -20 -165l-24 -296h82l-4 -44h-130zM384 434l5 31c-20 8 -50 19 -84 19
c-68 0 -120 -39 -151 -90c-33 -57 -50 -123 -50 -217s24 -139 66 -139c68 0 169 115 214 396zM436 718l-149 -122l-33 28l142 121z" />
    <glyph glyph-name="acircumflex" unicode="&#xe2;" horiz-adv-x="537" 
d="M347 0l25 228c2 19 7 37 11 56h-2c-5 -19 -9 -38 -15 -56c-32 -99 -98 -238 -203 -238c-91 0 -111 100 -111 186c0 173 73 348 265 348c40 0 77 -11 97 -19h29c-7 -35 -14 -93 -20 -165l-24 -296h82l-4 -44h-130zM384 434l5 31c-20 8 -50 19 -84 19
c-68 0 -120 -39 -151 -90c-33 -57 -50 -123 -50 -217s24 -139 66 -139c68 0 169 115 214 396zM167 640l129 101h42l113 -101l-40 -28l-98 93l-112 -93z" />
    <glyph glyph-name="adieresis" unicode="&#xe4;" horiz-adv-x="537" 
d="M347 0l25 228c2 19 7 37 11 56h-2c-5 -19 -9 -38 -15 -56c-32 -99 -98 -238 -203 -238c-91 0 -111 100 -111 186c0 173 73 348 265 348c40 0 77 -11 97 -19h29c-7 -35 -14 -93 -20 -165l-24 -296h82l-4 -44h-130zM384 434l5 31c-20 8 -50 19 -84 19
c-68 0 -120 -39 -151 -90c-33 -57 -50 -123 -50 -217s24 -139 66 -139c68 0 169 115 214 396zM213 632c-24 0 -38 14 -38 36c0 18 9 46 44 46c21 0 34 -16 34 -37c0 -11 -8 -45 -40 -45zM411 632c-24 0 -38 14 -38 36c0 18 9 46 44 46c21 0 34 -16 34 -37
c0 -11 -8 -45 -40 -45z" />
    <glyph glyph-name="agrave" unicode="&#xe0;" horiz-adv-x="537" 
d="M347 0l25 228c2 19 7 37 11 56h-2c-5 -19 -9 -38 -15 -56c-32 -99 -98 -238 -203 -238c-91 0 -111 100 -111 186c0 173 73 348 265 348c40 0 77 -11 97 -19h29c-7 -35 -14 -93 -20 -165l-24 -296h82l-4 -44h-130zM384 434l5 31c-20 8 -50 19 -84 19
c-68 0 -120 -39 -151 -90c-33 -57 -50 -123 -50 -217s24 -139 66 -139c68 0 169 115 214 396zM221 745l124 -120l-34 -29l-130 121z" />
    <glyph glyph-name="aring" unicode="&#xe5;" horiz-adv-x="537" 
d="M347 0l25 228c2 19 7 37 11 56h-2c-5 -19 -9 -38 -15 -56c-32 -99 -98 -238 -203 -238c-91 0 -111 100 -111 186c0 173 73 348 265 348c40 0 77 -11 97 -19h29c-7 -35 -14 -93 -20 -165l-24 -296h82l-4 -44h-130zM384 434l5 31c-20 8 -50 19 -84 19
c-68 0 -120 -39 -151 -90c-33 -57 -50 -123 -50 -217s24 -139 66 -139c68 0 169 115 214 396zM265 666c0 -27 16 -50 45 -50c37 0 49 34 49 60c0 27 -11 51 -43 51s-51 -29 -51 -61zM225 662c0 47 34 101 95 101c43 0 79 -29 79 -84c0 -62 -41 -99 -95 -99
c-50 0 -79 38 -79 82z" />
    <glyph glyph-name="atilde" unicode="&#xe3;" horiz-adv-x="537" 
d="M347 0l25 228c2 19 7 37 11 56h-2c-5 -19 -9 -38 -15 -56c-32 -99 -98 -238 -203 -238c-91 0 -111 100 -111 186c0 173 73 348 265 348c40 0 77 -11 97 -19h29c-7 -35 -14 -93 -20 -165l-24 -296h82l-4 -44h-130zM384 434l5 31c-20 8 -50 19 -84 19
c-68 0 -120 -39 -151 -90c-33 -57 -50 -123 -50 -217s24 -139 66 -139c68 0 169 115 214 396zM426 700l36 -27c-12 -22 -39 -64 -88 -64c-21 0 -45 14 -67 29s-42 28 -58 28c-28 0 -40 -29 -50 -52l-41 18c11 34 43 82 88 82c29 0 53 -14 73 -28c21 -15 38 -29 55 -29
c24 0 38 22 52 43z" />
    <glyph glyph-name="ccedilla" unicode="&#xe7;" horiz-adv-x="407" 
d="M112 -198l3 43c21 -7 51 -14 77 -14c32 0 54 10 54 38c0 26 -30 35 -52 35c-9 0 -16 -2 -21 -3l8 93c-116 16 -150 125 -150 225c0 159 74 305 244 305c47 0 85 -11 107 -17l-12 -121h-44l4 87c-10 4 -31 7 -51 7c-142 0 -196 -128 -196 -257c0 -94 30 -185 136 -185
c52 0 99 22 135 42l-4 -52c-39 -23 -91 -36 -125 -38l-8 -54c43 0 85 -14 85 -63c0 -41 -36 -86 -109 -86c-32 0 -57 7 -81 15z" />
    <glyph glyph-name="eacute" unicode="&#xe9;" horiz-adv-x="444" 
d="M372 81l-4 -51c-28 -16 -79 -40 -147 -40c-137 0 -176 89 -176 215c0 148 69 319 243 319c78 0 123 -42 123 -110c0 -141 -191 -196 -314 -210c0 -53 0 -170 131 -170c52 0 103 24 144 47zM359 410c0 28 -15 70 -81 70c-105 0 -171 -102 -181 -232c143 12 262 72 262 162
zM409 718l-149 -122l-33 28l142 121z" />
    <glyph glyph-name="ecircumflex" unicode="&#xea;" horiz-adv-x="444" 
d="M372 81l-4 -51c-28 -16 -79 -40 -147 -40c-137 0 -176 89 -176 215c0 148 69 319 243 319c78 0 123 -42 123 -110c0 -141 -191 -196 -314 -210c0 -53 0 -170 131 -170c52 0 103 24 144 47zM359 410c0 28 -15 70 -81 70c-105 0 -171 -102 -181 -232c143 12 262 72 262 162
zM140 640l129 101h42l113 -101l-40 -28l-98 93l-112 -93z" />
    <glyph glyph-name="edieresis" unicode="&#xeb;" horiz-adv-x="444" 
d="M372 81l-4 -51c-28 -16 -79 -40 -147 -40c-137 0 -176 89 -176 215c0 148 69 319 243 319c78 0 123 -42 123 -110c0 -141 -191 -196 -314 -210c0 -53 0 -170 131 -170c52 0 103 24 144 47zM359 410c0 28 -15 70 -81 70c-105 0 -171 -102 -181 -232c143 12 262 72 262 162
zM186 632c-24 0 -38 14 -38 36c0 18 9 46 44 46c21 0 34 -16 34 -37c0 -11 -8 -45 -40 -45zM384 632c-24 0 -38 14 -38 36c0 18 9 46 44 46c21 0 34 -16 34 -37c0 -11 -8 -45 -40 -45z" />
    <glyph glyph-name="egrave" unicode="&#xe8;" horiz-adv-x="444" 
d="M372 81l-4 -51c-28 -16 -79 -40 -147 -40c-137 0 -176 89 -176 215c0 148 69 319 243 319c78 0 123 -42 123 -110c0 -141 -191 -196 -314 -210c0 -53 0 -170 131 -170c52 0 103 24 144 47zM359 410c0 28 -15 70 -81 70c-105 0 -171 -102 -181 -232c143 12 262 72 262 162
zM194 745l124 -120l-34 -29l-130 121z" />
    <glyph glyph-name="iacute" unicode="&#xed;" 
d="M92 0l42 470h-85l4 44h133l-42 -470h85l-4 -44h-133zM306 718l-149 -122l-33 28l142 121z" />
    <glyph glyph-name="icircumflex" unicode="&#xee;" 
d="M92 0l42 470h-85l4 44h133l-42 -470h85l-4 -44h-133zM27 640l129 101h42l113 -101l-40 -28l-98 93l-112 -93z" />
    <glyph glyph-name="idieresis" unicode="&#xef;" 
d="M92 0l42 470h-85l4 44h133l-42 -470h85l-4 -44h-133zM83 632c-24 0 -38 14 -38 36c0 18 9 46 44 46c21 0 34 -16 34 -37c0 -11 -8 -45 -40 -45zM281 632c-24 0 -38 14 -38 36c0 18 9 46 44 46c21 0 34 -16 34 -37c0 -11 -8 -45 -40 -45z" />
    <glyph glyph-name="igrave" unicode="&#xec;" 
d="M92 0l42 470h-85l4 44h133l-42 -470h85l-4 -44h-133zM91 745l124 -120l-34 -29l-130 121z" />
    <glyph glyph-name="ntilde" unicode="&#xf1;" horiz-adv-x="556" 
d="M31 470l4 44h140l-20 -175c-5 -47 -12 -80 -18 -120h2c4 14 7 29 11 43c24 85 100 262 228 262c72 0 86 -61 86 -121c0 -68 -25 -261 -38 -359h83l-4 -44h-135c14 95 46 307 46 400c0 37 -8 76 -50 76c-55 0 -194 -89 -243 -476h-48c9 67 18 144 25 222l22 248h-91z
M425 700l36 -27c-12 -22 -39 -64 -88 -64c-21 0 -45 14 -67 29s-42 28 -58 28c-28 0 -40 -29 -50 -52l-41 18c11 34 43 82 88 82c29 0 53 -14 73 -28c21 -15 38 -29 55 -29c24 0 38 22 52 43z" />
    <glyph glyph-name="oacute" unicode="&#xf3;" horiz-adv-x="481" 
d="M31 220c0 146 65 304 233 304c98 0 172 -71 172 -230c0 -170 -80 -304 -227 -304c-93 0 -178 59 -178 230zM83 217c0 -95 34 -183 128 -183c133 0 173 149 173 256c0 133 -56 190 -129 190c-126 0 -172 -144 -172 -263zM408 718l-149 -122l-33 28l142 121z" />
    <glyph glyph-name="ocircumflex" unicode="&#xf4;" horiz-adv-x="481" 
d="M31 220c0 146 65 304 233 304c98 0 172 -71 172 -230c0 -170 -80 -304 -227 -304c-93 0 -178 59 -178 230zM83 217c0 -95 34 -183 128 -183c133 0 173 149 173 256c0 133 -56 190 -129 190c-126 0 -172 -144 -172 -263zM139 640l129 101h42l113 -101l-40 -28l-98 93
l-112 -93z" />
    <glyph glyph-name="odieresis" unicode="&#xf6;" horiz-adv-x="481" 
d="M31 220c0 146 65 304 233 304c98 0 172 -71 172 -230c0 -170 -80 -304 -227 -304c-93 0 -178 59 -178 230zM83 217c0 -95 34 -183 128 -183c133 0 173 149 173 256c0 133 -56 190 -129 190c-126 0 -172 -144 -172 -263zM185 632c-24 0 -38 14 -38 36c0 18 9 46 44 46
c21 0 34 -16 34 -37c0 -11 -8 -45 -40 -45zM383 632c-24 0 -38 14 -38 36c0 18 9 46 44 46c21 0 34 -16 34 -37c0 -11 -8 -45 -40 -45z" />
    <glyph glyph-name="ograve" unicode="&#xf2;" horiz-adv-x="481" 
d="M31 220c0 146 65 304 233 304c98 0 172 -71 172 -230c0 -170 -80 -304 -227 -304c-93 0 -178 59 -178 230zM83 217c0 -95 34 -183 128 -183c133 0 173 149 173 256c0 133 -56 190 -129 190c-126 0 -172 -144 -172 -263zM193 745l124 -120l-34 -29l-130 121z" />
    <glyph glyph-name="otilde" unicode="&#xf5;" horiz-adv-x="481" 
d="M31 220c0 146 65 304 233 304c98 0 172 -71 172 -230c0 -170 -80 -304 -227 -304c-93 0 -178 59 -178 230zM83 217c0 -95 34 -183 128 -183c133 0 173 149 173 256c0 133 -56 190 -129 190c-126 0 -172 -144 -172 -263zM398 700l36 -27c-12 -22 -39 -64 -88 -64
c-21 0 -45 14 -67 29s-42 28 -58 28c-28 0 -40 -29 -50 -52l-41 18c11 34 43 82 88 82c29 0 53 -14 73 -28c21 -15 38 -29 55 -29c24 0 38 22 52 43z" />
    <glyph glyph-name="scaron" unicode="&#x161;" horiz-adv-x="444" 
d="M37 20v124h48v-88c11 -8 57 -22 101 -22c88 0 137 38 137 100c0 46 -23 68 -101 99c-116 46 -164 65 -164 147c0 91 72 144 187 144c43 0 93 -11 130 -23v-119h-48v87c-23 8 -48 15 -87 15c-64 0 -130 -26 -130 -100c0 -46 35 -66 103 -92c91 -35 162 -62 162 -150
c0 -81 -58 -152 -188 -152c-74 0 -129 20 -150 30zM388 713l-129 -101h-42l-113 101l40 28l98 -93l112 93z" />
    <glyph glyph-name="uacute" unicode="&#xfa;" horiz-adv-x="574" 
d="M530 44l-4 -44h-140l20 171c5 40 13 79 19 119h-2c-3 -15 -10 -41 -17 -63c-20 -65 -100 -237 -223 -237c-72 0 -86 61 -86 121c0 68 25 261 38 359h-83l4 44h135c-14 -95 -46 -307 -46 -400c0 -37 8 -76 50 -76c55 0 194 89 243 476h48c-9 -67 -18 -144 -25 -222
l-22 -248h91zM454 718l-149 -122l-33 28l142 121z" />
    <glyph glyph-name="ucircumflex" unicode="&#xfb;" horiz-adv-x="574" 
d="M530 44l-4 -44h-140l20 171c5 40 13 79 19 119h-2c-3 -15 -10 -41 -17 -63c-20 -65 -100 -237 -223 -237c-72 0 -86 61 -86 121c0 68 25 261 38 359h-83l4 44h135c-14 -95 -46 -307 -46 -400c0 -37 8 -76 50 -76c55 0 194 89 243 476h48c-9 -67 -18 -144 -25 -222
l-22 -248h91zM175 640l129 101h42l113 -101l-40 -28l-98 93l-112 -93z" />
    <glyph glyph-name="udieresis" unicode="&#xfc;" horiz-adv-x="574" 
d="M530 44l-4 -44h-140l20 171c5 40 13 79 19 119h-2c-3 -15 -10 -41 -17 -63c-20 -65 -100 -237 -223 -237c-72 0 -86 61 -86 121c0 68 25 261 38 359h-83l4 44h135c-14 -95 -46 -307 -46 -400c0 -37 8 -76 50 -76c55 0 194 89 243 476h48c-9 -67 -18 -144 -25 -222
l-22 -248h91zM221 632c-24 0 -38 14 -38 36c0 18 9 46 44 46c21 0 34 -16 34 -37c0 -11 -8 -45 -40 -45zM419 632c-24 0 -38 14 -38 36c0 18 9 46 44 46c21 0 34 -16 34 -37c0 -11 -8 -45 -40 -45z" />
    <glyph glyph-name="ugrave" unicode="&#xf9;" horiz-adv-x="574" 
d="M530 44l-4 -44h-140l20 171c5 40 13 79 19 119h-2c-3 -15 -10 -41 -17 -63c-20 -65 -100 -237 -223 -237c-72 0 -86 61 -86 121c0 68 25 261 38 359h-83l4 44h135c-14 -95 -46 -307 -46 -400c0 -37 8 -76 50 -76c55 0 194 89 243 476h48c-9 -67 -18 -144 -25 -222
l-22 -248h91zM239 745l124 -120l-34 -29l-130 121z" />
    <glyph glyph-name="yacute" unicode="&#xfd;" horiz-adv-x="519" 
d="M22 470l4 44h116l102 -404c6 -24 10 -47 14 -71h2c7 22 15 44 23 66l138 365h-87l4 44h140l-4 -32c-28 -90 -91 -240 -174 -455c-84 -218 -142 -290 -256 -290c-19 0 -38 3 -49 7l7 44c16 -5 35 -7 44 -7c93 0 125 65 183 198l-132 491h-75zM427 718l-149 -122l-33 28
l142 121z" />
    <glyph glyph-name="ydieresis" unicode="&#xff;" horiz-adv-x="519" 
d="M22 470l4 44h116l102 -404c6 -24 10 -47 14 -71h2c7 22 15 44 23 66l138 365h-87l4 44h140l-4 -32c-28 -90 -91 -240 -174 -455c-84 -218 -142 -290 -256 -290c-19 0 -38 3 -49 7l7 44c16 -5 35 -7 44 -7c93 0 125 65 183 198l-132 491h-75zM184 632c-24 0 -38 14 -38 36
c0 18 9 46 44 46c21 0 34 -16 34 -37c0 -11 -8 -45 -40 -45zM382 632c-24 0 -38 14 -38 36c0 18 9 46 44 46c21 0 34 -16 34 -37c0 -11 -8 -45 -40 -45z" />
    <glyph glyph-name="zcaron" unicode="&#x17e;" horiz-adv-x="481" 
d="M31 0l4 42l308 396c11 15 20 24 29 32h-269l-11 -80h-40l11 124h374l-4 -33l-308 -400c-13 -17 -22 -27 -32 -37h284l12 80h40l-12 -124h-386zM397 713l-129 -101h-42l-113 101l40 28l98 -93l112 93z" />
    <glyph glyph-name="exclam.sc" unicode="&#xf721;" horiz-adv-x="296" 
d="M78 35c0 28 16 52 44 52c26 0 42 -22 42 -47c0 -28 -22 -46 -43 -46c-27 0 -43 18 -43 41zM117 236l40 533h56l-52 -533h-44z" />
    <glyph glyph-name="hungarumlaut.sc" unicode="&#xf6f8;" 
d="M221 718l-149 -122l-33 28l142 121zM391 718l-149 -122l-33 28l142 121z" />
    <glyph glyph-name="ampersand.sc" unicode="&#xf726;" horiz-adv-x="685" 
d="M675 302l-4 -44h-61c-22 -119 -100 -267 -309 -267c-132 0 -263 89 -263 269c0 159 94 264 205 264c60 0 97 -39 97 -90c0 -12 -4 -41 -21 -72l2 -2l250 231l31 -30l-474 -435c40 -54 96 -91 188 -91c127 0 223 93 246 223h-93l4 44h202zM105 165l108 101
c70 65 87 93 87 145c0 43 -21 69 -69 69c-66 0 -145 -75 -145 -215c0 -32 5 -71 19 -100z" />
    <glyph glyph-name="acute.sc" unicode="&#xf7b4;" 
d="M306 718l-149 -122l-33 28l142 121z" />
    <glyph glyph-name="question.sc" unicode="&#xf73f;" horiz-adv-x="481" 
d="M194 244l-40 -31c-17 18 -44 55 -44 91c0 62 54 93 97 122l68 45c47 31 91 74 91 139c0 77 -59 119 -139 119c-50 0 -91 -12 -107 -19l-10 45c36 12 70 22 124 22c125 0 184 -78 184 -160c0 -90 -66 -148 -95 -168l-68 -46c-64 -43 -93 -61 -93 -95c0 -31 21 -47 32 -64z
M101 35c0 28 16 52 44 52c26 0 42 -22 42 -47c0 -28 -22 -46 -43 -46c-27 0 -43 18 -43 41z" />
    <glyph glyph-name="circumflex.sc" unicode="&#xf6f6;" 
d="M37 640l129 101h42l113 -101l-40 -28l-98 93l-112 -93z" />
    <glyph glyph-name="grave.sc" unicode="&#xf760;" 
d="M91 745l124 -120l-34 -29l-130 121z" />
    <glyph glyph-name="a.sc" unicode="&#xf761;" horiz-adv-x="519" 
d="M177 262h153l-47 184c-5 20 -7 41 -8 56h-2c-3 -14 -10 -37 -19 -58zM-28 0l4 44h56l219 498h52l138 -498h65l-4 -44h-192l4 44h71l-45 178h-180l-76 -178h77l-4 -44h-185z" />
    <glyph glyph-name="b.sc" unicode="&#xf762;" horiz-adv-x="481" 
d="M173 258l-19 -214h90c84 0 122 58 122 117c0 63 -42 97 -121 97h-72zM194 494l-16 -192h49c80 0 129 56 129 117c0 52 -34 75 -89 75h-73zM30 0l4 44h68l40 450h-83l4 44h222c75 0 119 -46 119 -116c0 -63 -29 -108 -107 -134v-2c74 -4 121 -49 121 -125
c0 -96 -62 -161 -169 -161h-219z" />
    <glyph glyph-name="c.sc" unicode="&#xf763;" horiz-adv-x="500" 
d="M438 129l-12 -115c-45 -19 -103 -23 -140 -23c-151 0 -234 96 -234 248c0 200 122 308 277 308c46 0 83 -6 135 -22l-4 -117h-42v82c-34 8 -64 13 -93 13c-140 0 -221 -98 -221 -250c0 -117 39 -214 196 -214c25 0 69 5 86 9l12 81h40z" />
    <glyph glyph-name="d.sc" unicode="&#xf764;" horiz-adv-x="593" 
d="M30 0l4 44h68l40 450h-83l4 44h252c135 0 225 -67 225 -238c0 -168 -101 -300 -265 -300h-245zM194 494l-40 -450h99c77 0 119 16 164 61c42 41 71 117 71 191c0 132 -61 198 -182 198h-112z" />
    <glyph glyph-name="e.sc" unicode="&#xf765;" horiz-adv-x="500" 
d="M35 0l4 44h68l40 450h-83l4 44h359l-2 -124h-42l-2 80h-182l-18 -198h178l-4 -44h-178l-18 -208h192l14 86h41l-18 -130h-353z" />
    <glyph glyph-name="f.sc" unicode="&#xf766;" horiz-adv-x="463" 
d="M35 0l4 44h68l40 450h-83l4 44h355l-4 -124h-41l-2 80h-177l-18 -208h185l-4 -44h-185l-18 -198h83l-4 -44h-203z" />
    <glyph glyph-name="g.sc" unicode="&#xf767;" horiz-adv-x="556" 
d="M470 528v-120h-42l-4 83c-29 8 -59 12 -99 12c-140 0 -221 -98 -221 -250c0 -117 39 -214 196 -214c38 0 65 3 95 13l9 121h-81l4 44h193l-4 -44h-62l-13 -154c-46 -20 -95 -28 -155 -28c-151 0 -234 96 -234 248c0 200 122 308 277 308c49 0 98 -8 141 -19z" />
    <glyph glyph-name="h.sc" unicode="&#xf768;" horiz-adv-x="630" 
d="M35 0l4 44h68l40 450h-83l4 44h203l-4 -44h-68l-18 -208h272l18 208h-83l4 44h203l-4 -44h-68l-40 -450h83l-4 -44h-203l4 44h68l18 198h-272l-18 -198h83l-4 -44h-203z" />
    <glyph glyph-name="i.sc" unicode="&#xf769;" horiz-adv-x="296" 
d="M30 0l4 44h68l40 450h-83l4 44h203l-4 -44h-68l-40 -450h83l-4 -44h-203z" />
    <glyph glyph-name="j.sc" unicode="&#xf76a;" 
d="M-32 -147l-16 40c127 60 148 122 160 261l30 340h-83l4 44h203l-4 -44h-68l-29 -332c-12 -139 -26 -238 -197 -309z" />
    <glyph glyph-name="k.sc" unicode="&#xf76b;" horiz-adv-x="537" 
d="M35 0l4 44h68l40 450h-83l4 44h203l-4 -44h-68l-19 -209l238 209h-80l4 44h185l-4 -44h-43l-252 -220l215 -230h59l-4 -44h-192l4 44h70l-201 220l-20 -220h83l-4 -44h-203z" />
    <glyph glyph-name="l.sc" unicode="&#xf76c;" horiz-adv-x="407" 
d="M30 0l4 44h68l40 450h-83l4 44h203l-4 -44h-68l-40 -450h192l14 86h41l-18 -130h-353z" />
    <glyph glyph-name="m.sc" unicode="&#xf76d;" horiz-adv-x="741" 
d="M40 0l4 44h68l40 450h-83l4 44h138l137 -424c7 -23 13 -45 16 -66h2c5 22 12 43 22 66l192 424h123l-4 -44h-68l-28 -450h83l-4 -44h-199l4 44h64l28 347c2 20 3 37 8 62l-2 2c-7 -23 -13 -42 -21 -58l-180 -397h-48l-125 391c-7 21 -13 43 -14 64h-2
c0 -21 -1 -38 -3 -57l-32 -354h83l-4 -44h-199z" />
    <glyph glyph-name="n.sc" unicode="&#xf76e;" horiz-adv-x="648" 
d="M40 0l4 44h68l40 450h-83l4 44h130l239 -400c15 -25 26 -49 35 -74h2c0 25 0 49 2 80l28 350h-83l4 44h199l-4 -44h-68l-44 -494h-48l-243 410c-14 23 -24 44 -29 62h-2c0 -19 1 -45 -1 -67l-26 -361h83l-4 -44h-203z" />
    <glyph glyph-name="o.sc" unicode="&#xf76f;" horiz-adv-x="574" 
d="M522 300c0 -212 -129 -309 -258 -309c-131 0 -212 100 -212 246c0 216 126 310 254 310c138 0 216 -100 216 -247zM470 288c0 124 -49 211 -171 211c-119 0 -195 -111 -195 -254c0 -119 52 -206 171 -206c122 0 195 106 195 249z" />
    <glyph glyph-name="p.sc" unicode="&#xf770;" horiz-adv-x="444" 
d="M30 0l4 44h68l40 450h-83l4 44h188c111 0 163 -53 163 -135c0 -129 -92 -177 -176 -177h-68l-16 -182h83l-4 -44h-203zM194 494l-20 -228h65c86 0 123 56 123 132c0 58 -32 96 -99 96h-69z" />
    <glyph glyph-name="q.sc" unicode="&#xf771;" horiz-adv-x="574" 
d="M559 -92l-3 -44c-25 -4 -42 -7 -52 -7c-106 0 -208 123 -274 137c-111 15 -178 110 -178 243c0 216 126 310 254 310c138 0 216 -100 216 -247c0 -183 -96 -281 -205 -301v-2c63 -11 106 -96 194 -96c15 0 30 3 48 7zM470 288c0 124 -49 211 -171 211
c-119 0 -195 -111 -195 -254c0 -119 52 -206 171 -206c122 0 195 106 195 249z" />
    <glyph glyph-name="r.sc" unicode="&#xf772;" horiz-adv-x="500" 
d="M30 0l4 44h68l40 450h-83l4 44h200c111 0 147 -52 147 -136c0 -83 -49 -132 -139 -151v-2c15 -4 31 -21 42 -39l72 -115c27 -44 40 -51 64 -51h32l-4 -44h-58c-30 0 -44 10 -63 43l-92 159c-22 37 -32 44 -80 44h-12l-18 -202h83l-4 -44h-203zM194 494l-19 -208h64
c82 0 123 61 123 121c0 55 -32 87 -97 87h-71z" />
    <glyph glyph-name="s.sc" unicode="&#xf773;" horiz-adv-x="463" 
d="M402 414h-42l-2 76c-33 9 -62 13 -90 13c-94 0 -129 -51 -129 -98c0 -145 266 -72 266 -256c0 -86 -68 -158 -199 -158c-45 0 -106 12 -148 27l2 118h42l2 -85c27 -9 64 -16 99 -16c90 0 150 43 150 115c0 137 -266 74 -266 249c0 92 75 148 183 148c42 0 72 -3 134 -24z
" />
    <glyph glyph-name="t.sc" unicode="&#xf774;" horiz-adv-x="481" 
d="M468 538v-124h-42l-4 80h-144l-40 -450h83l-4 -44h-203l4 44h68l40 450h-147l-16 -80h-44l18 124h431z" />
    <glyph glyph-name="u.sc" unicode="&#xf775;" horiz-adv-x="611" 
d="M586 538l-4 -44h-61l-29 -326c-11 -124 -78 -177 -197 -177c-154 0 -190 69 -190 137c0 38 8 118 30 366h-83l4 44h203l-4 -44h-68c-20 -229 -30 -330 -30 -362c0 -61 47 -97 138 -97c102 0 142 54 149 136l29 323h-83l4 44h192z" />
    <glyph glyph-name="v.sc" unicode="&#xf776;" horiz-adv-x="500" 
d="M-1 494l4 44h189l-4 -44h-71l106 -383c7 -23 10 -41 12 -67h2c5 26 13 46 21 67l160 383h-80l4 44h189l-4 -44h-57l-212 -498h-52l-141 498h-66z" />
    <glyph glyph-name="w.sc" unicode="&#xf777;" horiz-adv-x="759" 
d="M280 494l4 44h196l-4 -44h-78l97 -383c6 -24 10 -41 12 -67h2c6 26 11 43 18 62l150 388h-80l4 44h189l-4 -44h-57l-204 -498h-48l-88 336h-2l-143 -336h-48l-131 498h-66l4 44h189l-4 -44h-71l94 -376c6 -23 12 -47 12 -74h2c8 30 16 51 27 75l121 274l-27 101h-66z" />
    <glyph glyph-name="x.sc" unicode="&#xf778;" horiz-adv-x="519" 
d="M-13 0l4 44h54l184 234l-131 216h-63l4 44h192l-4 -44h-77c12 -14 19 -23 26 -35l83 -141l109 141c12 15 21 25 34 33v2h-83l4 44h185l-4 -44h-54l-169 -216l144 -234h63l-4 -44h-192l4 44h77c-8 7 -18 19 -27 34l-95 160l-120 -159c-9 -12 -21 -26 -34 -33v-2h83l-4 -44
h-189z" />
    <glyph glyph-name="y.sc" unicode="&#xf779;" horiz-adv-x="481" 
d="M132 0l4 44h68l17 185l-153 265h-64l4 44h192l-4 -44h-80c8 -7 20 -21 31 -40l105 -181l120 180c13 20 22 32 34 39v2h-83l4 44h185l-4 -44h-54l-181 -264l-17 -186h83l-4 -44h-203z" />
    <glyph glyph-name="z.sc" unicode="&#xf77a;" horiz-adv-x="463" 
d="M101 412h-41l12 126h372l-4 -39l-323 -411c-12 -16 -31 -35 -43 -42v-2h283l16 83h41l-16 -127h-379l4 44l321 410c12 15 26 31 39 38v2h-272z" />
    <glyph glyph-name="tilde.sc" unicode="&#xf6fe;" 
d="M296 700l36 -27c-12 -22 -39 -64 -88 -64c-21 0 -45 14 -67 29s-42 28 -58 28c-28 0 -40 -29 -50 -52l-41 18c11 34 43 82 88 82c29 0 53 -14 73 -28c21 -15 38 -29 55 -29c24 0 38 22 52 43z" />
    <glyph glyph-name="exclamdown.sc" unicode="&#xf7a1;" horiz-adv-x="296" 
d="M212 491c0 -28 -16 -52 -44 -52c-26 0 -42 22 -42 47c0 28 22 46 43 46c27 0 43 -18 43 -41zM173 290l-40 -533h-56l52 533h44z" />
    <glyph glyph-name="lslash.sc" unicode="&#xf6f9;" horiz-adv-x="407" 
d="M30 0l4 44h68l15 169l-76 -49l4 48l76 49l21 233h-83l4 44h203l-4 -44h-68l-18 -198l148 94l-4 -48l-148 -94l-18 -204h192l14 86h41l-18 -130h-353z" />
    <glyph glyph-name="scaron.sc" unicode="&#xf6fd;" horiz-adv-x="463" 
d="M402 414h-42l-2 76c-33 9 -62 13 -90 13c-94 0 -129 -51 -129 -98c0 -145 266 -72 266 -256c0 -86 -68 -158 -199 -158c-45 0 -106 12 -148 27l2 118h42l2 -85c27 -9 64 -16 99 -16c90 0 150 43 150 115c0 137 -266 74 -266 249c0 92 75 148 183 148c42 0 72 -3 134 -24z
M398 713l-129 -101h-42l-113 101l40 28l98 -93l112 93z" />
    <glyph glyph-name="zcaron.sc" unicode="&#xf6ff;" horiz-adv-x="463" 
d="M101 412h-41l12 126h372l-4 -39l-323 -411c-12 -16 -31 -35 -43 -42v-2h283l16 83h41l-16 -127h-379l4 44l321 410c12 15 26 31 39 38v2h-272zM388 713l-129 -101h-42l-113 101l40 28l98 -93l112 93z" />
    <glyph glyph-name="dieresis.sc" unicode="&#xf7a8;" 
d="M83 632c-24 0 -38 14 -38 36c0 18 9 46 44 46c21 0 34 -16 34 -37c0 -11 -8 -45 -40 -45zM281 632c-24 0 -38 14 -38 36c0 18 9 46 44 46c21 0 34 -16 34 -37c0 -11 -8 -45 -40 -45z" />
    <glyph glyph-name="breve.sc" unicode="&#xf6f4;" 
d="M52 707l44 23c10 -27 32 -77 86 -77c49 0 77 29 97 73l44 -19c-24 -52 -68 -98 -136 -98c-74 0 -113 40 -135 98z" />
    <glyph glyph-name="caron.sc" unicode="&#xf6f5;" 
d="M330 713l-129 -101h-42l-113 101l40 28l98 -93l112 93z" />
    <glyph glyph-name="dotaccent.sc" unicode="&#xf6f7;" 
d="M182 632c-24 0 -38 14 -38 36c0 18 9 46 44 46c21 0 34 -16 34 -37c0 -11 -8 -45 -40 -45z" />
    <glyph glyph-name="macron.sc" unicode="&#xf7af;" 
d="M65 646l4 44h224l-4 -44h-224z" />
    <glyph glyph-name="ogonek.sc" unicode="&#xf6fb;" 
d="M294 -138l-4 -36c-23 -21 -58 -39 -102 -39c-36 0 -74 17 -74 70c0 60 50 115 80 143h36c-30 -34 -60 -78 -60 -119c0 -25 12 -50 48 -50c26 0 56 12 76 31z" />
    <glyph glyph-name="ring.sc" unicode="&#xf6fc;" 
d="M135 666c0 -27 16 -50 45 -50c37 0 49 34 49 60c0 27 -11 51 -43 51s-51 -29 -51 -61zM95 662c0 47 34 101 95 101c43 0 79 -29 79 -84c0 -62 -41 -99 -95 -99c-50 0 -79 38 -79 82z" />
    <glyph glyph-name="cedilla.sc" unicode="&#xf7b8;" 
d="M57 -198l3 43c21 -7 51 -14 77 -14c32 0 54 10 54 38c0 26 -30 35 -52 35c-9 0 -16 -2 -21 -3l8 99h44l-8 -64c43 0 85 -14 85 -63c0 -41 -36 -86 -109 -86c-32 0 -57 7 -81 15z" />
    <glyph glyph-name="questiondown.sc" unicode="&#xf7bf;" horiz-adv-x="481" 
d="M240 282l40 31c17 -18 44 -55 44 -91c0 -62 -54 -93 -97 -122l-68 -45c-47 -31 -91 -74 -91 -139c0 -77 59 -119 139 -119c50 0 91 12 107 19l10 -45c-36 -12 -70 -22 -124 -22c-125 0 -184 78 -184 160c0 90 66 148 95 168l68 46c64 43 93 61 93 95c0 31 -21 47 -32 64z
M333 491c0 -28 -16 -52 -44 -52c-26 0 -42 22 -42 47c0 28 22 46 43 46c27 0 43 -18 43 -41z" />
    <glyph glyph-name="one.superior" unicode="&#xb9;" horiz-adv-x="361" 
d="M72 284l4 40h76l35 334l-119 -65l-13 36l142 77h40l-37 -382h88l-4 -40h-212z" />
    <glyph glyph-name="two.superior" unicode="&#xb2;" horiz-adv-x="361" 
d="M28 284l3 37c113 103 237 214 237 279c0 43 -31 74 -73 74c-64 0 -86 -32 -102 -78h-44c10 52 51 118 151 118c83 0 116 -60 116 -106c0 -38 -11 -91 -138 -204l-90 -80h228l-3 -40h-285z" />
    <glyph glyph-name="three.superior" unicode="&#xb3;" horiz-adv-x="361" 
d="M30 295l3 44c23 -16 57 -23 112 -23c78 0 120 37 120 89c0 75 -76 79 -147 79l3 40h13c83 0 132 46 132 90c0 31 -22 60 -74 60s-78 -25 -88 -61h-44c0 1 14 101 137 101c85 0 114 -49 114 -91c0 -66 -51 -102 -116 -113v-2c66 -6 118 -34 118 -98
c0 -66 -52 -134 -173 -134c-39 0 -75 8 -110 19z" />
    <glyph glyph-name="agrave.sc" unicode="&#xf7e0;" horiz-adv-x="519" 
d="M177 262h153l-47 184c-5 20 -7 41 -8 56h-2c-3 -14 -10 -37 -19 -58zM-28 0l4 44h56l219 498h52l138 -498h65l-4 -44h-192l4 44h71l-45 178h-180l-76 -178h77l-4 -44h-185zM212 745l124 -120l-34 -29l-130 121z" />
    <glyph glyph-name="aacute.sc" unicode="&#xf7e1;" horiz-adv-x="519" 
d="M177 262h153l-47 184c-5 20 -7 41 -8 56h-2c-3 -14 -10 -37 -19 -58zM-28 0l4 44h56l219 498h52l138 -498h65l-4 -44h-192l4 44h71l-45 178h-180l-76 -178h77l-4 -44h-185zM427 718l-149 -122l-33 28l142 121z" />
    <glyph glyph-name="acircumflex.sc" unicode="&#xf7e2;" horiz-adv-x="519" 
d="M177 262h153l-47 184c-5 20 -7 41 -8 56h-2c-3 -14 -10 -37 -19 -58zM-28 0l4 44h56l219 498h52l138 -498h65l-4 -44h-192l4 44h71l-45 178h-180l-76 -178h77l-4 -44h-185zM158 640l129 101h42l113 -101l-40 -28l-98 93l-112 -93z" />
    <glyph glyph-name="atilde.sc" unicode="&#xf7e3;" horiz-adv-x="519" 
d="M177 262h153l-47 184c-5 20 -7 41 -8 56h-2c-3 -14 -10 -37 -19 -58zM-28 0l4 44h56l219 498h52l138 -498h65l-4 -44h-192l4 44h71l-45 178h-180l-76 -178h77l-4 -44h-185zM417 700l36 -27c-12 -22 -39 -64 -88 -64c-21 0 -45 14 -67 29s-42 28 -58 28
c-28 0 -40 -29 -50 -52l-41 18c11 34 43 82 88 82c29 0 53 -14 73 -28c21 -15 38 -29 55 -29c24 0 38 22 52 43z" />
    <glyph glyph-name="adieresis.sc" unicode="&#xf7e4;" horiz-adv-x="519" 
d="M177 262h153l-47 184c-5 20 -7 41 -8 56h-2c-3 -14 -10 -37 -19 -58zM-28 0l4 44h56l219 498h52l138 -498h65l-4 -44h-192l4 44h71l-45 178h-180l-76 -178h77l-4 -44h-185zM204 632c-24 0 -38 14 -38 36c0 18 9 46 44 46c21 0 34 -16 34 -37c0 -11 -8 -45 -40 -45z
M402 632c-24 0 -38 14 -38 36c0 18 9 46 44 46c21 0 34 -16 34 -37c0 -11 -8 -45 -40 -45z" />
    <glyph glyph-name="aring.sc" unicode="&#xf7e5;" horiz-adv-x="519" 
d="M177 262h153l-47 184c-5 20 -7 41 -8 56h-2c-3 -14 -10 -37 -19 -58zM-28 0l4 44h56l219 498h52l138 -498h65l-4 -44h-192l4 44h71l-45 178h-180l-76 -178h77l-4 -44h-185zM226 666c0 -27 16 -50 45 -50c37 0 49 34 49 60c0 27 -11 51 -43 51s-51 -29 -51 -61zM186 662
c0 47 34 101 95 101c43 0 79 -29 79 -84c0 -62 -41 -99 -95 -99c-50 0 -79 38 -79 82z" />
    <glyph glyph-name="ae.sc" unicode="&#xf7e6;" horiz-adv-x="685" 
d="M-28 0l4 44h55l317 494h334l-3 -124h-41l-3 80h-166l-18 -208h179l-4 -44h-179l-18 -198h192l14 86h41l-18 -130h-353l4 44h68l18 198h-183l-126 -198h75l-4 -44h-185zM399 286l18 208h-45l-132 -208h159z" />
    <glyph glyph-name="ccedilla.sc" unicode="&#xf7e7;" horiz-adv-x="500" 
d="M464 525l-4 -117h-42v82c-34 8 -64 13 -93 13c-140 0 -221 -98 -221 -250c0 -117 39 -214 196 -214c25 0 69 5 86 9l12 81h40l-12 -115c-45 -19 -103 -23 -140 -23c-2 0 -4 0 -6 1l-7 -56c43 0 85 -14 85 -63c0 -41 -36 -86 -109 -86c-32 0 -57 7 -81 15l3 43
c21 -7 51 -14 77 -14c32 0 54 10 54 38c0 26 -30 35 -52 35c-9 0 -16 -2 -21 -3l7 95c-119 19 -184 109 -184 243c0 200 122 308 277 308c46 0 83 -6 135 -22z" />
    <glyph glyph-name="egrave.sc" unicode="&#xf7e8;" horiz-adv-x="500" 
d="M35 0l4 44h68l40 450h-83l4 44h359l-2 -124h-42l-2 80h-182l-18 -198h178l-4 -44h-178l-18 -208h192l14 86h41l-18 -130h-353zM222 745l124 -120l-34 -29l-130 121z" />
    <glyph glyph-name="eacute.sc" unicode="&#xf7e9;" horiz-adv-x="500" 
d="M35 0l4 44h68l40 450h-83l4 44h359l-2 -124h-42l-2 80h-182l-18 -198h178l-4 -44h-178l-18 -208h192l14 86h41l-18 -130h-353zM437 718l-149 -122l-33 28l142 121z" />
    <glyph glyph-name="ecircumflex.sc" unicode="&#xf7ea;" horiz-adv-x="500" 
d="M35 0l4 44h68l40 450h-83l4 44h359l-2 -124h-42l-2 80h-182l-18 -198h178l-4 -44h-178l-18 -208h192l14 86h41l-18 -130h-353zM168 640l129 101h42l113 -101l-40 -28l-98 93l-112 -93z" />
    <glyph glyph-name="edieresis.sc" unicode="&#xf7eb;" horiz-adv-x="500" 
d="M35 0l4 44h68l40 450h-83l4 44h359l-2 -124h-42l-2 80h-182l-18 -198h178l-4 -44h-178l-18 -208h192l14 86h41l-18 -130h-353zM214 632c-24 0 -38 14 -38 36c0 18 9 46 44 46c21 0 34 -16 34 -37c0 -11 -8 -45 -40 -45zM412 632c-24 0 -38 14 -38 36c0 18 9 46 44 46
c21 0 34 -16 34 -37c0 -11 -8 -45 -40 -45z" />
    <glyph glyph-name="igrave.sc" unicode="&#xf7ec;" horiz-adv-x="296" 
d="M30 0l4 44h68l40 450h-83l4 44h203l-4 -44h-68l-40 -450h83l-4 -44h-203zM100 745l124 -120l-34 -29l-130 121z" />
    <glyph glyph-name="iacute.sc" unicode="&#xf7ed;" horiz-adv-x="296" 
d="M30 0l4 44h68l40 450h-83l4 44h203l-4 -44h-68l-40 -450h83l-4 -44h-203zM315 718l-149 -122l-33 28l142 121z" />
    <glyph glyph-name="icircumflex.sc" unicode="&#xf7ee;" horiz-adv-x="296" 
d="M30 0l4 44h68l40 450h-83l4 44h203l-4 -44h-68l-40 -450h83l-4 -44h-203zM36 640l129 101h42l113 -101l-40 -28l-98 93l-112 -93z" />
    <glyph glyph-name="idieresis.sc" unicode="&#xf7ef;" horiz-adv-x="296" 
d="M30 0l4 44h68l40 450h-83l4 44h203l-4 -44h-68l-40 -450h83l-4 -44h-203zM92 632c-24 0 -38 14 -38 36c0 18 9 46 44 46c21 0 34 -16 34 -37c0 -11 -8 -45 -40 -45zM290 632c-24 0 -38 14 -38 36c0 18 9 46 44 46c21 0 34 -16 34 -37c0 -11 -8 -45 -40 -45z" />
    <glyph glyph-name="eth.sc" unicode="&#xf7f0;" horiz-adv-x="593" 
d="M30 0l4 44h68l19 214h-75l4 44h75l17 192h-83l4 44h252c135 0 225 -67 225 -238c0 -168 -101 -300 -265 -300h-245zM194 494l-17 -192h143l-4 -44h-143l-19 -214h99c77 0 119 16 164 61c42 41 71 117 71 191c0 132 -61 198 -182 198h-112z" />
    <glyph glyph-name="ntilde.sc" unicode="&#xf7f1;" horiz-adv-x="648" 
d="M40 0l4 44h68l40 450h-83l4 44h130l239 -400c15 -25 26 -49 35 -74h2c0 25 0 49 2 80l28 350h-83l4 44h199l-4 -44h-68l-44 -494h-48l-243 410c-14 23 -24 44 -29 62h-2c0 -19 1 -45 -1 -67l-26 -361h83l-4 -44h-203zM471 700l36 -27c-12 -22 -39 -64 -88 -64
c-21 0 -45 14 -67 29s-42 28 -58 28c-28 0 -40 -29 -50 -52l-41 18c11 34 43 82 88 82c29 0 53 -14 73 -28c21 -15 38 -29 55 -29c24 0 38 22 52 43z" />
    <glyph glyph-name="ograve.sc" unicode="&#xf7f2;" horiz-adv-x="574" 
d="M522 300c0 -212 -129 -309 -258 -309c-131 0 -212 100 -212 246c0 216 126 310 254 310c138 0 216 -100 216 -247zM470 288c0 124 -49 211 -171 211c-119 0 -195 -111 -195 -254c0 -119 52 -206 171 -206c122 0 195 106 195 249zM239 745l124 -120l-34 -29l-130 121z" />
    <glyph glyph-name="oacute.sc" unicode="&#xf7f3;" horiz-adv-x="574" 
d="M522 300c0 -212 -129 -309 -258 -309c-131 0 -212 100 -212 246c0 216 126 310 254 310c138 0 216 -100 216 -247zM470 288c0 124 -49 211 -171 211c-119 0 -195 -111 -195 -254c0 -119 52 -206 171 -206c122 0 195 106 195 249zM454 718l-149 -122l-33 28l142 121z" />
    <glyph glyph-name="ocircumflex.sc" unicode="&#xf7f4;" horiz-adv-x="574" 
d="M522 300c0 -212 -129 -309 -258 -309c-131 0 -212 100 -212 246c0 216 126 310 254 310c138 0 216 -100 216 -247zM470 288c0 124 -49 211 -171 211c-119 0 -195 -111 -195 -254c0 -119 52 -206 171 -206c122 0 195 106 195 249zM185 640l129 101h42l113 -101l-40 -28
l-98 93l-112 -93z" />
    <glyph glyph-name="otilde.sc" unicode="&#xf7f5;" horiz-adv-x="574" 
d="M522 300c0 -212 -129 -309 -258 -309c-131 0 -212 100 -212 246c0 216 126 310 254 310c138 0 216 -100 216 -247zM470 288c0 124 -49 211 -171 211c-119 0 -195 -111 -195 -254c0 -119 52 -206 171 -206c122 0 195 106 195 249zM444 700l36 -27c-12 -22 -39 -64 -88 -64
c-21 0 -45 14 -67 29s-42 28 -58 28c-28 0 -40 -29 -50 -52l-41 18c11 34 43 82 88 82c29 0 53 -14 73 -28c21 -15 38 -29 55 -29c24 0 38 22 52 43z" />
    <glyph glyph-name="odieresis.sc" unicode="&#xf7f6;" horiz-adv-x="574" 
d="M522 300c0 -212 -129 -309 -258 -309c-131 0 -212 100 -212 246c0 216 126 310 254 310c138 0 216 -100 216 -247zM470 288c0 124 -49 211 -171 211c-119 0 -195 -111 -195 -254c0 -119 52 -206 171 -206c122 0 195 106 195 249zM231 632c-24 0 -38 14 -38 36
c0 18 9 46 44 46c21 0 34 -16 34 -37c0 -11 -8 -45 -40 -45zM429 632c-24 0 -38 14 -38 36c0 18 9 46 44 46c21 0 34 -16 34 -37c0 -11 -8 -45 -40 -45z" />
    <glyph glyph-name="oe.sc" unicode="&#xf6fa;" horiz-adv-x="759" 
d="M378 44l40 450c-19 2 -49 4 -86 4c-156 0 -228 -126 -228 -258c0 -126 59 -200 212 -200c16 0 48 2 62 4zM677 130l-18 -130h-283c-28 0 -60 -2 -92 -2c-169 0 -232 99 -232 232c0 155 79 310 289 310c32 0 57 -2 82 -2h275l-2 -124h-42l-2 80h-182l-18 -198h178l-4 -44
h-178l-18 -208h192l14 86h41z" />
    <glyph glyph-name="oslash.sc" unicode="&#xf7f8;" horiz-adv-x="574" 
d="M435 432l-268 -356c26 -24 62 -37 108 -37c122 0 195 106 195 249c0 58 -11 108 -35 144zM139 108l269 355c-26 23 -62 36 -109 36c-119 0 -195 -111 -195 -254c0 -55 11 -102 35 -137zM37 -28l69 92c-35 42 -54 102 -54 173c0 216 126 310 254 310c53 0 98 -15 133 -42
l65 86l33 -25l-69 -91c36 -43 54 -104 54 -175c0 -212 -129 -309 -258 -309c-50 0 -93 15 -128 43l-66 -87z" />
    <glyph glyph-name="ugrave.sc" unicode="&#xf7f9;" horiz-adv-x="611" 
d="M586 538l-4 -44h-61l-29 -326c-11 -124 -78 -177 -197 -177c-154 0 -190 69 -190 137c0 38 8 118 30 366h-83l4 44h203l-4 -44h-68c-20 -229 -30 -330 -30 -362c0 -61 47 -97 138 -97c102 0 142 54 149 136l29 323h-83l4 44h192zM258 745l124 -120l-34 -29l-130 121z" />
    <glyph glyph-name="uacute.sc" unicode="&#xf7fa;" horiz-adv-x="611" 
d="M586 538l-4 -44h-61l-29 -326c-11 -124 -78 -177 -197 -177c-154 0 -190 69 -190 137c0 38 8 118 30 366h-83l4 44h203l-4 -44h-68c-20 -229 -30 -330 -30 -362c0 -61 47 -97 138 -97c102 0 142 54 149 136l29 323h-83l4 44h192zM473 718l-149 -122l-33 28l142 121z" />
    <glyph glyph-name="ucircumflex.sc" unicode="&#xf7fb;" horiz-adv-x="611" 
d="M586 538l-4 -44h-61l-29 -326c-11 -124 -78 -177 -197 -177c-154 0 -190 69 -190 137c0 38 8 118 30 366h-83l4 44h203l-4 -44h-68c-20 -229 -30 -330 -30 -362c0 -61 47 -97 138 -97c102 0 142 54 149 136l29 323h-83l4 44h192zM194 640l129 101h42l113 -101l-40 -28
l-98 93l-112 -93z" />
    <glyph glyph-name="udieresis.sc" unicode="&#xf7fc;" horiz-adv-x="611" 
d="M586 538l-4 -44h-61l-29 -326c-11 -124 -78 -177 -197 -177c-154 0 -190 69 -190 137c0 38 8 118 30 366h-83l4 44h203l-4 -44h-68c-20 -229 -30 -330 -30 -362c0 -61 47 -97 138 -97c102 0 142 54 149 136l29 323h-83l4 44h192zM240 632c-24 0 -38 14 -38 36
c0 18 9 46 44 46c21 0 34 -16 34 -37c0 -11 -8 -45 -40 -45zM438 632c-24 0 -38 14 -38 36c0 18 9 46 44 46c21 0 34 -16 34 -37c0 -11 -8 -45 -40 -45z" />
    <glyph glyph-name="yacute.sc" unicode="&#xf7fd;" horiz-adv-x="481" 
d="M132 0l4 44h68l17 185l-153 265h-64l4 44h192l-4 -44h-80c8 -7 20 -21 31 -40l105 -181l120 180c13 20 22 32 34 39v2h-83l4 44h185l-4 -44h-54l-181 -264l-17 -186h83l-4 -44h-203zM408 718l-149 -122l-33 28l142 121z" />
    <glyph glyph-name="thorn.sc" unicode="&#xf7fe;" horiz-adv-x="444" 
d="M30 0l4 44h68l40 450h-83l4 44h203l-4 -44h-68l-5 -52h53c111 0 163 -53 163 -135c0 -129 -92 -177 -176 -177h-67l-8 -86h83l-4 -44h-203zM185 398l-20 -228h65c86 0 123 56 123 132c0 58 -32 96 -99 96h-69z" />
    <glyph glyph-name="ydieresis.sc" unicode="&#xf7ff;" horiz-adv-x="481" 
d="M132 0l4 44h68l17 185l-153 265h-64l4 44h192l-4 -44h-80c8 -7 20 -21 31 -40l105 -181l120 180c13 20 22 32 34 39v2h-83l4 44h185l-4 -44h-54l-181 -264l-17 -186h83l-4 -44h-203zM165 632c-24 0 -38 14 -38 36c0 18 9 46 44 46c21 0 34 -16 34 -37
c0 -11 -8 -45 -40 -45zM363 632c-24 0 -38 14 -38 36c0 18 9 46 44 46c21 0 34 -16 34 -37c0 -11 -8 -45 -40 -45z" />
    <glyph glyph-name="Delta" unicode="&#x2206;" horiz-adv-x="644" 
d="M8 0l3 39l322 675h54l202 -674l-4 -40h-577zM60 40h476l-126 425c-15 54 -46 142 -56 189h-4c-13 -38 -56 -120 -79 -172z" />
    <glyph glyph-name="Omega" unicode="&#x2126;" horiz-adv-x="729" 
d="M190 41v3c-71 65 -128 177 -115 323c18 205 163 338 328 338c173 0 278 -151 262 -335c-13 -153 -96 -269 -173 -326v-3h158l-3 -41h-229l2 30c89 55 182 173 196 333c11 134 -56 301 -217 301c-152 0 -261 -137 -275 -302c-13 -151 59 -279 136 -332l-2 -30h-229l4 41
h157z" />
    <glyph glyph-name="uni03BC" unicode="&#x3bc;" horiz-adv-x="574" 
d="M530 44l-4 -44h-140l20 171c5 40 13 79 19 119h-2c-3 -15 -10 -41 -17 -63c-20 -65 -100 -237 -223 -237c-28 0 -46 11 -55 29h-2l-32 -270h-48c13 123 73 604 89 721h-83l4 44h135c-14 -95 -46 -307 -46 -400c0 -37 8 -76 50 -76c55 0 194 89 243 476h48
c-9 -67 -18 -144 -25 -222l-22 -248h91z" />
    <glyph glyph-name="pi" unicode="&#x3c0;" horiz-adv-x="556" 
d="M543 471h-86l-29 -325c-7 -88 -3 -122 3 -146h-47c-7 14 -12 51 -5 139l29 332h-203c-19 -139 -74 -382 -120 -471h-48c49 103 100 326 119 471c-70 0 -99 -5 -120 -13l-7 32c26 14 63 24 135 24h389z" />
    <glyph glyph-name="Euro" unicode="&#x20ac;" horiz-adv-x="556" 
d="M547 684l-6 -132h-43l3 98c-33 13 -67 20 -102 20c-143 0 -212 -109 -241 -234h347l-26 -42h-328c-3 -23 -5 -45 -5 -68h310l-26 -42h-284c11 -129 63 -255 213 -255c53 0 105 14 156 30l-3 -46c-52 -17 -106 -28 -162 -28c-172 0 -253 144 -261 299h-64l26 42h38
c1 23 2 45 5 68h-70l26 42h52c32 148 125 276 289 276c55 0 105 -9 156 -28z" />
    <glyph glyph-name="afii61289" unicode="&#x2113;" horiz-adv-x="471" 
d="M403 134l26 -20c-46 -75 -109 -119 -187 -119c-111 0 -147 92 -140 194c0 5 0 10 1 14c-20 -15 -43 -34 -65 -50l-16 31c31 24 59 45 85 69l25 283c16 183 97 232 161 232c79 0 110 -69 103 -154c-12 -129 -108 -253 -245 -376l-2 -28c-11 -128 43 -176 105 -176
c67 0 122 55 149 100zM178 543l-22 -252c105 103 192 207 201 319c6 69 -11 119 -70 119c-41 0 -97 -48 -109 -186z" />
    <glyph glyph-name="estimated" unicode="&#x212e;" horiz-adv-x="904" 
d="M870 340h-648c-3 0 -5 -1 -5 -4v-196c0 -9 3 -16 8 -23c63 -65 150 -106 245 -106c104 0 195 47 258 119h58c-72 -84 -188 -139 -317 -139c-220 0 -399 160 -399 359s179 360 399 360c222 0 401 -161 401 -360v-10zM723 365v198c0 8 -3 17 -10 23
c-63 62 -148 102 -243 102c-94 0 -181 -41 -244 -105c-6 -7 -9 -15 -9 -25v-193c0 -2 2 -6 5 -6h497c3 0 4 4 4 6z" />
    <glyph glyph-name="partialdiff" unicode="&#x2202;" horiz-adv-x="533" 
d="M136 689l-18 34c35 27 87 54 163 54c122 0 231 -117 209 -374c-20 -224 -118 -409 -287 -409c-125 0 -175 111 -165 227c14 152 124 250 233 250c98 0 152 -73 166 -105h1c2 14 4 35 6 49c17 201 -67 322 -170 322c-62 0 -108 -25 -138 -48zM210 34h1
c106 0 186 127 214 275c-13 49 -66 122 -152 122c-90 0 -176 -92 -186 -208c-9 -109 38 -189 123 -189z" />
    <glyph glyph-name="product" unicode="&#x220f;" horiz-adv-x="723" 
d="M696 649h-114v-745h-47v745h-313v-745h-47v745h-114v44h635v-44z" />
    <glyph glyph-name="summation" unicode="&#x2211;" horiz-adv-x="585" 
d="M562 -96h-505v34l283 359l-269 362v34h476v-43h-406v-3l256 -344l-274 -349v-3h439v-47z" />
    <glyph glyph-name="uni2219" unicode="&#x2219;" 
d="M83 292c0 31 25 56 56 56s56 -25 56 -56s-25 -56 -56 -56s-56 25 -56 56z" />
    <glyph glyph-name="radical" unicode="&#x221a;" horiz-adv-x="595" 
d="M593 820l-221 -973h-48l-166 474l-74 -28l-13 33l119 45l141 -398c5 -21 12 -47 16 -65h1c2 17 8 42 12 63l194 849h39z" />
    <glyph glyph-name="infinity" unicode="&#x221e;" horiz-adv-x="787" 
d="M735 289v-1c0 -91 -71 -151 -149 -151c-65 0 -113 46 -185 122c-53 -59 -109 -122 -191 -122c-80 0 -145 66 -145 148c0 86 64 152 151 152c76 0 135 -63 188 -124c57 63 109 124 190 124c87 0 141 -62 141 -148zM215 172h1c68 0 121 69 164 112c-46 54 -97 119 -172 119
c-67 0 -104 -58 -104 -119c0 -62 44 -112 111 -112zM590 403h-1c-71 0 -128 -80 -165 -115c69 -73 111 -116 167 -116c67 0 105 57 105 114c0 75 -46 117 -106 117z" />
    <glyph glyph-name="integral" unicode="&#x222b;" horiz-adv-x="373" 
d="M360 828l-12 -35c-8 6 -24 11 -37 11c-16 0 -37 -6 -51 -22c-27 -31 -37 -84 -37 -183c0 -152 13 -357 13 -511c0 -113 -23 -169 -47 -201c-19 -26 -50 -41 -84 -41c-23 0 -49 10 -59 17l12 36c8 -4 26 -13 46 -13c17 0 36 9 48 24c21 26 38 72 38 180
c0 154 -13 363 -13 514c0 105 13 165 50 203c23 24 52 35 82 35c19 0 41 -8 51 -14z" />
    <glyph glyph-name="approxequal" unicode="&#x2248;" horiz-adv-x="580" 
d="M507 418l23 -20c-25 -48 -61 -90 -125 -90c-41 0 -70 16 -120 43c-31 17 -63 34 -97 34c-48 0 -77 -35 -103 -76l-24 19c30 59 78 92 134 92c49 0 86 -29 115 -44c35 -18 59 -34 99 -34c42 0 69 25 98 76zM507 256l23 -20c-25 -48 -61 -90 -125 -90c-41 0 -70 16 -120 43
c-32 18 -63 34 -97 34c-49 0 -78 -36 -103 -76l-24 19c30 59 78 92 133 92c50 0 87 -28 116 -43c34 -18 60 -34 99 -34c42 0 69 24 98 75z" />
    <glyph glyph-name="notequal" unicode="&#x2260;" horiz-adv-x="589" 
d="M417 497l-49 -103h168v-36h-183l-72 -152h255v-35h-270l-57 -121l-29 15l50 106h-158v35h174l71 152h-245v36h260l56 118z" />
    <glyph glyph-name="lessequal" unicode="&#x2264;" horiz-adv-x="595" 
d="M540 93l-456 226v37l455 226v-44l-413 -198v-3l414 -200v-44zM542 14h-465v37h465v-37z" />
    <glyph glyph-name="greaterequal" unicode="&#x2265;" horiz-adv-x="595" 
d="M84 582l456 -226v-37l-456 -226v44l413 199v2l-413 200v44zM542 14h-464v37h464v-37z" />
    <glyph glyph-name="lozenge" unicode="&#x25ca;" horiz-adv-x="598" 
d="M540 346l-204 -390h-40l-203 390l204 391h40zM494 345l-158 301c-7 15 -15 36 -19 48h-2c-5 -14 -11 -31 -20 -48l-156 -298l159 -302c9 -20 15 -36 18 -47h3c3 11 11 33 18 46z" />
    <glyph glyph-name="uni00A0" unicode="&#xa0;" 
 />
    <glyph glyph-name="uni00AD" unicode="&#xad;" horiz-adv-x="352" 
d="M65 236l4 48h208l-4 -48h-208z" />
    <glyph glyph-name="uni02C9" unicode="&#x2c9;" 
d="M65 646l4 44h224l-4 -44h-224z" />
    <glyph glyph-name="zero.taboldstyle" unicode="&#xf643;" horiz-adv-x="556" 
d="M296 524c150 0 210 -126 210 -249c0 -136 -72 -287 -246 -287c-150 0 -210 126 -210 249c0 136 72 287 246 287zM102 236c0 -125 60 -204 163 -204c115 0 189 98 189 245c0 124 -60 203 -163 203c-115 0 -189 -98 -189 -244z" />
    <glyph glyph-name="one.taboldstyle" unicode="&#xf644;" horiz-adv-x="556" 
d="M125 0l4 44h104l38 424h-104l4 44h260l-4 -44h-104l-38 -424h104l-4 -44h-260z" />
    <glyph glyph-name="two.taboldstyle" unicode="&#xf645;" horiz-adv-x="556" 
d="M74 0l4 48c263 177 327 251 327 330c0 54 -40 98 -111 98c-81 0 -123 -38 -141 -116h-52c19 107 86 164 199 164c104 0 157 -64 157 -144c0 -103 -91 -198 -322 -334v-2h323l-4 -44h-380z" />
    <glyph glyph-name="three.taboldstyle" unicode="&#xf646;" horiz-adv-x="556" 
d="M162 155l5 44c108 0 239 53 239 173c0 64 -49 104 -118 104c-78 0 -132 -43 -146 -103h-52c21 101 93 151 204 151c103 0 164 -63 164 -147c0 -69 -44 -169 -181 -192v-2c108 -6 181 -72 181 -169c0 -101 -75 -214 -250 -214c-54 0 -122 11 -180 38l6 50
c55 -27 115 -40 169 -40c131 0 203 73 203 167c0 83 -71 140 -226 140h-18z" />
    <glyph glyph-name="four.taboldstyle" unicode="&#xf647;" horiz-adv-x="556" 
d="M325 91l28 314c2 23 5 42 8 55l-2 2c-8 -19 -20 -40 -36 -60l-219 -270c-15 -18 -30 -32 -41 -39v-2h262zM299 -192l22 239h-308l4 40l344 425h52l-37 -421h156l-4 -44h-156l-21 -239h-52z" />
    <glyph glyph-name="five.taboldstyle" unicode="&#xf648;" horiz-adv-x="556" 
d="M115 199l28 313h334l-4 -44h-285l-20 -221c192 -4 307 -60 307 -208c0 -128 -107 -239 -262 -239c-44 0 -103 6 -143 21l5 47c37 -17 89 -24 125 -24c141 0 223 80 223 191c0 133 -110 163 -308 164z" />
    <glyph glyph-name="six.taboldstyle" unicode="&#xf649;" horiz-adv-x="556" 
d="M523 705l-9 -45c-24 7 -50 10 -86 10c-167 0 -281 -104 -323 -335l2 -2c52 68 121 95 188 95c129 0 192 -94 192 -201c0 -127 -75 -239 -213 -239c-149 0 -221 128 -221 282c0 226 127 444 371 444c43 0 71 -5 99 -9zM105 284v-28c0 -131 63 -224 174 -224
c98 0 156 82 156 190c0 77 -38 158 -154 158c-68 0 -122 -27 -176 -96z" />
    <glyph glyph-name="seven.taboldstyle" unicode="&#xf64a;" horiz-adv-x="556" 
d="M483 512l-4 -38c-139 -243 -273 -541 -451 -674l-28 33c198 164 282 420 429 635h-357l4 44h407z" />
    <glyph glyph-name="eight.taboldstyle" unicode="&#xf64b;" horiz-adv-x="556" 
d="M106 540c0 100 80 174 204 174c138 0 183 -84 183 -148c0 -73 -43 -141 -164 -198c135 -64 172 -113 172 -193c0 -91 -59 -187 -233 -187c-152 0 -213 80 -213 178c0 85 62 145 189 200c-107 53 -138 101 -138 174zM445 561c0 56 -46 113 -135 113
c-103 0 -156 -70 -156 -131c0 -50 33 -107 136 -153c111 50 155 113 155 171zM107 163c0 -90 60 -135 170 -135c115 0 176 59 176 144c0 54 -21 97 -173 173c-148 -74 -173 -129 -173 -182z" />
    <glyph glyph-name="nine.taboldstyle" unicode="&#xf64c;" horiz-adv-x="556" 
d="M23 -180l9 42c28 -7 59 -10 87 -10c222 0 304 193 313 339l-2 2c-38 -63 -105 -95 -174 -95c-96 0 -198 66 -198 209c0 124 89 217 217 217c87 0 209 -56 209 -279c0 -270 -150 -437 -357 -437c-41 0 -76 5 -104 12zM110 309c0 -104 66 -163 161 -163c64 0 127 35 161 92
v22c0 148 -71 220 -166 220c-84 0 -156 -67 -156 -171z" />
    <glyph glyph-name="dollar.taboldstyle" unicode="&#xf653;" horiz-adv-x="556" 
d="M215 -144l12 134c-88 4 -168 24 -193 36l11 134h44l-3 -100c38 -14 116 -26 145 -26l28 309c-155 47 -191 102 -191 176c0 148 137 186 224 191l11 124h44l-11 -124c58 -3 115 -13 157 -30l-6 -124h-41v92c-29 9 -74 18 -114 18l-25 -282c107 -36 200 -70 200 -185
c0 -139 -122 -200 -236 -209l-12 -134h-44zM264 396l24 270c-86 -3 -164 -53 -164 -142c0 -72 49 -94 140 -128zM302 329l-27 -295c80 9 176 54 176 162c0 75 -56 99 -149 133z" />
    <glyph glyph-name="cent.taboldstyle" unicode="&#xf654;" horiz-adv-x="556" 
d="M258 37l39 443c-105 -14 -155 -136 -155 -264c0 -88 34 -164 116 -179zM243 -131l11 121c-105 11 -164 96 -164 226c0 222 121 301 211 308l9 107h40l-9 -107c48 0 100 -10 132 -20l-12 -118h-44l4 82c-21 6 -52 12 -84 12l-39 -446c47 0 107 20 143 45l-7 -54
c-45 -25 -94 -35 -140 -35l-11 -121h-40z" />
    <glyph glyph-name="f_i.sc" unicode="&#xe03d;" horiz-adv-x="759" 
d="M35 0l4 44h68l40 450h-83l4 44h355l-4 -124h-41l-2 80h-177l-18 -208h185l-4 -44h-185l-18 -198h83l-4 -44h-203zM493 0l4 44h68l40 450h-83l4 44h203l-4 -44h-68l-40 -450h83l-4 -44h-203z" />
    <glyph glyph-name="f_l.sc" unicode="&#xe03e;" horiz-adv-x="870" 
d="M35 0l4 44h68l40 450h-83l4 44h355l-4 -124h-41l-2 80h-177l-18 -208h185l-4 -44h-185l-18 -198h83l-4 -44h-203zM493 0l4 44h68l40 450h-83l4 44h203l-4 -44h-68l-40 -450h192l14 86h41l-18 -130h-353z" />
    <glyph glyph-name="germandbls.sc" unicode="&#xe03f;" horiz-adv-x="926" 
d="M402 414h-42l-2 76c-33 9 -62 13 -90 13c-94 0 -129 -51 -129 -98c0 -145 266 -72 266 -256c0 -86 -68 -158 -199 -158c-45 0 -106 12 -148 27l2 118h42l2 -85c27 -9 64 -16 99 -16c90 0 150 43 150 115c0 137 -266 74 -266 249c0 92 75 148 183 148c42 0 72 -3 134 -24z
M865 414h-42l-2 76c-33 9 -62 13 -90 13c-94 0 -129 -51 -129 -98c0 -145 266 -72 266 -256c0 -86 -68 -158 -199 -158c-45 0 -106 12 -148 27l2 118h42l2 -85c27 -9 64 -16 99 -16c90 0 150 43 150 115c0 137 -266 74 -266 249c0 92 75 148 183 148c42 0 72 -3 134 -24z
" />
    <glyph glyph-name="uni2215" unicode="&#x2215;" horiz-adv-x="167" 
d="M-166 -27l462 775l37 -21l-462 -775z" />
    <glyph glyph-name="A.sc" unicode="&#xe000;" horiz-adv-x="519" 
d="M177 262h153l-47 184c-5 20 -7 41 -8 56h-2c-3 -14 -10 -37 -19 -58zM-28 0l4 44h56l219 498h52l138 -498h65l-4 -44h-192l4 44h71l-45 178h-180l-76 -178h77l-4 -44h-185z" />
    <glyph glyph-name="B.sc" unicode="&#xe008;" horiz-adv-x="481" 
d="M173 258l-19 -214h90c84 0 122 58 122 117c0 63 -42 97 -121 97h-72zM194 494l-16 -192h49c80 0 129 56 129 117c0 52 -34 75 -89 75h-73zM30 0l4 44h68l40 450h-83l4 44h222c75 0 119 -46 119 -116c0 -63 -29 -108 -107 -134v-2c74 -4 121 -49 121 -125
c0 -96 -62 -161 -169 -161h-219z" />
    <glyph glyph-name="C.sc" unicode="&#xe009;" horiz-adv-x="500" 
d="M438 129l-12 -115c-45 -19 -103 -23 -140 -23c-151 0 -234 96 -234 248c0 200 122 308 277 308c46 0 83 -6 135 -22l-4 -117h-42v82c-34 8 -64 13 -93 13c-140 0 -221 -98 -221 -250c0 -117 39 -214 196 -214c25 0 69 5 86 9l12 81h40z" />
    <glyph glyph-name="D.sc" unicode="&#xe00b;" horiz-adv-x="593" 
d="M30 0l4 44h68l40 450h-83l4 44h252c135 0 225 -67 225 -238c0 -168 -101 -300 -265 -300h-245zM194 494l-40 -450h99c77 0 119 16 164 61c42 41 71 117 71 191c0 132 -61 198 -182 198h-112z" />
    <glyph glyph-name="E.sc" unicode="&#xe00c;" horiz-adv-x="500" 
d="M35 0l4 44h68l40 450h-83l4 44h359l-2 -124h-42l-2 80h-182l-18 -198h178l-4 -44h-178l-18 -208h192l14 86h41l-18 -130h-353z" />
    <glyph glyph-name="F.sc" unicode="&#xe012;" horiz-adv-x="463" 
d="M35 0l4 44h68l40 450h-83l4 44h355l-4 -124h-41l-2 80h-177l-18 -208h185l-4 -44h-185l-18 -198h83l-4 -44h-203z" />
    <glyph glyph-name="G.sc" unicode="&#xe013;" horiz-adv-x="556" 
d="M470 528v-120h-42l-4 83c-29 8 -59 12 -99 12c-140 0 -221 -98 -221 -250c0 -117 39 -214 196 -214c38 0 65 3 95 13l9 121h-81l4 44h193l-4 -44h-62l-13 -154c-46 -20 -95 -28 -155 -28c-151 0 -234 96 -234 248c0 200 122 308 277 308c49 0 98 -8 141 -19z" />
    <glyph glyph-name="H.sc" unicode="&#xe014;" horiz-adv-x="630" 
d="M35 0l4 44h68l40 450h-83l4 44h203l-4 -44h-68l-18 -208h272l18 208h-83l4 44h203l-4 -44h-68l-40 -450h83l-4 -44h-203l4 44h68l18 198h-272l-18 -198h83l-4 -44h-203z" />
    <glyph glyph-name="I.sc" unicode="&#xe015;" horiz-adv-x="296" 
d="M30 0l4 44h68l40 450h-83l4 44h203l-4 -44h-68l-40 -450h83l-4 -44h-203z" />
    <glyph glyph-name="J.sc" unicode="&#xe01a;" 
d="M-32 -147l-16 40c127 60 148 122 160 261l30 340h-83l4 44h203l-4 -44h-68l-29 -332c-12 -139 -26 -238 -197 -309z" />
    <glyph glyph-name="K.sc" unicode="&#xe01b;" horiz-adv-x="537" 
d="M35 0l4 44h68l40 450h-83l4 44h203l-4 -44h-68l-19 -209l238 209h-80l4 44h185l-4 -44h-43l-252 -220l215 -230h59l-4 -44h-192l4 44h70l-201 220l-20 -220h83l-4 -44h-203z" />
    <glyph glyph-name="L.sc" unicode="&#xe01c;" horiz-adv-x="407" 
d="M30 0l4 44h68l40 450h-83l4 44h203l-4 -44h-68l-40 -450h192l14 86h41l-18 -130h-353z" />
    <glyph glyph-name="M.sc" unicode="&#xe01e;" horiz-adv-x="741" 
d="M40 0l4 44h68l40 450h-83l4 44h138l137 -424c7 -23 13 -45 16 -66h2c5 22 12 43 22 66l192 424h123l-4 -44h-68l-28 -450h83l-4 -44h-199l4 44h64l28 347c2 20 3 37 8 62l-2 2c-7 -23 -13 -42 -21 -58l-180 -397h-48l-125 391c-7 21 -13 43 -14 64h-2
c0 -21 -1 -38 -3 -57l-32 -354h83l-4 -44h-199z" />
    <glyph glyph-name="N.sc" unicode="&#xe01f;" horiz-adv-x="648" 
d="M40 0l4 44h68l40 450h-83l4 44h130l239 -400c15 -25 26 -49 35 -74h2c0 25 0 49 2 80l28 350h-83l4 44h199l-4 -44h-68l-44 -494h-48l-243 410c-14 23 -24 44 -29 62h-2c0 -19 1 -45 -1 -67l-26 -361h83l-4 -44h-203z" />
    <glyph glyph-name="O.sc" unicode="&#xe021;" horiz-adv-x="574" 
d="M522 300c0 -212 -129 -309 -258 -309c-131 0 -212 100 -212 246c0 216 126 310 254 310c138 0 216 -100 216 -247zM470 288c0 124 -49 211 -171 211c-119 0 -195 -111 -195 -254c0 -119 52 -206 171 -206c122 0 195 106 195 249z" />
    <glyph glyph-name="P.sc" unicode="&#xe029;" horiz-adv-x="444" 
d="M30 0l4 44h68l40 450h-83l4 44h188c111 0 163 -53 163 -135c0 -129 -92 -177 -176 -177h-68l-16 -182h83l-4 -44h-203zM194 494l-20 -228h65c86 0 123 56 123 132c0 58 -32 96 -99 96h-69z" />
    <glyph glyph-name="Q.sc" unicode="&#xe02a;" horiz-adv-x="574" 
d="M559 -92l-3 -44c-25 -4 -42 -7 -52 -7c-106 0 -208 123 -274 137c-111 15 -178 110 -178 243c0 216 126 310 254 310c138 0 216 -100 216 -247c0 -183 -96 -281 -205 -301v-2c63 -11 106 -96 194 -96c15 0 30 3 48 7zM470 288c0 124 -49 211 -171 211
c-119 0 -195 -111 -195 -254c0 -119 52 -206 171 -206c122 0 195 106 195 249z" />
    <glyph glyph-name="R.sc" unicode="&#xe02b;" horiz-adv-x="500" 
d="M30 0l4 44h68l40 450h-83l4 44h200c111 0 147 -52 147 -136c0 -83 -49 -132 -139 -151v-2c15 -4 31 -21 42 -39l72 -115c27 -44 40 -51 64 -51h32l-4 -44h-58c-30 0 -44 10 -63 43l-92 159c-22 37 -32 44 -80 44h-12l-18 -202h83l-4 -44h-203zM194 494l-19 -208h64
c82 0 123 61 123 121c0 55 -32 87 -97 87h-71z" />
    <glyph glyph-name="S.sc" unicode="&#xe02c;" horiz-adv-x="463" 
d="M402 414h-42l-2 76c-33 9 -62 13 -90 13c-94 0 -129 -51 -129 -98c0 -145 266 -72 266 -256c0 -86 -68 -158 -199 -158c-45 0 -106 12 -148 27l2 118h42l2 -85c27 -9 64 -16 99 -16c90 0 150 43 150 115c0 137 -266 74 -266 249c0 92 75 148 183 148c42 0 72 -3 134 -24z
" />
    <glyph glyph-name="T.sc" unicode="&#xe02e;" horiz-adv-x="481" 
d="M468 538v-124h-42l-4 80h-144l-40 -450h83l-4 -44h-203l4 44h68l40 450h-147l-16 -80h-44l18 124h431z" />
    <glyph glyph-name="U.sc" unicode="&#xe030;" horiz-adv-x="611" 
d="M586 538l-4 -44h-61l-29 -326c-11 -124 -78 -177 -197 -177c-154 0 -190 69 -190 137c0 38 8 118 30 366h-83l4 44h203l-4 -44h-68c-20 -229 -30 -330 -30 -362c0 -61 47 -97 138 -97c102 0 142 54 149 136l29 323h-83l4 44h192z" />
    <glyph glyph-name="V.sc" unicode="&#xe035;" horiz-adv-x="500" 
d="M-1 494l4 44h189l-4 -44h-71l106 -383c7 -23 10 -41 12 -67h2c5 26 13 46 21 67l160 383h-80l4 44h189l-4 -44h-57l-212 -498h-52l-141 498h-66z" />
    <glyph glyph-name="W.sc" unicode="&#xe036;" horiz-adv-x="759" 
d="M280 494l4 44h196l-4 -44h-78l97 -383c6 -24 10 -41 12 -67h2c6 26 11 43 18 62l150 388h-80l4 44h189l-4 -44h-57l-204 -498h-48l-88 336h-2l-143 -336h-48l-131 498h-66l4 44h189l-4 -44h-71l94 -376c6 -23 12 -47 12 -74h2c8 30 16 51 27 75l121 274l-27 101h-66z" />
    <glyph glyph-name="X.sc" unicode="&#xe037;" horiz-adv-x="519" 
d="M-13 0l4 44h54l184 234l-131 216h-63l4 44h192l-4 -44h-77c12 -14 19 -23 26 -35l83 -141l109 141c12 15 21 25 34 33v2h-83l4 44h185l-4 -44h-54l-169 -216l144 -234h63l-4 -44h-192l4 44h77c-8 7 -18 19 -27 34l-95 160l-120 -159c-9 -12 -21 -26 -34 -33v-2h83l-4 -44
h-189z" />
    <glyph glyph-name="Y.sc" unicode="&#xe038;" horiz-adv-x="481" 
d="M132 0l4 44h68l17 185l-153 265h-64l4 44h192l-4 -44h-80c8 -7 20 -21 31 -40l105 -181l120 180c13 20 22 32 34 39v2h-83l4 44h185l-4 -44h-54l-181 -264l-17 -186h83l-4 -44h-203z" />
    <glyph glyph-name="Z.sc" unicode="&#xe03b;" horiz-adv-x="463" 
d="M101 412h-41l12 126h372l-4 -39l-323 -411c-12 -16 -31 -35 -43 -42v-2h283l16 83h41l-16 -127h-379l4 44l321 410c12 15 26 31 39 38v2h-272z" />
    <glyph glyph-name="Lslash.sc" unicode="&#xe01d;" horiz-adv-x="407" 
d="M30 0l4 44h68l15 169l-76 -49l4 48l76 49l21 233h-83l4 44h203l-4 -44h-68l-18 -198l148 94l-4 -48l-148 -94l-18 -204h192l14 86h41l-18 -130h-353z" />
    <glyph glyph-name="Scaron.sc" unicode="&#xe02d;" horiz-adv-x="463" 
d="M402 414h-42l-2 76c-33 9 -62 13 -90 13c-94 0 -129 -51 -129 -98c0 -145 266 -72 266 -256c0 -86 -68 -158 -199 -158c-45 0 -106 12 -148 27l2 118h42l2 -85c27 -9 64 -16 99 -16c90 0 150 43 150 115c0 137 -266 74 -266 249c0 92 75 148 183 148c42 0 72 -3 134 -24z
M398 713l-129 -101h-42l-113 101l40 28l98 -93l112 93z" />
    <glyph glyph-name="Zcaron.sc" unicode="&#xe03c;" horiz-adv-x="463" 
d="M101 412h-41l12 126h372l-4 -39l-323 -411c-12 -16 -31 -35 -43 -42v-2h283l16 83h41l-16 -127h-379l4 44l321 410c12 15 26 31 39 38v2h-272zM388 713l-129 -101h-42l-113 101l40 28l98 -93l112 93z" />
    <glyph glyph-name="Agrave.sc" unicode="&#xe005;" horiz-adv-x="519" 
d="M177 262h153l-47 184c-5 20 -7 41 -8 56h-2c-3 -14 -10 -37 -19 -58zM-28 0l4 44h56l219 498h52l138 -498h65l-4 -44h-192l4 44h71l-45 178h-180l-76 -178h77l-4 -44h-185zM212 745l124 -120l-34 -29l-130 121z" />
    <glyph glyph-name="Aacute.sc" unicode="&#xe002;" horiz-adv-x="519" 
d="M177 262h153l-47 184c-5 20 -7 41 -8 56h-2c-3 -14 -10 -37 -19 -58zM-28 0l4 44h56l219 498h52l138 -498h65l-4 -44h-192l4 44h71l-45 178h-180l-76 -178h77l-4 -44h-185zM427 718l-149 -122l-33 28l142 121z" />
    <glyph glyph-name="Acircumflex.sc" unicode="&#xe003;" horiz-adv-x="519" 
d="M177 262h153l-47 184c-5 20 -7 41 -8 56h-2c-3 -14 -10 -37 -19 -58zM-28 0l4 44h56l219 498h52l138 -498h65l-4 -44h-192l4 44h71l-45 178h-180l-76 -178h77l-4 -44h-185zM158 640l129 101h42l113 -101l-40 -28l-98 93l-112 -93z" />
    <glyph glyph-name="Atilde.sc" unicode="&#xe007;" horiz-adv-x="519" 
d="M177 262h153l-47 184c-5 20 -7 41 -8 56h-2c-3 -14 -10 -37 -19 -58zM-28 0l4 44h56l219 498h52l138 -498h65l-4 -44h-192l4 44h71l-45 178h-180l-76 -178h77l-4 -44h-185zM417 700l36 -27c-12 -22 -39 -64 -88 -64c-21 0 -45 14 -67 29s-42 28 -58 28
c-28 0 -40 -29 -50 -52l-41 18c11 34 43 82 88 82c29 0 53 -14 73 -28c21 -15 38 -29 55 -29c24 0 38 22 52 43z" />
    <glyph glyph-name="Adieresis.sc" unicode="&#xe004;" horiz-adv-x="519" 
d="M177 262h153l-47 184c-5 20 -7 41 -8 56h-2c-3 -14 -10 -37 -19 -58zM-28 0l4 44h56l219 498h52l138 -498h65l-4 -44h-192l4 44h71l-45 178h-180l-76 -178h77l-4 -44h-185zM204 632c-24 0 -38 14 -38 36c0 18 9 46 44 46c21 0 34 -16 34 -37c0 -11 -8 -45 -40 -45z
M402 632c-24 0 -38 14 -38 36c0 18 9 46 44 46c21 0 34 -16 34 -37c0 -11 -8 -45 -40 -45z" />
    <glyph glyph-name="Aring.sc" unicode="&#xe006;" horiz-adv-x="519" 
d="M177 262h153l-47 184c-5 20 -7 41 -8 56h-2c-3 -14 -10 -37 -19 -58zM-28 0l4 44h56l219 498h52l138 -498h65l-4 -44h-192l4 44h71l-45 178h-180l-76 -178h77l-4 -44h-185zM226 666c0 -27 16 -50 45 -50c37 0 49 34 49 60c0 27 -11 51 -43 51s-51 -29 -51 -61zM186 662
c0 47 34 101 95 101c43 0 79 -29 79 -84c0 -62 -41 -99 -95 -99c-50 0 -79 38 -79 82z" />
    <glyph glyph-name="AE.sc" unicode="&#xe001;" horiz-adv-x="685" 
d="M-28 0l4 44h55l317 494h334l-3 -124h-41l-3 80h-166l-18 -208h179l-4 -44h-179l-18 -198h192l14 86h41l-18 -130h-353l4 44h68l18 198h-183l-126 -198h75l-4 -44h-185zM399 286l18 208h-45l-132 -208h159z" />
    <glyph glyph-name="Ccedilla.sc" unicode="&#xe00a;" horiz-adv-x="500" 
d="M464 525l-4 -117h-42v82c-34 8 -64 13 -93 13c-140 0 -221 -98 -221 -250c0 -117 39 -214 196 -214c25 0 69 5 86 9l12 81h40l-12 -115c-45 -19 -103 -23 -140 -23c-2 0 -4 0 -6 1l-7 -56c43 0 85 -14 85 -63c0 -41 -36 -86 -109 -86c-32 0 -57 7 -81 15l3 43
c21 -7 51 -14 77 -14c32 0 54 10 54 38c0 26 -30 35 -52 35c-9 0 -16 -2 -21 -3l7 95c-119 19 -184 109 -184 243c0 200 122 308 277 308c46 0 83 -6 135 -22z" />
    <glyph glyph-name="Egrave.sc" unicode="&#xe010;" horiz-adv-x="500" 
d="M35 0l4 44h68l40 450h-83l4 44h359l-2 -124h-42l-2 80h-182l-18 -198h178l-4 -44h-178l-18 -208h192l14 86h41l-18 -130h-353zM222 745l124 -120l-34 -29l-130 121z" />
    <glyph glyph-name="Eacute.sc" unicode="&#xe00d;" horiz-adv-x="500" 
d="M35 0l4 44h68l40 450h-83l4 44h359l-2 -124h-42l-2 80h-182l-18 -198h178l-4 -44h-178l-18 -208h192l14 86h41l-18 -130h-353zM437 718l-149 -122l-33 28l142 121z" />
    <glyph glyph-name="Ecircumflex.sc" unicode="&#xe00e;" horiz-adv-x="500" 
d="M35 0l4 44h68l40 450h-83l4 44h359l-2 -124h-42l-2 80h-182l-18 -198h178l-4 -44h-178l-18 -208h192l14 86h41l-18 -130h-353zM168 640l129 101h42l113 -101l-40 -28l-98 93l-112 -93z" />
    <glyph glyph-name="Edieresis.sc" unicode="&#xe00f;" horiz-adv-x="500" 
d="M35 0l4 44h68l40 450h-83l4 44h359l-2 -124h-42l-2 80h-182l-18 -198h178l-4 -44h-178l-18 -208h192l14 86h41l-18 -130h-353zM214 632c-24 0 -38 14 -38 36c0 18 9 46 44 46c21 0 34 -16 34 -37c0 -11 -8 -45 -40 -45zM412 632c-24 0 -38 14 -38 36c0 18 9 46 44 46
c21 0 34 -16 34 -37c0 -11 -8 -45 -40 -45z" />
    <glyph glyph-name="Igrave.sc" unicode="&#xe019;" horiz-adv-x="296" 
d="M30 0l4 44h68l40 450h-83l4 44h203l-4 -44h-68l-40 -450h83l-4 -44h-203zM100 745l124 -120l-34 -29l-130 121z" />
    <glyph glyph-name="Iacute.sc" unicode="&#xe016;" horiz-adv-x="296" 
d="M30 0l4 44h68l40 450h-83l4 44h203l-4 -44h-68l-40 -450h83l-4 -44h-203zM315 718l-149 -122l-33 28l142 121z" />
    <glyph glyph-name="Icircumflex.sc" unicode="&#xe017;" horiz-adv-x="296" 
d="M30 0l4 44h68l40 450h-83l4 44h203l-4 -44h-68l-40 -450h83l-4 -44h-203zM36 640l129 101h42l113 -101l-40 -28l-98 93l-112 -93z" />
    <glyph glyph-name="Idieresis.sc" unicode="&#xe018;" horiz-adv-x="296" 
d="M30 0l4 44h68l40 450h-83l4 44h203l-4 -44h-68l-40 -450h83l-4 -44h-203zM92 632c-24 0 -38 14 -38 36c0 18 9 46 44 46c21 0 34 -16 34 -37c0 -11 -8 -45 -40 -45zM290 632c-24 0 -38 14 -38 36c0 18 9 46 44 46c21 0 34 -16 34 -37c0 -11 -8 -45 -40 -45z" />
    <glyph glyph-name="Eth.sc" unicode="&#xe011;" horiz-adv-x="593" 
d="M30 0l4 44h68l19 214h-75l4 44h75l17 192h-83l4 44h252c135 0 225 -67 225 -238c0 -168 -101 -300 -265 -300h-245zM194 494l-17 -192h143l-4 -44h-143l-19 -214h99c77 0 119 16 164 61c42 41 71 117 71 191c0 132 -61 198 -182 198h-112z" />
    <glyph glyph-name="Ntilde.sc" unicode="&#xe020;" horiz-adv-x="648" 
d="M40 0l4 44h68l40 450h-83l4 44h130l239 -400c15 -25 26 -49 35 -74h2c0 25 0 49 2 80l28 350h-83l4 44h199l-4 -44h-68l-44 -494h-48l-243 410c-14 23 -24 44 -29 62h-2c0 -19 1 -45 -1 -67l-26 -361h83l-4 -44h-203zM471 700l36 -27c-12 -22 -39 -64 -88 -64
c-21 0 -45 14 -67 29s-42 28 -58 28c-28 0 -40 -29 -50 -52l-41 18c11 34 43 82 88 82c29 0 53 -14 73 -28c21 -15 38 -29 55 -29c24 0 38 22 52 43z" />
    <glyph glyph-name="Ograve.sc" unicode="&#xe026;" horiz-adv-x="574" 
d="M522 300c0 -212 -129 -309 -258 -309c-131 0 -212 100 -212 246c0 216 126 310 254 310c138 0 216 -100 216 -247zM470 288c0 124 -49 211 -171 211c-119 0 -195 -111 -195 -254c0 -119 52 -206 171 -206c122 0 195 106 195 249zM239 745l124 -120l-34 -29l-130 121z" />
    <glyph glyph-name="Oacute.sc" unicode="&#xe023;" horiz-adv-x="574" 
d="M522 300c0 -212 -129 -309 -258 -309c-131 0 -212 100 -212 246c0 216 126 310 254 310c138 0 216 -100 216 -247zM470 288c0 124 -49 211 -171 211c-119 0 -195 -111 -195 -254c0 -119 52 -206 171 -206c122 0 195 106 195 249zM454 718l-149 -122l-33 28l142 121z" />
    <glyph glyph-name="Ocircumflex.sc" unicode="&#xe024;" horiz-adv-x="574" 
d="M522 300c0 -212 -129 -309 -258 -309c-131 0 -212 100 -212 246c0 216 126 310 254 310c138 0 216 -100 216 -247zM470 288c0 124 -49 211 -171 211c-119 0 -195 -111 -195 -254c0 -119 52 -206 171 -206c122 0 195 106 195 249zM185 640l129 101h42l113 -101l-40 -28
l-98 93l-112 -93z" />
    <glyph glyph-name="Otilde.sc" unicode="&#xe028;" horiz-adv-x="574" 
d="M522 300c0 -212 -129 -309 -258 -309c-131 0 -212 100 -212 246c0 216 126 310 254 310c138 0 216 -100 216 -247zM470 288c0 124 -49 211 -171 211c-119 0 -195 -111 -195 -254c0 -119 52 -206 171 -206c122 0 195 106 195 249zM444 700l36 -27c-12 -22 -39 -64 -88 -64
c-21 0 -45 14 -67 29s-42 28 -58 28c-28 0 -40 -29 -50 -52l-41 18c11 34 43 82 88 82c29 0 53 -14 73 -28c21 -15 38 -29 55 -29c24 0 38 22 52 43z" />
    <glyph glyph-name="Odieresis.sc" unicode="&#xe025;" horiz-adv-x="574" 
d="M522 300c0 -212 -129 -309 -258 -309c-131 0 -212 100 -212 246c0 216 126 310 254 310c138 0 216 -100 216 -247zM470 288c0 124 -49 211 -171 211c-119 0 -195 -111 -195 -254c0 -119 52 -206 171 -206c122 0 195 106 195 249zM231 632c-24 0 -38 14 -38 36
c0 18 9 46 44 46c21 0 34 -16 34 -37c0 -11 -8 -45 -40 -45zM429 632c-24 0 -38 14 -38 36c0 18 9 46 44 46c21 0 34 -16 34 -37c0 -11 -8 -45 -40 -45z" />
    <glyph glyph-name="OE.sc" unicode="&#xe022;" horiz-adv-x="759" 
d="M378 44l40 450c-19 2 -49 4 -86 4c-156 0 -228 -126 -228 -258c0 -126 59 -200 212 -200c16 0 48 2 62 4zM677 130l-18 -130h-283c-28 0 -60 -2 -92 -2c-169 0 -232 99 -232 232c0 155 79 310 289 310c32 0 57 -2 82 -2h275l-2 -124h-42l-2 80h-182l-18 -198h178l-4 -44
h-178l-18 -208h192l14 86h41z" />
    <glyph glyph-name="Oslash.sc" unicode="&#xe027;" horiz-adv-x="574" 
d="M435 432l-268 -356c26 -24 62 -37 108 -37c122 0 195 106 195 249c0 58 -11 108 -35 144zM139 108l269 355c-26 23 -62 36 -109 36c-119 0 -195 -111 -195 -254c0 -55 11 -102 35 -137zM37 -28l69 92c-35 42 -54 102 -54 173c0 216 126 310 254 310c53 0 98 -15 133 -42
l65 86l33 -25l-69 -91c36 -43 54 -104 54 -175c0 -212 -129 -309 -258 -309c-50 0 -93 15 -128 43l-66 -87z" />
    <glyph glyph-name="Ugrave.sc" unicode="&#xe034;" horiz-adv-x="611" 
d="M586 538l-4 -44h-61l-29 -326c-11 -124 -78 -177 -197 -177c-154 0 -190 69 -190 137c0 38 8 118 30 366h-83l4 44h203l-4 -44h-68c-20 -229 -30 -330 -30 -362c0 -61 47 -97 138 -97c102 0 142 54 149 136l29 323h-83l4 44h192zM258 745l124 -120l-34 -29l-130 121z" />
    <glyph glyph-name="Uacute.sc" unicode="&#xe031;" horiz-adv-x="611" 
d="M586 538l-4 -44h-61l-29 -326c-11 -124 -78 -177 -197 -177c-154 0 -190 69 -190 137c0 38 8 118 30 366h-83l4 44h203l-4 -44h-68c-20 -229 -30 -330 -30 -362c0 -61 47 -97 138 -97c102 0 142 54 149 136l29 323h-83l4 44h192zM473 718l-149 -122l-33 28l142 121z" />
    <glyph glyph-name="Ucircumflex.sc" unicode="&#xe032;" horiz-adv-x="611" 
d="M586 538l-4 -44h-61l-29 -326c-11 -124 -78 -177 -197 -177c-154 0 -190 69 -190 137c0 38 8 118 30 366h-83l4 44h203l-4 -44h-68c-20 -229 -30 -330 -30 -362c0 -61 47 -97 138 -97c102 0 142 54 149 136l29 323h-83l4 44h192zM194 640l129 101h42l113 -101l-40 -28
l-98 93l-112 -93z" />
    <glyph glyph-name="Udieresis.sc" unicode="&#xe033;" horiz-adv-x="611" 
d="M586 538l-4 -44h-61l-29 -326c-11 -124 -78 -177 -197 -177c-154 0 -190 69 -190 137c0 38 8 118 30 366h-83l4 44h203l-4 -44h-68c-20 -229 -30 -330 -30 -362c0 -61 47 -97 138 -97c102 0 142 54 149 136l29 323h-83l4 44h192zM240 632c-24 0 -38 14 -38 36
c0 18 9 46 44 46c21 0 34 -16 34 -37c0 -11 -8 -45 -40 -45zM438 632c-24 0 -38 14 -38 36c0 18 9 46 44 46c21 0 34 -16 34 -37c0 -11 -8 -45 -40 -45z" />
    <glyph glyph-name="Yacute.sc" unicode="&#xe039;" horiz-adv-x="481" 
d="M132 0l4 44h68l17 185l-153 265h-64l4 44h192l-4 -44h-80c8 -7 20 -21 31 -40l105 -181l120 180c13 20 22 32 34 39v2h-83l4 44h185l-4 -44h-54l-181 -264l-17 -186h83l-4 -44h-203zM408 718l-149 -122l-33 28l142 121z" />
    <glyph glyph-name="Thorn.sc" unicode="&#xe02f;" horiz-adv-x="444" 
d="M30 0l4 44h68l40 450h-83l4 44h203l-4 -44h-68l-5 -52h53c111 0 163 -53 163 -135c0 -129 -92 -177 -176 -177h-67l-8 -86h83l-4 -44h-203zM185 398l-20 -228h65c86 0 123 56 123 132c0 58 -32 96 -99 96h-69z" />
    <glyph glyph-name="Ydieresis.sc" unicode="&#xe03a;" horiz-adv-x="481" 
d="M132 0l4 44h68l17 185l-153 265h-64l4 44h192l-4 -44h-80c8 -7 20 -21 31 -40l105 -181l120 180c13 20 22 32 34 39v2h-83l4 44h185l-4 -44h-54l-181 -264l-17 -186h83l-4 -44h-203zM165 632c-24 0 -38 14 -38 36c0 18 9 46 44 46c21 0 34 -16 34 -37
c0 -11 -8 -45 -40 -45zM363 632c-24 0 -38 14 -38 36c0 18 9 46 44 46c21 0 34 -16 34 -37c0 -11 -8 -45 -40 -45z" />
    <glyph glyph-name="uni03A9" unicode="&#x3a9;" horiz-adv-x="729" 
d="M190 41v3c-71 65 -128 177 -115 323c18 205 163 338 328 338c173 0 278 -151 262 -335c-13 -153 -96 -269 -173 -326v-3h158l-3 -41h-229l2 30c89 55 182 173 196 333c11 134 -56 301 -217 301c-152 0 -261 -137 -275 -302c-13 -151 59 -279 136 -332l-2 -30h-229l4 41
h157z" />
    </font>
</defs>
</svg>
